<svg xmlns="http://www.w3.org/2000/svg" width="250" height="250" viewBox="0 0 250 250" fill="none"><path d="M175.311 191.875C177.511 194.066 180.487 195.301 183.592 195.313C186.697 195.301 189.673 194.066 191.873 191.875C192.969 190.792 193.84 189.503 194.433 188.081C195.027 186.66 195.333 185.134 195.333 183.594C195.333 182.053 195.027 180.528 194.433 179.106C193.84 177.685 192.969 176.395 191.873 175.313L141.562 125.001L191.875 74.6875C193.026 73.6147 193.95 72.3209 194.59 70.8834C195.231 69.4459 195.575 67.8942 195.603 66.3207C195.631 64.7472 195.341 63.1842 194.752 61.7251C194.162 60.2659 193.285 58.9403 192.172 57.8275C191.06 56.7148 189.734 55.8375 188.275 55.2481C186.816 54.6587 185.253 54.3693 183.679 54.397C182.106 54.4248 180.554 54.7692 179.116 55.4097C177.679 56.0502 176.385 56.9737 175.312 58.125L124.999 108.438L74.6859 58.125C73.613 56.9737 72.3193 56.0502 70.8818 55.4097C69.4443 54.7692 67.8925 54.4248 66.319 54.397C64.7456 54.3693 63.1826 54.6587 61.7234 55.2481C60.2642 55.8375 58.9387 56.7148 57.8259 57.8275C56.7131 58.9403 55.8358 60.2659 55.2465 61.7251C54.6571 63.1842 54.3676 64.7472 54.3954 66.3207C54.4231 67.8942 54.7675 69.4459 55.408 70.8834C56.0485 72.3209 56.972 73.6147 58.1234 74.6875L108.437 125.001L58.1249 175.313C57.0289 176.395 56.1587 177.685 55.5648 179.106C54.9709 180.528 54.665 182.053 54.665 183.594C54.665 185.134 54.9709 186.66 55.5648 188.081C56.1587 189.503 57.0289 190.792 58.1249 191.875C60.3253 194.066 63.3009 195.301 66.4061 195.313C69.5114 195.301 72.487 194.066 74.6874 191.875L124.999 141.563L175.311 191.875Z" fill="#A32222" /></svg>