<svg width="357" height="156" viewBox="0 0 357 156" fill="none" xmlns="http://www.w3.org/2000/svg"><g opacity="0.5"><g clip-path="url(#clip0)"><g opacity="0.8"><g clip-path="url(#clip1)"><path d="M456.859 63.4124C455.047 64.1196 453.135 64.7258 451.223 65.3319C421.736 75.0309 373.229 85.3361 310.734 49.268" stroke="#DDFBC7" stroke-width="2" stroke-miterlimit="10" /><path d="M355.417 68.5649C366.285 62.5031 341.428 27.6474 342.133 34.7196C342.938 44.5196 343.843 66.4433 355.417 68.5649Z" fill="#DDFBC7" /><path d="M386.815 74.2227C368.197 77.3546 347.466 116.656 355.316 115.544C371.116 113.12 392.954 103.825 386.815 74.2227Z" fill="#414141" /><path d="M329.452 58.967C320.194 55.4309 310.432 67.7567 306.708 79.4762C304.897 85.235 332.673 71.1917 329.452 58.967Z" fill="#DDFBC7" /><path d="M345.554 222.132C343.743 221.324 341.931 220.414 340.22 219.505C312.545 205.361 270.982 178.285 252.163 108.371" stroke="#DDFBC7" stroke-width="2" stroke-miterlimit="10" /><path d="M270.177 153.734C282.153 157.169 289.097 114.837 284.568 120.394C278.329 127.87 263.535 144.035 270.177 153.734Z" fill="#DDFBC7" /><path d="M307.211 198.895C351.894 189.802 306.507 134.942 306.809 145.45C307.916 177.577 293.827 188.287 307.211 198.895Z" fill="#DDFBC7" /><path d="M258.604 128.577C254.478 119.586 238.98 121.303 228.01 126.961C222.676 129.588 252.264 139.489 258.604 128.577Z" fill="#DDFBC7" /><path d="M472.357 -27.8186C453.94 -57.2186 444.682 -62.8763 439.65 -61.2598C435.02 -59.7443 432.001 -51.2577 433.712 -44.7918C436.933 -33.2742 454.846 -32.7691 455.047 -25.6969C455.148 -20.4433 445.285 -13.3711 438.04 -15.3917C425.762 -18.9278 430.391 -46.7113 416.403 -51.8639C409.056 -54.5918 398.791 -50.1464 397.684 -45.0948C395.571 -35.2948 427.775 -24.5856 425.661 -12.3608C424.957 -8.31958 421.133 -5.49071 418.214 -4.4804C411.471 -2.15668 403.118 -7.91545 398.791 -13.5732C390.841 -23.8783 396.678 -32.9711 390.036 -39.4371C382.387 -46.9134 364.474 -44.7917 362.26 -38.8309C358.234 -27.9196 407.043 -4.88451 402.917 5.42064C401.106 9.96703 390.237 9.86599 385.104 9.2598C366.386 7.23919 362.662 -7.4103 346.259 -8.82473C334.283 -9.83504 321.502 -3.36905 321.401 1.88456C321.401 6.63301 331.968 11.8866 341.428 13.2C355.819 15.2206 364.776 7.74435 377.154 13.5031C379.972 14.8165 381.884 15.7258 381.985 17.1402C382.589 25.3237 324.722 27.1423 319.59 48.6619C317.98 55.3299 321.502 63.4124 326.131 64.8268C332.27 66.8474 338.208 56.5423 355.115 41.9938C367.191 31.5877 385.406 18.4536 389.029 21.6866C391.545 24.0103 384.199 32.3959 381.079 51.4907C379.771 59.7753 377.859 72.3031 384.098 76.6474C386.312 78.1629 390.438 79.3753 393.558 77.6578C405.836 70.6866 385.507 24.8186 400.502 14.4124C401.106 14.0083 404.628 11.2804 407.949 12.3918C409.459 12.8969 412.679 14.6144 414.893 27.5464C417.912 44.7217 414.189 52.4 419.321 57.5526C423.347 61.4928 429.183 60.8866 429.687 60.8866C434.517 60.3815 439.75 56.6433 441.26 52.198C445.386 39.7711 419.12 27.8495 422.441 13.2C423.749 7.64332 428.882 2.99589 433.813 2.28867C439.348 1.48042 443.575 5.92579 453.336 14.6144C458.469 19.1608 466.218 25.7279 476.08 33.4062" fill="#7EC953" /><path d="M249.043 252.037C272.794 226.779 276.014 216.373 273.096 211.928C270.479 207.786 261.522 206.977 255.786 210.311C245.42 216.373 249.446 233.953 242.703 235.771C237.671 237.186 228.312 229.305 228.513 221.829C228.815 208.998 256.792 206.573 258.302 191.722C259.107 183.942 252.264 175.052 247.131 175.254C237.168 175.557 234.853 209.604 222.576 210.614C218.55 210.918 214.827 207.988 213.116 205.26C209.191 199.299 212.613 189.802 217.041 184.144C224.991 173.839 235.256 177.274 239.785 169.192C245.118 159.897 238.577 143.025 232.237 142.318C220.764 141.206 210.701 194.348 199.731 192.934C194.901 192.328 192.284 181.72 191.58 176.567C188.862 157.876 202.046 150.602 199.329 134.235C197.316 122.313 187.856 111.503 182.824 112.816C178.296 113.928 175.88 125.647 176.887 135.043C178.497 149.491 187.957 156.361 185.441 169.899C184.837 173.031 184.535 175.052 183.126 175.557C175.377 178.183 159.175 122.414 137.135 122.718C130.392 122.819 123.448 128.274 123.146 133.124C122.744 139.59 134.217 142.823 152.432 155.553C165.515 164.645 182.724 179.093 180.51 183.437C178.899 186.468 169.037 181.416 149.715 183.134C141.362 183.841 128.883 185.155 126.266 192.328C125.361 194.854 125.26 199.198 127.575 201.724C137.336 211.928 176.484 180.81 190.271 192.732C190.875 193.237 194.297 195.965 194.096 199.501C193.995 201.016 193.089 204.654 181.214 210.008C165.414 217.181 157.061 215.565 153.438 221.829C150.62 226.678 152.633 232.235 152.834 232.74C154.545 237.388 159.376 241.429 164.106 241.833C177.088 242.742 182.019 214.252 197.115 213.847C202.851 213.645 208.587 217.586 210.499 222.132C212.713 227.386 209.392 232.538 203.455 244.258C200.335 250.421 195.907 259.513 190.976 271.031" fill="#7EC953" /><path d="M431.699 223.748C431.699 223.748 443.575 173.233 430.492 175.254C417.409 177.274 410.465 184.751 406.641 170.707C402.817 156.664 406.339 135.447 399.898 135.751C393.558 136.155 387.117 151.511 379.771 150.299C372.424 149.087 365.682 129.184 365.682 129.184C365.682 129.184 354.41 105.138 342.032 117.666C329.654 130.194 339.818 139.287 334.383 141.206C328.949 143.126 310.029 134.235 301.173 121.202C298.355 117.06 294.431 116.757 290.405 118.373C273.699 124.94 277.222 149.794 295.034 152.017C299.563 152.623 305.098 152.724 311.639 152.219C317.275 151.814 322.911 153.33 327.238 156.866C331.666 160.503 334.987 165.959 330.459 173.637C328.748 176.567 326.232 178.891 323.414 180.709C316.671 184.953 317.376 195.056 324.622 198.188C329.352 200.208 336.799 200.814 348.473 197.885C348.473 197.885 365.279 196.47 361.455 221.324C357.631 246.177 371.317 253.25 373.33 252.441" fill="#7EC953" /><path d="M-8.28535 266.889C-8.28535 266.889 -54.0752 142.014 129.084 99.7835C129.084 99.7835 132.707 271.738 -8.28535 266.889Z" stroke="#DDFBC7" stroke-width="2" stroke-miterlimit="10" /><path d="M-87.386 66.9485C-87.386 66.9485 -80.8446 31.6887 -73.0955 36.6392C-65.3465 41.5897 -63.1325 48.2577 -56.7924 40.4784C-50.4522 32.699 -46.7287 18.2516 -42.8038 20.2722C-38.879 22.2928 -39.1809 33.8103 -34.149 35.1237C-29.1172 36.4371 -19.3554 25.7278 -19.3554 25.7278C-19.3554 25.7278 -5.56815 13.7052 -1.24075 25.1217C3.08663 36.5382 -5.87006 39.367 -2.95158 42.1959C-0.0331116 44.9237 14.358 44.6206 23.6166 38.8619C26.535 37.0433 29.1516 37.9526 31.1643 40.0742C39.8191 48.9649 30.7618 63.6144 18.8866 59.9773C15.8675 59.0681 12.3452 57.5526 8.31976 55.4309C4.8981 53.6124 0.87262 53.0062 -2.85095 54.0165C-6.67516 55.0268 -10.2981 57.5526 -9.49299 63.7155C-9.19108 66.0392 -8.28535 68.2619 -6.97707 70.1815C-3.95795 74.7279 -7.17834 80.8907 -12.6127 80.8907C-16.2357 80.8907 -21.0662 79.1732 -27.6076 73.9196C-27.6076 73.9196 -37.772 68.3629 -42.3006 85.033C-46.8293 101.804 -57.3962 102.41 -58.5032 101.4" fill="#7EC953" /><path d="M-88.7949 -47.5196C-88.7949 -47.5196 -54.1758 -70.1505 -52.1631 -59.7443C-50.1503 -49.3382 -53.8739 -42.0639 -42.3006 -42.9732C-30.7274 -43.8825 -15.7325 -52.2681 -14.3236 -47.3175C-12.9146 -42.367 -22.6764 -33.3753 -19.8586 -28.2227C-16.9401 -22.9691 -0.23439 -23.2722 -0.23439 -23.2722C-0.23439 -23.2722 20.7987 -21.2516 14.7605 -8.52166C8.72231 4.20824 -0.838211 -0.944344 -0.838211 3.70308C-0.838211 8.3505 11.0369 20.2721 23.1134 23.4041C27.0382 24.4144 28.2459 27.3443 28.1452 30.7794C27.7427 45.1258 8.11848 49.268 1.67772 36.4371C0.0675278 33.2041 -1.54267 29.0618 -2.95159 23.9093C-4.15923 19.5649 -6.77579 15.7258 -10.7006 13.4021C-14.6255 10.9773 -19.6573 9.96701 -24.0854 15.5237C-25.7962 17.6454 -26.9032 20.0701 -27.507 22.6969C-28.8153 28.8598 -36.5643 31.1835 -40.8917 26.5361C-43.7095 23.5051 -46.2255 18.0495 -47.1312 8.35051C-47.1312 8.35051 -50.5529 -4.68248 -68.1643 4.91546C-85.7758 14.5134 -94.7325 6.02679 -94.7325 4.30927" fill="#61AA3A" /><path d="M-94.5312 -39.134C-93.5248 -39.134 -17.1414 -21.5547 18.9873 43.5093" stroke="#7EC953" stroke-width="2" stroke-miterlimit="10" /><path d="M-58.8051 46.4392C-58.8051 46.4392 -23.5822 28.5567 2.38215 35.5278C13.8548 38.5587 26.535 52.501 20.8994 68.3629C15.6662 83.3155 -6.87645 87.2557 -21.7707 81.901C-38.7784 75.6371 -58.8051 46.4392 -58.8051 46.4392Z" fill="#518E2D" /><path d="M-101.073 41.7917C-101.073 41.7917 -18.0472 46.4392 20.8993 68.3629" stroke="#7EC953" stroke-width="2" stroke-miterlimit="10" /><path d="M-101.576 133.528C-101.576 133.528 -73.3974 64.0186 18.8867 116.151C18.9873 116.05 -44.5146 189.297 -101.576 133.528Z" fill="#DDFBC7" /><path d="M-106.608 133.225C-106.608 133.225 -62.8305 141.913 18.9873 116.049" stroke="#A7E27F" stroke-width="2" stroke-miterlimit="10" /><path d="M448.304 112.109C448.304 112.109 420.126 42.6 327.842 94.732C327.842 94.732 391.344 167.878 448.304 112.109Z" fill="#518E2D" /><path d="M453.336 111.806C453.336 111.806 409.559 120.495 327.741 94.6309" stroke="#7EC953" stroke-width="2" stroke-miterlimit="10" /><path d="M358.335 80.8907L369.405 105.845L351.794 115.544" stroke="#7EC953" stroke-width="2" stroke-miterlimit="10" /><path d="M-73.0955 221.324C-73.0955 221.324 -78.1274 165.252 -64.4407 169.394C-50.7541 173.536 -44.414 182.73 -38.1745 168.181C-31.935 153.633 -32.4382 130.295 -25.5949 131.709C-18.7516 133.124 -14.2229 150.602 -6.17194 150.4C1.87901 150.198 12.144 129.891 12.144 129.891C12.144 129.891 27.944 105.744 39.3159 121.202C50.6879 136.559 38.4102 144.742 43.9453 147.672C49.4803 150.602 71.2179 143.833 82.6905 131.305C86.4141 127.264 90.6408 127.567 94.6663 129.891C111.573 139.59 104.026 165.656 84.6026 165.252C79.6714 165.151 73.7338 164.443 66.6892 162.827C60.7516 161.513 54.4115 162.322 49.1784 165.454C43.8446 168.687 39.5172 174.041 43.2408 182.932C44.6497 186.266 46.9644 189.196 49.6816 191.621C56.223 197.177 54.0089 207.887 45.7567 210.21C40.3223 211.726 32.2714 211.221 20.1949 206.169C20.1949 206.169 2.38219 202.128 2.6841 229.305C2.98602 256.584 -12.7133 262.039 -14.8267 260.928" fill="#61AA3A" /></g></g><g opacity="0.8"><g clip-path="url(#clip2)"><path d="M157.363 -53.8309C158.873 -53.1237 160.483 -52.3155 161.992 -51.6083C185.944 -39.5856 221.972 -16.4495 238.577 43.7649" stroke="#DDFBC7" stroke-width="2" stroke-miterlimit="10" /><path d="M222.878 4.767C212.512 1.8371 206.776 38.4103 210.701 33.6618C215.934 27.0948 228.614 13.0515 222.878 4.767Z" fill="#DDFBC7" /><path d="M190.573 -34.0289C152.13 -25.8454 191.58 21.134 191.177 12.1423C190.171 -15.6412 202.247 -24.9361 190.573 -34.0289Z" fill="#DDFBC7" /><path d="M232.941 26.4886C236.564 34.268 249.949 32.6515 259.308 27.701C263.938 25.2763 238.376 16.9917 232.941 26.4886Z" fill="#DDFBC7" /><path d="M127.172 -58.8825L88.1249 -62.1154C86.2128 -59.9938 83.9987 -56.8618 82.0866 -52.8206C74.237 -35.8474 79.4701 -14.1258 85.307 -13.2165C87.7223 -12.8124 88.5274 -16.2474 96.5784 -24.9361C102.818 -31.7051 112.781 -42.5154 117.511 -40.2928C119.926 -39.0804 120.932 -34.433 119.524 -31.402C117.712 -27.4618 111.573 -28.6742 105.434 -25.3402C95.6726 -20.0866 93.358 -7.45771 92.9554 -5.53812C90.3389 8.10105 97.1822 23.5588 103.019 23.9629C110.164 24.367 115.498 -7.7608 123.952 -7.15462C127.071 -6.95256 129.889 -2.30514 130.392 1.7361C131.801 12.4454 117.108 17.2949 115.901 28.8124C114.592 40.734 128.279 54.8784 134.015 53.0598C139.953 51.2413 143.173 31.0351 127.172 -58.8825ZM92.8548 -42.7175C88.7287 -51.5072 105.736 -47.668 105.736 -47.668C105.736 -47.668 95.6726 -36.8577 92.8548 -42.7175ZM111.775 -9.78143C108.957 -12.6103 119.825 -17.6618 119.825 -17.6618C119.825 -17.6618 114.492 -7.05359 111.775 -9.78143ZM133.11 27.7011C130.493 27.8021 132.908 20.4268 132.908 20.4268C132.908 20.4268 135.525 27.6 133.11 27.7011Z" fill="#61AA3A" /><path d="M165.716 -12.4082C172.559 -12.4082 172.157 -25.8454 171.05 -35.0392C170.144 -42.4144 166.32 -49.1835 160.181 -53.3258C157.866 -54.8412 155.35 -56.0536 152.633 -56.3567C148.205 -56.8619 143.878 -59.3876 140.456 -62.0144C137.135 -64.5402 132.204 -63.1258 130.896 -59.0845C130.896 -59.0845 144.582 12.2433 143.375 46.6948C143.274 49.1196 146.394 50.1299 147.803 48.2103C149.815 45.4825 152.331 40.3299 155.35 30.833C155.552 30.3278 155.552 29.8227 155.35 29.3175C153.64 24.5691 144.884 -0.486599 145.589 -6.64949C146.394 -13.5196 153.64 24.6701 163.703 18.2041C173.767 11.7381 165.716 -5.43711 160.885 -8.6701C156.055 -11.9031 146.394 -20.3897 149.715 -25.0371C153.036 -29.6845 155.25 -12.4082 165.716 -12.4082ZM147.903 20.3258C147.903 20.3258 150.62 27.499 148.104 27.6C145.488 27.8021 147.903 20.3258 147.903 20.3258ZM144.884 -45.2433C144.884 -45.2433 159.678 -45.8495 157.464 -39.6866C154.143 -30.4928 144.884 -45.2433 144.884 -45.2433Z" fill="#61AA3A" /><path d="M-28.3121 -78.2804C1.07389 -96.9711 11.842 -98.0825 15.6662 -94.3443C19.1885 -90.9093 18.2828 -81.9175 13.9554 -76.866C6.0051 -67.8742 -10.3987 -75.1485 -13.5185 -68.7835C-15.9338 -64.2371 -9.99618 -53.4268 -2.64968 -52.2145C10.0306 -50.0928 17.7796 -77.2701 32.6739 -75.8557C40.5236 -75.1485 47.8701 -66.7629 46.7631 -61.6103C44.549 -51.8103 10.6344 -56.0536 7.31338 -44.132C6.20638 -40.1918 8.42039 -35.9485 10.735 -33.7258C15.8675 -28.6742 25.8306 -30.2907 32.2713 -33.5237C43.8446 -39.3835 42.4357 -50.0928 51.2917 -53.1237C61.4561 -56.5588 76.7529 -46.8598 76.149 -40.4949C75.0421 -28.9773 21 -29.1794 20.2955 -18.066C19.9936 -13.1155 29.8561 -8.56909 34.6866 -6.85156C52.4994 -0.587646 62.1605 -12.2062 77.6586 -6.44744C88.9299 -2.20414 97.786 9.31339 95.572 13.9608C93.5592 18.2041 81.6841 18.4062 72.6268 15.4763C58.7389 11.1319 53.8076 0.422661 40.121 0.321632C37.0013 0.321632 34.8879 0.220596 34.1834 1.534C30.0573 8.70719 81.7847 35.3793 77.1554 57.101C75.7465 63.769 69.1045 69.5278 64.2739 68.9216C57.9338 68.1134 56.8268 56.0907 47.8701 35.6824C41.4293 21.033 30.5605 1.23091 25.8306 2.64535C22.5096 3.65565 25.6293 14.466 20.1949 33.0556C17.8803 41.1381 14.1567 53.2618 6.70956 54.4742C3.99236 54.8783 -0.23439 54.1711 -2.24713 51.3422C-10.3987 39.7237 27.7427 6.98968 18.6853 -8.97321C18.2828 -9.68043 16.2701 -13.5196 12.8484 -14.0248C11.3389 -14.2268 7.61529 -14.0248 0.0675201 -3.31548C-10.0968 10.9299 -9.99617 19.5175 -16.8395 21.8412C-22.3745 23.7608 -27.4064 20.6288 -27.8089 20.4268C-31.935 17.8 -35.1554 12.2433 -34.5516 7.49482C-32.8408 -5.53816 -3.95796 -4.93198 -0.737576 -19.6825C0.470066 -25.2392 -2.24713 -31.7052 -6.27261 -34.534C-11.0025 -37.666 -16.6382 -35.4433 -29.3185 -31.8062C-35.9605 -29.8866 -45.7223 -27.2598 -58 -24.633" fill="#7EC953" /><path d="M-133.276 -38.4742C-133.276 -38.4742 -20.865 -108.994 57.8331 62.2536C57.8331 62.2536 -109.124 101.15 -133.276 -38.4742Z" stroke="#DDFBC7" stroke-width="2" stroke-miterlimit="10" /><path d="M514.121 17.699C458.469 -8.97321 406.943 -11.1959 361.958 9.01029C356.624 11.435 314.055 32.9546 312.042 67.5072C310.231 100.039 349.58 137.118 382.488 129.338C402.615 124.59 417.711 84.7835 403.32 70.134" stroke="#DDFBC7" stroke-width="2" stroke-miterlimit="10" /><path d="M415.396 -82.0186C415.396 -82.0186 364.273 -89.899 367.392 -76.967C370.411 -64.0351 378.462 -57.6701 364.776 -52.7196C351.19 -47.7691 329.754 -49.5877 330.66 -43.2227C331.566 -36.8577 347.366 -31.7052 346.762 -24.2289C346.158 -16.7526 326.936 -8.46806 326.936 -8.46806C326.936 -8.46806 303.991 4.76699 317.376 16.1835C330.861 27.6 339.013 16.6886 341.428 22.0433C343.843 27.3979 336.396 46.9979 324.219 56.899C320.294 60.0309 320.395 63.9711 322.206 67.9113C330.056 84.0763 354.511 78.6206 355.215 60.6371C355.417 56.0907 355.115 50.534 354.008 43.967C353.102 38.4103 354.209 32.6515 357.429 28.0041C360.65 23.2557 365.883 19.5175 373.833 23.4577C376.852 24.9732 379.368 27.1959 381.381 29.9237C386.111 36.2886 396.074 34.8742 398.59 27.2969C400.301 22.3464 400.301 14.8701 396.376 3.45359C396.376 3.45359 393.659 -13.2165 418.617 -11.398C443.574 -9.68044 449.512 -23.8248 448.606 -25.8454" fill="#DDFBC7" /><path d="M426.265 -75.4516C425.158 -74.9464 347.064 -15.4392 339.315 77.3072" stroke="#A7E27F" stroke-width="2" stroke-miterlimit="10" /><path d="M275.31 53.0598C281.046 54.8783 294.733 40.734 293.424 28.8124C292.217 17.2948 277.524 12.5464 278.933 1.73607C279.436 -2.30517 282.254 -6.95259 285.373 -7.15465C293.827 -7.76083 299.161 24.367 306.306 23.9629C312.143 23.6598 318.986 8.10102 316.369 -5.53815C315.967 -7.45774 313.652 -20.0866 303.891 -25.3402C297.752 -28.6742 291.613 -27.4619 289.801 -31.4021C288.392 -34.433 289.399 -39.0804 291.814 -40.2928C296.544 -42.5155 306.507 -31.7052 312.747 -24.9361C320.797 -16.2474 321.603 -12.8124 324.018 -13.2165C329.855 -14.1258 335.088 -35.8474 327.238 -52.8206C325.326 -56.8619 323.112 -59.9938 321.2 -62.1155L282.153 -58.8825C266.152 31.035 269.372 51.2412 275.31 53.0598ZM303.689 -47.7691C303.689 -47.7691 320.697 -51.6083 316.571 -42.8186C313.753 -36.8577 303.689 -47.7691 303.689 -47.7691ZM289.499 -17.6619C289.499 -17.6619 300.469 -12.6103 297.55 -9.78146C294.833 -7.05362 289.499 -17.6619 289.499 -17.6619ZM276.517 20.3258C276.517 20.3258 278.933 27.701 276.316 27.6C273.8 27.6 276.517 20.3258 276.517 20.3258Z" fill="#518E2D" /><path d="M259.711 -25.1382C263.032 -20.4907 253.371 -12.0041 248.54 -8.77114C243.71 -5.53815 235.659 11.6371 245.722 18.1031C255.786 24.5691 263.032 -13.6206 263.837 -6.75052C264.541 -0.587635 255.786 24.468 254.075 29.2165C253.874 29.7216 253.874 30.2268 254.075 30.7319C257.094 40.2289 259.711 45.3814 261.623 48.1093C263.032 50.0289 266.152 49.0185 266.051 46.5938C264.944 12.1423 278.53 -59.1856 278.53 -59.1856C277.121 -63.2268 272.29 -64.6412 268.969 -62.1155C265.548 -59.5897 261.22 -56.9629 256.792 -56.4577C254.075 -56.1546 251.559 -54.9423 249.245 -53.4268C243.106 -49.2845 239.181 -42.5155 238.376 -35.1402C237.269 -25.9464 236.866 -12.5093 243.71 -12.5093C254.176 -12.4083 256.39 -29.7856 259.711 -25.1382ZM261.22 27.701C258.704 27.6 261.422 20.4268 261.422 20.4268C261.422 20.4268 263.837 27.8021 261.22 27.701ZM251.861 -39.6866C249.647 -45.8495 264.441 -45.2433 264.441 -45.2433C264.441 -45.2433 255.182 -30.4928 251.861 -39.6866Z" fill="#518E2D" /></g></g></g></g><defs><clipPath id="clip0"><rect y="-1" width="357.755" height="157.608" fill="white" /></clipPath><clipPath id="clip1"><path d="M-58 -193.711H415.899V180.406H-58V-193.711Z" fill="white" /></clipPath><clipPath id="clip2"><rect x="-58" y="-41" width="473.899" height="374.118" fill="white" /></clipPath></defs></svg>