<svg height="500px" viewBox="0 0 500 500" enable-background="new 0 0 500 500" xml:space="preserve">
<path fill-rule="evenodd" clip-rule="evenodd" d="M231,3c13.333,0,26.667,0,40,0c7.692,1.135,15.43,2.026,23.069,3.445                   c49.75,9.239,93.042,31.155,129.34,66.523c39.378,38.37,63.831,84.592,72.563,138.99c1.018,6.346,2.02,12.694,3.028,19.041                   c0,13.333,0,26.667,0,40c-0.382,1.405-0.912,2.789-1.121,4.22c-1.175,8.052-1.826,16.206-3.47,24.157                   c-12.224,59.146-42.132,107.601-89.028,145.501c-33.822,27.334-72.354,44.313-115.343,51.096                   c-6.347,1.001-12.692,2.017-19.038,3.026c-13.333,0-26.667,0-40,0c-7.504-1.126-15.046-2.047-22.507-3.412                   c-50.664-9.272-94.591-31.665-131.288-67.918c-38.599-38.134-62.564-83.895-71.238-137.548C4.938,283.755,3.987,277.374,3,271                   c0-13.333,0-26.667,0-40c1.11-7.534,1.999-15.108,3.366-22.595c9.157-50.141,31.233-93.714,66.906-130.202                   C111.444,39.16,157.389,14.836,211.4,6.038C217.926,4.976,224.467,4.011,231,3z M251.047,26.818                   C129.485,25.982,29.774,124.463,26.702,244.95c-3.227,126.557,97.976,227.606,218.748,230.374                   c126.266,2.894,227.337-98.27,229.89-219.274C478.022,128.898,374.602,25.846,251.047,26.818z" />
<path fill-rule="evenodd" clip-rule="evenodd" fill="#FFFFFF" d="M251.047,26.818c123.555-0.973,226.976,102.08,224.293,229.231                   c-2.553,121.005-103.624,222.168-229.89,219.274C124.678,472.557,23.476,371.507,26.702,244.95                   C29.774,124.463,129.485,25.982,251.047,26.818z M226.569,368.554c0-78.466,0-156.654,0-235.101c-17.801,0-35.352,0-53.138,0                   c0,78.459,0,156.647,0,235.101C191.11,368.554,208.544,368.554,226.569,368.554z M275.446,133.432c0,78.511,0,156.699,0,235.101                   c17.815,0,35.366,0,53.107,0c0-78.475,0-156.663,0-235.101C310.858,133.432,293.425,133.432,275.446,133.432z" />
<path fill-rule="evenodd" clip-rule="evenodd" d="M226.569,368.554c-18.025,0-35.459,0-53.138,0c0-78.453,0-156.642,0-235.101                   c17.787,0,35.337,0,53.138,0C226.569,211.899,226.569,290.088,226.569,368.554z" />
<path fill-rule="evenodd" clip-rule="evenodd" d="M275.446,133.432c17.979,0,35.412,0,53.107,0c0,78.438,0,156.626,0,235.101                   c-17.741,0-35.292,0-53.107,0C275.446,290.131,275.446,211.942,275.446,133.432z" />
                </svg>