<svg x="0px" y="0px" width="412px" height="498px" viewBox="0 0 412 498" enable-background="new 0 0 412 498" xml:space="preserve">
<path fill-rule="evenodd" clip-rule="evenodd" d="M413,174c0,50.667,0,101.333,0,152c-0.446,2.406-0.92,4.808-1.336,7.219                   c-12.37,71.788-53.105,119.596-121.796,143.467c-15.82,5.498-32.455,6.477-49.137,7.49c-25.207,1.532-50.333,4.378-75.504,6.53                   c-25.506,2.181-51.029,4.156-76.537,6.322c-4.917,0.418-9.794,1.303-14.69,1.972c-8,0-16,0-24,0                   c-1.408-0.392-2.796-0.878-4.226-1.161c-18.141-3.595-32.268-12.669-40.327-29.817C3.637,464.169,2.466,460.016,1,456                   c0-6.333,0-12.667,0-19c3.285-14.23,9.24-27.349,16.916-39.683c8.529-13.705,17.603-27.079,25.89-40.926                   c8.276-13.827,16.287-27.85,23.635-42.185c5.823-11.359,8.25-23.656,7.946-36.657c-0.487-20.805-0.044-41.63-0.229-62.444                   c-0.041-4.61-0.666-9.3-1.689-13.801c-4.55-20.013-14.192-37.902-23.645-55.869c-9.445-17.954-19.029-35.843-28.011-54.028                   c-5.421-10.975-7.587-22.779-8.04-35.204C12.859,31.074,30.644,9.247,55.819,3.118C58.871,2.376,61.939,1.704,65,1                   c8,0,16,0,24,0c1.915,0.388,3.813,0.949,5.747,1.135c12.25,1.178,24.509,2.251,36.762,3.398                   c23.512,2.201,47.015,4.508,70.535,6.622c20.37,1.832,40.841,2.794,61.125,5.296c69.852,8.616,130.614,64.603,145.625,133.636                   C410.443,158.671,411.609,166.359,413,174z M375.183,250.233c0.075,0,0.151,0,0.227,0c0-18.164,0.24-36.332-0.098-54.489                   c-0.179-9.622-0.691-19.331-2.202-28.817c-8.548-53.694-51.645-99.625-104.896-109.74c-22.944-4.358-46.591-5.045-69.928-7.302                   c-23.195-2.243-46.396-4.427-69.604-6.518c-17.898-1.611-35.789-3.739-53.727-4.363c-20.338-0.707-27.731,9.65-21.226,29.079                   c3.096,9.249,7.45,18.143,11.889,26.863c11.014,21.641,22.826,42.883,33.522,64.676c10.028,20.429,15.058,42.081,14.143,65.159                   c-0.751,18.967-0.401,37.992-0.072,56.983c0.25,14.424-2.765,28.052-8.064,41.328c-9.759,24.449-24.521,46.049-38.41,68.177                   c-8.657,13.792-17.583,27.564-24.583,42.209c-8.658,18.113-1.741,28.037,18.291,27.568c13.625-0.318,27.228-1.82,40.827-2.953                   c25.378-2.115,50.747-4.359,76.121-6.525c21.229-1.813,42.431-4.281,63.698-5.193c22.048-0.946,43.012-5.41,62.125-16.322                   c45.513-25.983,69.905-65.313,71.842-117.846C375.818,291.575,375.183,270.893,375.183,250.233z" />
<path fill-rule="evenodd" clip-rule="evenodd" fill="#FFFFFF" d="M375.183,250.233c0,20.659,0.636,41.342-0.125,61.974                   c-1.937,52.533-26.329,91.862-71.842,117.846c-19.113,10.912-40.077,15.376-62.125,16.322                   c-21.268,0.912-42.47,3.381-63.698,5.193c-25.375,2.166-50.743,4.41-76.121,6.525c-13.6,1.133-27.202,2.635-40.827,2.953                   c-20.032,0.469-26.949-9.455-18.291-27.568c7-14.645,15.926-28.417,24.583-42.209c13.889-22.128,28.651-43.728,38.41-68.177                   c5.299-13.276,8.314-26.904,8.064-41.328c-0.329-18.991-0.679-38.017,0.072-56.983c0.915-23.078-4.115-44.73-14.143-65.159                   c-10.696-21.793-22.508-43.035-33.522-64.676c-4.439-8.721-8.793-17.614-11.889-26.863                   c-6.505-19.429,0.888-29.786,21.226-29.079c17.938,0.624,35.829,2.752,53.727,4.363c23.208,2.091,46.41,4.274,69.604,6.518                   c23.337,2.257,46.983,2.943,69.928,7.302c53.251,10.115,96.348,56.046,104.896,109.74c1.511,9.486,2.023,19.195,2.202,28.817                   c0.338,18.157,0.098,36.325,0.098,54.489C375.334,250.233,375.258,250.233,375.183,250.233z M149.432,356.564                   c44.044-35.707,87.512-70.947,131.448-106.566c-44.063-35.386-87.471-70.245-131.448-105.563                   C149.432,215.437,149.432,285.567,149.432,356.564z M342.412,356.566c0-70.893,0-141.531,0-212.133c-14.842,0-29.275,0-43.824,0                   c0,70.893,0,141.531,0,212.133C313.43,356.566,327.864,356.566,342.412,356.566z" />
<path fill-rule="evenodd" clip-rule="evenodd" d="M149.432,356.564c0-70.997,0-141.128,0-212.129                   c43.977,35.317,87.384,70.177,131.448,105.563C236.944,285.617,193.477,320.857,149.432,356.564z" />
<path fill-rule="evenodd" clip-rule="evenodd" d="M342.412,356.566c-14.548,0-28.982,0-43.824,0c0-70.602,0-141.24,0-212.133                   c14.549,0,28.982,0,43.824,0C342.412,215.035,342.412,285.674,342.412,356.566z" />
                </svg>