<svg x="0px" y="0px" width="410px" height="497px" viewBox="0 0 410 497" enable-background="new 0 0 410 497" xml:space="preserve">
<path fill-rule="evenodd" clip-rule="evenodd" d="M411,174c0,50.333,0,100.667,0,151c-0.34,1.093-0.877,2.166-0.991,3.282          c-3.738,36.481-18.14,68.417-42.251,95.732c-29.369,33.271-66.102,53.281-110.563,57.938          c-19.677,2.061-39.443,3.262-59.15,5.057c-31.801,2.896-63.588,5.933-95.374,8.988c-4.579,0.44-9.115,1.324-13.671,2.002          c-8,0-16,0-24,0c-1.595-0.398-3.177-0.859-4.787-1.186c-18.292-3.704-32.856-12.651-41.293-29.868          c-7.912-16.145-6.847-32.919-0.991-49.085c4.795-13.237,11.391-25.857,17.665-38.515c10.046-20.268,20.884-40.15,30.623-60.561          c6.658-13.952,9.496-28.938,9.069-44.601c-0.458-16.818-0.406-33.666-0.007-50.487c0.314-13.3-2.013-26.037-8.026-37.698          c-8.073-15.655-16.766-31.025-25.894-46.095C26.322,115.081,7.867,92.099,1,63c0-6.333,0-12.667,0-19          c0.308-0.574,0.756-1.113,0.905-1.727C7.042,21.089,20.949,8.747,41.429,3.023C43.945,2.32,46.476,1.673,49,1          c8.333,0,16.667,0,25,0c6.073,0.722,12.131,1.603,18.221,2.136c21.049,1.846,42.11,3.547,63.164,5.348          c25.859,2.211,51.716,4.452,77.571,6.71c12.258,1.07,24.807,0.876,36.713,3.536c72.656,16.233,118.205,60.984,137.225,132.804          C408.835,158.87,409.657,166.504,411,174z M373.182,249.741c0-7.332,0.086-14.665-0.017-21.995          c-0.252-17.979,0.688-36.086-1.134-53.908c-5.54-54.2-44.82-100.452-97.308-114.783c-12.527-3.42-25.864-4.076-38.888-5.433          c-18.041-1.879-36.138-3.214-54.211-4.788c-21.39-1.863-42.773-3.813-64.171-5.576c-19.24-1.585-38.476-3.576-57.753-4.267          c-18.896-0.676-25.503,9.121-18.108,26.404c4.101,9.582,9.539,18.645,14.914,27.617c13.424,22.407,27.744,44.298,40.584,67.029          c10.761,19.052,16.643,39.685,15.872,62.076c-0.688,19.973-0.28,39.988-0.094,59.982c0.113,12.128-1.899,23.854-5.503,35.355          c-7.363,23.495-19.497,44.756-30.873,66.404c-8.108,15.428-16.427,30.897-22.678,47.109          c-7.335,19.026,0.682,29.866,20.956,29.008c21.261-0.9,42.461-3.328,63.673-5.257c26.85-2.44,53.689-4.999,80.523-7.605          c16.043-1.559,32.332-2.005,48.054-5.201c60.492-12.296,106.146-69.041,106.16-130.685          C373.186,290.733,373.182,270.237,373.182,249.741z" />
<path fill-rule="evenodd" clip-rule="evenodd" fill="#FFFFFF" d="M373.182,249.741c0,20.496,0.004,40.992-0.001,61.488          c-0.015,61.644-45.668,118.389-106.16,130.685c-15.722,3.196-32.011,3.643-48.054,5.201          c-26.834,2.606-53.673,5.165-80.523,7.605c-21.212,1.929-42.413,4.356-63.673,5.257c-20.274,0.858-28.291-9.981-20.956-29.008          c6.25-16.212,14.57-31.682,22.678-47.109c11.376-21.648,23.51-42.909,30.873-66.404c3.604-11.501,5.616-23.228,5.503-35.355          c-0.186-19.994-0.594-40.01,0.094-59.982c0.771-22.392-5.11-43.024-15.872-62.076c-12.84-22.731-27.161-44.622-40.584-67.029          c-5.375-8.973-10.813-18.035-14.914-27.617c-7.396-17.283-0.789-27.08,18.108-26.404c19.277,0.69,38.513,2.682,57.753,4.267          c21.398,1.764,42.781,3.713,64.171,5.576c18.073,1.574,36.17,2.909,54.211,4.788c13.023,1.356,26.36,2.013,38.888,5.433          c52.487,14.331,91.768,60.583,97.308,114.783c1.821,17.822,0.882,35.93,1.134,53.908          C373.268,235.076,373.182,242.409,373.182,249.741z M128.392,355.348c44.18-35.742,87.6-70.87,131.458-106.352          c-44.052-35.299-87.454-70.077-131.458-105.338C128.392,214.572,128.392,284.454,128.392,355.348z M225.182,143.232          c0,21.498,0.085,41.818-0.084,62.136c-0.027,3.379,1.084,5.505,3.655,7.528c11.128,8.756,22.154,17.644,33.165,26.548          c8.382,6.777,8.384,12.236,0.102,18.965c-10.991,8.929-21.931,17.926-33.053,26.689c-2.741,2.159-3.921,4.341-3.873,7.903          c0.205,15.497,0.088,30.998,0.088,46.498c0,5.08,0,10.16,0,16.271c44.342-35.951,87.83-71.21,131.696-106.776          C312.786,213.586,269.436,178.771,225.182,143.232z" />
<path fill-rule="evenodd" clip-rule="evenodd" d="M128.392,355.348c0-70.894,0-140.775,0-211.689          c44.004,35.261,87.406,70.039,131.458,105.338C215.991,284.478,172.572,319.605,128.392,355.348z" />
<path fill-rule="evenodd" clip-rule="evenodd" d="M225.182,143.232c44.254,35.539,87.604,70.354,131.696,105.763          c-43.866,35.566-87.354,70.825-131.696,106.776c0-6.111,0-11.191,0-16.271c0-15.5,0.117-31.001-0.088-46.498          c-0.048-3.563,1.132-5.744,3.873-7.903c11.122-8.764,22.062-17.761,33.053-26.689c8.282-6.729,8.28-12.188-0.102-18.965          c-11.011-8.904-22.037-17.792-33.165-26.548c-2.571-2.023-3.683-4.149-3.655-7.528          C225.267,185.051,225.182,164.73,225.182,143.232z" />
                </svg>