<svg version="1.1" xmlns="http://www.w3.org/2000/svg" xmlns:xlink="http://www.w3.org/1999/xlink" x="0px" y="0px" width="606px" height="606px" viewBox="0 0 606 606" enable-background="new 0 0 606 606" xml:space="preserve">
    <path fill-rule="evenodd" clip-rule="evenodd" fill="#EE1608" d="M328,11c5.406,2.04,11.207,1.955,16.799,2.739       c13.062,1.83,26.029,3.907,38.854,7.057c3.291,0.809,3.776,2.345,3.252,4.806c-6.324,29.687-22.285,51.731-50.917,63.499       c-25.382,10.432-50.362,9.012-74.203-4.282c-23.151-12.908-36.563-33.241-41.749-59.084c-0.492-2.454-0.359-4.215,3.327-5.043       c17.567-3.948,35.249-7.005,53.173-8.685C277.442,11.922,278.6,12.36,279,11C295.333,11,311.667,11,328,11z" />
    <path fill-rule="evenodd" clip-rule="evenodd" fill="#EE1608" d="M11,285c1.934-4.452,1.367-9.293,1.793-13.91       c1.476-15.978,4.313-31.664,7.897-47.285c0.935-4.076,2.78-4.297,5.815-3.766c14.608,2.56,27.57,8.766,38.986,18.12       c15.845,12.983,25.786,29.848,29.133,49.834c4.236,25.288-1.253,48.621-17.887,68.762c-13.47,16.31-30.636,26.14-51.503,29.729       c-2.868,0.493-3.661,0.149-4.314-2.715c-3.715-16.288-6.678-32.661-8.23-49.33c-0.414-4.44,0.448-9.178-1.691-13.438       c0-1.667,0-3.333,0-5c1.644-8.333,1.643-16.667,0-25C11,289,11,287,11,285z" />
    <path fill-rule="evenodd" clip-rule="evenodd" fill="#EE1608" d="M597,323c-1.76,4.303-1.545,8.911-1.926,13.399       c-1.357,16.001-4.533,31.675-7.968,47.323c-0.627,2.853-1.46,3.275-4.315,2.759c-30.896-5.597-52.732-22.94-64.58-51.702       c-12.649-30.709-6.074-66.246,18.072-90.828c12.128-12.346,26.78-19.955,43.631-23.57c5.792-1.242,6.822-0.675,8.025,5.193       c3.954,19.295,7.469,38.649,8.11,58.403c0.026,0.807-0.098,1.692,0.95,2.022c0,1.667,0,3.333,0,5c-1.645,8.333-1.645,16.667,0,25       C597,318.333,597,320.667,597,323z" />
    <path fill-rule="evenodd" clip-rule="evenodd" fill="#EE1709" d="M11,291c1.643,8.333,1.644,16.667,0,25       C11,307.667,11,299.333,11,291z" />
    <path fill-rule="evenodd" clip-rule="evenodd" fill="#EE1709" d="M597,316c-1.645-8.333-1.645-16.667,0-25       C597,299.333,597,307.667,597,316z" />
    <path fill-rule="evenodd" clip-rule="evenodd" fill="#EE1608" d="M511.999,425.902c17.166,0.084,32.652,5.483,46.944,14.777       c2.842,1.849,3.547,3.269,1.455,6.657c-15.32,24.814-33.191,47.57-54.262,67.717c-18.116,17.322-37.96,32.47-59.374,45.54       c-2.262,1.38-3.293,1.262-5.011-1.135c-27.223-37.969-18.001-91.903,20.402-118.47       C477.33,430.491,492.642,425.872,511.999,425.902z" />
    <path fill-rule="evenodd" clip-rule="evenodd" fill="#EE1608" d="M181.167,91.078c-0.106,28.594-8.024,48.384-23.743,64.564       c-13.46,13.855-30.035,22.125-49.556,24.586c-22.039,2.778-41.855-2.461-60.195-14.5c-2.368-1.555-2.811-2.937-1.199-5.534       c14.372-23.149,30.93-44.485,50.303-63.747c19.267-19.155,40.375-35.765,63.597-49.809c2.691-1.628,3.912-1.325,5.482,1.006       C175.897,62.545,181.371,78.836,181.167,91.078z" />
    <path fill-rule="evenodd" clip-rule="evenodd" fill="#EE1608" d="M425.966,96.603c0.012-17.506,5.12-33.467,14.567-48.105       c1.721-2.667,3.062-4.276,6.996-1.863c18.243,11.184,35.286,23.908,51.199,38.165c19.823,17.758,36.827,38.002,52.049,59.768       c3.688,5.272,6.905,10.873,10.405,16.28c1.015,1.566,0.866,2.435-0.755,3.611c-12.113,8.797-25.534,13.91-40.434,15.686       c-14.664,1.747-28.743-0.158-42.203-5.877c-24.937-10.594-41.083-29.211-48.727-55.143       C426.909,111.812,425.979,104.252,425.966,96.603z" />
    <path fill-rule="evenodd" clip-rule="evenodd" fill="#EE1608" d="M97.009,425.787c38.313-0.491,72.204,25.163,81.682,63.85       c6.032,24.621,1.352,47.827-12.764,69.06c-1.846,2.776-3.279,2.892-5.958,1.235c-36.115-22.343-67.554-49.83-93.134-83.881       c-7.347-9.779-14.208-19.857-20.667-30.236c-1.445-2.322-1.04-3.313,1.067-4.73C61.41,431.548,77.541,425.268,97.009,425.787z" />
    <path fill-rule="evenodd" clip-rule="evenodd" fill="#EE1608" d="M304.176,596.146c-26.516,0.677-53.026-2.688-79.281-8.745       c-4.596-1.06-5.503-2.912-4.576-7.133c5.495-25.011,18.887-44.376,41.154-57.178c18.024-10.363,37.547-13.865,57.888-9.54       c36.694,7.804,58.618,30.904,67.324,67.045c0.84,3.489,0.462,5.539-3.976,6.57C357.005,593.14,331.074,596.774,304.176,596.146z" />
    <path fill-rule="evenodd" clip-rule="evenodd" fill="#EE1709" d="M303.084,118.964c15.832-0.062,27.523,11.221,26.741,27.188       c-0.754,15.395-10.588,24.763-24.676,25.307c-18.432,0.711-27.775-11.759-28.063-25.439       C276.738,129.438,289.369,118.691,303.084,118.964z" />
    <path fill-rule="evenodd" clip-rule="evenodd" fill="#EE1709" d="M191.277,164.965c15.074-0.057,26.616,11.454,26.608,26.538       c-0.006,14.169-11.605,26.292-26.08,26.195c-14.841-0.1-26.443-9.994-26.734-26.421       C164.813,176.725,175.951,165.003,191.277,164.965z" />
    <path fill-rule="evenodd" clip-rule="evenodd" fill="#EE1709" d="M190.959,388.982c15.2-0.038,27.268,11.615,26.831,26.468       c-0.426,14.494-10.53,26.161-26.655,26.21c-14.704,0.045-25.941-11.051-26.229-26.595       C164.644,400.986,176.972,388.545,190.959,388.982z" />
    <path fill-rule="evenodd" clip-rule="evenodd" fill="#EE1709" d="M144.731,329.231c-14.538,0.918-26.927-13.118-25.892-27.552       c0.952-13.27,12.182-25.514,27.92-24.798c13.56,0.616,25.537,12.574,25.055,26.326       C171.285,318.342,160.648,329.95,144.731,329.231z" />
    <path fill-rule="evenodd" clip-rule="evenodd" fill="#EE1709" d="M442.046,415.671c0.95,13.461-10.553,26.318-25.559,26.347       c-14.836,0.027-26.889-11.303-26.912-25.172c-0.031-17.5,12.003-27.259,26.039-27.604       C429.993,388.887,443.134,400.478,442.046,415.671z" />
    <path fill-rule="evenodd" clip-rule="evenodd" fill="#EE1709" d="M329.995,462.099c0.318,13.851-11.246,26.532-24.539,26.906       c-15.669,0.442-28.079-10.675-28.451-25.485c-0.38-15.14,10.742-26.832,25.988-27.321       C317.458,435.734,329.657,447.437,329.995,462.099z" />
    <path fill-rule="evenodd" clip-rule="evenodd" fill="#EE1709" d="M462.545,329.189c-14.278,1.008-26.356-10.782-26.264-26.181       c0.094-15.634,12.571-25.858,26.12-26.186c14.997-0.362,26.59,12.399,26.718,25.998       C489.257,317.489,477.262,330.276,462.545,329.189z" />
    <path fill-rule="evenodd" clip-rule="evenodd" fill="#EE1709" d="M415.608,164.764c14.998-0.068,25.966,10.92,26.529,25.572       c0.598,15.545-12.58,27.111-26.281,26.905c-14.927-0.226-26.51-11.322-26.671-26.13       C389.026,176.588,400.818,164.83,415.608,164.764z" />
</svg>