<svg version="1.1" xmlns="http://www.w3.org/2000/svg" xmlns:xlink="http://www.w3.org/1999/xlink" x="0px" y="0px" width="1143px" height="782px" viewBox="0 0 1143 782" enable-background="new 0 0 1143 782" xml:space="preserve">
<path fill-rule="evenodd" clip-rule="evenodd" fill="#F58F2D" d="M887.017,173.825c64.775,2.667,125.48,17.475,176.678,59.979   c34.523,28.661,55.11,65.684,64.29,109.322c3.679,17.489,5.411,35.179,5.408,53.056c-0.021,122.828-0.004,245.657-0.024,368.485   c-0.002,9.179,1.054,8.117-8.382,8.143c-32.995,0.089-65.991,0.13-98.986,0.189c-24,0-48,0-72,0   c0.053-0.494,0.151-0.988,0.151-1.482c0.002-118.573,0.015-237.146-0.031-355.72c-0.005-14.024-1.611-27.896-5.181-41.484   c-7.817-29.755-24.579-51.275-55.341-59.848c-11.662-3.249-23.615-3.659-35.602-3.815c2.105-12.713,3.934-25.479,6.371-38.127   C870.759,239.362,878.182,206.43,887.017,173.825z" />
<path fill-rule="evenodd" clip-rule="evenodd" fill="#F4872B" d="M417.943,373.282c-3.979,15.398-5.498,31.104-5.504,46.951   c-0.045,115.271-0.021,230.541-0.042,345.812c0,2.318-0.259,4.637-0.397,6.955c-59.667,0-119.333,0-179,0   c0.043-2.16,0.124-4.32,0.124-6.48c0.007-121.896,0.021-243.794-0.016-365.69c-0.004-14.504,0.859-28.926,3.076-43.259   c1.602,0.432,3.22,0.807,4.801,1.298c33.903,10.53,68.526,17.186,104.017,18.846   C369.453,378.856,393.782,377.264,417.943,373.282z" />
<path fill-rule="evenodd" clip-rule="evenodd" fill="#F58F2D" d="M593,773c0.082-0.334,0.164-0.668,0.246-1.002   c59.528-0.001,119.056-0.001,178.584-0.002c0.057,0.335,0.113,0.669,0.17,1.004C712.333,773,652.667,773,593,773z" />
<path fill-rule="evenodd" clip-rule="evenodd" fill="#F4872B" d="M771.83,771.996c-59.528,0.001-119.056,0.001-178.584,0.002   c-0.083-2.159-0.238-4.317-0.239-6.477c-0.012-114.661-0.008-229.322-0.013-343.983c0-14.69-1.089-29.294-4.37-43.64   c-5.648-24.7-17.38-45.25-40.33-57.944c1.127-0.986,2.179-2.069,3.382-2.946c22.719-16.553,42.688-35.993,60.5-57.679   c12.061-14.683,22.741-30.335,32.333-46.731c0.875-1.496,2.483-3.154-0.006-4.624c-2.831-1.673-5.155-4.219-8.521-4.972   l0.025,0.016c-0.296-0.951-1.067-1.136-1.919-1.188l0.055,0.07c-0.369-0.319-0.738-0.639-1.107-0.957   c-0.834-1.166-2.622-1.444-2.904-3.123c11.757,4.114,21.74,11.285,31.635,18.547c6.71,4.925,12.98,10.413,18.578,16.601   c1.561,1.725,2.507,1.985,4.167-0.002c22.639-27.096,52.862-41.266,86.168-49.81c36.89-9.464,74.555-10.965,112.408-9.905   c1.314,0.036,2.62,0.376,3.93,0.574c-8.835,32.604-16.258,65.537-22.648,98.698c-2.438,12.648-4.266,25.414-6.371,38.127   c-9.961,0.753-19.827,1.947-29.386,5.116c-27.725,9.19-42.924,29.534-50.562,56.608c-4.183,14.83-5.845,30.049-5.856,45.389   c-0.086,115.925-0.044,231.85-0.058,347.773C772.136,767.69,771.937,769.844,771.83,771.996z" />
<path fill-rule="evenodd" clip-rule="evenodd" fill="#292527" d="M412.017,66.127c19.065-5.251,38.432-9.188,57.8-13.083   c47.923-9.637,96.227-16.899,144.695-23.171c42.423-5.488,84.936-10.129,127.497-14.369c-0.767,2.021-2.683,2.928-4.237,4.064   c-42.284,30.903-84.629,61.725-126.925,92.611c-46.624,34.048-93.166,68.208-139.888,102.121   c-4.145,3.008-7.861,7.344-13.525,7.716c-15.078,0.991-30.16,1.977-45.288,1.691c-0.046-1.494-0.131-2.988-0.131-4.482   C412.01,168.192,412.014,117.16,412.017,66.127z" />
<path fill-rule="evenodd" clip-rule="evenodd" fill="#59595A" d="M412.146,223.708c15.128,0.285,30.21-0.7,45.288-1.691   c5.664-0.372,9.381-4.708,13.525-7.716c46.722-33.913,93.264-68.073,139.888-102.121   c42.296-30.887,84.641-61.708,126.925-92.611c1.555-1.137,3.471-2.044,4.237-4.064c1.183-0.57,2.621-0.883,3.498-1.759   c2.688-2.683,4.149-1.504,6.192,1.005c2.63,3.229,0.217,4.229-1.754,5.668c-59.777,43.649-119.563,87.286-179.291,131.003   c-1.718,1.258-4.434,1.751-4.685,4.595c-1.547,0.088-2.874,0.716-4.106,1.62c-11.368,8.336-22.73,16.679-34.113,24.994   c-20.219,14.771-40.413,29.573-60.72,44.223c-2.705,1.952-5.381,4.258-9.196,4.25c-20.934-0.043-41.822,1.346-62.732,2.074   c-9.636,0.078-19.261,0.314-28.896,0.661c-21.422,0.771-42.852,1.483-64.28,2.086c-13.294,0.373-26.579,1.21-39.881,1.177   c-2.931-0.007-4.288,0.77-4.094,3.936c0.147,2.391-0.355,5.25-3.535,4.852c-5.34-0.67-5.862,2.662-6.433,6.477   c-3.127,20.932-6.274,41.861-9.543,62.771c-0.387,2.469-0.204,3.533,2.623,3.976c6.191,0.967,12.578,1.697,18.361,3.9   c4.035,1.537,6.639,0.969,10.024-0.998c8.472-4.924,16.931-9.98,25.821-14.052c26.454-12.115,53.445-22.646,82.676-26.182   c8.598-1.04,9.035-1.071,9.037,7.805c0.008,24.157,0.051,48.314-0.052,72.472c-0.015,3.404,0.412,5.443,4.579,4.876   c13.428-1.826,26.966-2.901,40.21-5.947c11.916-2.74,23.929-5.151,35.272-9.928c0.818-0.127,1.702-0.096,2.444-0.404   c14.367-5.979,28.99-11.289,42.818-18.604c25.565-13.522,48.704-30.354,69.392-50.42c20.572-19.955,38.11-42.43,52.785-67.111   c2.246-3.778,4.754-7.164,1.55-11.516c3.366,0.753,5.69,3.299,8.521,4.972c2.489,1.47,0.881,3.128,0.006,4.624   c-9.592,16.396-20.272,32.049-32.333,46.731c-17.813,21.686-37.781,41.126-60.5,57.679c-1.203,0.877-2.255,1.96-3.382,2.946   c-12.534,7.813-24.841,15.985-38.021,22.725c-29.214,14.939-60.047,24.941-92.328,30.603   c-24.162,3.982-48.491,5.575-72.942,4.433c-35.49-1.66-70.113-8.315-104.017-18.846c-1.581-0.491-3.199-0.866-4.801-1.298   c-4.223-0.967-4.465-3.456-3.645-7.333c1.939-9.166-0.982-18.183-1.837-27.242c-2.287-24.235-3.505-48.462-1.18-72.744   c0.298-3.112-0.255-4.046-3.468-4.138c-40.413-1.164-80.828-2.303-121.229-3.785c-18.964-0.696-37.863,0.6-56.793,0.87   c-0.061-2.439,0.807-4.371,2.529-6.223c3.115-3.348,6.745-5.872,10.711-8.047c19.485-10.681,40.373-17.928,61.358-24.868   c42.403-14.024,85.55-25.494,128.704-36.912c13.789-3.648,27.695-6.853,41.549-10.26c0.033,21.786,0.221,43.574-0.02,65.357   c-0.053,4.784,1.496,6.022,5.923,5.657c3.626-0.299,7.276-0.819,10.875-0.867c21.738-0.292,43.45-1.242,65.173-1.968   C387.273,224.652,399.721,224.521,412.146,223.708z" />
<path fill-rule="evenodd" clip-rule="evenodd" fill="#292527" d="M635.981,203.002c3.204,4.352,0.696,7.737-1.55,11.516   c-14.675,24.682-32.213,47.156-52.785,67.111c-20.688,20.065-43.826,36.897-69.392,50.42   c-13.828,7.314-28.451,12.625-42.818,18.604c-0.742,0.309-1.626,0.277-2.444,0.403c-0.685-4.763-1.103-9.526-1.037-14.361   c0.139-10.327,0.033-20.657,0.051-30.985c0.004-2.009,0.104-4.029-1.066-5.797c-6.238-9.417-15.133-15.415-25.915-17.75   c-7.243-1.568-12.798-3.065-16.304-10.967c-4.738-10.68-11.888-20.085-20.685-28.227c-2.715-2.513-6.954-4.931-6.935-9.792   c20.91-0.729,41.799-2.117,62.732-2.074c3.815,0.008,6.491-2.298,9.196-4.25c20.307-14.649,40.501-29.452,60.72-44.223   c11.383-8.315,22.745-16.658,34.113-24.994c1.232-0.904,2.56-1.532,4.106-1.62c21.681,7.014,40.036,19.419,56.529,34.849   c2.174,2.034,4.377,4.037,6.566,6.056c0.366,0.33,0.731,0.661,1.097,0.991l-0.03-0.091c0.281,1.679,2.069,1.957,2.903,3.123   c0.369,0.319,0.738,0.638,1.107,0.957l-0.055-0.07c0.25,1.026,0.972,1.29,1.919,1.188L635.981,203.002z" />
<path fill-rule="evenodd" clip-rule="evenodd" fill="#3D3B3C" d="M412.146,223.708c-12.425,0.813-24.872,0.944-37.311,1.36   c-21.723,0.726-43.435,1.676-65.173,1.968c-3.599,0.048-7.249,0.568-10.875,0.867c-4.427,0.365-5.976-0.873-5.923-5.657   c0.24-21.783,0.053-43.571,0.021-65.357c0.761-0.295,1.5-0.672,2.285-0.873c25.521-6.552,51.055-13.052,76.564-19.645   c7.275-1.881,7.245-2,5.125-9.251c1.927-6.237-0.747-9.792-7.062-8.805c-3.514,0.549-7.007,1.525-10.204,3.464   c-4.321,2.619-6.664,5.765-4.524,10.922c-24.894,6.227-49.786,12.453-74.68,18.681c-2.632-1.275-2.396-3.663-2.405-6.015   c-0.055-12.618-0.148-25.235-0.229-37.854c43.351-16.701,87.729-30.109,132.778-41.355c0.468-0.117,0.987-0.025,1.482-0.031   c-0.003,51.033-0.007,102.065-0.002,153.099C412.015,220.72,412.1,222.214,412.146,223.708z" />
<path fill-rule="evenodd" clip-rule="evenodd" fill="#F4872B" d="M280.39,151.382c24.894-6.228,49.786-12.454,74.679-18.68   c8.108,1.441,15.397-0.321,21.791-5.582c2.12,7.251,2.15,7.37-5.125,9.251c-25.51,6.593-51.044,13.093-76.564,19.645   c-0.785,0.201-1.524,0.578-2.285,0.873c-13.854,3.407-27.761,6.611-41.55,10.26c-43.154,11.418-86.301,22.888-128.704,36.912   c-20.985,6.94-41.873,14.188-61.358,24.868c-3.966,2.175-7.596,4.699-10.711,8.047c-1.722,1.852-2.589,3.783-2.529,6.223   c-2.489,16.319-2.752,32.792-3.396,49.246c-1.087,27.8,0.266,55.577,0.428,83.364c0.093,15.899,4.798,30.783,8.085,45.997   c7.225,33.43,10.851,67.258,12.087,101.404c1.199,33.127,0.595,66.252,0.417,99.38c-0.002,0.443-0.117,0.886-0.172,1.283   c-1.048,0.258-1.225-0.461-1.468-1.05c-13.337-32.276-26.372-64.642-33.479-99.04c-8.526-41.261-7.196-81.981,6.29-122.063   c2.221-6.6,1.15-13.226,0.867-19.793c-1.34-31.104-1.726-62.202-0.884-93.329c0.433-15.974,1.971-31.861,2.808-47.8   c0.081-1.544,0.356-2.963,1.261-4.23c3.781-7.811,10.975-12.204,18.06-15.8c14.772-7.496,30.215-13.577,45.924-18.993   c39.732-13.699,80.162-25,120.748-35.796C243.871,161.121,262.129,156.248,280.39,151.382z" />
<path fill-rule="evenodd" clip-rule="evenodd" fill="#59595A" d="M280.39,151.382c-18.261,4.866-36.519,9.739-54.781,14.597   c-40.586,10.796-81.016,22.097-120.748,35.796c-15.708,5.416-31.151,11.497-45.924,18.993c-7.085,3.596-14.279,7.989-18.06,15.8   c-7.036-0.82-14.056,0.974-21.379-0.325c2.64-1.596,5.268-3.21,7.919-4.784c42.196-25.051,85.024-48.953,128.962-70.83   c37.795-18.818,76.279-36.084,115.721-51.183c1.859-0.711,3.769-1.29,5.655-1.932c0.08,12.618,0.174,25.235,0.229,37.854   C277.994,147.719,277.758,150.106,280.39,151.382z" />
<path fill-rule="evenodd" clip-rule="evenodd" fill="#F4872B" d="M630.162,197.911c-0.365-0.33-0.73-0.661-1.097-0.991   C629.645,197.014,630.214,197.12,630.162,197.911z" />
<path fill-rule="evenodd" clip-rule="evenodd" fill="#59595A" d="M636.007,203.018c-0.947,0.103-1.669-0.161-1.919-1.188   C634.939,201.882,635.711,202.066,636.007,203.018z" />
<path fill-rule="evenodd" clip-rule="evenodd" fill="#59595A" d="M634.143,201.9c-0.369-0.319-0.738-0.638-1.107-0.957   C633.404,201.262,633.773,201.581,634.143,201.9z" />
<path fill-rule="evenodd" clip-rule="evenodd" fill="#3D3B3C" d="M395.102,233.177c-0.02,4.861,4.22,7.279,6.935,9.792   c8.797,8.142,15.946,17.547,20.685,28.227c3.506,7.901,9.061,9.398,16.304,10.967c10.782,2.335,19.677,8.333,25.915,17.75   c1.17,1.768,1.07,3.788,1.066,5.797c-0.018,10.328,0.088,20.658-0.051,30.985c-0.065,4.835,0.353,9.599,1.037,14.361   c-11.344,4.777-23.356,7.188-35.272,9.929c-13.244,3.046-26.782,4.121-40.21,5.947c-4.167,0.567-4.594-1.472-4.579-4.876   c0.103-24.157,0.06-48.314,0.052-72.472c-0.002-8.876-0.439-8.845-9.037-7.805c-29.23,3.535-56.222,14.066-82.676,26.182   c-8.891,4.071-17.35,9.128-25.821,14.052c-3.386,1.967-5.989,2.535-10.024,0.998c-5.783-2.203-12.17-2.934-18.361-3.9   c-2.827-0.442-3.01-1.507-2.623-3.976c3.269-20.909,6.416-41.839,9.543-62.771c0.57-3.814,1.093-7.146,6.433-6.477   c3.18,0.398,3.683-2.461,3.535-4.852c-0.194-3.166,1.163-3.942,4.094-3.936c13.302,0.033,26.587-0.804,39.881-1.177   c21.429-0.603,42.858-1.314,64.28-2.086C375.841,233.491,385.466,233.255,395.102,233.177z" />
<path fill-rule="evenodd" clip-rule="evenodd" fill="#59595A" d="M376.859,127.12c-6.394,5.261-13.683,7.023-21.791,5.582   c-2.139-5.158,0.204-8.304,4.525-10.923c3.197-1.938,6.69-2.915,10.204-3.464C376.112,117.328,378.786,120.883,376.859,127.12z" />
</svg>