<svg version="1.1" xmlns="http://www.w3.org/2000/svg" xmlns:xlink="http://www.w3.org/1999/xlink" x="0px" y="0px" width="610.2px" height="610.2px" viewBox="0 0 610.2 610.2" enable-background="new 0 0 610.2 610.2" xml:space="preserve">
    <path fill="#FF5C0D" fill-rule="evenodd" clip-rule="evenodd" d="M604.067,305.473c0,6.535,0.264,13.085-0.074,19.604     c-0.344,6.627-1.074,13.254-2.012,19.826c-1.097,7.693-2.409,15.369-3.982,22.979c-1.477,7.137-3.105,14.272-5.23,21.236     c-2.653,8.695-5.631,17.313-8.939,25.78c-3.152,8.072-6.609,16.059-10.484,23.806c-4.169,8.336-8.853,16.426-13.56,24.477     c-2.837,4.852-5.977,9.55-9.287,14.094c-4.75,6.52-9.687,12.91-14.727,19.209c-3.132,3.914-6.479,7.676-9.951,11.294     c-6.626,6.906-13.154,13.942-20.203,20.401c-6.876,6.301-14.115,12.27-21.627,17.797c-8.28,6.094-16.9,11.767-25.658,17.158     c-7.17,4.414-14.622,8.432-22.202,12.102c-8.014,3.879-16.253,7.327-24.532,10.612c-7.107,2.82-14.314,5.479-21.651,7.604     c-8.796,2.549-17.729,4.68-26.692,6.57c-6.771,1.428-13.678,2.218-20.53,3.251c-8.954,1.35-17.962,2.04-27.021,2.165     c-4.249,0.059-8.505,0.583-12.74,0.432c-9.386-0.336-18.787-0.69-28.133-1.56c-8.15-0.757-16.271-2.017-24.335-3.45     c-6.89-1.226-13.715-2.874-20.504-4.593c-6.493-1.644-12.949-3.469-19.33-5.499c-4.205-1.339-8.263-3.148-12.363-4.807     c-5.157-2.087-10.357-4.088-15.416-6.394c-5.601-2.554-11.107-5.328-16.574-8.161c-5.043-2.612-10.047-5.316-14.946-8.189     c-4.543-2.664-9.039-5.44-13.35-8.46c-7.053-4.939-14.068-9.949-20.853-15.245c-5.031-3.928-9.743-8.277-14.467-12.581     c-4.292-3.911-8.573-7.857-12.562-12.07c-5.506-5.814-10.869-11.779-16.04-17.895c-4.399-5.202-8.592-10.596-12.607-16.102     c-8.156-11.184-15.44-22.935-21.921-35.167c-5.949-11.228-11.08-22.837-15.607-34.703c-4.36-11.427-8.021-23.102-10.701-35.021     c-2.244-9.975-3.84-20.102-5.525-30.194c-0.757-4.536-1.101-9.146-1.503-13.734c-0.35-3.991-0.639-7.995-0.74-11.998     c-0.226-8.918-0.722-17.855-0.354-26.754c0.396-9.556,1.396-19.109,2.621-28.6c1.047-8.115,2.601-16.178,4.276-24.192     c1.42-6.793,3.129-13.543,5.09-20.2c1.977-6.711,4.155-13.39,6.723-19.894c3.666-9.285,7.545-18.501,11.758-27.548     c2.921-6.273,6.357-12.334,9.927-18.271c4.498-7.482,9.074-14.95,14.151-22.042c5.74-8.017,11.873-15.777,18.202-23.34     c7.225-8.632,15.03-16.763,23.463-24.242c6.315-5.601,12.621-11.24,19.262-16.439c6.355-4.975,13.006-9.604,19.766-14.021     c7.662-5.005,15.407-9.939,23.45-14.286c8.045-4.348,16.423-8.116,24.806-11.792c6.401-2.807,12.932-5.416,19.596-7.503     c9.987-3.13,20.106-5.858,30.237-8.497c5.43-1.414,10.974-2.455,16.518-3.35c6.195-1,12.443-1.675,18.675-2.439     c12.693-1.555,25.449-1.647,38.208-1.506c11.578,0.128,23.112,0.988,34.548,2.804c8.631,1.37,17.261,2.823,25.803,4.65     c6.611,1.415,13.147,3.276,19.608,5.287c7.25,2.257,14.431,4.766,21.541,7.431c5.032,1.887,9.912,4.186,14.835,6.358     c3.931,1.734,7.884,3.437,11.717,5.371c3.95,1.993,7.828,4.147,11.629,6.414c5.906,3.524,11.761,7.14,17.558,10.841     c3.428,2.189,6.784,4.51,10.026,6.965c6.242,4.727,12.619,9.318,18.505,14.463c8.105,7.087,16.135,14.321,23.591,22.075     c7.365,7.659,14.235,15.836,20.85,24.163c7.814,9.84,15.024,20.163,21.069,31.212c4.906,8.968,9.794,17.964,14.204,27.18     c3.557,7.435,6.607,15.136,9.476,22.87c2.43,6.549,4.47,13.261,6.33,19.999c2.134,7.733,4.04,15.539,5.737,23.379     c1.086,5.014,1.646,10.145,2.385,15.231c0.661,4.56,1.266,9.127,1.846,13.698c0.195,1.541,0.268,3.1,0.346,4.653     c0.426,8.426,0.835,16.853,1.25,25.28C604.495,305.461,604.281,305.467,604.067,305.473z M371.378,302.397     c2.76-1.689,5.321-3.113,7.729-4.76c6.396-4.376,12.169-9.451,17.341-15.26c4.731-5.314,8.744-11.115,12.157-17.297     c3.888-7.042,6.76-14.526,8.592-22.395c1.444-6.203,2.423-12.45,2.533-18.832c0.141-8.052-0.105-16.065-2.258-23.887     c-1.315-4.78-2.445-9.653-4.27-14.242c-2.361-5.943-5.403-11.577-9.003-16.933c-5.603-8.336-12.322-15.583-20.209-21.729     c-9.203-7.172-19.406-12.442-30.64-15.753c-8.323-2.454-16.807-3.897-25.444-3.927c-32.279-0.112-64.558-0.06-96.837-0.022     c-3.346,0.004-6.72,0.111-10.034,0.538c-12.077,1.555-21.86,7.302-29.104,17.019c-5.482,7.354-8.254,15.851-8.259,25.03     c-0.048,90.478-0.034,180.955,0.029,271.432c0.002,3.266,0.312,6.632,1.143,9.776c2.145,8.121,6.007,15.32,12.271,21.147     c7.832,7.287,17.066,11.467,27.685,11.544c30.837,0.221,61.677,0.094,92.516,0.068c9.041-0.008,18.076,0.252,27.086-1.167     c8.432-1.329,16.684-3.251,24.692-6.151c8.3-3.005,16.135-6.971,23.616-11.688c6.97-4.396,13.55-9.305,19.304-15.153     c4.98-5.062,9.711-10.435,13.995-16.093c3.783-4.997,7.197-10.373,10.042-15.954c2.972-5.833,5.217-12.055,7.516-18.205     c3.89-10.411,5.672-21.292,6.065-32.34c0.231-6.509-0.014-13.08-0.665-19.561c-0.613-6.107-1.715-12.213-3.186-18.176     c-2.355-9.552-6.023-18.653-10.528-27.422c-3.84-7.474-13.09-9.669-19.556-5.044c-5.553,3.971-6.715,10.112-4.641,15.268     c2.764,6.868,6.521,13.362,8.305,20.598c1.586,6.436,3.184,12.928,3.934,19.49c0.814,7.128,0.795,14.392-0.56,21.505     c-1.117,5.866-2.173,11.8-4.004,17.463c-3.977,12.305-10.336,23.384-18.863,33.136c-7.352,8.406-15.862,15.505-25.674,20.83     c-5.34,2.898-11.001,5.286-16.694,7.433c-8.803,3.319-18.034,5.047-27.422,5.086c-34.559,0.146-69.118,0.095-103.677,0.03     c-4.262-0.008-8.03-1.662-11.151-4.683c-3.908-3.782-5.331-8.36-5.326-13.771c0.068-89.577,0.092-179.155-0.022-268.732     c-0.012-9.033,8.014-17.009,16.982-16.98c32.579,0.104,65.158,0.085,97.737,0.009c5.97-0.014,11.926,0.179,17.618,1.9     c5.476,1.656,10.979,3.536,16.051,6.135c6.993,3.583,13.003,8.589,18.312,14.515c5.443,6.075,9.596,12.846,12.521,20.372     c3.532,9.089,5.029,18.479,4.349,28.31c-0.646,9.318-3.086,18.03-7.293,26.269c-4.102,8.033-9.745,14.872-16.673,20.674     c-6.739,5.646-14.27,9.758-22.626,12.512c-7.086,2.336-14.39,3.233-21.741,3.312c-18.117,0.196-36.238,0.054-54.357,0.061     c-4.292,0.001-7.586,1.839-9.88,5.479c-3.002,4.764-3.142,9.71-0.251,14.424c2.46,4.012,6.269,5.966,11.169,5.938     c16.919-0.091,33.839-0.002,50.758-0.05c6.754-0.019,13.335,0.578,19.713,3.142c5.447,2.19,10.556,4.865,14.94,8.75     c7.891,6.99,13.138,15.58,15.447,25.946c2.123,9.528,1.042,18.773-2.681,27.635c-3.642,8.668-9.432,15.743-17.352,20.979     c-7.805,5.16-16.396,7.913-25.719,7.946c-27.058,0.097-54.118-0.012-81.177,0.124c-2.14,0.011-4.59,0.832-6.348,2.062     c-4.705,3.291-6.625,7.877-5.363,13.732c1.269,5.885,5.964,9.946,11.944,9.946c27.779-0.002,55.558,0,83.338-0.008     c1.737,0,3.49,0.054,5.211-0.141c7.971-0.897,15.616-2.926,22.932-6.317c11.21-5.196,20.426-12.77,27.854-22.595     c5.295-7.004,9.123-14.725,11.597-23.147c2.909-9.909,3.631-20.019,2.339-30.193c-1.352-10.634-4.908-20.569-10.717-29.66     c-4.188-6.554-9.003-12.535-15.069-17.454C372.805,303.701,372.185,303.111,371.378,302.397z M288.647,177.514     c0,0.003,0,0.007,0,0.01c-14.158,0-28.315-0.002-42.472,0.006c-0.776,0-1.59-0.047-2.323,0.156     c-5.662,1.569-9.23,5.174-10.142,11.045c-0.761,4.901,1.529,10.72,6.609,13.276c2.944,1.481,6.091,1.807,9.252,1.814     c25.496,0.055,50.991,0.08,76.486-0.005c5.009-0.017,9.211,1.37,12.683,5.068c4.917,5.238,6.295,11.349,3.898,17.384     c-2.721,6.852-8.227,11.031-16.236,11.211c-5.517,0.124-11.038-0.024-16.557,0.053c-1.64,0.023-3.357,0.153-4.898,0.661     c-5.906,1.946-8.521,6.392-8.863,11.507c-0.526,7.886,6.161,14.17,13.248,13.957c5.274-0.159,10.558-0.085,15.836-0.019     c5.229,0.065,10.405-0.328,15.3-2.244c3.439-1.347,6.99-2.696,10.021-4.742c6.153-4.154,11.076-9.465,14.513-16.263     c4.541-8.982,5.917-18.323,4.089-28.058c-1.86-9.907-6.734-18.318-14.496-24.797c-7.735-6.457-16.706-9.992-26.895-10.014     C314.683,177.494,301.666,177.514,288.647,177.514z" />
</svg>