<svg xmlns="http://www.w3.org/2000/svg" width="21.263" height="24" viewBox="0 0 21.263 24"><path fill-rule="evenodd" clip-rule="evenodd" d="M19.333 22.098v.759c0 .8-.342 1.142-1.146 1.142H3.082c-.808 0-1.147-.34-1.147-1.14v-.4-.343c-.257-.015-.495-.02-.73-.044-.653-.068-1.142-.56-1.175-1.218C0 20.277.012 19.698.012 19.12c0-1.69.03-3.378-.01-5.065-.03-1.172.7-1.715 1.636-1.65.085.007.17.002.296.002v-.36V1.136c0-.783.346-1.128 1.127-1.13C6.708.006 10.354.01 14 .002c.316 0 .54.097.75.336 1.446 1.668 2.91 3.324 4.35 4.996.132.15.215.392.222.595.026.77.01 5.366.01 6.138v.343h.432c.942.01 1.493.55 1.496 1.496.005 1.553 0 3.105 0 4.66 0 .665.003 1.33 0 1.996-.003 1-.536 1.533-1.536 1.54l-.39-.002zM2.878 12.386h15.497v-6.15H14.49c-.596 0-.726-.135-.726-.74V1.3.965H2.878v11.42zm15.5 9.737H2.893v.662h15.485v-.662zm-5.108-8.667c.007.075.004.104.013.13.718 2.247 1.435 4.494 2.163 6.737.024.074.16.155.247.158.453.017.907-.005 1.36.014.22.01.316-.064.386-.273.716-2.155 1.443-4.308 2.167-6.46.03-.09.052-.18.088-.304-.536 0-1.035-.007-1.534.01-.066 0-.166.113-.19.192-.468 1.638-.93 3.278-1.392 4.917l-.08.28c-.063-.054-.076-.097-.087-.14-.455-1.673-.907-3.345-1.37-5.015-.027-.094-.14-.23-.216-.234-.51-.02-1.02-.01-1.554-.01zm-5.034 5.48c-.08.323-.184.693-.257 1.07-.014.07.082.21.157.238 1.152.424 2.318.514 3.457-.01 1.425-.658 1.57-2.627.295-3.426-.38-.238-.81-.4-1.215-.597-.25-.12-.516-.222-.746-.375-.44-.292-.39-.848.094-1.057.188-.082.415-.14.615-.12.492.05.98.15 1.503.235.1-.355.213-.77.326-1.176-.946-.474-2.38-.488-3.302-.044-1.06.513-1.468 1.827-.847 2.763.33.495.83.764 1.357.993.37.16.74.32 1.1.504.25.13.374.36.35.646-.026.3-.196.51-.48.59-.238.064-.498.13-.735.1-.548-.077-1.088-.212-1.676-.333zm-1-5.265c-.077-.038-.125-.072-.18-.087-1.302-.38-2.577-.364-3.763.364-1.183.727-1.63 1.864-1.61 3.198.018 1.325.524 2.403 1.756 3.032.865.442 1.8.466 2.74.35.326-.04.647-.136.987-.21l-.245-1.222c-.43.064-.817.16-1.208.17-.808.025-1.54-.185-2.005-.913-.347-.542-.4-1.15-.333-1.782.106-1.004.783-1.728 1.78-1.876.596-.09 1.168.008 1.76.212.11-.42.214-.826.32-1.235z" /><path d="M6.99 8.547c.448-.057.78-.202 1.01-.418.23-.217.36-.52.39-.866h-1.4v-2.97h3.057v2.51c0 1.93-1.182 2.896-3.056 2.997V8.548z" /></svg>