<svg xmlns="http://www.w3.org/2000/svg" width="21.251" height="23.994" viewBox="0 0 21.251 23.994"><path fill-rule="evenodd" clip-rule="evenodd" d="M1.918 22.086c-.21 0-.392.005-.572 0-.778-.023-1.333-.584-1.34-1.375-.01-.963-.003-1.928-.003-2.893V13.94c0-1.003.527-1.526 1.536-1.53h.38v-.36V1.17c0-.82.34-1.163 1.156-1.163 3.646 0 7.292.002 10.938-.005.306 0 .524.095.726.327 1.447 1.668 2.91 3.323 4.352 4.996.137.16.225.41.23.622.026.866.012 5.556.012 6.47.216 0 .415-.007.614 0 .72.03 1.29.572 1.295 1.295.014 2.353.013 4.707 0 7.06-.003.75-.58 1.294-1.337 1.315-.18.005-.36 0-.572 0v.772c0 .78-.35 1.136-1.125 1.136H3.045c-.772 0-1.125-.356-1.125-1.137v-.43c-.002-.103-.002-.207-.002-.34zm.96-9.698H18.37V6.224h-3.952c-.51 0-.65-.14-.65-.655V1.285.96H2.878V12.39zM2.873 22.77h15.494v-.66H2.874v.66zm5.344-1.84c.998.108 1.975.168 2.956.024.645-.095 1.265-.268 1.81-.636.9-.605 1.302-1.498 1.404-2.542.188-1.93-.67-3.433-2.688-3.76-.892-.143-1.823-.058-2.736-.06-.245-.002-.49.052-.745.082-.002 2.303-.002 4.576-.002 6.893zm-6.056-6.9v6.92H3.72v-2.417c.593-.07 1.16-.098 1.71-.212 1.113-.23 1.79-1.14 1.752-2.288-.034-1.087-.738-1.863-1.872-2.048-1.048-.17-2.092-.073-3.148.045zm17.4 2.808h-2.495v-1.596h2.658V13.95h-4.248v7h1.57V18.14h2.514v-1.3z" /><path d="M9.793 19.767v-.254c0-1.36.006-2.718-.006-4.077-.002-.232.078-.324.293-.303.475.045.976.017 1.418.165.846.283 1.295 1.108 1.22 2.11-.03.388-.097.79-.234 1.15-.284.75-.9 1.107-1.666 1.202-.327.04-.665.007-1.025.007zM3.732 15.135c.368 0 .716-.037 1.053.01.484.065.765.383.822.835.06.48-.17.92-.588 1.124-.34.166-.84.207-1.288.1v-2.07zM8.194 2.23c.58.284.845.79.722 1.55-.082.508-.248 1.003-.387 1.5-.03.104-.034.178.037.262.48.567.958 1.138 1.443 1.7.04.046.127.066.192.065.57-.008 1.14.005 1.692.173.208.063.416.148.6.263.35.216.482.6.37.967-.098.328-.43.558-.822.56-.41.004-.785-.122-1.096-.38-.342-.284-.66-.596-.982-.904-.08-.078-.153-.113-.265-.102-.828.08-1.642.227-2.438.464-.064.018-.125.087-.16.148-.306.506-.587 1.028-.912 1.52-.17.26-.395.497-.634.697-.302.252-.705.245-.974.042-.31-.235-.443-.647-.282-1.013.094-.21.234-.412.39-.584.453-.498 1.018-.845 1.648-1.06.34-.115.538-.307.67-.63.254-.62.536-1.23.81-1.84.046-.103.04-.183-.02-.282-.38-.627-.566-1.308-.546-2.044.014-.504.187-.9.705-1.07.117-.04.117-.04.237 0zm-.69 5.463l1.845-.34c-.372-.437-.74-.87-1.11-1.31l-.737 1.65zM6.4 8.65c-.566.244-1.032.543-1.404.97-.09.105-.157.234-.208.363-.052.128.007.264.117.323.076.04.2.017.295-.01.07-.02.13-.085.185-.14.413-.43.7-.946 1.016-1.505zm4.234-.8l-.027.054c.256.21.504.43.77.625.2.145.437.21.687.197.128-.007.25-.054.287-.195.038-.135-.023-.242-.128-.325-.035-.027-.074-.052-.114-.072-.468-.225-.97-.267-1.474-.284zm-2.53-3.086h.05c.07-.277.15-.55.204-.832.06-.313.072-.632-.067-.93-.04-.09-.137-.213-.228-.224-.11.014-.15.06-.218.23-.007.017-.025.08-.028.1-.07.582.028 1.134.287 1.656z" /></svg>