<svg xmlns="http://www.w3.org/2000/svg" width="98.646" height="75" viewBox="337.177 15.048 98.646 75"><path d="M423.35 36.156h-37.246v41.537h3.6l1.372-7.135c1.396-2.426 6.092-4.677 6.092-4.677l.14 1.955 1.206 1.504-.02 3.145.78-3.055.117-1.345.762-2.865 4.662 4.474 4.518-4.788.415 1.86.22 2.52 1.225 2.62-.446-2.305 1.144-2.04.38-1.607c.802 0 5.87 2.912 5.87 3.858l1.7 7.878h3.513l-.002-41.532zm-13.904 19.22c-.51 1.86-1.478 2.945-2.813 3.786l.927 2.893 1.67 1.247-4.662 5.024-4.358-4.51 1.624-2.25.68-2.406c-.366-.226-1.15-1.597-1.5-1.825-.37-1.354-1.54-3.015-1.276-4.124.438-1.837 2.007-4.792 2.085-5.4.176-1.316.583-1.554.642-1.52.244.138 2.26 1.155 2.512 1.2.938.165 2.084-2.256 2.987-.82.844 1.345 1.625 3.167 2.23 5.32-.093 1.35-.347 1.915-.748 3.385zm4.24.655h-1.033c-.507 0-.915-.483-.915-1.08l.688-.722v-4.383c0-.596-.736-1.352-.23-1.352-.983-1.94-1.75-5.467-2.972-5.922-4.446-1.66-9.106.25-9.106.25-2.04 1.93-3.114 6.23-3.114 6.23l-.193 2.7-.038 1.77c0 .6 1.425 2.167.923 2.167h-.517c0 2.463.658 4.737 3.436 4.737v.813s-3.914.59-4.356-5.277l-.284-.542c-.506 0-.918-.207-.918-.81v-5.822c0-.595.412-.545.918-.545h.333c1.034-3.14 1.766-7.124 4.916-7.266l3.7-.355c1.795 0 2.24.104 3.487.246 2.086.248 3.658 4.206 4.713 7.504l.434.117h.128c.512 0 .916-.06.916.54v5.916h.01c-.006.605-.413 1.088-.924 1.088zM374.02 20.405c0 2.366 1.92 4.286 4.288 4.286h15.596c2.367 0 4.288-1.918 4.288-4.285v-1.07c0-2.367-1.92-4.286-4.288-4.286h-15.598c-2.365 0-4.285 1.917-4.285 4.284v1.07z" /><path d="M428.743 22.8h-29.24c-.68 2.088-3.92 3.61-3.92 3.61h-18.962s-3.24-1.52-3.92-3.61H344.26c-3.907 0-7.08 3.26-7.08 7.266v52.717c0 4.006 3.175 7.266 7.08 7.266h84.486c3.905 0 7.078-3.26 7.078-7.266V30.067c-.002-4.007-3.18-7.265-7.08-7.265zm1.21 59.984c0 .77-.543 1.4-1.21 1.4h-84.49c-.67 0-1.213-.628-1.213-1.398v-52.72c0-.773.545-1.4 1.214-1.4h84.488c.667 0 1.21.628 1.21 1.4l.002 52.718z" /><path d="M378.808 68.203v8.992h-29.13v-14.22h29.13m-29.13-8.99h29.127v5.226H349.68v-5.226zm0-8.993h29.127v5.23H349.68v-5.23zm0-9.338h29.127v5.23H349.68v-5.23z" /></svg>