<svg xmlns="http://www.w3.org/2000/svg" width="75" height="75" viewBox="342.856 18.698 75 75"><path d="M360.604 51.354h15.7v2.817h-15.7zM360.603 68.71h4.473l7.664-7.665h-12.137M360.603 59.018h14.424l1.276-1.276v-1.544h-15.7M379.874 54.023l7.61-7.61h-7.61M360.604 46.318h15.7v2.82h-15.7z" /><path d="M380.356 18.698c-20.68 0-37.5 16.823-37.5 37.5 0 20.678 16.82 37.5 37.5 37.5 20.678 0 37.5-16.822 37.5-37.5 0-20.677-16.822-37.5-37.5-37.5zm23.516 24.432v28.418c0 .414-.293.755-.652.755h-29.16l5.812-5.813v2.31h.48c-.04-.118-.063-.247-.063-.38l.32-2.67 5.143-5.142c1.286.882 2.646 1.264 3.94 1.264 1.09 0 2.115-.252 3.02-.657.544-.234 1.01-.5 1.445-.783l3.457 2.066c.513 0 1.18.81 1.18 1.404l.547 4.517c0 .135-.022.262-.06.38h.662V46.417l3.767-3.767c.098.13.162.294.162.48zM392.89 53.472l-.19 2.365-.778 1.407.42 2.52.7.578c-.218.106-.47.232-.685.313-1.65.78-3.783.938-5.762-.266l.47-.566.236-.763 5.59-5.588zm-45.346 2.726c0-18.093 14.72-32.813 32.813-32.813 9.252 0 17.613 3.855 23.586 10.036L357.58 79.788c-6.182-5.973-10.036-14.334-10.036-23.59zm32.812 32.813c-6.542 0-12.638-1.93-17.762-5.242l8.305-8.305h32.32c2.103 0 3.813-1.756 3.813-3.915V43.13c0-1.06-.414-2.017-1.083-2.72l1.972-1.973c3.313 5.125 5.244 11.222 5.244 17.762.002 18.092-14.718 32.812-32.81 32.81z" /><path d="M390.31 39.214c-.52 1.04-1.586 1.76-2.828 1.76h-11.564c-1.242 0-2.307-.72-2.83-1.76h-15.405c-2.104 0-3.813 1.755-3.813 3.915v28.415c0 2.16 1.712 3.917 3.813 3.917h.75l3.16-3.16h-3.91c-.358 0-.653-.34-.653-.757V43.13c-.004-.415.29-.756.65-.756h33.836l3.16-3.16h-4.366z" /><path d="M376.882 40.15h9.844c1.492 0 2.703-1.21 2.703-2.7v-.678c0-1.492-1.213-2.703-2.705-2.703h-9.844c-1.49 0-2.703 1.21-2.703 2.703v.678-.002c0 1.493 1.213 2.702 2.705 2.702z" /></svg>