<svg xmlns="http://www.w3.org/2000/svg" viewBox="0 0 48 48"><path d="M43.2 0H4.8A4.807 4.807 0 000 4.8v38.4A4.808 4.808 0 004.8 48h38.4a4.808 4.808 0 004.8-4.8V4.8A4.808 4.808 0 0043.2 0zm-1.846 21.844H31.156a1.108 1.108 0 010-2.216h10.198a1.108 1.108 0 110 2.216zm1.108 5.42a1.108 1.108 0 01-1.108 1.108H31.156a1.108 1.108 0 010-2.216h10.198a1.108 1.108 0 011.078 1.108h.03zM4.8 2.215h18.092v20.677H2.215V4.8A2.585 2.585 0 014.8 2.215zM2.215 43.2V25.108h20.677v20.677H4.8A2.585 2.585 0 012.215 43.2z" /><path d="M7.473 14.363h10.162a1.108 1.108 0 100-2.215H7.472a1.108 1.108 0 000 2.215zM17.634 33.54h-3.972v-4.002a1.108 1.108 0 00-2.216 0v3.973H7.473a1.109 1.109 0 000 2.216h3.973v3.98a1.108 1.108 0 002.216 0v-3.95h3.972a1.108 1.108 0 100-2.216z" /></svg>