<svg xmlns="http://www.w3.org/2000/svg" width="89.34" height="75" viewBox="0 0 89.34 75"><path d="M78.164 55.602c-.082-.005-8.277-.692-12.88-21.333-.206-1.006-5.222-24.606-19.978-24.606-14.754 0-19.77 23.6-19.97 24.572-4.56 20.455-12.63 21.344-12.88 21.366-1.083.024-1.952.91-1.952 2 0 1.103.895 2 2 2 1.154 0 11.428-.69 16.744-24.528.043-.214 4.53-21.41 16.06-21.41 11.505 0 16.015 21.197 16.065 21.443C66.683 58.914 76.957 59.6 78.11 59.6c1.105 0 2.026-.894 2.026-2 0-1.104-.868-1.998-1.972-1.998z" /><path d="M45.307 62.086c-.553 0-1-.447-1-1v-2.942c0-.553.447-1 1-1s1 .447 1 1v2.942c0 .553-.448 1-1 1zm0-9.807c-.553 0-1-.448-1-1v-2.943c0-.553.447-1 1-1s1 .447 1 1v2.942c0 .552-.448 1-1 1zm0-9.807c-.553 0-1-.447-1-1V38.53c0-.553.447-1 1-1s1 .447 1 1v2.942c0 .553-.448 1-1 1zm0-9.807c-.553 0-1-.447-1-1v-2.942c0-.553.447-1 1-1s1 .447 1 1v2.942c0 .553-.448 1-1 1zm0-9.807c-.553 0-1-.448-1-1v-2.943c0-.553.447-1 1-1s1 .447 1 1v2.942c0 .552-.448 1-1 1z" /><path d="M88.9 67.846l-4.594-4.593c-.586-.586-1.535-.586-2.12 0s-.587 1.535 0 2.12l1.528 1.53H8.094V5.622L9.63 7.157c.292.293.675.44 1.06.44.383 0 .768-.147 1.06-.44.587-.586.587-1.535 0-2.12L7.155.438C6.86.145 6.477 0 6.094 0c-.385 0-.77.146-1.06.44L.438 5.034c-.587.586-.587 1.536 0 2.12.292.294.677.44 1.06.44.385 0 .77-.145 1.06-.438l1.534-1.533v63.28c0 1.105.895 2 2 2H83.72l-1.534 1.536c-.586.586-.586 1.535 0 2.12.293.294.675.44 1.06.44.383 0 .768-.146 1.06-.44l4.595-4.593c.586-.586.586-1.535 0-2.12z" /></svg>