<svg xmlns="http://www.w3.org/2000/svg" viewBox="0 0 48 48"><g clip-path="url(#clip0)"><path d="M38.045 18.654c-3.913 3.618-9.792.509-13.772-1.234-2.503-1.093-5.08-2.001-7.85-1.957-2.681.037-5.3.82-7.561 2.26-1.116.739-.082 2.518 1.048 1.794a12.34 12.34 0 017.916-1.942c2.777.274 5.317 1.603 7.828 2.718 4.328 1.913 9.918 3.426 13.832-.2 1.004-.893-.466-2.37-1.44-1.44z" /><path d="M46.59 31.237h-.628a4.7 4.7 0 00.051-.642V8.61a4.807 4.807 0 00-4.8-4.8H26.113v-.214a2.112 2.112 0 10-4.224 0v.214H6.794a4.807 4.807 0 00-4.8 4.8v21.985c0 .214.015.429.044.642h-.62A1.418 1.418 0 000 32.655v1.314a1.418 1.418 0 001.418 1.41h16.534l-9.223 9.239a1.107 1.107 0 00.782 1.89c.293 0 .574-.114.783-.317L21.09 35.394h5.82l10.796 10.797a1.115 1.115 0 001.573-1.573l-9.231-9.224H46.59A1.418 1.418 0 0048 33.97v-1.314a1.418 1.418 0 00-1.41-1.418zm-42.38-.642V8.61a2.585 2.585 0 012.584-2.584h34.42a2.592 2.592 0 012.584 2.584v21.985a2.655 2.655 0 01-.096.642H4.298a2.643 2.643 0 01-.089-.642z" /></g><defs><clipPath id="clip0"><path d="M0 0h48v48H0V0z" /></clipPath></defs></svg>