<svg xmlns="http://www.w3.org/2000/svg" width="136.978" height="75" viewBox="131.492 -68.782 136.978 75"><path d="M251.126-22.827c-.674-2.157-2.766-2.783-4.095-2.783-1.326 0-3.418.625-4.092 2.783h8.188z" /><path d="M247.03-36.662c-11.842 0-21.44 9.6-21.44 21.44 0 11.843 9.6 21.44 21.44 21.44 11.84 0 21.44-9.597 21.44-21.44.002-11.838-9.6-21.44-21.44-21.44zm12.763 29.95c0 2.127-1.73 3.855-3.854 3.855h-17.814c-2.127 0-3.856-1.728-3.856-3.854v-12.264c0-2.01 1.546-3.665 3.513-3.84.705-5.148 5-7.833 9.25-7.833s8.544 2.685 9.25 7.832c1.968.176 3.513 1.832 3.513 3.84V-6.71h-.003z" /><path d="M250.482-15.63c0-1.91-1.542-3.458-3.45-3.458-1.91 0-3.455 1.547-3.455 3.458 0 1.567 1.042 2.884 2.474 3.31v6.302h1.96v-6.303c1.43-.425 2.472-1.743 2.472-3.31z" /><path d="M184.458-29.21c.68-3.7 3.924-6.51 7.816-6.51h17.27c-3.01-6.53-9.61-11.063-17.27-11.063-5.032 0-9.602 1.958-13.002 5.147l5.186 12.425z" /><path d="M192.274-34.554c-3.744 0-6.793 3.047-6.793 6.792 0 .458.047.902.134 1.33l1.028 2.463c1.223 1.81 3.29 3.003 5.634 3.003 2.147 0 4.063-1.008 5.31-2.57l1.095-1.98c.25-.703.39-1.457.39-2.244-.002-3.747-3.05-6.794-6.796-6.794z" /><path d="M196.397-34.554c2.294 1.397 3.833 3.917 3.833 6.792 0 .938-.17 1.833-.47 2.668l.01.005-.032.065c-.284.764-.677 1.473-1.164 2.11l-7.792 14.108c.49.038.99.064 1.492.064 10.503 0 19.018-8.515 19.018-19.02 0-2.392-.445-4.68-1.254-6.79h-13.64z" /><path d="M196.052-20.762c-1.125.61-2.412.956-3.777.956-2.658 0-5.01-1.315-6.457-3.325l-.076.03-.145-.354c-.513-.788-.89-1.67-1.092-2.62L178.38-40.74c-3.176 3.4-5.124 7.96-5.124 12.98 0 9.572 7.07 17.488 16.27 18.82l6.526-11.82z" /><path d="M222.736-4.754h-80.653V-51.54h99.18v11.463c1.868-.422 3.808-.666 5.805-.666 1.637 0 3.232.17 4.786.456v-28.496H131.492V1.423h94.778c-1.44-1.88-2.64-3.947-3.534-6.177zm18.242-57.226c1.688 0 3.057 1.37 3.057 3.057 0 1.688-1.368 3.056-3.057 3.056s-3.055-1.37-3.055-3.056c0-1.69 1.368-3.057 3.055-3.057zm-8.3 0c1.69 0 3.056 1.37 3.056 3.057 0 1.688-1.366 3.056-3.056 3.056-1.688 0-3.055-1.37-3.055-3.056 0-1.69 1.368-3.057 3.055-3.057zm-8.623 0c1.688 0 3.056 1.37 3.056 3.057 0 1.688-1.366 3.056-3.055 3.056s-3.058-1.37-3.058-3.056c0-1.69 1.37-3.057 3.058-3.057zm-81.972-.624h73.706v7.72h-73.707v-7.72z" /></svg>