<svg xmlns="http://www.w3.org/2000/svg" width="119" height="75" viewBox="0 0 119 75"><path d="M14.803 0v11.365h92.24v49.43H119V0H14.803zm86.258 8.006c-1.23 0-2.23-.996-2.23-2.227 0-1.233 1-2.23 2.23-2.23s2.233.996 2.233 2.23c0 1.23-.996 2.226-2.232 2.226zm6.42 0c-1.232 0-2.232-.996-2.232-2.227 0-1.233 1-2.23 2.232-2.23s2.232.996 2.232 2.23c0 1.23-.997 2.226-2.232 2.226zm6.418 0c-1.23 0-2.227-.996-2.227-2.227 0-1.233 1-2.23 2.233-2.23 1.232 0 2.232.996 2.232 2.23 0 1.23-1 2.226-2.232 2.226h-.005z" /><path d="M55.19 53.465l-7.23 7.33-5.453-5.348.035.025-7.254-7.117 5.36-5.44 7.25 7.183L62.32 35.34l5.453 5.35-7.225 7.332-5.36 5.443z" /><path d="M0 14.205V75h104.195V14.205H0zm87.35 5.05c1.63.003 2.947 1.316 2.947 2.94 0 1.622-1.318 2.938-2.945 2.938s-2.94-1.314-2.94-2.936c-.002-1.624 1.313-2.94 2.94-2.94zm-11.405 2.938c0-1.623 1.314-2.938 2.94-2.938s2.944 1.314 2.944 2.938-1.32 2.94-2.944 2.94-2.94-1.315-2.94-2.937v-.003zm-39.11-.7h4.915c.97 0 2.045.784 2.398 1.755l1.072 2.95c.352.972-.15 1.757-1.123 1.757H39.18c-.972 0-2.044-.785-2.397-1.756l-1.072-2.952c-.35-.97.15-1.756 1.124-1.756zM94.52 67.044H8.542V30.113h1.04c1.687-.033 2.367-1.56 2.372-1.57l2.35-5.684c.38-.913 1.626-1.616 2.808-1.616h13c1.18 0 2.428.703 2.807 1.615l2.396 5.793c.186.346.887 1.432 2.315 1.46h56.894v36.932zm1.29-41.912c-1.624 0-2.942-1.314-2.942-2.936 0-1.625 1.318-2.94 2.943-2.94 1.628 0 2.944 1.313 2.944 2.937s-1.316 2.94-2.943 2.94z" /></svg>