<svg xmlns="http://www.w3.org/2000/svg" viewBox="0 0 48 48"><g clip-path="url(#clip0)"><path d="M5.413 45.785c-1.477 0-3.235-.503-5.17-3.264a1.108 1.108 0 111.766-1.315c1.787 2.51 2.953 2.407 4.01 2.311a5.169 5.169 0 002.141-1.196 7.613 7.613 0 013.692-1.816 6.011 6.011 0 015.332 1.92c.35.34.728.652 1.13.93a1.11 1.11 0 11-1.219 1.854c-.5-.345-.972-.73-1.41-1.152-.99-.901-1.699-1.551-3.596-1.352a5.797 5.797 0 00-2.585 1.389 6.646 6.646 0 01-3.279 1.631c-.273.06-.539.06-.812.06zM33.423 16.512l-10.25 18.055c-.192.34-.325.71-.391 1.093l-1.285 7.673a1.336 1.336 0 002.008 1.137l5.908-5.036c.293-.256.543-.557.738-.894l10.265-18.055-6.993-3.973zM42.314 17.154l5.25-9.26a3.33 3.33 0 00-1.255-4.541l-1.196-.68A3.33 3.33 0 0040.57 3.93l-5.258 9.252 7 3.973z" /></g><defs><clipPath id="clip0"><path d="M0 0h48v48H0V0z" /></clipPath></defs></svg>