<svg xmlns="http://www.w3.org/2000/svg" width="75" height="75" viewBox="143.5 248.5 75 75"><path d="M162.548 296.87c-.527-.534-.733-1.3 0-2.033.73-.732 1.505-.533 2.035 0l.833.835 8.444-8.444h-13.407c-2.836 0-5.137 2.302-5.137 5.138v13.407l8.065-8.066-.832-.836zM171.33 301.582l1.27 1.267v.003c.527.535.734 1.306 0 2.035-.73.732-1.504.533-2.033 0l-1.27-1.27-8.067 8.066h13.406c2.835 0 5.137-2.3 5.137-5.137V293.14l-8.442 8.442zM200.773 260.315h-13.406c-2.838 0-5.14 2.302-5.14 5.137v13.41l18.546-18.547zM188.14 284.772h13.407c2.837 0 5.138-2.3 5.138-5.137v-13.408l-18.544 18.545z" /><path d="M181 248.5c-20.676 0-37.5 16.822-37.5 37.5 0 20.68 16.824 37.5 37.5 37.5 20.677 0 37.5-16.82 37.5-37.5 0-20.678-16.823-37.5-37.5-37.5zM147.61 286c0-8.143 2.934-15.61 7.794-21.41-.048.28-.087.566-.087.862v14.184c0 2.836 2.3 5.137 5.137 5.137h14.182c2.835 0 5.137-2.3 5.137-5.137v-14.184c0-2.835-2.302-5.137-5.137-5.137h-14.182c-.296 0-.58.04-.863.087 5.802-4.86 13.27-7.793 21.412-7.793 8.423 0 16.12 3.14 22 8.304l-47.086 47.088c-5.165-5.88-8.306-13.58-8.306-22.002zm25.66-14.63c.748 0 1.437.4 1.437 1.436 0 1.04-.688 1.44-1.438 1.44h-4.232v4.23c0 .924-.4 1.437-1.438 1.437-1.034 0-1.438-.514-1.438-1.438v-4.234h-4.23c-.745 0-1.438-.395-1.438-1.437 0-1.035.693-1.44 1.438-1.44h4.23v-4.283c0-.916.404-1.435 1.44-1.435s1.437.52 1.437 1.438v4.287h4.23zm33.328 36.04c.048-.28.087-.566.087-.862v-14.183c0-2.835-2.3-5.138-5.138-5.138h-14.18c-2.84 0-5.14 2.302-5.14 5.138v14.183c0 2.836 2.3 5.137 5.14 5.137h14.18c.296 0 .582-.04.865-.087-5.8 4.86-13.27 7.794-21.41 7.794-8.425 0-16.123-3.142-22.003-8.306l47.086-47.088c5.164 5.88 8.305 13.58 8.305 22.002 0 8.143-2.932 15.61-7.792 21.41zm-17.22-6.702c-1.027 0-1.508-.398-1.508-1.525 0-1.13.478-1.535 1.508-1.535h10.16c1.025 0 1.507.4 1.507 1.535 0 1.127-.48 1.525-1.507 1.525h-10.16zm6.702 3.496c0 .895-.728 1.63-1.62 1.63-.902 0-1.632-.73-1.632-1.625s.73-1.627 1.63-1.627 1.622.727 1.622 1.62zm-3.25-10.27c0-.895.73-1.626 1.627-1.626h.004c.897 0 1.622.73 1.622 1.62 0 .9-.728 1.632-1.62 1.632-.9 0-1.632-.73-1.632-1.625z" /></svg>