<svg xmlns="http://www.w3.org/2000/svg" width="136.976" height="75" viewBox="-109.041 54.732 136.976 75"><path d="M6.497 86.854c-11.843 0-21.44 9.6-21.44 21.44 0 11.84 9.598 21.438 21.44 21.438 11.84 0 21.438-9.6 21.438-21.44.003-11.838-9.598-21.438-21.438-21.438zM7 123.514c-7.937 0-14.367-6.433-14.367-14.365 0-4.132 1.742-7.855 4.533-10.477l-.973-1.176 3.585-2.96 1.242 1.53c1.305-.595 2.745-.997 4.155-1.177v-.96h-.987v-3.528h5.504v3.53h-.987v.96c1.48.18 2.88.574 4.17 1.156l1.278-1.513 3.596 2.96-.948 1.15c2.805 2.623 4.562 6.355 4.562 10.5 0 7.936-6.433 14.37-14.365 14.37z" /><path d="M7.006 97.625c-6.36 0-11.516 5.157-11.516 11.516 0 6.36 5.154 11.517 11.516 11.517 6.36 0 11.516-5.155 11.513-11.516 0-6.358-5.153-11.515-11.514-11.515zM6.93 118.31l-1.14-8.65c-.373-.33-.61-.81-.61-1.345 0-.99.803-1.795 1.795-1.795s1.794.805 1.794 1.795c0 .582-.28 1.1-.712 1.43L6.93 118.31zm7.33-1.975c-1.81 1.81-4.183 2.854-6.723 2.97l1.198-9.105c.58-.44.954-1.135.954-1.917 0-1.33-1.08-2.41-2.41-2.41-.103 0-.206.007-.306.02v-6.92h.09c5.612 0 10.176 4.562 10.176 10.17 0 2.716-1.058 5.27-2.98 7.192z" /><path d="M-56.076 94.305c.68-3.697 3.923-6.512 7.817-6.512h17.272c-3.01-6.527-9.61-11.063-17.27-11.063-5.033 0-9.604 1.96-13.003 5.147l5.184 12.428z" /><path d="M-48.26 88.96c-3.745 0-6.792 3.047-6.792 6.792 0 .457.046.9.133 1.33l1.027 2.463c1.224 1.81 3.29 3 5.635 3 2.146 0 4.063-1.006 5.31-2.568l1.095-1.98c.247-.703.39-1.456.39-2.243-.003-3.747-3.05-6.794-6.796-6.794z" /><path d="M-44.137 88.96c2.295 1.397 3.833 3.916 3.833 6.792 0 .938-.17 1.832-.47 2.668l.01.005-.032.064c-.284.763-.677 1.472-1.165 2.107l-7.792 14.108c.49.037.988.063 1.493.063 10.503 0 19.02-8.516 19.02-19.02 0-2.395-.447-4.682-1.255-6.792h-13.642v.004z" /><path d="M-44.482 102.752c-1.125.607-2.412.955-3.776.955-2.66 0-5.013-1.314-6.457-3.324l-.076.03-.147-.355c-.512-.787-.89-1.67-1.09-2.62l-6.125-14.667c-3.176 3.4-5.125 7.962-5.125 12.98 0 9.57 7.07 17.487 16.27 18.82l6.525-11.818z" /><path d="M-17.798 118.76H-98.45V71.973H.73v11.465c1.868-.422 3.808-.666 5.805-.666 1.637 0 3.23.17 4.785.457V54.73h-120.36v70.205h94.777c-1.442-1.878-2.64-3.947-3.535-6.177zM.444 61.534c1.688 0 3.057 1.368 3.057 3.057S2.134 67.65.445 67.65s-3.055-1.37-3.055-3.06 1.367-3.056 3.054-3.056zm-8.3 0c1.69 0 3.056 1.368 3.056 3.057s-1.366 3.06-3.056 3.06c-1.688 0-3.055-1.37-3.055-3.06s1.368-3.056 3.054-3.056zm-8.623 0c1.69 0 3.057 1.368 3.057 3.057s-1.367 3.06-3.056 3.06-3.057-1.37-3.057-3.06 1.37-3.056 3.058-3.056zm-81.972-.624h73.707v7.72h-73.707v-7.72z" /></svg>