<svg xmlns="http://www.w3.org/2000/svg" width="136.976" height="75" viewBox="107.592 164.807 136.976 75"><path d="M223.13 196.928c-11.843 0-21.44 9.6-21.44 21.44 0 11.84 9.598 21.438 21.44 21.438 11.84 0 21.438-9.6 21.438-21.44.002-11.837-9.598-21.438-21.438-21.438zm.502 36.66c-7.936 0-14.366-6.433-14.366-14.365 0-4.13 1.742-7.854 4.533-10.476l-.974-1.176 3.585-2.96 1.243 1.53c1.305-.594 2.745-.996 4.155-1.176v-.96h-.988v-3.528h5.504v3.53h-.986v.96c1.48.18 2.88.574 4.17 1.156l1.278-1.513 3.596 2.96-.947 1.15c2.805 2.622 4.562 6.354 4.562 10.5-.002 7.936-6.434 14.368-14.365 14.368z" /><path d="M223.637 207.63c-6.398 0-11.584 5.188-11.584 11.584 0 6.398 5.186 11.585 11.584 11.585 6.396 0 11.585-5.188 11.585-11.586 0-6.396-5.187-11.584-11.585-11.584zm.32 12.772c-.33.375-.813.613-1.352.613-.998 0-1.807-.81-1.807-1.807 0-.996.81-1.805 1.807-1.805.586 0 1.105.28 1.436.715v.002l8.623 1.133-8.706 1.15zm.217-2.934c-.137-.18-.297-.34-.478-.473v-.104h-.02v-7.91h.092c5.49 0 9.986 4.347 10.227 9.78l-9.82-1.292z" /><path d="M160.557 204.38c.68-3.698 3.923-6.513 7.817-6.513h17.27c-3.01-6.527-9.61-11.063-17.27-11.063-5.032 0-9.603 1.96-13.002 5.147l5.185 12.43z" /><path d="M168.374 199.035c-3.746 0-6.793 3.047-6.793 6.792 0 .457.047.9.134 1.33l1.026 2.463c1.224 1.81 3.29 3 5.635 3 2.146 0 4.063-1.006 5.31-2.568l1.095-1.98c.247-.703.39-1.456.39-2.243-.003-3.748-3.05-6.795-6.796-6.795z" /><path d="M172.495 199.035c2.295 1.397 3.833 3.916 3.833 6.792 0 .938-.17 1.832-.47 2.668l.01.005-.032.064c-.284.764-.677 1.473-1.165 2.108l-7.79 14.108c.49.037.988.063 1.493.063 10.502 0 19.018-8.516 19.018-19.02 0-2.395-.445-4.682-1.253-6.792h-13.642v.005z" /><path d="M172.15 212.827c-1.125.607-2.412.955-3.776.955-2.66 0-5.013-1.314-6.457-3.324l-.076.03-.145-.355c-.512-.787-.89-1.67-1.09-2.62l-6.125-14.667c-3.176 3.398-5.125 7.96-5.125 12.98 0 9.57 7.07 17.486 16.27 18.818l6.525-11.817z" /><path d="M198.835 228.834h-80.653v-46.787h99.18v11.465c1.87-.422 3.81-.666 5.806-.666 1.637 0 3.23.17 4.785.457v-28.496h-120.36v70.205h94.777c-1.442-1.88-2.64-3.947-3.535-6.178zm18.24-57.225c1.69 0 3.058 1.367 3.058 3.056s-1.368 3.058-3.057 3.058-3.055-1.37-3.055-3.058 1.37-3.057 3.056-3.057zm-8.3 0c1.69 0 3.057 1.367 3.057 3.056s-1.366 3.058-3.056 3.058c-1.688 0-3.055-1.37-3.055-3.058s1.37-3.057 3.056-3.057zm-8.622 0c1.688 0 3.056 1.367 3.056 3.056s-1.368 3.058-3.057 3.058-3.058-1.37-3.058-3.058 1.37-3.057 3.058-3.057zm-81.972-.625h73.708v7.72H118.18v-7.72z" /></svg>