<svg xmlns="http://www.w3.org/2000/svg" width="136.979" height="75" viewBox="-102.15 -70.817 136.979 75"><path d="M-49.185-31.245c.682-3.698 3.924-6.51 7.817-6.51h17.27c-3.01-6.53-9.608-11.062-17.27-11.062-5.032 0-9.603 1.958-13.002 5.147l5.185 12.425z" /><path d="M-41.367-36.59c-3.746 0-6.793 3.048-6.793 6.793 0 .458.046.902.133 1.33L-47-26.003c1.223 1.808 3.29 3.002 5.634 3.002 2.147 0 4.064-1.008 5.31-2.57l1.096-1.98c.247-.702.39-1.456.39-2.243-.004-3.746-3.05-6.794-6.797-6.794z" /><path d="M-37.245-36.59c2.294 1.398 3.833 3.918 3.833 6.793 0 .938-.17 1.833-.47 2.668l.01.006-.033.064c-.284.764-.676 1.473-1.165 2.11l-7.79 14.108c.49.038.988.064 1.492.064 10.502 0 19.017-8.515 19.017-19.02 0-2.392-.445-4.68-1.254-6.79h-13.64z" /><path d="M-37.59-22.797c-1.125.61-2.412.956-3.777.956-2.66 0-5.012-1.316-6.457-3.326l-.076.03-.146-.354c-.513-.788-.89-1.67-1.093-2.62l-6.123-14.668c-3.176 3.4-5.125 7.96-5.125 12.98 0 9.572 7.07 17.488 16.27 18.82l6.528-11.82z" /><path d="M-10.906-6.788H-91.56v-46.787H7.62v11.464c1.868-.423 3.808-.667 5.805-.667 1.637 0 3.23.17 4.785.456v-28.497h-120.36V-.612h94.78c-1.443-1.88-2.64-3.946-3.536-6.176zM7.336-64.014c1.688 0 3.056 1.37 3.056 3.057S9.022-57.9 7.336-57.9c-1.69 0-3.055-1.37-3.055-3.057 0-1.69 1.37-3.057 3.056-3.057zm-8.3 0c1.688 0 3.055 1.37 3.055 3.057S.726-57.9-.963-57.9s-3.056-1.37-3.056-3.057c0-1.69 1.37-3.057 3.056-3.057zm-8.623 0c1.688 0 3.055 1.37 3.055 3.057S-7.9-57.9-9.587-57.9c-1.69 0-3.06-1.37-3.06-3.057.002-1.69 1.37-3.057 3.06-3.057zm-81.973-.624h73.707v7.72H-91.56v-7.72z" /><path d="M13.898-27.925c-6.36 0-11.515 5.155-11.515 11.515S7.538-4.894 13.898-4.894 25.415-10.05 25.413-16.41c0-6.36-5.155-11.515-11.515-11.515zm.434 13.574c-.992 0-1.794-.804-1.794-1.795 0-.584.28-1.1.71-1.428l1.13-8.568 1.14 8.65c.372.33.61.81.61 1.345 0 .99-.807 1.794-1.796 1.794z" /><path d="M13.39-38.697c-11.843 0-21.44 9.6-21.44 21.44 0 11.843 9.598 21.44 21.44 21.44 11.84 0 21.44-9.597 21.44-21.44 0-11.837-9.6-21.44-21.44-21.44zm.52 36.64C5.976-2.057-.456-8.487-.456-16.42c0-4.132 1.74-7.855 4.533-10.475l-.974-1.177 3.587-2.96 1.242 1.53c1.303-.594 2.743-.998 4.154-1.177v-.957H11.1v-3.528h5.504v3.528h-.988v.962c1.482.18 2.88.575 4.168 1.157l1.28-1.514 3.598 2.96-.95 1.152c2.81 2.622 4.563 6.355 4.563 10.5 0 7.932-6.432 14.363-14.365 14.363z" /></svg>