<svg xmlns="http://www.w3.org/2000/svg" width="75" height="75" viewBox="729.34 448.209 75 75"><path d="M800.146 523.21h-66.61c-2.314 0-4.196-1.883-4.196-4.195v-66.613c0-2.312 1.882-4.192 4.195-4.192h66.61c2.313 0 4.194 1.88 4.194 4.192v66.613c0 2.312-1.882 4.194-4.194 4.194zm-66.12-4.69h65.626v-65.625h-65.626v65.626z" /><path d="M756.734 499.713l-4-3.84c-.738-.707-1.91-.683-2.617.056l-7.247 7.553-5.86-5.834v17.623h17.706l-5.29-5.266 7.363-7.677c.706-.738.683-1.91-.056-2.617zm20.07-28.137l4.002 3.84c.738.707 1.91.683 2.617-.055l7.245-7.554 5.863 5.835v-17.625h-17.705l5.29 5.267-7.364 7.678c-.707.737-.684 1.908.053 2.616zm3.975 24.16l-3.84 4.004c-.707.737-.685 1.908.055 2.615l7.553 7.247-5.834 5.86h17.626v-17.706l-5.27 5.292-7.675-7.365c-.737-.707-1.91-.682-2.616.054zm-28.02-20.184l3.84-4.002c.706-.738.683-1.91-.056-2.617l-7.554-7.246 5.834-5.86h-17.626v17.705l5.268-5.29 7.678 7.363c.737.708 1.91.683 2.615-.053zm18.22-3.635c-7.618-2.287-15.647 2.035-17.934 9.653-2.285 7.616 2.037 15.646 9.654 17.932 7.617 2.286 15.646-2.035 17.933-9.654 2.286-7.618-2.036-15.646-9.654-17.93zm4.902 19.604l-3.228 3.23-5.813-5.813-5.813 5.813-3.227-3.23 5.813-5.812-5.813-5.813 3.227-3.226 5.814 5.81 5.814-5.81 3.228 3.225-5.813 5.813 5.812 5.813z" /></svg>