<svg xmlns="http://www.w3.org/2000/svg" width="90" height="64" viewBox="0 0 90 64" fill="none"><path d="M40.1368 64C39.8808 64 39.6248 63.9061 39.4286 63.7099C39.0361 63.3174 39.0361 62.686 39.4286 62.302L44.6078 57.1228L39.2153 51.7303C38.8228 51.3378 38.8228 50.7064 39.2153 50.3224C39.6078 49.9385 40.2392 49.9299 40.6231 50.3224L46.7239 56.4232C47.1164 56.8157 47.1164 57.4471 46.7239 57.831L40.8365 63.7184C40.6487 63.8976 40.3928 64 40.1368 64Z" /><path d="M44.6675 56.1757C21.135 56.1757 1.98807 47.191 1.98807 36.15C1.98807 29.7591 8.40449 24.0594 18.3704 20.3905C18.8141 20.2284 19.0786 19.7676 18.9933 19.2983V19.2813C18.8738 18.6925 18.268 18.3427 17.7049 18.556C16.1861 19.1191 14.7356 19.7335 13.3533 20.3905C4.74406 24.5373 0 30.1346 0 36.15C0 42.1654 4.74406 47.7627 13.3533 51.9095C21.7322 55.9453 32.8586 58.1638 44.6675 58.1638V56.1757Z" /><path d="M75.9817 20.3905C74.608 19.725 73.149 19.1192 71.6302 18.556C71.067 18.3512 70.4612 18.7011 70.3418 19.2813V19.2983C70.2479 19.7676 70.5124 20.2284 70.9646 20.3905C80.9306 24.0595 87.347 29.7592 87.347 36.15C87.347 45.9453 72.2616 54.1194 52.4236 55.8344C51.9116 55.8771 51.5106 56.3037 51.5106 56.8242C51.5106 57.4044 52.014 57.8737 52.5942 57.8225C61.3997 57.0631 69.5141 55.0238 75.9903 51.9095C84.5995 47.7627 89.3436 42.1654 89.3436 36.15C89.3436 30.1346 84.5995 24.5373 75.9817 20.3905Z" /><path d="M65.5977 9.21295L46.4679 0.467153C45.3501 -0.155718 43.9849 -0.155718 42.8672 0.467153L23.8142 9.17029L23.7374 9.21295C22.6025 9.86995 21.8943 11.0901 21.8943 12.4041V34.4435C21.8943 35.7575 22.6025 36.9776 23.7374 37.6346L42.8672 46.3804C43.4218 46.6961 44.0447 46.8497 44.6675 46.8497C45.2904 46.8497 45.9133 46.6961 46.4679 46.3804L65.5209 37.6773L65.5977 37.6346C66.7325 36.9776 67.4407 35.7575 67.4407 34.4435V12.4041C67.4407 11.0901 66.7411 9.86995 65.5977 9.21295ZM55.7939 12.0116L59.7274 13.829C60.1369 14.0594 60.3844 14.4945 60.3844 14.9638V18.1038L55.7939 16.0048V12.0116ZM60.3844 19.6226V21.5936C60.3844 22.0629 60.1369 22.498 59.7274 22.7284C59.5226 22.8478 59.3007 22.9076 59.0704 22.9076C58.8656 22.9076 58.6523 22.8564 58.4646 22.7625L56.1437 21.696C56.1011 20.9536 55.9816 20.2199 55.7939 19.4861V17.5321L60.3844 19.6226ZM35.8449 18.4707C37.3125 15.0236 40.3928 12.8478 44.0788 12.6601C44.275 12.6515 44.4713 12.643 44.6761 12.643C44.8723 12.643 45.0771 12.6515 45.2733 12.6601C48.9594 12.8478 52.0396 15.015 53.5072 18.4707C55.0089 22.0031 54.3946 25.9793 51.8945 28.8462L44.6761 37.1483L37.4576 28.8462C34.9576 25.9793 34.3432 22.0031 35.8449 18.4707ZM50.4782 10.1686C50.8706 9.94674 51.3485 9.9382 51.741 10.143L54.4116 11.3717V15.3734L53.584 14.9895C52.5601 13.6925 51.2802 12.6601 49.8212 11.9434V11.2949C49.8212 10.8427 50.0771 10.4075 50.4782 10.1686ZM23.7374 34.452V12.4126C23.7374 11.7727 24.0787 11.1669 24.6247 10.8341L43.6692 2.131L43.746 2.08832V10.8256C42.3126 10.928 40.9559 11.2778 39.7272 11.8495V11.1669C39.7272 10.5184 39.3945 9.93821 38.8313 9.61397C38.2682 9.28974 37.6026 9.28975 37.0822 9.59692L29.565 13.4792C28.9251 13.8461 28.5241 14.5372 28.5241 15.2796V32.1483C28.5241 32.1995 28.5326 32.2421 28.5411 32.2933L23.7374 34.5544C23.7459 34.5118 23.7374 34.4862 23.7374 34.452ZM45.6658 44.7251L45.589 44.7678C45.0174 45.092 44.3177 45.092 43.746 44.7678L24.7783 36.0988L36.4934 30.5868L43.5157 38.6671C44.1215 39.3668 45.2051 39.3668 45.8194 38.6671L52.8417 30.5953L64.5482 36.1073L45.6658 44.7251Z" /><path d="M44.7444 26.7731V20.1177L43.7631 21.1331C43.6522 21.244 43.4986 21.3208 43.3194 21.3208C42.9781 21.3208 42.7051 21.0478 42.7051 20.7065C42.7051 20.5273 42.7819 20.3822 42.8843 20.2713L44.7529 18.3856C44.9065 18.2321 45.1198 18.1382 45.3587 18.1382C45.8365 18.1382 46.212 18.5307 46.212 18.9914V26.7816C46.212 27.1826 45.8877 27.5239 45.4867 27.5239C45.0686 27.5069 44.7444 27.1741 44.7444 26.7731Z" /></svg>