<svg xmlns="http://www.w3.org/2000/svg" width="90" height="64" viewBox="0 0 90 64" fill="none"><path d="M40.1421 64C39.8861 64 39.6301 63.9061 39.4338 63.7099C39.0413 63.3173 39.0413 62.6858 39.4338 62.3018L44.6138 57.1219L39.2205 51.7287C38.828 51.3361 38.828 50.7046 39.2205 50.3206C39.6131 49.9281 40.2445 49.9281 40.6286 50.3206L46.7301 56.4222C47.1226 56.8147 47.1226 57.4462 46.7301 57.8302L40.8419 63.7184C40.6542 63.8976 40.3981 64 40.1421 64Z" /><path d="M44.6735 56.1747C21.1378 56.1747 1.98833 47.1888 1.98833 36.1463C1.98833 29.7546 8.40561 24.0541 18.3729 20.3847C18.8166 20.2225 19.0812 19.7617 18.9958 19.2924V19.2753C18.8764 18.6865 18.2705 18.3366 17.7073 18.55C16.1883 19.1132 14.7376 19.7276 13.3551 20.3847C4.74469 24.532 0 30.1301 0 36.1463C0 42.1625 4.74469 47.7605 13.3551 51.9079C21.7351 55.9443 32.863 58.163 44.6735 58.163V56.1747Z" /><path d="M75.9919 20.3847C74.618 19.719 73.1587 19.1132 71.6397 18.5499C71.0765 18.3451 70.4706 18.695 70.3512 19.2753V19.2924C70.2573 19.7617 70.5218 20.2225 70.9741 20.3847C80.9414 24.0541 87.3587 29.7546 87.3587 36.1463C87.3587 45.9429 72.2712 54.1181 52.4305 55.8333C51.9185 55.876 51.5174 56.3027 51.5174 56.8232C51.5174 57.4035 52.0209 57.8729 52.6012 57.8217C61.4079 57.0622 69.5234 55.0226 76.0004 51.9079C84.6108 47.7605 89.3555 42.1625 89.3555 36.1463C89.3555 30.1301 84.6108 24.532 75.9919 20.3847Z" /><path d="M65.6065 9.21417L46.4741 0.467216C45.3562 -0.155739 43.9908 -0.155739 42.8729 0.467216L23.8173 9.17151L23.7405 9.21417C22.6056 9.87126 21.8973 11.0916 21.8973 12.4058V34.4481C21.8973 35.7623 22.6056 36.9826 23.7405 37.6397L42.8729 46.3866C43.4276 46.7024 44.0505 46.856 44.6735 46.856C45.2964 46.856 45.9194 46.7024 46.4741 46.3866L65.5297 37.6823L65.6065 37.6397C66.7414 36.9826 67.4497 35.7623 67.4497 34.4481V12.4058C67.4497 11.0916 66.75 9.86273 65.6065 9.21417ZM55.8013 12.0047L59.2489 13.6005C59.6585 13.8309 60.3924 14.2661 60.3924 15.8192V18.1062L55.8013 16.0069V12.0047ZM60.3924 19.6167V21.5879C60.3924 22.0573 60.1449 22.4925 59.7353 22.7229C59.5305 22.8424 59.3086 22.9021 59.0782 22.9021C58.8734 22.9021 58.6601 22.8509 58.4723 22.757L56.1512 21.6903C56.1085 20.9479 55.9891 20.214 55.8013 19.4801V17.5259L60.3924 19.6167ZM35.8497 18.4646C37.3175 15.017 40.3981 12.841 44.0847 12.6532C44.2809 12.6447 44.4772 12.6361 44.682 12.6361C44.8783 12.6361 45.0831 12.6447 45.2794 12.6532C48.9659 12.841 52.0465 15.0085 53.5143 18.4646C55.0162 21.9975 54.4018 25.9742 51.9015 28.8415L44.682 37.1447L37.4626 28.8415C34.9622 25.9742 34.3478 21.9975 35.8497 18.4646ZM50.4849 10.1614C50.8774 9.93953 51.3553 9.931 51.7479 10.1358L54.4189 11.3646V15.3669L53.5911 14.9829C52.5671 13.6858 51.287 12.6532 49.8278 11.9364V11.2878C49.8278 10.8356 50.0838 10.4003 50.4849 10.1614ZM23.7405 34.4481V12.4058C23.7405 11.7657 24.0819 11.1598 24.628 10.827L43.6751 2.12274L43.7519 2.08007V10.8185C42.3182 10.9209 40.9614 11.2708 39.7325 11.8425V11.1598C39.7325 10.5113 39.3997 9.931 38.8365 9.60672C38.2733 9.28244 37.6077 9.28244 37.0871 9.58965L29.569 13.4725C28.929 13.8394 28.5279 14.5306 28.5279 15.273V32.144C28.5279 32.1952 28.5364 32.2379 28.545 32.2891L23.7405 34.5505C23.7491 34.5164 23.7405 34.4822 23.7405 34.4481ZM45.6719 44.7226L45.5951 44.7652C45.0234 45.0895 44.3236 45.0895 43.7519 44.7652L24.7816 36.0951L36.4983 30.5824L43.5215 38.6637C44.1273 39.3634 45.2111 39.3634 45.8255 38.6637L52.8487 30.5909L64.5568 36.1036L45.6719 44.7226Z" /><path d="M45.6804 21.9804L48.5904 19.0704C48.872 18.7888 48.872 18.3365 48.5904 18.0635C48.3088 17.7904 47.865 17.7819 47.5834 18.0635L44.6735 20.9734L41.7635 18.0635C41.4819 17.7819 41.0381 17.7819 40.7565 18.0635C40.4749 18.3451 40.4749 18.7974 40.7565 19.0704L43.6665 21.9804L40.7565 24.8904C40.4749 25.172 40.4749 25.6243 40.7565 25.8973C40.8931 26.0339 41.0808 26.1021 41.26 26.1021C41.4392 26.1021 41.6269 26.0339 41.7635 25.8973L44.6735 22.9874L47.5834 25.8973C47.72 26.0339 47.9077 26.1021 48.0869 26.1021C48.2661 26.1021 48.4538 26.0339 48.5904 25.8973C48.872 25.6157 48.872 25.1634 48.5904 24.8904L45.6804 21.9804Z" /></svg>