<svg xmlns="http://www.w3.org/2000/svg" width="126.406" height="75" viewBox="22.501 268.5 126.406 75"><path d="M85.858 319.12h-4.3v14.935h25.332v-3.06H85.858m-4.298-51.888v16.354h4.297v-13.29h21.034v-3.063M122.308 292.536c.085-.047.24-.147.467-.3l-.022.45-.014.413v2.51h1.352v-4.34h-1.112l-2.063 1.113.652.552.738-.4zm-.22 11.912l.87-.558c.577-.358.983-.634 1.212-.828.23-.194.396-.386.507-.57.11-.184.164-.38.164-.592 0-.24-.088-.457-.27-.646-.18-.188-.43-.334-.75-.437-.326-.104-.7-.156-1.12-.156-.32 0-.607.02-.864.065-.26.043-.5.104-.717.184-.22.08-.497.215-.827.405l.777.623c.266-.15.52-.267.77-.35.244-.08.498-.12.76-.12.25 0 .445.046.6.134.15.09.224.23.224.41 0 .123-.03.242-.104.356-.07.114-.18.237-.336.373-.15.136-.48.376-.98.726l-1.69 1.16v.675h4.713v-.812h-2.94v-.043.003zm1.253 8.01v-.02c.46-.072.82-.208 1.078-.41.252-.2.38-.44.38-.73 0-.342-.2-.605-.604-.8s-.957-.29-1.654-.29c-.854 0-1.586.15-2.203.452l.662.668c.282-.125.532-.213.763-.263.23-.05.453-.073.674-.073.644 0 .963.173.963.52 0 .226-.122.386-.364.48-.24.092-.623.14-1.146.14h-.52v.74h.51c.563 0 .978.044 1.235.135.258.09.387.24.387.457 0 .24-.106.412-.336.522-.225.106-.57.16-1.04.16-.31 0-.62-.027-.936-.082-.313-.06-.6-.13-.86-.22v.823c.563.164 1.233.284 1.97.284.872 0 1.524-.162 1.995-.408.47-.243.705-.587.705-1.027 0-.3-.143-.54-.424-.72-.278-.177-.69-.29-1.235-.336z" /><path d="M106.64 268.5v75l42.267-9.997v-56.576L106.64 268.5zm28.02 50.62l-4.425 5.32-6.486 2.92 1.36-6.392 3.016-2.918c-3.598 0-10.103-.48-10.103-1.38V289.3c0-1.684 17.527.354 17.527 2.035l-.438 19.255 3.666-3.813 3.635 3.35-7.752 8.993zm8.26-9.668l-3.527-3.543 2.24-2.23 3.525 3.545-2.24 2.23.002-.003zM99.983 307.382l-11.708-10.84v6.378h-14.94c-2.112-12.02-12.58-21.163-25.21-21.163-14.148 0-25.624 11.476-25.624 25.625 0 14.152 11.475 25.626 25.625 25.626 12.63 0 23.098-9.142 25.212-21.164h14.938v6.38l11.708-10.842zm-54.225 13.94l-2.813-1.883-.02.022-11.464-7.365 4.668-7.263 7.195 4.623 10.748-16.02 7.17 4.812-15.482 23.073z" /></svg>