<svg xmlns="http://www.w3.org/2000/svg" width="127.274" height="75" viewBox="-17.501 -8.5 127.274 75"><path d="M46.714 42.117h-4.292v14.936h25.33V53.99H46.714M42.422 2.105V18.46h4.292V5.17h21.038V2.104M83.17 15.532c.084-.046.24-.147.464-.3l-.02.453-.014.413v2.51h1.353v-4.342H83.84l-2.06 1.114.65.55.737-.4.002.002zm-.22 11.914l.87-.557c.576-.357.98-.634 1.21-.828.23-.196.398-.385.51-.57.11-.185.163-.38.163-.593 0-.24-.088-.457-.27-.644-.182-.188-.432-.334-.75-.438-.33-.105-.7-.16-1.12-.16-.32 0-.607.022-.865.067-.26.042-.5.104-.715.183-.22.08-.496.215-.826.405l.772.623c.266-.15.522-.265.77-.347.246-.08.5-.12.76-.12.25 0 .45.043.6.133.15.087.23.226.23.41 0 .123-.034.242-.103.354-.07.114-.18.238-.338.374-.15.136-.48.377-.98.725l-1.693 1.163v.672h4.714v-.813h-2.94v-.04zm1.25 8.016v-.02c.46-.08.818-.21 1.08-.41.25-.203.38-.446.38-.73 0-.343-.2-.61-.605-.804-.403-.194-.96-.286-1.653-.286-.854 0-1.586.15-2.203.45l.658.67c.282-.127.537-.214.766-.265.23-.05.453-.076.675-.076.642 0 .96.174.96.522 0 .226-.123.385-.36.48-.24.092-.624.137-1.146.137h-.522v.74h.51c.564 0 .98.05 1.236.136.258.09.387.24.387.456 0 .24-.11.414-.337.523-.227.107-.57.16-1.04.16-.31 0-.62-.025-.936-.08-.312-.058-.603-.132-.86-.222v.823c.564.167 1.234.286 1.97.286.873 0 1.524-.163 1.996-.406.47-.246.704-.588.704-1.03 0-.3-.14-.543-.423-.72-.28-.176-.69-.287-1.24-.334z" /><path d="M67.503-8.5v75l42.27-10V-.075L67.504-8.5zm28.02 50.617l-4.426 5.32-6.486 2.92 1.36-6.39 3.017-2.92c-3.6 0-10.104-.48-10.104-1.377V12.3c0-1.686 17.53.35 17.53 2.036l-.44 19.254 3.67-3.815 3.634 3.35-7.754 8.992zm8.258-9.667l-3.525-3.543 2.24-2.23 3.524 3.548-2.24 2.225zM61.278 30.786l-11.71-10.84v6.38h-14.4c-.17 0-.35.018-.523.025C32.587 13.9 21.78 4.405 8.747 4.405c-14.496 0-26.248 11.75-26.248 26.25 0 7.773 3.383 14.758 8.753 19.563l1.938-5.463c0-1.326 1.804-3.46 2.935-3.46l2.078-.116.198 2.758L.105 46.06l-.03 4.44 1.1-4.313.168-1.896 1.073-4.04 6.577 6.31 6.36-6.744.592 2.62.308 3.55 1.726 3.7-.628-3.253 1.61-2.884.54-2.26c1.13 0 4.707 1.083 4.707 2.415l2.365 6.217c4.114-3.808 7.003-8.918 8.02-14.673H49.57v6.38l11.708-10.844zm-45.454-3.05c-.72 2.624-2.082 4.15-3.968 5.344l1.307 4.07 2.35 1.76-6.568 7.087L2.8 39.64l2.29-3.172.955-3.387c-.517-.323-1.618-2.257-2.118-2.575-.518-1.91-2.164-4.252-1.795-5.813.62-2.59 2.83-6.758 2.94-7.613.248-1.86.817-2.192.904-2.146.344.194 3.188 1.625 3.537 1.692 1.33.232 2.94-3.186 4.216-1.156 1.188 1.894 2.282 4.464 3.14 7.5-.124 1.893-.48 2.693-1.046 4.77v-.004zm5.972.924H20.34c-.715 0-1.292-.68-1.292-1.522l.97-1.02v-6.175c0-.843-1.04-1.906-.32-1.906-1.392-2.73-2.47-7.7-4.198-8.35-6.268-2.338-12.84.355-12.84.355-2.87 2.722-4.39 8.787-4.39 8.787l-.272 3.807-.052 2.493c0 .842 2.008 3.052 1.297 3.052h-.73c0 3.47.928 6.675 4.848 6.675v1.146s-5.52.834-6.143-7.438l-.398-.766c-.717 0-1.298-.3-1.298-1.147v-8.206c0-.84.58-.762 1.297-.762h.47c1.46-4.43 2.49-10.047 6.92-10.25l5.225-.493c2.53 0 3.163.144 4.916.35 2.942.346 5.163 5.925 6.648 10.576l.61.162h.183c.718 0 1.297-.08 1.297.765v8.34h.004c0 .844-.58 1.524-1.294 1.525z" /></svg>