<svg xmlns="http://www.w3.org/2000/svg" width="75" height="75" viewBox="0 0 75 75"><path d="M55.254 32.966c-.784-.77-1.627-1.603-2.346-2.31-3.232 3.223-6.49 6.48-9.598 9.582l2.21 2.467c3.28-3.284 6.516-6.52 9.734-9.74zM31.17 37.634c.276.03.65.05 1.118.057l1.185-1.183c-.63.312-1.292.633-2.03.98-.09.043-.183.094-.274.147z" /><path d="M37.5 0C16.822 0 0 16.823 0 37.5 0 58.178 16.82 75 37.5 75 58.177 75 75 58.178 75 37.5 75 16.823 58.177 0 37.5 0zm24.287 54.776V20.224l2.004-2.002V56.78l-2.003-2.004zM70.89 37.5c0 5.215-1.203 10.154-3.344 14.555V22.96c2.14 4.398 3.345 9.33 3.345 14.54zM59.503 12.415l-.056.056L55.7 16.22l-2.005 2.004-6.285 6.285-9.676 9.677h-.002l-3.465 3.466-2.04 2.04-10.18 10.178-3.66 3.662-5.973 5.972c-.303-.345-.597-.696-.885-1.053l4.918-4.92h-.245v-5.842h5.845v.243l8.393-8.39c-1.236-.22-1.702-.658-1.87-1.25-.348-1.237 1.106-2.166 2.004-2.61 5.214-2.437 7.13-3.804 7.83-4.458-3.118.23-9.395 2.367-12.263 3.435l-2.106-1.366c1.162-.432 11.448-4.215 14.98-4.082l.074.006c.395.044.84.204 1.18.5l11.49-11.49H15.216l-2.002-2.005h40.55l3.756-3.756H15.442C21.33 7.27 29.053 4.11 37.5 4.11c8.423 0 16.12 3.14 22.002 8.305zm-48.29 5.806l2.003 2.003v34.553l-2.003 2.002V18.22zm10.836 11.987v5.843h-5.845v-5.843h5.845zm-5.845-2.896V21.47h5.845v5.843h-5.845zm5.845 11.638v5.842h-5.845v-5.842h5.845zM7.454 22.944v29.1c-2.14-4.4-3.346-9.332-3.346-14.544 0-5.215 1.205-10.154 3.346-14.556zM15.978 63l.77-.77 3.45-3.448 2.003-2.004L33.41 45.57l29.593-29.592c.296.35.584.708.866 1.07L53.804 27.11c1.904 1.942 3.783 3.86 5.72 5.828-.13.142-.356.407-.602.653-3.544 3.55-7.1 7.083-10.624 10.65-.633.638-1.266 1.084-2.19 1.167-1.83.165-3.61.52-5.005 1.855-.233-.196-2.61-1.268-2.61-1.268s.928-1.21 1.624-1.936c.692-.73.605-2.383.712-3.362.03-.27.085-.52.152-.763l-4.694 4.694.93 1.91c-.876-.168-1.645-.34-2.325-.515L24.137 56.78h35.648l2.002 2.003H22.133l-3.755 3.755h41.18C53.667 67.73 45.95 70.89 37.5 70.89c-8.195 0-15.706-2.972-21.522-7.89z" /></svg>