<svg xmlns="http://www.w3.org/2000/svg" width="93.262" height="75" viewBox="0 0 93.262 75"><path d="M0 64.552V1.118C.45.158 1.256 0 2.232 0c29.597.016 59.193.013 88.79.013 1.854 0 2.24.384 2.24 2.233V63.52c0 1.81-.378 2.193-2.177 2.193-10.602.002-21.2 0-31.803 0-.33-.002-.658-.035-1.06-.057 0-.52.005-.948 0-1.38-.01-1.443-.528-1.984-1.954-1.986-6.592-.006-13.183-.007-19.773 0-1.315.003-1.86.54-1.93 1.855-.024.484-.003.972-.003 1.5-.403.03-.676.065-.948.065-10.54.003-21.078-.005-31.617.015-.947.004-1.62-.29-1.997-1.173zm46.37-7.075h36.09c1.788 0 2.04-.252 2.04-2.046V10.296c0-1.74-.324-2.07-2.055-2.07H10.36c-1.703 0-2.027.322-2.028 1.992V55.54c0 1.678.262 1.936 1.95 1.936h36.09zm21.015 2.017c-1.068 0-1.992.948-1.99 2.04.004 1.094.94 2.062 1.99 2.06 1.03-.004 2.01-1.01 2.012-2.06 0-1.06-.965-2.04-2.012-2.04zm6.94 4.16c1.065-.02 2-.997 1.974-2.07-.022-1.058-1.02-2.035-2.052-2.012-1.064.024-1.97.994-1.95 2.09.02 1.11.938 2.013 2.028 1.992zM45.15 74.998H25.655c-1.71 0-2.302-.587-2.31-2.278-.003-.59-.015-1.182.004-1.77.04-1.24.685-1.893 1.907-1.93.652-.02 1.306-.007 1.958-.007h37.308c2.057 0 2.498.447 2.5 2.517 0 .528.01 1.057-.004 1.585-.032 1.25-.653 1.877-1.91 1.88-3.608.01-7.216.004-10.82.005l-9.14-.002z" /><path fill-rule="evenodd" d="M43.226 33.95c.927 1.615 1.81 3.15 2.68 4.663-3.937 5.764-10.87 8.104-15.862 6.874-2.67-.657-4.79-2.045-6.518-3.926-4.682-5.098-4.507-12.87.387-17.805 3.793-3.827 8.946-4.86 14.205-2.793 3.33 1.308 5.945 3.394 7.813 6.146 1.318 1.94 2.375 4.015 3.655 5.975.992 1.524 2.092 3.002 3.26 4.426.563.687 1.34 1.266 2.108 1.793 5.405 3.697 11.635 1.434 12.67-4.565.458-2.654.02-5.125-1.763-7.334-2.292-2.837-5.48-3.54-9.02-2.016-2.525 1.086-4.293 2.883-5.795 4.92-.363.492-.704.998-1.127 1.603-.967-1.643-1.863-3.17-2.75-4.676 3.916-5.765 10.804-8.26 16.025-6.984 3.242.792 5.715 2.56 7.41 5.074 3.29 4.87 3.37 9.912.258 14.84-3.36 5.324-10.046 7.076-16.248 4.423-3.642-1.56-6.32-4.05-8.268-7.153-1.043-1.658-1.935-3.39-2.904-5.084-1.253-2.192-2.793-4.193-4.97-5.758-5.117-3.675-10.94-2.016-12.68 3.633-.892 2.895-.45 5.635 1.524 8.103 2.273 2.843 5.486 3.535 9.023 2.02 1.908-.815 3.412-2.063 4.674-3.542.75-.874 1.41-1.808 2.216-2.857z" clip-rule="evenodd" /></svg>