<svg xmlns="http://www.w3.org/2000/svg" width="129.6" height="75.002" viewBox="0 0 129.6 75.002"><path d="M43.728 26.505s61.963 9.328 9.127 22.603l1.4-4.5-24.97 9.104 24.98 9.102-1.69-4.822c68.7-26.556-8.83-31.484-8.83-31.484l-.017-.003z" /><path d="M37.98 35.943c-11.716.8-30.834 6.404-35.525 8.19v-33.45c3.93 1 14.6 3.5 28.4 4.88 16.15 1.61 40.65 2.6 63.95-6.65v.05c1.59-2.29 3.62-4.24 5.96-5.73l-6.05-3.24.02 5.83c-17.08 8.3-47.73 8.74-63.56 7.16-17.25-1.73-29.52-5.21-29.64-5.24l-1.63-.47v40.68l1.78-.75c.16-.07 15.83-6.63 35.18-8.71 0 0 11.41-1.34 25.66 1.69l2.93-2.126c-12.467-3.007-25.607-2.265-27.45-2.14l-.025.025zm71.27 24.92c0 .067.084 6.722-3.864 9.872v-.002c-1.59 1.27-3.666 1.813-6.195 1.64v-34.63c-1.68-1.306-3.16-2.858-4.39-4.62V52.25c-2.82-2.598-7.75-4.793-10.99-6.65l-2.19 2.47c3.15 1.917 10.26 5.27 13.19 7.892v18.95h3.54c.61.062 1.2.1 1.77.1 2.71 0 5.01-.75 6.88-2.243 4.95-3.96 4.84-11.63 4.83-11.93V42.1c-.86 0-1.72-.07-2.56-.17v18.95l-.015-.016zm2.56-57.596c-9.826 0-17.79 8.063-17.79 18.01s7.964 18.007 17.79 18.007 17.79-8.06 17.79-18.007c0-9.947-7.964-18.01-17.79-18.01zm9.065 16.25c-3.646 3.744-7.297 7.482-10.942 11.228-.61.62-1.29 1.05-2.19.97-.94.07-1.62-.48-2.26-1.04-2.12-1.85-4.22-3.7-6.3-5.58-1.73-1.57-1.32-3.99.82-4.86 1.022-.417 1.97-.13 2.783.583 1.42 1.25 2.85 2.497 4.243 3.78.41.385.642.405 1.06-.02 4.06-4.204 8.14-8.395 12.24-12.56.46-.464 1.05-.876 1.654-1.087 1.14-.392 2.342.138 2.994 1.16.68 1.07.653 2.378-.194 3.3-1.273 1.41-2.62 2.75-3.938 4.108l.02.025z" /></svg>