<svg xmlns="http://www.w3.org/2000/svg" viewBox="0 0 48 48"><path d="M43.2.85H4.8A4.807 4.807 0 000 5.65v24.775a4.807 4.807 0 004.8 4.8h18.092v9.71H15.39a1.108 1.108 0 000 2.216h17.22a1.108 1.108 0 000-2.216h-7.502v-9.71H43.2a4.808 4.808 0 004.8-4.8V5.649a4.808 4.808 0 00-4.8-4.8zm2.585 29.575a2.585 2.585 0 01-2.585 2.584H4.8a2.585 2.585 0 01-2.585-2.584V5.649A2.585 2.585 0 014.8 3.065h38.4a2.585 2.585 0 012.585 2.584v24.776z" /><path d="M23.232 21.962a1.1 1.1 0 00.783.325 1.13 1.13 0 00.783-.325l5.353-5.354a1.107 1.107 0 00-1.565-1.566l-3.478 3.471V7.6a1.108 1.108 0 00-2.216 0v10.863l-3.478-3.471a1.109 1.109 0 10-1.565 1.565l5.383 5.406zM31.252 23.18a1.108 1.108 0 00-1.108 1.108v1.861H17.856v-1.86a1.108 1.108 0 10-2.215 0v2.953a1.108 1.108 0 001.107 1.108h14.504a1.115 1.115 0 001.107-1.108v-2.954a1.108 1.108 0 00-1.107-1.108z" /></svg>