<svg xmlns="http://www.w3.org/2000/svg" viewBox="0 0 130 75"><path d="M112 3.27a18 18 0 1 0 18 18 18 18 0 0 0-18-18zm.79 6a9.71 9.71 0 0 1 0 19.37v-2.71a5.66 5.66 0 0 0 0-11.22zm3.83 11.1a4.63 4.63 0 1 1-4.62-4.64 4.61 4.61 0 0 1 4.6 4.59zm-5.34-11.1v5.43a5.66 5.66 0 0 0 0 11.25v2.65a9.71 9.71 0 0 1 0-19.37zm13.21 24.05a3.55 3.55 0 0 1-1.6-.12 67 67 0 0 0-10.36-1.25h-1a68.37 68.37 0 0 0-10.32 1.25c-5.16 1.07 2.62-3 5.26-4.39a11.27 11.27 0 0 0 5.06 1.33h1a11.38 11.38 0 0 0 5.08-1.34c1.81.93 6.12 3.2 6.88 4.15z" /><path d="M43.85 26.5s62 9.33 9.13 22.6l1.4-4.5-25 9.1 25 9.1-1.67-4.8c68.75-26.55-8.84-31.48-8.84-31.48z" /><path d="M38.1 35.94c-11.72.8-30.85 6.4-35.55 8.19V10.68A200.13 200.13 0 0 0 31 15.56c16.16 1.61 40.68 2.6 64-6.65V9a21 21 0 0 1 6-5.73L94.87 0v5.83C77.8 14.12 47.13 14.56 31.29 13A189.27 189.27 0 0 1 1.63 7.74L0 7.27v40.67l1.78-.75A139.69 139.69 0 0 1 37 38.49a87.64 87.64 0 0 1 25.68 1.69l2.93-2.13C53.12 35 40 35.79 38.13 35.91zm71.32 24.91c0 .07.08 6.72-3.87 9.87a8.66 8.66 0 0 1-6.2 1.64V37.74A21.27 21.27 0 0 1 95 33.12v19.12c-2.82-2.6-7.76-4.79-11-6.65l-2.19 2.47C84.92 50 92 53.33 95 56v18.9h3.54a17.6 17.6 0 0 0 1.77.1 10.71 10.71 0 0 0 6.88-2.24c5-4 4.84-11.63 4.83-11.93V42.09a21.75 21.75 0 0 1-2.56-.17v18.95z" /></svg>