<svg xmlns="http://www.w3.org/2000/svg" viewBox="0 0 130 75"><path d="M112 3.27a18 18 0 1 0 18 18 18 18 0 0 0-18-18zm-7.84 8.61c0-.45.31-.41.69-.41h.25c.78-2.37 1.33-5.37 3.71-5.47l2.79-.27a16.86 16.86 0 0 1 2.63.19c1.57.19 2.76 3.17 3.55 5.65l.33.09h.1c.39 0 .69 0 .69.41v4.46a.77.77 0 0 1-.7.82h-.78a.76.76 0 0 1-.69-.81l.52-.54v-3.3c0-.45-.56-1-.17-1-.74-1.46-1.32-4.12-2.24-4.46a10.51 10.51 0 0 0-6.87.19c-1.54 1.45-2.35 4.69-2.35 4.69l-.15 2v1.33c0 .45 1.07 1.63.7 1.63h-.39c0 1.86.5 3.57 2.59 3.57v.61s-3 .44-3.28-4l-.21-.41c-.38 0-.69-.16-.69-.61zm9.43 10l1.26.94-3.52 3.79-3.33-3.4 1.22-1.7.51-1.81c-.28-.17-.87-1.2-1.13-1.38-.28-1-1.16-2.27-1-3.11.33-1.38 1.51-3.61 1.57-4.07.13-1 .44-1.17.48-1.15s1.7.87 1.89.9c.71.12 1.57-1.7 2.25-.62a15.64 15.64 0 0 1 1.68 4 11 11 0 0 1-.56 2.55 4.57 4.57 0 0 1-2.12 2.85zM100.1 33.66c-1-1.4 1-5.38 1-5.38 1.05-1.83 4.59-3.52 4.59-3.52l.11 1.47.91 1.13v2.37l.59-2.3.09-1 .57-2.16 3.52 3.37L114.9 24l.31 1.4.17 1.9.92 2-.3-1.74.86-1.54.29-1.21c.6 0 4.43 2.19 4.43 2.91 0 0 2.2 4.42 1.28 5.94s-21.81 1.4-22.76 0zm-56.25-7.15s62 9.33 9.13 22.6l1.4-4.5-25 9.1 25 9.1L52.71 58c68.75-26.55-8.84-31.48-8.84-31.48z" /><path d="M38.1 35.94c-11.72.8-30.85 6.4-35.55 8.19V10.69A200.13 200.13 0 0 0 31 15.57c16.16 1.61 40.68 2.6 64-6.65V9a21 21 0 0 1 6-5.73L94.87 0v5.83C77.8 14.13 47.13 14.57 31.29 13A189.27 189.27 0 0 1 1.63 7.75L0 7.28v40.67l1.78-.75A139.69 139.69 0 0 1 37 38.49a87.64 87.64 0 0 1 25.68 1.69l2.93-2.13C53.12 35 40 35.79 38.13 35.91zm71.32 24.91c0 .07.08 6.72-3.87 9.87a8.66 8.66 0 0 1-6.2 1.64V37.74A21.27 21.27 0 0 1 95 33.12v19.12c-2.82-2.6-7.76-4.79-11-6.65l-2.19 2.47C84.92 50 92 53.33 95 56v18.9h3.54a17.6 17.6 0 0 0 1.77.1 10.71 10.71 0 0 0 6.88-2.24c5-4 4.84-11.63 4.83-11.93V42.1a21.75 21.75 0 0 1-2.56-.17v18.94z" /></svg>