<svg xmlns="http://www.w3.org/2000/svg" viewBox="0 0 130 75"><path d="M43.77 26.51s61.89 9.33 9.12 22.6l1.4-4.5-24.94 9.1 24.95 9.1L52.6 58c68.61-26.55-8.82-31.48-8.82-31.48z" /><path d="M38 35.94c-11.7.8-30.8 6.4-35.48 8.19V10.69a199.4 199.4 0 0 0 28.36 4.88c16.13 1.61 40.6 2.6 63.87-6.65V9a21 21 0 0 1 6-5.73L94.69 0v5.83C77.65 14.13 47 14.57 31.23 13a188.59 188.59 0 0 1-29.6-5.25L0 7.28v40.67l1.78-.75a139.21 139.21 0 0 1 35.14-8.71 87.31 87.31 0 0 1 25.63 1.69l2.93-2.13C53 35 39.89 35.79 38.05 35.91zm71.18 24.91c0 .07.08 6.72-3.86 9.87a8.63 8.63 0 0 1-6.19 1.64V37.74a21.25 21.25 0 0 1-4.38-4.62v19.12C92 49.65 87 47.45 83.8 45.6l-2.19 2.47C84.76 50 91.86 53.33 94.79 56v18.9h3.54a17.53 17.53 0 0 0 1.77.1 10.67 10.67 0 0 0 6.9-2.24c4.94-4 4.83-11.63 4.82-11.93V42.1a21.67 21.67 0 0 1-2.56-.17v18.93z" /><path d="M112 3.26a18 18 0 1 0 18 18 18 18 0 0 0-18-18zm9.53 24.06a2.47 2.47 0 0 1-3.49 3.5l-6-6-6 6a2.47 2.47 0 0 1-3.49-3.5l6-6-6-6a2.47 2.47 0 0 1 3.49-3.5l6 6 6-6a2.47 2.47 0 0 1 3.49 3.5l-6 6z" /></svg>