<svg xmlns="http://www.w3.org/2000/svg" viewBox="0 0 144.5 75"><path d="M143.5 31.6c-.2-.6-.2-1.2 0-1.7l.9-2.7c.4-1.2 0-2.4-1-3.1l-2.3-1.7c-.5-.3-.8-.8-1-1.4l-.9-2.7c-.4-1.2-1.4-1.9-2.7-1.9h-.9V9.2S118.9.2 118.5 0v7.6C104.8 11.7 91 15.8 54 13c-17.5-1.7-29.9-5.2-30-5.2l-1.6-.5v14.2H25V10.7c4 1 14.8 3.5 28.7 4.9 16.3 1.6 42.5 2 64.9-5.3v6.2c-.8.3-1.4.9-1.6 1.7l-.9 2.7c-.2.6-.5 1.1-1 1.4l-2.3 1.7c-1 .7-1.4 2-1 3.1l.9 2.7c.2.6.2 1.2 0 1.7l-.9 2.7c-.4 1.2 0 2.4 1 3.1l2.3 1.7c.5.3.8.8 1 1.4l.9 2.7c.2.8.8 1.4 1.5 1.7v7.4c-2.9-2.6-7.9-4.8-11.1-6.6l-2.2 2.5c3.2 1.9 10.4 5.3 13.3 7.9v19h5.4c2.7 0 5.1-.8 7-2.2 5-4 4.9-11.6 4.9-11.9V45.1h.9c1.2 0 2.3-.8 2.7-1.9l.9-2.7c.2-.6.5-1.1 1-1.4l2.3-1.7c1-.7 1.4-2 1-3.1l-1.1-2.7zM122.8 5.8l10.2 4.9v5.5c-.4-.1-.7-.2-1-.5l-2.3-1.7c-1-.7-2.3-.7-3.3 0l-2.3 1.7c-.4.3-.8.4-1.2.5V5.8zm6.3 64.9c-1.6 1.3-3.7 1.8-6.3 1.6V45.2c.4.1.9.2 1.2.5l2.3 1.7c1 .7 2.3.7 3.3 0l2.3-1.7c.3-.2.7-.4 1-.5v15.7c.1 0 .2 6.7-3.8 9.8zM128 42.5c-6.5 0-11.8-5.3-11.8-11.8s5.3-11.8 11.8-11.8c6.5 0 11.8 5.3 11.8 11.8s-5.2 11.8-11.8 11.8z" /><path d="M60.9 36c-11.9.8-31.2 6.4-35.9 8.2V30.7h-2.6V48l1.8-.8c.2-.1 16-6.6 35.6-8.7 0 0 11.5-1.3 26 1.7l3-2.1c-12.7-3-26-2.3-27.9-2.1zM128 20.9c-5.4 0-9.8 4.4-9.8 9.8s4.4 9.8 9.8 9.8 9.8-4.4 9.8-9.8-4.3-9.8-9.8-9.8zm6.9 8.6l-2.6 2.5c-.2.2-.3.4-.2.7l.6 3.5c.1.6-.6 1.1-1.1.8l-3.2-1.7c-.2-.1-.5-.1-.7 0l-3.2 1.7c-.6.3-1.3-.2-1.1-.8l.6-3.5c0-.3 0-.5-.2-.7l-2.6-2.5c-.5-.5-.2-1.3.4-1.3l3.5-.5c.3 0 .5-.2.6-.4l1.6-3.2c.3-.6 1.1-.6 1.4 0l1.6 3.2c.1.2.3.4.6.4l3.5.5c.7.1 1 .9.5 1.3z" /><path d="M75.2 27.3s54.2 8.6.7 21.9l1.4-4.5L52 53.8l25.3 9.1-1.6-4.9c69.5-26.5-.5-30.7-.5-30.7zm-11.4-7.4c-2.9 0-5.4 2.1-6 4.9H47.6c-.6-3.6-3.8-6.4-7.5-6.4-3.8 0-6.9 2.8-7.5 6.4H18.9c-.7-4.7-4.6-8.3-9.4-8.3-5.2 0-9.5 4.3-9.5 9.6s4.3 9.6 9.5 9.6c4.8 0 8.8-3.6 9.4-8.3h13.6c.6 3.6 3.8 6.4 7.5 6.4 3.8 0 6.9-2.8 7.5-6.4h10.2c.6 2.8 3.1 4.9 6 4.9 3.4 0 6.2-2.8 6.2-6.2s-2.7-6.2-6.1-6.2zM9.5 33.7c-4.2 0-7.6-3.4-7.6-7.6 0-4.2 3.4-7.6 7.6-7.6s7.6 3.4 7.6 7.6c0 4.2-3.4 7.6-7.6 7.6zm30.6-1.9c-3.1 0-5.7-2.6-5.7-5.7s2.6-5.7 5.7-5.7 5.7 2.6 5.7 5.7c0 3.2-2.5 5.7-5.7 5.7zm23.8-1.5c-2.3 0-4.2-1.9-4.2-4.2 0-2.3 1.9-4.2 4.2-4.2 2.3 0 4.2 1.9 4.2 4.2 0 2.3-1.9 4.2-4.2 4.2z" /></svg>