<svg xmlns="http://www.w3.org/2000/svg" viewBox="0 0 122.1 75"><path d="M122 27.1c.4-1.2 0-2.4-1-3.1l-2.3-1.7c-.5-.3-.8-.8-1-1.4l-.9-2.7c-.4-1.2-1.4-1.9-2.7-1.9h-.9V9.2S96.5.2 96.1 0v7.6c-13.7 4-27.5 8.1-64.5 5.4-17.5-1.7-29.9-5.2-30-5.2L0 7.3V48l1.8-.8c.2-.1 16-6.6 35.6-8.7 0 0 11.5-1.3 26 1.7l3-2.1c-12.6-3-25.9-2.3-27.8-2.1-11.9.8-31.2 6.4-35.9 8.2V10.7c4 1 14.8 3.5 28.7 4.9 16.3 1.6 42.5 2 64.9-5.3v6.2c-.8.3-1.4.9-1.6 1.7l-.9 2.7c-.2.6-.5 1.1-1 1.4L90.3 24c-1 .7-1.4 2-1 3.1l.9 2.7c.2.6.2 1.2 0 1.7l-.9 2.7c-.4 1.2 0 2.4 1 3.1l2.3 1.7c.5.3.8.8 1 1.4l.9 2.7c.2.8.8 1.4 1.5 1.7v7.4c-2.9-2.6-7.9-4.8-11.1-6.6l-2.2 2.5C85.9 50 93.1 53.3 96 56v19h5.4c2.7 0 5.1-.8 7-2.2 5-4 4.9-11.6 4.9-11.9V45.1h.9c1.2 0 2.3-.8 2.7-1.9l.9-2.7c.2-.6.5-1.1 1-1.4l2.3-1.7c1-.7 1.4-2 1-3.1l-.9-2.7c-.2-.6-.2-1.2 0-1.7l.8-2.8zM100.5 5.8l10.2 4.9v5.5c-.4-.1-.7-.2-1-.5l-2.3-1.7c-1-.7-2.3-.7-3.3 0l-2.3 1.7c-.4.3-.8.4-1.2.5V5.8zm6.2 64.9c-1.6 1.3-3.7 1.8-6.3 1.6V45.2c.4.1.9.2 1.2.5l2.3 1.7c1 .7 2.3.7 3.3 0l2.3-1.7c.3-.2.7-.4 1-.5v15.7c.1 0 .2 6.7-3.8 9.8zm-1.1-28.2c-6.5 0-11.8-5.3-11.8-11.8 0-6.5 5.3-11.8 11.8-11.8 6.5 0 11.8 5.3 11.8 11.8.1 6.5-5.2 11.8-11.8 11.8z" /><path d="M105.6 20.9c-5.4 0-9.8 4.4-9.8 9.8s4.4 9.8 9.8 9.8 9.8-4.4 9.8-9.8-4.3-9.8-9.8-9.8zm6.9 8.6L110 32c-.2.2-.3.4-.2.7l.6 3.5c.1.6-.6 1.1-1.1.8l-3.2-1.7c-.2-.1-.5-.1-.7 0l-3.2 1.7c-.6.3-1.3-.2-1.1-.8l.6-3.5c0-.3 0-.5-.2-.7l-2.6-2.5c-.5-.5-.2-1.3.4-1.3l3.5-.5c.3 0 .5-.2.6-.4l1.6-3.2c.3-.6 1.1-.6 1.4 0l1.6 3.2c.1.2.3.4.6.4l3.5.5c.6.1.9.9.4 1.3zm-68-2.9s62 9.2 9.1 22.3l1.4-4.4-25 9 25 9-1.7-4.8c68.7-26.2-8.8-31.1-8.8-31.1z" /></svg>