<svg xmlns="http://www.w3.org/2000/svg" viewBox="0 0 88.9 75"><path d="M78.4 47.2c-.3-.8-1.1-1.1-1.6-1.1s-1.3.2-1.6 1.1h3.2zm-.2 2.8c0-.7-.6-1.3-1.3-1.3-.7 0-1.3.6-1.3 1.3 0 .6.4 1.1 1 1.3v2.5h.8v-2.5c.4-.2.8-.7.8-1.3z" /><path d="M78.5 42c-5.9-1.1-10.9 3.9-9.8 9.8.6 3.3 3.3 5.9 6.5 6.5 5.9 1.1 10.9-3.9 9.8-9.8-.6-3.3-3.3-5.9-6.5-6.5zm3.3 11.5c0 .8-.7 1.5-1.5 1.5h-6.9c-.8 0-1.5-.7-1.5-1.5v-4.8c0-.8.6-1.4 1.4-1.5.3-2 1.9-3 3.6-3 1.7 0 3.3 1 3.6 3 .8.1 1.4.7 1.4 1.5l-.1 4.8z" /><path d="M87.1 63.4H66.5V36.9h20.6v26.5zM88.9 34c0-1.2-.9-2.1-2.1-2.1H66.9c-1.2 0-2.1.9-2.1 2.1v35.2c0 1.2.9 2.1 2.1 2.1h19.9c1.2 0 2.1-.9 2.1-2.1V34zm-16.3.4c0-.4.3-.7.7-.7h7c.4 0 .7.3.7.7 0 .4-.3.7-.7.7h-7c-.4.1-.7-.3-.7-.7zm4.8 35.5c-1.7.4-3.2-1.1-2.8-2.8.2-.8.9-1.5 1.7-1.7 1.7-.4 3.2 1.1 2.8 2.8-.2.8-.9 1.5-1.7 1.7z" /><path d="M41.5 38.8l-9-9 3.2-3.2 5.8 5.8 11.7-11.7 3.2 3.2z" /><path d="M8 8v43.6h54.8V34.1c0-2.3 1.9-4.2 4.2-4.2h13.8V8H8zm50 26.6c-2.4 6.9-9.9 11-17.1 9.2-8-2-12.7-10.3-10.3-18.1 2.3-7.7 10.4-12 18-9.7 7.8 2.3 12.2 10.8 9.4 18.6z" /><path d="M62.8 69v-3.1c-3.2-.5-7.1-.8-11.5-.9v-5.4h11.5v-6H6V6h76.9v23.9h3.8c.8 0 1.6.2 2.2.6V4c0-2.2-1.8-4-4-4H4C1.8 0 0 1.8 0 4v51.6c0 2.2 1.8 4 4 4h36.2V65c-11.1.4-19.4 1.9-19.4 3.8v2.4c0 2.1 11.2 3.9 24.9 3.9 8.8 0 16.6-.7 21-1.8-2.1-.2-3.9-2-3.9-4.3z" /></svg>