<svg xmlns="http://www.w3.org/2000/svg" viewBox="0 0 88.9 75"><path d="M79.2 42.2c-4.4-1.3-9.1 1.2-10.4 5.6-1.4 4.5 1.3 9.3 6 10.5 4.1 1 8.5-1.3 9.9-5.3 1.6-4.6-.9-9.5-5.5-10.8zm2.9 11.3l-1.9 1.9-3.4-3.4-3.4 3.4-1.9-1.9 3.4-3.4-3.4-3.4 1.9-1.9 3.4 3.4 3.4-3.4 1.9 1.9-3.4 3.4 3.4 3.4z" /><path d="M87.1 63.4H66.5V36.9h20.6v26.5zM88.9 34c0-1.2-.9-2.1-2.1-2.1H66.9c-1.2 0-2.1.9-2.1 2.1v35.2c0 1.2.9 2.1 2.1 2.1h19.9c1.2 0 2.1-.9 2.1-2.1V34zm-16.3.4c0-.4.3-.7.7-.7h7c.4 0 .7.3.7.7 0 .4-.3.7-.7.7h-7c-.4.1-.7-.3-.7-.7zm4.8 35.5c-1.7.4-3.2-1.1-2.8-2.8.2-.8.9-1.5 1.7-1.7 1.7-.4 3.2 1.1 2.8 2.8-.2.8-.9 1.5-1.7 1.7z" /><path d="M53.5 35.6l-3.3 3.2-5.8-5.8-5.8 5.8-3.2-3.2 5.8-5.8-5.8-5.8 3.2-3.3 5.8 5.8 5.8-5.8 3.3 3.3-5.8 5.8z" /><path d="M62.8 34.1c0-2.3 1.9-4.2 4.2-4.2h13.8V8H8v43.6h54.8V34.1zm-21.9 9.6c-8-2-12.7-10.3-10.3-18.1C32.9 18 41 13.7 48.6 16c7.8 2.3 12.2 10.8 9.4 18.6-2.4 6.9-9.9 10.9-17.1 9.1z" /><path d="M62.8 69v-3.1c-3.2-.5-7.1-.8-11.5-.9v-5.4h11.5v-6H6V6h76.9v23.9h3.8c.8 0 1.6.2 2.2.6V4c0-2.2-1.8-4-4-4H4C1.8 0 0 1.8 0 4v51.6c0 2.2 1.8 4 4 4h36.2V65c-11.1.4-19.4 1.9-19.4 3.8v2.4c0 2.1 11.2 3.9 24.9 3.9 8.8 0 16.6-.7 21-1.8-2.1-.2-3.9-2-3.9-4.3z" /></svg>