<svg xmlns="http://www.w3.org/2000/svg" viewBox="0 0 88.9 75"><path d="M78.4 47.2c-.3-.8-1.1-1.1-1.6-1.1s-1.3.2-1.6 1.1h3.2zm-.2 2.8c0-.7-.6-1.3-1.3-1.3-.7 0-1.3.6-1.3 1.3 0 .6.4 1.1 1 1.3v2.5h.8v-2.5c.4-.2.8-.7.8-1.3z" /><path d="M76.8 41.8c-4.6 0-8.3 3.7-8.3 8.3 0 4.6 3.7 8.3 8.3 8.3 4.6 0 8.3-3.7 8.3-8.3.1-4.6-3.7-8.3-8.3-8.3zm5 11.7c0 .8-.7 1.5-1.5 1.5h-6.9c-.8 0-1.5-.7-1.5-1.5v-4.8c0-.8.6-1.4 1.4-1.5.3-2 1.9-3 3.6-3 1.7 0 3.3 1 3.6 3 .8.1 1.4.7 1.4 1.5l-.1 4.8z" /><path d="M87.1 63.4H66.5V36.9h20.6v26.5zM88.9 34c0-1.2-.9-2.1-2.1-2.1H66.9c-1.2 0-2.1.9-2.1 2.1v35.2c0 1.2.9 2.1 2.1 2.1h19.9c1.2 0 2.1-.9 2.1-2.1V34zm-16.3.4c0-.4.3-.7.7-.7h7c.4 0 .7.3.7.7 0 .4-.3.7-.7.7h-7c-.4.1-.7-.3-.7-.7zm4.2 35.5c-1.3 0-2.3-1-2.3-2.3 0-1.3 1-2.3 2.3-2.3 1.3 0 2.3 1 2.3 2.3.1 1.3-1 2.3-2.3 2.3z" /><path d="M44.4 20.8c-6.1 0-11.1 5-11.1 11.1S38.3 43 44.4 43s11.1-5 11.1-11.1-4.9-11.1-11.1-11.1zm0 21.1l-1.1-8.3c-.4-.3-.6-.8-.6-1.3 0-1 .8-1.7 1.7-1.7 1 0 1.7.8 1.7 1.7 0 .6-.3 1.1-.7 1.4l-1 8.2zm7-2.9c-1.6 1.6-3.7 2.6-5.9 2.8l1.1-8.3c.4-.4.7-1 .7-1.7 0-1.4-1.1-2.5-2.5-2.5h-.4v-7.1h.1c5.4 0 9.8 4.4 9.8 9.8 0 2.7-1 5.2-2.9 7z" /><path d="M62.8 34.1c0-2.3 1.9-4.2 4.2-4.2h13.8V8H8v43.6h54.8V34.1zM44.4 45.7c-7.6 0-13.8-6.2-13.8-13.8 0-3.2 1.1-6.1 2.9-8.5L32 21.9l4.3-4.3 2 2 .4-.3c1.3-.6 2.6-1 4-1.1v-.9h-1v-3.4H47v3.4h-1v.9c1.4.2 2.8.6 4 1.1l.4.2 2-2 4.3 4.3-1.5 1.5c1.9 2.4 3 5.3 3 8.6.1 7.6-6.1 13.8-13.8 13.8z" /><path d="M62.8 69v-3.1c-3.2-.5-7.1-.8-11.5-.9v-5.4h11.5v-6H6V6h76.9v23.9h3.8c.8 0 1.6.2 2.2.6V4c0-2.2-1.8-4-4-4H4C1.8 0 0 1.8 0 4v51.6c0 2.2 1.8 4 4 4h36.2V65c-11.1.4-19.4 1.9-19.4 3.8v2.4c0 2.1 11.2 3.9 24.9 3.9 8.8 0 16.6-.7 21-1.8-2.1-.2-3.9-2-3.9-4.3z" /></svg>