<svg xmlns="http://www.w3.org/2000/svg" viewBox="0 0 48 48"><path d="M39.087 6.18H38.2a6.572 6.572 0 00-13.093 0H8.913a4.807 4.807 0 00-4.8 4.8v7.622h1.72a5.472 5.472 0 010 10.936h-1.72v7.636a4.807 4.807 0 004.8 4.8h4.143v.554a5.472 5.472 0 1010.944 0v-.554h15.087a4.807 4.807 0 004.8-4.8V10.981a4.807 4.807 0 00-4.8-4.8zm2.584 31.016a2.585 2.585 0 01-2.584 2.585h-7.488L28.23 29.539h.104a5.472 5.472 0 000-10.945h-5.08L19.886 8.396h7.384V6.58a4.365 4.365 0 018.729 0v1.816h3.087a2.585 2.585 0 012.584 2.585v26.215z" /></svg>