<svg xmlns="http://www.w3.org/2000/svg" viewBox="0 0 103.85 75"><path d="M61.53 31.78a26.64 26.64 0 0 1 1.12 7h4.67a17.83 17.83 0 0 0-1.41-5.41c-.27-.56-.8-2-1.41-2.13a5 5 0 0 0-1.57.29zm-.02-2.07l1.61-.27A14.1 14.1 0 0 0 59 26.55c.5.93 1 1.91 1.52 2.81.36.49.42.44.99.35zm-7.58-4.44v5.07l4.73-.25c-1.11-2.09-2.35-4.01-4.73-4.82zm5.65 7.25c-.35-.84-1.76-.38-2.54-.33l-3.12.19v6.41h6.7a21 21 0 0 0-1.04-6.27zm-.01 14.18c.82-1.7.85-4 1-5.82h-6.64v5.87l3.21.22 1.5.11c.55.03.69.11.93-.38zm.92 3.24c-.53.91-1.08 1.82-1.58 2.75a14.54 14.54 0 0 0 4.21-3 15.28 15.28 0 0 0-1.85-.32c-.49.01-.54.15-.78.57zm-6.57 3.95c2.38-.81 3.63-2.69 4.74-4.82l-4.74-.25zM43.13 40.88h-4.64A15.9 15.9 0 0 0 41 47.76c.3.44 2.68-.29 3.22-.39a26.33 26.33 0 0 1-1.09-6.49zm18.41 6.48a10.63 10.63 0 0 0 2.39.46c.84.14.9-.13 1.34-.86A14.43 14.43 0 0 0 67 42.72c.13-.6.21-1.21.31-1.84h-4.69a26 26 0 0 1-1.08 6.48zm-18.48-8.57a64.41 64.41 0 0 1 1.1-7 10.62 10.62 0 0 0-2.34-.44c-.75-.12-.86.08-1.24.71a14 14 0 0 0-1.72 4.16c-.19.85-.3 1.71-.44 2.59zm2.14-9.51c.54-.93 1-1.87 1.61-2.78a14.34 14.34 0 0 0-4.17 2.94c.58.1 1.17.25 1.75.29s.55 0 .81-.45z" /><path d="M96.16 17.18H53.59l-.05-4.93a5.67 5.67 0 0 0-1.25-3.95 4.61 4.61 0 0 0-3.57-1.41H41.1a4.08 4.08 0 0 1-2.72-.72 2 2 0 0 1-.57-1.52V0h-2v4.66a3.93 3.93 0 0 0 1.23 3 5.94 5.94 0 0 0 4.15 1.23h7.53a2.68 2.68 0 0 1 2.09.75 3.7 3.7 0 0 1 .74 2.48v.05l.05 5H7.69A7.69 7.69 0 0 0 0 24.87v42.44A7.69 7.69 0 0 0 7.69 75h88.47a7.69 7.69 0 0 0 7.69-7.69V24.87a7.69 7.69 0 0 0-7.69-7.69zm-7.69 9.17a1.24 1.24 0 0 1 1.23-1.26h5.23a1.24 1.24 0 0 1 1.23 1.26v5.18a1.24 1.24 0 0 1-1.23 1.26h-5.24a1.24 1.24 0 0 1-1.23-1.26zM56.81 23.6a16.45 16.45 0 1 1-17.59 6.78 16.59 16.59 0 0 1 17.59-6.78zM32 25.1h5.23a1.24 1.24 0 0 1 1.23 1.26v.53a19.19 19.19 0 0 0-3.56 5.91H33l-2.18-5.65v-.78A1.24 1.24 0 0 1 32 25.1zm-23.08 0h5.23a1.24 1.24 0 0 1 1.23 1.26v1.17l-2 5.27H8.92a1.24 1.24 0 0 1-1.23-1.26v-5.19a1.24 1.24 0 0 1 1.23-1.25zM15.39 66a1.24 1.24 0 0 1-1.23 1.26H8.92A1.24 1.24 0 0 1 7.69 66v-5.17a1.24 1.24 0 0 1 1.23-1.26h5.23a1.24 1.24 0 0 1 1.23 1.26zm11.54 0a1.24 1.24 0 0 1-1.23 1.26h-5.24A1.24 1.24 0 0 1 19.23 66v-5.17a1.24 1.24 0 0 1 1.23-1.26h5.23a1.24 1.24 0 0 1 1.23 1.26zm0-11.54a1.24 1.24 0 0 1-1.23 1.26h-5.24a1.24 1.24 0 0 1-1.23-1.26v-3.1h7.69zm-10.07-5.8l-2.73 7.44H7.31l12.51-32.55h6.66L39 56.08h-7l-2.7-7.42zm56.22 17.49a1.24 1.24 0 0 1-1.23 1.26H32a1.24 1.24 0 0 1-1.23-1.26V61A1.24 1.24 0 0 1 32 59.71h39.85A1.24 1.24 0 0 1 73.08 61zm0-11.68a1.24 1.24 0 0 1-1.23 1.26h-5.23a1.24 1.24 0 0 1-1.23-1.26v-.3A19.27 19.27 0 0 0 70.13 48h1.72a1.24 1.24 0 0 1 1.23 1.26zm0-22.93a1.24 1.24 0 0 1-1.23 1.26h-1a19.22 19.22 0 0 0-5-7.39 1.2 1.2 0 0 1 .78-.31h5.23a1.24 1.24 0 0 1 1.23 1.26zm3.85-5.18a1.24 1.24 0 0 1 1.23-1.26h5.23a1.24 1.24 0 0 1 1.23 1.26v5.18a1.24 1.24 0 0 1-1.23 1.26h-5.23a1.24 1.24 0 0 1-1.23-1.26zm7.95 11.4v5.18a1.24 1.24 0 0 1-1.23 1.26h-5.24a1.24 1.24 0 0 1-1.23-1.26v-5.19a1.24 1.24 0 0 1 1.23-1.26h5.23a1.24 1.24 0 0 1 1.23 1.26zm-.26 28.4a1.24 1.24 0 0 1-1.23 1.26h-5.23a1.24 1.24 0 0 1-1.23-1.26V61a1.24 1.24 0 0 1 1.23-1.26h5.23A1.24 1.24 0 0 1 84.62 61zm11.54 0a1.24 1.24 0 0 1-1.23 1.26h-5.24a1.24 1.24 0 0 1-1.23-1.26V61a1.24 1.24 0 0 1 1.23-1.26h5.23A1.24 1.24 0 0 1 96.16 61zm0-11.54a1.24 1.24 0 0 1-1.23 1.26H78.16a1.24 1.24 0 0 1-1.23-1.26v-5.19a1.24 1.24 0 0 1 1.23-1.26h10.29V37.75a1.24 1.24 0 0 1 1.23-1.26h5.23a1.24 1.24 0 0 1 1.23 1.26v11.68z" /><path d="M51.83 25.27c-2.39.81-3.63 2.68-4.74 4.82l4.74.25zM45 49.58c-.57-.44-1.72 0-2.39.14a14.24 14.24 0 0 0 4.1 2.91c-.35-.62-.7-1.23-1.05-1.85-.16-.33-.33-.97-.66-1.2zm6.82 4.31v-5.07l-4.73.25c1.11 2.14 2.35 4.01 4.73 4.82zm-6.3-9.96a8.26 8.26 0 0 0 .72 2.92c.41.55 1.83.16 2.48.12l3.11-.2v-5.9h-6.66c.09 1.03.17 2.05.35 3.06zm.66-11.44a18.43 18.43 0 0 0-1 6.3h6.69v-6.41c-1.09-.09-2.19-.14-3.29-.21-.81-.05-2.04-.49-2.4.32zM18.79 43.31h8.61l-4.3-12.22z" /></svg>