<svg xmlns="http://www.w3.org/2000/svg" width="82.613" height="75.001" viewBox="1191.399 40.159 82.613 75.001"><path d="M1230.014 103.64c.976-.216 1.955-.482 2.912-.793l.95-.31-.616-1.9-.95.308c-.897.29-1.814.54-2.726.74l-.977.216.43 1.96.977-.21zm9.122-5.887c-.654.403-1.348.798-2.06 1.174l-1.307.667.9 1.783 1.33-.68c.75-.397 1.48-.815 2.18-1.24l.85-.525-1.05-1.703-.85.52zm5.914-4.663c-.647.66-1.347 1.303-2.076 1.914l-.767.642 1.283 1.534.767-.643c.78-.65 1.525-1.34 2.22-2.045l.7-.712-1.424-1.403-.702.713zm7.292-12.988c-.245.917-.53 1.826-.85 2.704l-.34.94 1.88.682.34-.94c.34-.932.642-1.896.9-2.87l.26-.966-1.933-.517-.26.967zm-2.798 6.988c-.45.814-.953 1.62-1.49 2.39l-.573.82 1.65 1.145.57-.82c.58-.827 1.12-1.69 1.6-2.565l.49-.874-1.75-.97-.48.874zm-13.096 20.27l1.902-.615c-.274-.85-.638-1.65-.958-2.322-.087-.184-.267-.426-.63-.546-.306-.123-.652-.09-.928.092-.688.45-1.385.87-2.07 1.24l.958 1.75c.43-.24.86-.49 1.292-.75.158.36.308.75.434 1.13zm-4.738-1.138c-1.184.516-2.387.923-3.576 1.21l.47 1.943c1.3-.313 2.615-.758 3.905-1.32l-.8-1.833zm-7.168 5.25v-1.52c.537-.022 1.077-.067 1.615-.132l-.24-1.986c-.793.096-1.608.132-2.37.138-.076.004-.168.03-.26.056-5.865-.073-11.727-2.054-17.575-5.907-.065.12-.107.16-.12.21-.398 1.62-.81 3.23-1.183 4.85-.16.69-.3 1.38-.35 2.08-.16 2.06 1.12 3.33 2.65 3.92 2.62 1.02 5.35 1.43 8.13 1.67 2.87.25 5.75.34 8.62.33v-.01c.02 0 .05.02.07.02.84 0 1.68-.01 2.52-.03l-.06-2c-.49.02-.98.03-1.47.03v-1.68zm5.948 1.385c-.527.086-1.107.14-1.88.176l.093 1.998c.852-.04 1.502-.1 2.108-.19.7-.11 1.43-.26 2.37-.47l-.43-1.95c-.89.2-1.59.34-2.24.45zm6.332-3.135c-.02.7-.123 1.118-.355 1.446-.212.3-.47.48-.79.555l-.404.094.45 1.95.403-.095c.796-.183 1.48-.648 1.974-1.35.6-.846.7-1.803.723-2.548l.003-.124-2-.047-.004.12zM1224.415 64v-1.467c.43.037.857.1 1.276.19l.42-1.957c-.84-.18-1.71-.27-2.59-.27l-.1.003c-.07 0-.13.02-.19.04-6.59.18-11.79 5.46-11.79 12.1 0 6.63 5.26 11.93 11.81 12.14.06.01.11.03.18.03h.15c.86 0 1.72-.1 2.57-.28l-.43-1.95c-.42.09-.84.15-1.26.19v-1.46h-.95v-2.73h.95v-4.56h-.95v-2.73h.95v-4.56h-.945V64h.944zm8.948 6.126c.21.822.315 1.677.317 2.54 0 .854-.105 1.7-.313 2.515l1.938.5c.25-.97.375-1.99.375-3.01-.002-1.03-.13-2.05-.378-3.03l-1.94.49zm-3.843 13.1c1.774-1.014 3.28-2.46 4.353-4.187l-1.7-1.06c-.896 1.44-2.157 2.65-3.646 3.5l.992 1.73zm2.662-15.912l1.705-1.045c-1.067-1.75-2.57-3.2-4.35-4.21l-.983 1.74c1.48.84 2.736 2.05 3.628 3.51z" /><path d="M1223.47 104.353l.008.002c.517 0 1.034-.013 1.55-.04l1-.05-.103-1.998-1 .05c-.148.01-.297.016-.446.02v-1.48h-1.01v-2.164h1.01v-4.496h-1.02v-2.163h1.01v-1.518c.19-.01.39-.022.58-.038l.99-.082-.16-1.993-1 .08c-.43.036-.87.055-1.3.056-.02-.01-.1-.01-.13-.01h-.02v-.03c-8.4.02-15.96-6.73-16.04-16.03-.08-8.9 7.2-16.2 16.04-16.22v-.03h.02c.45.01.95.02 1.41.06l.99.08.17-2-1-.09c-.19-.02-.39-.03-.585-.04v-1.52h-1.01V50.5h1.012l-.006-4.53h-1.01v-2.22h1.01v-1.5l1.277.23.336-1.97-1.19-.24c-.06-.013-.126-.02-.19-.02h-1.24l-.01.003v-.117H1222c-.716.086-1.43.175-2.15.254-6.84.756-12.82 3.447-17.925 8.046-5.454 4.92-8.814 11.04-10.12 18.265-.24 1.37-.29 2.77-.44 4.15-.05.48.15.59.6.59 3.638-.02 7.268-.01 10.9-.01h.75v2.64h-12.25c.7 9.18 4.4 16.76 11.356 22.67 5.9 5.01 13.3 7.6 20.72 7.61v-.01zm9.047-60.623l.955.296.595-1.91-.954-.296c-.962-.3-1.963-.563-2.976-.783l-.977-.212-.425 1.955.978.212c.955.207 1.898.455 2.804.737zm6.987 3.205l.846.534 1.068-1.69-.846-.54c-.862-.55-1.768-1.06-2.69-1.52l-.897-.45-.892 1.79.895.44c.865.43 1.71.9 2.516 1.41zm-7.914 11.55l.853.524 1.05-1.71-.85-.53c-.854-.53-1.76-.98-2.695-1.35l-.93-.37-.73 1.86.93.36c.823.32 1.622.72 2.373 1.19zm-2.56 31.233l.93-.363c.937-.365 1.844-.817 2.698-1.344l.85-.52-1.05-1.7-.85.53c-.752.47-1.55.86-2.374 1.19l-.932.37.727 1.87zm11.24-11.918c.27-.95.473-1.934.597-2.927l.124-.992-1.98-.24-.12.99c-.11.89-.29 1.78-.53 2.63l-.27.96 1.93.56.28-.96zm-3.708 3.518c-.468.76-1 1.48-1.582 2.14l-.66.75 1.498 1.323.662-.75c.658-.74 1.26-1.55 1.785-2.41l.524-.85-1.71-1.05-.53.86zm19.288-38.588c-10.03 0-18.164 8.13-18.164 18.163 0 .25.027.49.037.738-.392-.56-.804-1.11-1.255-1.62l-.662-.75-1.498 1.33.662.75c.584.66 1.117 1.38 1.586 2.14l.525.85.86-.53c.07.43.15.85.25 1.26.04.15.08.29.11.43.09.32.16.64.26.96v.01l-.48.14.28.96c.25.85.43 1.73.54 2.63l.13 1 1.71-.21c.34.5.69.99 1.07 1.45v1.68c0 .56.45 1 1 1h1.73c.76.61 1.57 1.16 2.43 1.64.02.02.04.03.06.04.3.17.61.32.93.47.19.09.37.19.56.27.28.12.56.23.85.34.24.1.49.19.73.27.26.09.53.17.79.25.29.09.58.16.88.23.24.06.48.12.73.16.36.07.71.12 1.07.17.2.025.4.06.61.08.57.05 1.15.086 1.73.086 10.03 0 18.167-8.13 18.167-18.164s-8.14-18.17-18.17-18.17zm9.255 16.388c-3.722 3.777-7.45 7.548-11.172 11.323-.617.63-1.313 1.06-2.228.99-.962.08-1.65-.48-2.303-1.04-2.157-1.85-4.302-3.73-6.426-5.63-1.766-1.57-1.348-4.01.844-4.89 1.044-.41 2.01-.13 2.843.6 1.45 1.26 2.91 2.52 4.334 3.82.426.39.665.41 1.087-.02 4.148-4.24 8.31-8.46 12.5-12.66.468-.46 1.07-.88 1.688-1.09 1.163-.4 2.392.14 3.06 1.17.692 1.08.666 2.4-.2 3.33-1.302 1.42-2.676 2.77-4.027 4.14z" /></svg>