<svg xmlns="http://www.w3.org/2000/svg" width="75" height="75" viewBox="78.1 78.1 75 75"><path d="M113.268 93.43l-4.458-1.874s-8.174 1.713-7.303 10.986v-.065c1.843 2.424 13.248 3.78 21.002-.742l2.196-2.488c-1.713-3.653-1.39-10.728-11.438-5.817z" /><path d="M100.408 103.704c-3.068 1.13-10.822 4.588-1.68 8.24 5.363 2.163-6.042 1.84-6.042 1.84.226 0 7.108 6.948 10.275 10.18l6.883-7.82c-.71-.26-1.485-.84-2.36-1.874-1.29 1.067-5.265 4.104-6.46-.743l.322-.097 5.816.42c0-.064 0-.096-.064-.128l4.847-.098 7.98-8.885c-3.23 1.098-6.656 1.614-9.823 1.614-4.36 0-8.077-.97-9.692-2.65z" /><path d="M115.6 78.1c-20.677 0-37.5 16.823-37.5 37.5 0 20.68 16.823 37.5 37.5 37.5 20.68 0 37.5-16.82 37.5-37.5 0-20.677-16.822-37.5-37.5-37.5zm-32.375 37.488l-.387-.003h1.13l-.743.003zm.99-.004c.01-17.296 14.088-31.37 31.385-31.37 6.7 0 13.012 2.05 18.35 5.938l-41.218 46.884c-5.5-5.872-8.513-13.434-8.517-21.452zm54.318-21.387c5.462 5.84 8.45 13.382 8.45 21.402 0 5.195-1.275 10.097-3.52 14.418-1.353-3.5-3.626-6.603-7.384-5.895l4.942-14.378h-7.625s4.297-7.27-1.034-7.335l-27.528 31.34c-.97 1.617-1.81 3.36-1.938 4.622-.19 1.095-.126 3.286.055 5.95-1.974-.87-3.874-1.934-5.662-3.22l41.243-46.905z" /></svg>