<svg xmlns="http://www.w3.org/2000/svg" viewBox="0 0 48 48"><g clip-path="url(#clip0)"><path d="M32.692 27.426h-2.053v-3.39a10.39 10.39 0 003.64-7.893V7.946a3.456 3.456 0 00-.31-1.632C31.673 1.669 26.85-.436 21.844.074c-4.173.42-7.385 3.692-8.663 6.395a3.456 3.456 0 00-.347 1.654V9.6a2.54 2.54 0 00-2.126 2.503v3.449a2.54 2.54 0 001.846 2.43c.124.095.268.163.42.199l.178.037a10.383 10.383 0 003.426 5.819v3.39h-1.27A11.595 11.595 0 003.692 39.02v5.288A3.692 3.692 0 007.385 48h33.23a3.692 3.692 0 003.693-3.692V39.02a11.593 11.593 0 00-11.616-11.594zM15.559 18.78l6.292 1.425c.083.011.168.011.251 0a1.115 1.115 0 00.244-2.215l-6.565-1.477a2.6 2.6 0 00.2-.99v-3.404a2.526 2.526 0 00-.614-1.64c.095-.373.213-.74.355-1.1.738-1.1 1.728-2.008 2.533-1.107 1.61 1.802 5.11 1.661 10.338.258a2.88 2.88 0 012.954 1.211c.311.873.471 1.792.473 2.718v3.692a8.204 8.204 0 01-8.153 8.22h-.554a8.204 8.204 0 01-7.754-5.59zm7.754 7.806h.554c1.58 0 3.14-.364 4.556-1.064v1.935c0 1.602-2.215 2.954-4.83 2.954-2.613 0-4.836-1.352-4.836-2.954v-1.964a10.288 10.288 0 004.556 1.093z" /></g><defs><clipPath id="clip0"><path d="M0 0h48v48H0V0z" /></clipPath></defs></svg>