<svg xmlns="http://www.w3.org/2000/svg" viewBox="0 0 48 48"><g clip-path="url(#clip0)"><path d="M13.181 38.097a2.725 2.725 0 10-.014 5.45 2.725 2.725 0 00.014-5.45zM24 38.097a2.725 2.725 0 10-.014 5.45 2.725 2.725 0 00.014-5.45zM34.819 38.097a2.725 2.725 0 10-.015 5.45 2.725 2.725 0 00.014-5.45z" /><path d="M39.803 33.637H8.197a7.185 7.185 0 000 14.363h31.606a7.185 7.185 0 000-14.363zm0 12.148H8.197a4.97 4.97 0 010-9.933h31.606a4.97 4.97 0 010 9.933zM14.858 30.41H33.06a3.53 3.53 0 003.53-3.53V13.292a3.53 3.53 0 00-3.53-3.53h-.982V8.08a8.079 8.079 0 00-16.158 0V9.74h-1.063a3.53 3.53 0 00-3.53 3.552V26.88a3.53 3.53 0 003.53 3.53zm9.098-7.577a2.761 2.761 0 112.761-2.762 2.755 2.755 0 01-2.761 2.762zm-5.82-14.769a5.863 5.863 0 0111.727 0v1.662H18.137V8.064z" /></g><defs><clipPath id="clip0"><path d="M0 0h48v48H0V0z" /></clipPath></defs></svg>