<!-- Generator: Adobe Illustrator 23.0.1, SVG Export Plug-In . SVG Version: 6.00 Build 0)  --><svg version="1.1" id="Layer_1" xmlns="http://www.w3.org/2000/svg" xmlns:xlink="http://www.w3.org/1999/xlink" x="0px" y="0px" viewBox="0 0 24 24" style="enable-background:new 0 0 24 24;" xml:space="preserve">
<style type="text/css">
	.st0{fill:#EFC44F;}
	.st1{fill:none;}
</style>
<g>
	<path class="st0" d="M5,6.6v10.9C5,18.3,5.7,19,6.6,19h10.9c0.9,0,1.6-0.7,1.6-1.6V6.6C19,5.7,18.3,5,17.4,5H6.6C5.7,5,5,5.7,5,6.6   z M14.3,9.7c0,1.3-1,2.3-2.3,2.3s-2.3-1-2.3-2.3s1-2.3,2.3-2.3S14.3,8.4,14.3,9.7z M7.3,15.9c0-1.6,3.1-2.4,4.7-2.4   s4.7,0.9,4.7,2.4v0.8H7.3V15.9z" />
	<polygon points="22.1,12.1 19,15.2 15.9,12.1 17.8,12.1 17.8,9.7 20.2,9.7 20.2,12.1  " />
</g>
<path class="st1" d="M0,0h24v24H0V0z" />
</svg>