<!--Warning--><svg width="14" height="14" viewBox="0 0 18 18" fill="none" xmlns="http://www.w3.org/2000/svg"><circle cx="9" cy="9" r="9" fill="#D04343" /><path d="M7.90635 6.03375C7.90635 5.49734 8.34704 5.0625 8.89067 5.0625C9.4343 5.0625 9.875 5.49734 9.875 6.03375L9.875 9.27125C9.875 9.80766 9.4343 10.2425 8.89067 10.2425C8.34704 10.2425 7.90635 9.80766 7.90635 9.27125L7.90635 6.03375Z" fill="white" /><path d="M7.90625 12.185C7.90625 11.6486 8.34695 11.2138 8.89058 11.2138C9.43421 11.2138 9.8749 11.6486 9.8749 12.185C9.8749 12.7214 9.43421 13.1562 8.89058 13.1562C8.34695 13.1562 7.90625 12.7214 7.90625 12.185Z" fill="white" /></svg>