<!--Check--><!-- <svg xmlns="http://www.w3.org/2000/svg" viewBox="0 0 18 18"><style>.p_check{stroke-dasharray:65.38420867919922;animation:p_ck 1s cubic-bezier(.3,0,.7,1) 1}@keyframes p_ck{from{stroke-dashoffset:65.38420867919922}to{stroke-dashoffset:0}}</style><path class="p_check" fill="none" stroke="#231f20" stroke-linecap="round" stroke-miterlimit="10" stroke-width="2" d="M5.33 8.69L9 12.36l7-7h.11A7.75 7.75 0 0 1 17 9a8 8 0 1 1-.92-3.72" style="&#10; stroke: #8dc63f;&#10;"/></svg> --><svg width="14" height="14" viewBox="0 0 18 18" fill="none" xmlns="http://www.w3.org/2000/svg"><circle cx="9" cy="9" r="9" fill="#178722" /><path d="M7.49797 10.7149L5.83251 9.06184C5.50579 8.7379 4.97801 8.7379 4.65129 9.06184C4.32457 9.38578 4.32457 9.90906 4.65129 10.233L6.91155 12.4758C7.23827 12.7997 7.76605 12.7997 8.09277 12.4758L13.3487 6.91411C13.6754 6.59018 13.6754 6.06689 13.3487 5.74295C13.022 5.41902 12.4942 5.41902 12.1675 5.74295L7.49797 10.7149Z" fill="white" /></svg>