<svg xmlns="http://www.w3.org/2000/svg" viewBox="0 0 48 48"><g clip-path="url(#clip0)"><path d="M44.463 20.463a20.464 20.464 0 10-21.57 20.44v4.882h-7.74a1.108 1.108 0 000 2.215h17.723a1.108 1.108 0 000-2.215h-7.768v-4.882a20.463 20.463 0 0019.355-20.44zm-38.762 0A18.299 18.299 0 1124 38.769 18.321 18.321 0 015.7 20.463z" /><path d="M24 6.092a1.056 1.056 0 10-1.049-1.048A1.049 1.049 0 0024 6.092zM36.524 20.463a12.554 12.554 0 10-25.107 0 12.554 12.554 0 0025.107 0zm-17.834 0a5.31 5.31 0 1110.62 0 5.31 5.31 0 01-10.62 0z" /></g><defs><clipPath id="clip0"><path d="M0 0h48v48H0V0z" /></clipPath></defs></svg>