<svg xmlns="http://www.w3.org/2000/svg" viewBox="0 0 48 48"><g clip-path="url(#clip0)"><path d="M41.45 23.63a1.108 1.108 0 00-2.216 0 15.235 15.235 0 01-30.468 0 1.108 1.108 0 00-2.216 0 17.472 17.472 0 0016.342 17.436v4.719h-7.894a1.107 1.107 0 100 2.215h18.004a1.108 1.108 0 000-2.215h-7.894v-4.72A17.472 17.472 0 0041.45 23.632z" /><path d="M24 0a11.587 11.587 0 00-11.121 8.345h11.49a.738.738 0 01.739.738v1.16a.738.738 0 01-.739.701H12.443c0 .221-.037.45-.037.68v1.668H24.37a.739.739 0 01.739.702v1.16a.738.738 0 01-.739.7H12.406v7.777a11.594 11.594 0 0023.188 0V11.594A11.594 11.594 0 0024 0z" /></g><defs><clipPath id="clip0"><path d="M0 0h48v48H0V0z" /></clipPath></defs></svg>