<svg xmlns="http://www.w3.org/2000/svg" viewBox="0 0 48 48"><path d="M43.2.85H4.8A4.807 4.807 0 000 5.65v24.775a4.807 4.807 0 004.8 4.8h18.092v9.71H15.39a1.108 1.108 0 000 2.216h17.22a1.108 1.108 0 000-2.216h-7.502v-9.71H43.2a4.808 4.808 0 004.8-4.8V5.649a4.808 4.808 0 00-4.8-4.8zm2.585 29.575a2.585 2.585 0 01-2.585 2.584H4.8a2.585 2.585 0 01-2.585-2.584V5.649A2.585 2.585 0 014.8 3.065h38.4a2.585 2.585 0 012.585 2.584v24.776z" /><path d="M26.998 12.037H12.332c-.815 0-1.477.661-1.477 1.477v9.046c0 .816.662 1.477 1.477 1.477h14.666c.816 0 1.477-.661 1.477-1.477v-9.046c0-.816-.661-1.477-1.477-1.477zM35.402 22.154l-4.003-.739a1.477 1.477 0 01-1.21-1.476v-3.826a1.477 1.477 0 011.21-1.477l4.003-.738a1.476 1.476 0 011.743 1.477v5.302a1.477 1.477 0 01-1.743 1.477z" /></svg>