<svg xmlns="http://www.w3.org/2000/svg" viewBox="0 0 48 48"><path d="M43.2.85H4.8A4.807 4.807 0 000 5.65v24.775a4.807 4.807 0 004.8 4.8h18.092v9.71H15.39a1.108 1.108 0 000 2.216h17.22a1.108 1.108 0 000-2.216h-7.502v-9.71H43.2a4.808 4.808 0 004.8-4.8V5.649a4.808 4.808 0 00-4.8-4.8zm2.585 29.575a2.585 2.585 0 01-2.585 2.584H4.8a2.585 2.585 0 01-2.585-2.584V5.649A2.585 2.585 0 014.8 3.065h38.4a2.585 2.585 0 012.585 2.584v24.776z" /><path d="M9.962 18.92H8.064c-.816 0-1.477.66-1.477 1.476v4.867c0 .815.661 1.477 1.477 1.477h1.898c.816 0 1.477-.662 1.477-1.477v-4.867c0-.815-.662-1.477-1.477-1.477zM17.457 9.341H15.56c-.815 0-1.476.662-1.476 1.477v14.437c0 .816.66 1.477 1.476 1.477h1.898c.816 0 1.477-.661 1.477-1.477V10.818c0-.815-.661-1.477-1.477-1.477zM24.953 14.311h-1.898c-.816 0-1.477.662-1.477 1.477v9.467c0 .816.661 1.477 1.477 1.477h1.898c.815 0 1.477-.66 1.477-1.477v-9.467c0-.815-.662-1.477-1.477-1.477zM32.44 17.465h-1.897c-.816 0-1.477.66-1.477 1.477v6.32c0 .816.661 1.478 1.477 1.478h1.898c.815 0 1.477-.662 1.477-1.477V18.94c0-.815-.662-1.476-1.477-1.476zM39.936 13.285h-1.898c-.816 0-1.477.661-1.477 1.477v10.5c0 .816.661 1.478 1.477 1.478h1.898c.816 0 1.477-.662 1.477-1.477V14.762c0-.816-.661-1.477-1.477-1.477z" /></svg>