<svg xmlns="http://www.w3.org/2000/svg" viewBox="0 0 48 48"><path d="M18.151 47.919a1.145 1.145 0 01-.701-.244 1.108 1.108 0 01-.155-1.558l3.205-3.958-3.205-3.958a1.106 1.106 0 01.508-1.826 1.108 1.108 0 011.205.43l3.78 4.652a1.1 1.1 0 010 1.396l-3.78 4.66a1.106 1.106 0 01-.857.406z" /><path d="M40.66 21.49V10.795a3.692 3.692 0 00-1.928-3.242l-1.669-.908L25.713.502h-.052a3.692 3.692 0 00-3.419.044L9.268 7.554a3.692 3.692 0 00-1.928 3.242V21.49C2.8 23.786 0 27.035 0 30.698c0 6.365 8.61 11.645 20.477 12.554a1.111 1.111 0 00.17-2.216c-10.508-.805-18.461-5.25-18.461-10.338 0-2.503 1.942-4.83 5.125-6.646v.546a3.692 3.692 0 001.927 3.235l13.012 7.022a3.693 3.693 0 003.508 0l12.974-7.037a3.693 3.693 0 001.928-3.235v-.546c3.183 1.81 5.125 4.158 5.125 6.66 0 5.17-7.99 9.6-18.587 10.34a1.108 1.108 0 00.073 2.215h.052C39.286 42.38 48 37.092 48 30.698c0-3.663-2.799-6.912-7.34-9.209zM9.556 10.795a1.477 1.477 0 01.738-1.292l12.598-6.809V17.03l-13.336 7.23V10.796zm15.146 22.11a1.477 1.477 0 01-1.404 0l-12.553-6.787L24 18.95l13.226 7.17-12.524 6.787z" /></svg>