<svg xmlns="http://www.w3.org/2000/svg" width="75" height="75" viewBox="798.457 336.529 75 75"><path d="M869.263 411.53H802.65c-2.312 0-4.193-1.882-4.193-4.195v-66.612c0-2.312 1.882-4.193 4.194-4.193h66.613c2.313 0 4.193 1.882 4.193 4.193v66.612c0 2.313-1.88 4.194-4.193 4.194zm-66.12-4.69h65.626v-65.623h-65.626v65.624z" /><path d="M825.852 388.034l-4.003-3.84c-.736-.707-1.908-.684-2.615.057l-7.247 7.556-5.86-5.835v17.626h17.707l-5.294-5.267 7.367-7.678c.707-.74.683-1.91-.055-2.618zm20.068-28.138l4.002 3.84c.738.71 1.91.683 2.617-.055l7.244-7.553 5.862 5.834v-17.625H847.94l5.29 5.266-7.362 7.68c-.708.737-.684 1.91.052 2.616zm3.977 24.162l-3.84 4.005c-.708.735-.685 1.907.055 2.614l7.554 7.245-5.834 5.86h17.625V386.08l-5.268 5.29-7.677-7.362c-.737-.712-1.91-.688-2.616.05zm-28.02-20.187l3.84-4c.708-.738.685-1.91-.056-2.617l-7.554-7.246 5.835-5.86h-17.624v17.706l5.267-5.29 7.677 7.362c.74.708 1.91.683 2.617-.054zM838.563 369.234c-.43-1.37-1.76-1.77-2.604-1.77-.846 0-2.177.398-2.605 1.77h5.208z" /><path d="M835.96 360.438c-7.532 0-13.637 6.104-13.637 13.634 0 7.528 6.104 13.632 13.636 13.632 7.526 0 13.63-6.102 13.63-13.632.003-7.53-6.103-13.634-13.63-13.634zm8.113 19.045c0 1.35-1.1 2.45-2.45 2.45h-11.326c-1.352 0-2.452-1.1-2.452-2.45v-7.8c0-1.275.983-2.328 2.233-2.44.45-3.272 3.18-4.98 5.882-4.98 2.7 0 5.433 1.707 5.883 4.98 1.25.112 2.232 1.165 2.232 2.44v7.8h-.002z" /><path d="M838.153 373.812c0-1.216-.98-2.2-2.193-2.2s-2.197.984-2.197 2.2c0 .996.663 1.833 1.572 2.104v4.007h1.245v-4.007c.91-.27 1.573-1.11 1.573-2.104z" /></svg>