<svg xmlns="http://www.w3.org/2000/svg" viewBox="0 0 48 48"><path d="M43.2.85H4.8A4.807 4.807 0 000 5.65v24.775a4.807 4.807 0 004.8 4.8h18.092v9.71H15.39a1.108 1.108 0 000 2.216h17.22a1.108 1.108 0 000-2.216h-7.502v-9.71H43.2a4.808 4.808 0 004.8-4.8V5.649a4.808 4.808 0 00-4.8-4.8zm2.585 29.575a2.585 2.585 0 01-2.585 2.584H4.8a2.585 2.585 0 01-2.585-2.584V5.649A2.585 2.585 0 014.8 3.065h38.4a2.585 2.585 0 012.585 2.584v24.776z" /><path d="M24.554 10.833a1.086 1.086 0 00-1.1 0l-3.05 1.72a1.108 1.108 0 001.093 1.92l1.395-.775v11.764a1.107 1.107 0 102.216 0V11.815a1.108 1.108 0 00-.554-.982z" /></svg>