<svg xmlns="http://www.w3.org/2000/svg" viewBox="0 0 48 48"><g clip-path="url(#clip0)"><path d="M43.2 1.41H15.611a4.807 4.807 0 00-4.8 4.8v8.899H4.8a4.808 4.808 0 00-4.8 4.83v21.85a4.807 4.807 0 004.8 4.8h32.05a4.807 4.807 0 004.8-4.8V29.583h1.55a4.807 4.807 0 004.8-4.8V6.21a4.807 4.807 0 00-4.8-4.8zm-3.766 40.38a2.585 2.585 0 01-2.585 2.584H4.8a2.584 2.584 0 01-2.585-2.585V23.262h37.219v18.527zM23.38 18.734a1.774 1.774 0 012.181-1.387 1.77 1.77 0 011.245 2.265 1.743 1.743 0 01-1.277 1.27 1.765 1.765 0 01-2.15-2.148zm5.568 0a1.774 1.774 0 012.181-1.387 1.77 1.77 0 011.245 2.265 1.743 1.743 0 01-1.277 1.27 1.765 1.765 0 01-2.15-2.148zm5.568 0a1.774 1.774 0 012.181-1.387 1.77 1.77 0 011.245 2.265 1.743 1.743 0 01-1.27 1.27 1.773 1.773 0 01-2.156-2.148zm11.269 6.048a2.584 2.584 0 01-2.585 2.584h-1.55V19.94a4.808 4.808 0 00-4.8-4.8H13.025V8.41h32.759v16.372z" /></g><defs><clipPath id="clip0"><path d="M0 0h48v48H0V0z" /></clipPath></defs></svg>