<svg xmlns="http://www.w3.org/2000/svg" viewBox="0 0 48 48"><g clip-path="url(#clip0)"><path d="M43.2 5.908H4.8A4.807 4.807 0 000 10.7v26.585a4.808 4.808 0 004.8 4.807h38.4a4.808 4.808 0 004.8-4.8V10.708a4.808 4.808 0 00-4.8-4.8zm0 33.969H4.8A2.592 2.592 0 012.215 37.3V12.236A1.337 1.337 0 013.552 10.9H9.46a1.336 1.336 0 011.336 1.336v2.386h3.907v-2.386a1.336 1.336 0 011.336-1.336h5.908a1.336 1.336 0 011.337 1.336v2.386h4.04v-2.386A1.344 1.344 0 0128.66 10.9h5.907a1.336 1.336 0 011.337 1.336v2.386h9.88V37.3a2.592 2.592 0 01-2.584 2.577z" /></g><defs><clipPath id="clip0"><path d="M0 0h48v48H0V0z" /></clipPath></defs></svg>