<svg xmlns="http://www.w3.org/2000/svg" viewBox="0 0 48 48"><g clip-path="url(#clip0)"><path d="M44.308 11.734h-6.004V5.022a2.585 2.585 0 00-2.585-2.585H12.281a2.585 2.585 0 00-2.585 2.585v6.712H3.692A3.692 3.692 0 000 15.427v14.902a3.692 3.692 0 003.692 3.692h6.004v8.957a2.585 2.585 0 002.585 2.585h23.438a2.585 2.585 0 002.585-2.585v-8.957h6.004A3.692 3.692 0 0048 30.329V15.427a3.692 3.692 0 00-3.692-3.693zM11.91 5.022a.37.37 0 01.37-.37h23.438a.37.37 0 01.37.37v6.712H11.91V5.022zM8.736 20.958a2.327 2.327 0 11.03-4.655 2.327 2.327 0 01-.03 4.655zm27.323 22.02a.37.37 0 01-.37.37H12.282a.37.37 0 01-.37-.37V26.991a.37.37 0 01.37-.37h23.438a.37.37 0 01.37.37l-.03 15.987z" /></g><defs><clipPath id="clip0"><path d="M0 0h48v48H0V0z" /></clipPath></defs></svg>