<svg xmlns="http://www.w3.org/2000/svg" viewBox="0 0 48 48"><g clip-path="url(#clip0)"><path d="M36.657 8.574H33.97V6.358a1.477 1.477 0 00-1.477-1.477H28.8a4.888 4.888 0 10-9.77 0h-3.692a1.477 1.477 0 00-1.477 1.477v2.216h-2.518a4.807 4.807 0 00-4.8 4.8V43.2a4.807 4.807 0 004.8 4.8h25.314a4.807 4.807 0 004.8-4.8V13.374a4.807 4.807 0 00-4.8-4.8zM23.934 2.215a2.674 2.674 0 110 5.348 2.674 2.674 0 010-5.348zM39.242 43.2a2.585 2.585 0 01-2.585 2.585H11.343A2.585 2.585 0 018.758 43.2V13.374a2.585 2.585 0 012.585-2.585h2.547v.148a1.477 1.477 0 001.477 1.477h17.125a1.477 1.477 0 001.477-1.477v-.148h2.688a2.585 2.585 0 012.585 2.585V43.2z" /></g><defs><clipPath id="clip0"><path d="M0 0h48v48H0V0z" /></clipPath></defs></svg>