<svg xmlns="http://www.w3.org/2000/svg" viewBox="0 0 48 48"><g clip-path="url(#clip0)"><path d="M18.462 9.105A12.923 12.923 0 005.538 22.028v13.056A12.916 12.916 0 0018.462 48a12.917 12.917 0 0012.93-12.916V22.028a12.924 12.924 0 00-12.93-12.923zm10.715 25.98a10.708 10.708 0 11-21.416 0V22.027a10.708 10.708 0 0110.649-10.7v12.303a.96.96 0 00.96.952h9.807v10.501zM30.181 5.17a1.108 1.108 0 000 2.215 4.91 4.91 0 014.91 4.91 1.108 1.108 0 002.216 0 7.133 7.133 0 00-7.126-7.126z" /><path d="M28.94 0a1.108 1.108 0 000 2.215 11.306 11.306 0 0111.291 11.292 1.108 1.108 0 002.216 0A13.514 13.514 0 0028.94 0z" /></g><defs><clipPath id="clip0"><path d="M0 0h48v48H0V0z" /></clipPath></defs></svg>