<svg xmlns="http://www.w3.org/2000/svg" viewBox="0 0 48 48"><g clip-path="url(#clip0)"><path d="M42.78 3.138H10.611A5.228 5.228 0 005.383 8.36v7.496a1.108 1.108 0 102.216 0v-5.517h38.186v29.303a3.005 3.005 0 01-3.006 3.005H10.612a3.013 3.013 0 01-3.013-3.005v-7.496a1.108 1.108 0 00-2.216 0v7.496a5.228 5.228 0 005.229 5.22h32.167A5.228 5.228 0 0048 39.642V8.359a5.228 5.228 0 00-5.22-5.22z" /><path d="M20.861 31.562a1.108 1.108 0 001.566 1.565l8.33-8.33a1.107 1.107 0 000-1.566l-8.352-8.358a1.115 1.115 0 00-1.808.358 1.101 1.101 0 00.242 1.207l6.484 6.454H1.108a1.107 1.107 0 100 2.216h26.215l-6.462 6.454z" /></g><defs><clipPath id="clip0"><path d="M0 0h48v48H0V0z" /></clipPath></defs></svg>