<svg xmlns="http://www.w3.org/2000/svg" viewBox="0 0 48 48"><g clip-path="url(#clip0)"><path d="M43.2 6.809H4.8a4.807 4.807 0 00-4.8 4.8V36.39a4.807 4.807 0 004.8 4.8h38.4a4.808 4.808 0 004.8-4.8V11.61a4.808 4.808 0 00-4.8-4.8zm2.585 29.582a2.592 2.592 0 01-2.585 2.585H4.8a2.592 2.592 0 01-2.585-2.585V11.61A2.585 2.585 0 014.8 9.024h38.4a2.585 2.585 0 012.585 2.585V36.39z" /><path d="M16.682 16.837H9.74a3.692 3.692 0 00-3.692 3.692v6.942a3.692 3.692 0 003.692 3.692h6.942a3.692 3.692 0 003.692-3.692v-6.942a3.692 3.692 0 00-3.692-3.692zM40.32 19.887H26.814a1.108 1.108 0 000 2.215H40.32a1.107 1.107 0 000-2.215zM33.97 25.898h-7.156a1.108 1.108 0 000 2.215h7.155a1.108 1.108 0 100-2.215z" /></g><defs><clipPath id="clip0"><path d="M0 0h48v48H0V0z" /></clipPath></defs></svg>