<svg xmlns="http://www.w3.org/2000/svg" width="75" height="75" viewBox="0 0 75 75"><path d="M34.606 32.698c.472-.287.994-.504 1.546-.64v-8.014c-2.724.27-5.207 1.347-7.212 2.988l5.666 5.666zm-1.91 1.907L27.03 28.94c-1.64 2.005-2.716 4.49-2.985 7.21h8.013c.132-.55.353-1.07.64-1.545zm13.364-7.573c-2.005-1.64-4.486-2.718-7.21-2.988v8.014c.55.136 1.072.353 1.545.64l5.666-5.666zM32.058 38.85h-8.013c.27 2.72 1.347 5.205 2.984 7.21l5.66-5.667c-.29-.47-.51-.993-.64-1.543zm-3.118 9.118c2.005 1.644 4.488 2.72 7.212 2.988v-8.013c-.552-.137-1.074-.354-1.546-.64L28.94 47.97zm9.91-5.025v8.013c2.723-.27 5.205-1.345 7.21-2.988l-5.665-5.665c-.473.286-.997.504-1.545.64zm3.453-2.55l5.666 5.668c1.64-2 2.71-4.49 2.98-7.2h-8.01c-.13.55-.35 1.07-.64 1.54z" /><path d="M37.5 0C16.79 0 0 16.79 0 37.5S16.79 75 37.5 75 75 58.21 75 37.5 58.21 0 37.5 0zm28.174 39.8c-3.164-.122-4.418-.45-4.91-.952h-2.016c-.305 4.866-2.242 9.287-5.27 12.726L54.902 53c.705-.006 1.82.646 4.146 2.798 1.987 1.838 2.967 4.426 2.072 5.323-.9.9-3.487-.08-5.326-2.07-2.148-2.32-2.802-3.44-2.8-4.14l-1.424-1.43c-3.435 3.03-7.856 4.97-12.724 5.27v2.02c.506.5.83 1.75.953 4.91.1 2.71-1.03 5.23-2.3 5.23-1.28 0-2.41-2.52-2.3-5.23.12-3.16.44-4.41.95-4.91v-2.02c-4.87-.3-9.29-2.24-12.73-5.27L22 54.91c.005.705-.648 1.822-2.797 4.145-1.84 1.98-4.426 2.96-5.326 2.07-.895-.9.085-3.49 2.07-5.33 2.327-2.15 3.442-2.806 4.147-2.8l1.424-1.427c-3.026-3.437-4.964-7.857-5.27-12.725h-2.015c-.492.503-1.746.83-4.91.953-2.705.1-5.23-1.03-5.23-2.3 0-1.27 2.524-2.41 5.23-2.305 3.164.13 4.418.45 4.91.96h2.016c.3-4.863 2.24-9.29 5.26-12.72L20.09 22c-.704.004-1.82-.65-4.146-2.8-1.985-1.838-2.965-4.424-2.07-5.323.9-.896 3.487.085 5.326 2.07 2.148 2.325 2.802 3.442 2.797 4.147l1.42 1.424c3.44-3.028 7.86-4.964 12.724-5.27v-2.016c-.5-.496-.83-1.747-.95-4.91-.1-2.704 1.03-5.228 2.3-5.228 1.27 0 2.41 2.524 2.3 5.228-.12 3.163-.44 4.414-.95 4.91v2.017c4.87.3 9.29 2.24 12.73 5.27L53 20.09c0-.71.65-1.83 2.8-4.15 1.84-1.99 4.427-2.97 5.327-2.07.895.9-.085 3.48-2.07 5.32-2.326 2.15-3.44 2.8-4.15 2.8l-1.425 1.42c3.024 3.44 4.963 7.86 5.27 12.722h2.014c.493-.5 1.743-.83 4.91-.95 2.705-.105 5.23 1.03 5.23 2.3-.007 1.272-2.527 2.406-5.235 2.3z" /><path d="M42.303 34.605c.286.474.508.994.64 1.545h8.017c-.27-2.72-1.35-5.205-2.988-7.21l-5.67 5.665z" /></svg>