<svg xmlns="http://www.w3.org/2000/svg" width="103.846" height="75" viewBox="0 0 103.8457 75" enable-background="new 0 0 103.8457 75"><path d="M96.153 17.183h-43.56l1-.011-.054-4.93c.025-.392.087-2.477-1.248-3.942-.854-.936-2.056-1.411-3.573-1.411l-7.62.004c-.493.043-1.946-.006-2.72-.717-.385-.354-.573-.852-.573-1.52v-4.655h-2v4.655c0 1.229.425 2.267 1.23 3.001 1.563 1.426 3.973 1.253 4.151 1.231h7.532c.94 0 1.623.246 2.088.751.855.928.738 2.469.737 2.48l-.005.051.055 5.012h-43.901c-4.248 0-7.692 3.444-7.692 7.693v42.432c0 4.248 3.444 7.692 7.692 7.692h88.461c4.248 0 7.692-3.444 7.692-7.692v-42.432c0-4.249-3.444-7.693-7.692-7.693zm-19.23 9.171c0-.694.551-1.256 1.23-1.256h5.231c.68 0 1.23.561 1.23 1.256v5.181c0 .693-.551 1.256-1.23 1.256h-5.231c-.68 0-1.23-.563-1.23-1.256v-5.181zm-23.577-.143c0-.969.776-1.756 1.73-1.756h5.231c.954 0 1.73.787 1.73 1.756v5.181c0 .969-.776 1.756-1.73 1.756h-5.231c-.954 0-1.73-.787-1.73-1.756v-5.181zm8.192 11.539v5.18c0 .694-.551 1.256-1.23 1.256h-5.231c-.68 0-1.23-.561-1.23-1.256v-5.18c0-.694.55-1.256 1.23-1.256h5.231c.68 0 1.23.563 1.23 1.256zm-8.192 11.539c0-.968.776-1.756 1.73-1.756h5.231c.954 0 1.73.788 1.73 1.756v5.18c0 .968-.776 1.756-1.73 1.756h-5.231c-.954 0-1.73-.788-1.73-1.756v-5.18zm-11.038-22.935c0-.694.551-1.256 1.23-1.256h5.23c.682 0 1.232.561 1.232 1.256v5.181c0 .693-.55 1.256-1.232 1.256h-5.23c-.68 0-1.23-.563-1.23-1.256v-5.181zm0 11.396c0-.694.551-1.256 1.23-1.256h5.23c.682 0 1.232.563 1.232 1.256v5.18c0 .694-.55 1.256-1.232 1.256h-5.23c-.68 0-1.23-.561-1.23-1.256v-5.18zm0 11.539c0-.694.551-1.256 1.23-1.256h5.23c.682 0 1.232.561 1.232 1.256v5.18c0 .694-.55 1.256-1.232 1.256h-5.23c-.68 0-1.23-.561-1.23-1.256v-5.18zm-11.539-22.935c0-.694.552-1.256 1.231-1.256h5.231c.68 0 1.23.561 1.23 1.256v5.181c0 .693-.551 1.256-1.23 1.256h-5.23c-.68 0-1.231-.563-1.231-1.256v-5.181zm-23.076 0c0-.694.551-1.256 1.23-1.256h5.231c.68 0 1.231.561 1.231 1.256v5.181c0 .693-.552 1.256-1.231 1.256h-5.23c-.68 0-1.23-.563-1.23-1.256v-5.181zm0 11.396c0-.694.551-1.256 1.23-1.256h5.231c.68 0 1.231.563 1.231 1.256v5.18c0 .694-.552 1.256-1.231 1.256h-5.231c-.68 0-1.23-.561-1.23-1.256v-5.18zm7.692 28.257c0 .693-.552 1.256-1.231 1.256h-5.23c-.68 0-1.23-.563-1.23-1.256v-5.181c0-.694.551-1.256 1.23-1.256h5.231c.68 0 1.231.561 1.231 1.256v5.181zm.499-11.539c0 .968-.776 1.756-1.731 1.756h-5.23c-.954 0-1.73-.788-1.73-1.756v-5.18c0-.968.776-1.756 1.73-1.756h5.231c.955 0 1.731.788 1.731 1.756v5.18zm11.039 11.539c0 .693-.551 1.256-1.23 1.256h-5.231c-.68 0-1.23-.563-1.23-1.256v-5.181c0-.694.551-1.256 1.23-1.256h5.231c.68 0 1.23.561 1.23 1.256v5.181zm0-11.539c0 .694-.551 1.256-1.23 1.256h-5.231c-.68 0-1.23-.561-1.23-1.256v-5.18c0-.694.551-1.256 1.23-1.256h5.231c.68 0 1.23.561 1.23 1.256v5.18zm0-11.538c0 .694-.551 1.256-1.23 1.256h-5.231c-.68 0-1.23-.561-1.23-1.256v-5.18c0-.694.551-1.256 1.23-1.256h5.231c.68 0 1.23.563 1.23 1.256v5.18zm0-11.395c0 .693-.551 1.256-1.23 1.256h-5.231c-.68 0-1.23-.563-1.23-1.256v-5.181c0-.694.551-1.256 1.23-1.256h5.231c.68 0 1.23.561 1.23 1.256v5.181zm3.346 6.215c0-.969.777-1.756 1.731-1.756h5.231c.954 0 1.73.788 1.73 1.756v5.18c0 .968-.776 1.756-1.73 1.756h-5.23c-.955 0-1.731-.788-1.731-1.756v-5.18zm8.192 11.539v5.18c0 .694-.551 1.256-1.23 1.256h-5.23c-.68 0-1.231-.561-1.231-1.256v-5.18c0-.694.552-1.256 1.231-1.256h5.231c.68 0 1.23.562 1.23 1.256zm34.616 16.861c0 .693-.552 1.256-1.231 1.256h-39.846c-.68 0-1.231-.563-1.231-1.256v-5.181c0-.693.552-1.256 1.231-1.256h39.846c.68 0 1.231.563 1.231 1.256v5.181zm0-11.682c0 .694-.552 1.256-1.231 1.256h-5.231c-.68 0-1.23-.561-1.23-1.256v-5.18c0-.694.551-1.256 1.23-1.256h5.231c.68 0 1.231.561 1.231 1.256v5.18zm0-11.538c0 .694-.552 1.256-1.231 1.256h-5.231c-.68 0-1.23-.561-1.23-1.256v-5.18c0-.694.551-1.256 1.23-1.256h5.231c.68 0 1.231.563 1.231 1.256v5.18zm0-11.395c0 .693-.552 1.256-1.231 1.256h-5.231c-.68 0-1.23-.563-1.23-1.256v-5.181c0-.694.551-1.256 1.23-1.256h5.231c.68 0 1.231.561 1.231 1.256v5.181zm3.346 6.215c0-.969.776-1.756 1.73-1.756h5.231c.954 0 1.73.788 1.73 1.756v5.18c0 .968-.776 1.756-1.73 1.756h-5.231c-.954 0-1.73-.788-1.73-1.756v-5.18zm8.192 28.4c0 .693-.551 1.256-1.23 1.256h-5.231c-.68 0-1.23-.563-1.23-1.256v-5.181c0-.693.551-1.256 1.23-1.256h5.231c.68 0 1.23.563 1.23 1.256v5.181zm11.538 0c0 .693-.551 1.256-1.23 1.256h-5.231c-.68 0-1.231-.563-1.231-1.256v-5.181c0-.693.552-1.256 1.231-1.256h5.231c.68 0 1.23.563 1.23 1.256v5.181zm0-11.538c0 .693-.551 1.255-1.23 1.255h-16.769c-.68 0-1.23-.561-1.23-1.255v-5.181c0-.693.551-1.256 1.23-1.256h16.77c.68 0 1.23.563 1.23 1.256v5.181zm0-11.538c0 .693-.551 1.256-1.23 1.256h-5.231c-.68 0-1.231-.563-1.231-1.256v-5.182c0-.693.552-1.256 1.231-1.256h5.231c.68 0 1.23.563 1.23 1.256v5.182zm0-11.539c0 .693-.551 1.256-1.23 1.256h-5.231c-.68 0-1.231-.563-1.231-1.256v-5.181c0-.694.552-1.256 1.231-1.256h5.231c.68 0 1.23.561 1.23 1.256v5.181zM55.076 32.148h5.231c.403 0 .731-.339.731-.756v-5.181c0-.417-.328-.756-.731-.756h-5.231c-.403 0-.731.339-.731.756v5.181c0 .417.328.756.73.756zM32 43.685h5.231c.403 0 .731-.339.731-.756v-5.18c0-.417-.328-.756-.731-.756h-5.23c-.403 0-.731.339-.731.756v5.18c0 .417.328.756.731.756zM14.153 48.532h-5.23c-.403 0-.731.339-.731.756v5.18c0 .417.328.756.731.756h5.231c.403 0 .731-.339.731-.756v-5.18c0-.417-.328-.756-.732-.756zM78.153 43.685h5.231c.403 0 .731-.339.731-.756v-5.18c0-.417-.328-.756-.731-.756h-5.231c-.403 0-.731.339-.731.756v5.18c0 .417.328.756.731.756zM55.076 55.224h5.231c.403 0 .731-.339.731-.756v-5.18c0-.417-.328-.756-.731-.756h-5.231c-.403 0-.731.339-.731.756v5.18c0 .417.328.756.73.756z" /></svg>