<svg xmlns="http://www.w3.org/2000/svg" width="55.914" height="75" viewBox="0 0 55.9141 75" enable-background="new 0 0 55.9141 75"><path d="M43.742 45.342h-16.744c-.449 0-.811.364-.811.813v1.014c0 .449.363.812.811.812h16.744c.45 0 .813-.363.813-.812v-1.014c0-.449-.363-.813-.812-.813zM43.742 50.417h-16.744c-.449 0-.811.364-.811.813v1.016c0 .448.363.81.811.81h16.744c.45 0 .813-.363.813-.81v-1.016c0-.449-.363-.813-.812-.813zM43.742 55.39h-16.744c-.449 0-.811.364-.811.813v1.014c0 .45.363.813.811.813h16.744c.45 0 .813-.363.813-.813v-1.014c0-.449-.363-.813-.812-.813zM53.188 6.856h-12.797c1.505 1.218 2.465 3.142 2.465 6.233v.483h-29.797v-.483c0-3.091.96-5.015 2.465-6.233h-12.798c-1.507 0-2.727 1.221-2.727 2.726v62.692c0 1.506 1.22 2.726 2.727 2.726h50.461c1.505 0 2.727-1.22 2.727-2.726v-62.692c0-1.506-1.222-2.726-2.727-2.726zm-11.039 26.468l.28.281 6.174 6.184h-6.132c-.182 0-.33-.147-.33-.328l.008-6.137zm-14.409-11.8l6.454 6.465h-6.132c-.182 0-.33-.147-.33-.329l.008-6.136zm-20.705 32.991v-33.351c0-.182.148-.33.33-.33h19.453c-.027.099-.051.203-.051.33v6.497c0 .714.582 1.294 1.295 1.294h6.497c.13 0 .233-.021.328-.046v2.761h-13.113c-.714 0-1.295.581-1.295 1.294v.579h-7.89c-.448 0-.811.364-.811.811v1.015c0 .448.363.812.811.812h7.89v2.436h-7.89c-.448 0-.811.364-.811.813v1.016c0 .448.363.811.811.811h7.89v2.334h-7.89c-.448 0-.811.364-.811.813v1.015c0 .449.363.813.811.813h7.89v8.613h-13.113c-.182 0-.33-.147-.33-.328zm42.26 11.8c0 .182-.147.329-.328.329h-27.193c-.182 0-.33-.147-.33-.329v-33.351c0-.182.148-.329.33-.329h19.451999999999998c-.027.099-.051.202-.051.329v6.498c0 .713.581 1.294 1.295 1.294h6.497c.13 0 .233-.021.328-.046v25.606zM41.882 12.607c-.184-5.254-3.437-6.528-8.591-6.849l-.486-.03.035-.486.019-.177.015-.148c0-2.711-2.205-4.917-4.916-4.917-2.711 0-4.917 2.206-4.917 4.917l.015.148.019.177.035.486-.486.03c-5.155.321-8.407 1.595-8.591 6.849h27.849zm-13.925-9.788c1.161 0 2.1.938 2.1 2.098 0 .875-.536 1.624-1.297 1.94h-1.603c-.761-.315-1.297-1.064-1.297-1.94 0-1.16.941-2.098 2.098-2.098z" /></svg>