<svg xmlns="http://www.w3.org/2000/svg" width="107.624" height="75" viewBox="0 0 107.624 75"><path d="M98.304 10.115l2.957-2.957 3.153 3.152.716-.717-3.153-3.152 3.153-3.153-.716-.717-3.153 3.153-2.957-2.958-.717.716 2.957 2.958-2.957 2.957zM0 0v75h107.624v-75h-107.624zm33.227 35.869l-4.658 4.658-11.221-11.221-3.722 6.904-1.802-17.194 17.193 1.801-7.044 3.799 11.254 11.254zm-19.601 14.167l3.725 6.911 11.218-11.219 4.658 4.659-11.246 11.247 7.037 3.795-17.193 1.801 1.802-17.193zm64.415-29.22l17.193-1.801-1.801 17.194-3.697-6.857-11.173 11.174-4.658-4.658 11.227-11.228-7.091-3.825zm.183 25.064l11.336 11.336 3.872-7.181 1.801 17.193-17.193-1.801 6.767-3.648-11.243-11.242 4.659-4.658zm28.387-32.905h-69.118c-.791 0-1.685-.592-1.996-1.32l-4.608-7.76c-.31-.729-1.205-1.318-1.996-1.318h-17.2c-.792 0-1.667.598-1.955 1.335l-4.211 7.728c-.289.738-1.165 1.336-1.956 1.336h-2.556v-11.962h105.598v11.962z" /></svg>