<svg xmlns="http://www.w3.org/2000/svg" width="108.162" height="74.537" viewBox="0 0 108.1621 74.5371" enable-background="new 0 0 108.1621 74.5371"><path d="M0 17.382v39.775h20.949l27.348 17.381v-74.537l-27.349 17.382zM52.01 67.148h11.822v7.389h-11.822zM52.01 56.805h11.822v7.389h-11.822zM52.01 46.461h11.822v7.389h-11.822zM66.787 67.148h11.822v7.389h-11.822zM66.787 56.805h11.822v7.389h-11.822zM66.787 46.461h11.822v7.389h-11.822zM66.787 36.117h11.822v7.389h-11.822zM66.787 25.773h11.822v7.389h-11.822zM81.564 67.148h11.822v7.389h-11.822zM81.564 56.805h11.822v7.389h-11.822zM81.564 46.461h11.822v7.389h-11.822zM81.564 36.117h11.822v7.389h-11.822zM81.564 25.773h11.822v7.389h-11.822zM81.564 15.429h11.822v7.389h-11.822zM81.564 5.085h11.822v7.389h-11.822zM96.341 67.148h11.821v7.389h-11.821zM96.341 56.805h11.821v7.389h-11.821zM96.341 46.461h11.821v7.389h-11.821zM96.341 36.117h11.821v7.389h-11.821z" /></svg>