<svg xmlns="http://www.w3.org/2000/svg" width="90.2" height="74.862" viewBox="0 0 90.2002 74.8623" enable-background="new 0 0 90.2002 74.8623"><path fill-rule="evenodd" clip-rule="evenodd" d="M6.927 25.092c1.284-1.233 1.935-2.838 1.935-4.771 0-.355-.021-.717-.061-1.082l-.052-.604-2.057.129.06.699c.032.289.049.576.049.857 0 1.388-.414 2.433-1.302 3.284l1.427 1.487zM19.558 59.235c-.338-.811-1.066-2.383-2.549-5.578l-1.869.867c1.472 3.17 2.194 4.729 2.517 5.504l1.901-.793zM2.716 33.966l.025.033.815-.63.784-.671c-.372-.472-.82-.866-1.176-1.182-.717-.64-1.035-1.139-1.098-1.721l-.006-.115c0-.161.033-.341.274-.569l-1.415-1.497c-.61.576-.919 1.271-.919 2.066l.018.334c.153 1.428 1.029 2.374 1.779 3.042.313.278.669.592.919.909zM19.173 64.006l-2.016.426.06.278c.043.805.469 1.337 1.27 1.581 1.512.463 3.093.769 4.835.934l.195-2.05c-1.52-.145-2.903-.403-4.266-.807l-.078-.362zM3.679 39.687c0-.19.057-.408.169-.648l-1.867-.871c-.241.515-.362 1.026-.362 1.52 0 .792.305 1.528.908 2.19.182.199.263.394.263.633 0 .143-.029.305-.086.48-.12.368-.215.752-.281 1.139l2.03.349c.05-.289.121-.574.21-.85.124-.383.188-.76.188-1.118 0-.76-.27-1.441-.801-2.022-.332-.364-.37-.632-.37-.802zM8.469 48.648c-.564-.031-1.127-.061-1.688-.117-.245-.024-.478-.076-.692-.15l-.682 1.943c.368.129.76.216 1.168.257.592.06 1.187.093 1.782.125.658.036 1.314.071 1.965.147.418.05.815.127 1.179.231l.564-1.981c-.468-.133-.973-.232-1.5-.295-.694-.082-1.394-.121-2.094-.159zM10.039 9.825l.146-.173-1.563-1.344c-.69.804-1.313 1.674-1.9 2.659l-1.467 2.461 2.698-.964.493-.153 1.437 1.049c.217-.298.565-.601.932-.92.45-.393.915-.798 1.258-1.295l1.816-2.633-3.012 1.078c-.229.081-.518.158-.84.234zM27.454 2.672c1.19-.097 2.366-.123 3.516-.082l.074-2.059c-1.23-.048-2.485-.017-3.756.086-.766.063-1.531.145-2.295.244l.265 2.044c.731-.095 1.462-.175 2.196-.233zM19.058 1.931c-2.053.548-3.965 1.355-5.683 2.394l1.067 1.763c1.551-.94 3.283-1.669 5.147-2.167l-.532-1.99zM83.508 18.748l-2.057-.131-.054.621c-.04.364-.061.726-.061 1.078 0 1.92.641 3.517 1.904 4.744l1.437-1.477c-.873-.85-1.28-1.887-1.28-3.268 0-.28.017-.565.049-.856.026-.238.047-.476.062-.713zM83.42 48.531c-.561.056-1.125.086-1.688.117-.7.038-1.4.077-2.094.159-.46.054-.905.137-1.321.245l.521 1.994c.325-.085.675-.149 1.042-.193.651-.076 1.308-.111 1.965-.147.595-.032 1.19-.065 1.782-.125.472-.047.924-.155 1.341-.321l-.761-1.915c-.239.096-.504.158-.787.187zM88.582 39.687c0-.528-.141-1.079-.418-1.635l-1.844.919c.134.269.202.51.202.716 0 .17-.038.438-.368.8-.533.582-.803 1.263-.803 2.022 0 .361.064.739.189 1.121.08.247.144.494.19.746l2.025-.383c-.064-.336-.148-.67-.256-1.002-.058-.176-.087-.339-.087-.482 0-.238.081-.432.264-.634.602-.659.907-1.395.907-2.187zM89.22 27.558l-1.379 1.531c.263.236.299.425.299.592l-.006.112c-.063.585-.381 1.084-1.093 1.719-.428.377-.81.725-1.151 1.148l1.607 1.29c.238-.297.538-.568.911-.896.746-.665 1.622-1.611 1.776-3.042l.018-.331c0-.81-.339-1.544-.98-2.123zM70.949 64.371c-1.348.399-2.765.664-4.326.808l.19 2.053c1.766-.164 3.37-.472 4.903-.94.805-.247 1.231-.784 1.269-1.6l.039-.209-2.028-.364-.046.253zM70.724 59.027l1.888.825c.428-.979 1.208-2.658 2.526-5.494l-1.869-.869c-1.379 2.969-2.119 4.563-2.545 5.538zM79.383 12.44c.368.32.715.623.933.921l1.44-1.048.491.152 2.698.964-1.467-2.461c-.587-.985-1.21-1.855-1.9-2.659l-1.563 1.344.146.173c-.321-.076-.611-.153-.84-.234l-3.012-1.078 1.816 2.633c.343.497.808.901 1.257 1.294zM62.747 2.672c.733.059 1.465.139 2.195.233l.265-2.044c-.764-.099-1.529-.182-2.294-.244-1.272-.102-2.526-.134-3.757-.086l.074 2.059c1.149-.041 2.325-.015 3.517.082zM71.142 1.931l-.532 1.99c1.865.498 3.597 1.228 5.147 2.167l1.067-1.763c-1.718-1.04-3.63-1.847-5.683-2.394zM52.008 1.754c-3.197-.93-7.082-1.845-9.968-1.746-5.399.188-8.665 2.573-8.665 2.573-6.839 3.351-7.155 2.514-10.068 7.119-2.914 4.606-1.974 5.109-2.672 6.132-.504.738-1.674 7.004-1.023 11.075.651 4.072 1.922 6.67 1.922 6.67s1.086 2.846 2.883 6.332c2.432 3.687.053 5.478.053 5.478l3.085-1.055.209.81c.567 3.825-2.572 6.247-2.572 6.247s5.061-1.126 6.826-1.956l-.186.943 1.608-1.379c.371.095.77.329 1.167.64l-.044.217-.497 14.274c-.665.191-1.331.367-1.994.51-.919.195-1.828.351-2.702.46l.258 2.045c.931-.118 1.898-.283 2.873-.491.758-.162 1.52-.366 2.28-.588 2.613.54 11.442 2.043 20.642.003.759.222 1.519.425 2.271.585.961.205 1.913.368 2.83.485l.26-2.045c-.86-.108-1.755-.263-2.66-.455-.688-.146-1.382-.331-2.077-.533l-1.156-14.25-.041-.199.245-.144.03.011.013-.036 1.294-.767 1.933 1.658-.259-1.316 4.962 3.591c-3.474-2.638-1.583-7.228-1.583-7.228l2.307.41c-.642-1.123-.56-2.323-.248-3.348l.147.002-.116-.106c.452-1.398 1.317-2.441 1.317-2.441l1.854-2.992s2.034-1.981 1.894-7.984c-.14-6.002.326-11.863-2.746-16.89-3.069-5.024-6.919-8.138-8.234-8.514-.515-.147-2.195-.751-4.366-1.42l-1.29-.386z" /><path d="M82.258 62.194l-6.131-.264 2.068 3.644c-29.288 11.979-56.85 3.572-66.237-.041l2.044-3.603-6.13.264-6.131.264 3.318 4.696 3.316 4.694 2.043-3.602c5.84 2.283 19.105 6.615 35.644 6.615 10.29 0 21.851-1.69 33.667-6.585l2.026 3.571 3.316-4.694 3.318-4.696-6.131-.264z" /></svg>