<svg xmlns="http://www.w3.org/2000/svg" width="110.215" height="63.36" viewBox="0 0 110.2148 63.3604" enable-background="new 0 0 110.2148 63.3604"><path d="M56.968 46.601c14.836 0 28.766-7.284 41.404-21.648l1.453-1.651-1.453-1.651c-12.638-14.365-26.568-21.649-41.404-21.649-25.108 0-43.469 20.775-44.238 21.66l-1.427 1.641 1.427 1.641c.769.885 19.126 21.659 44.238 21.659zm-2.846-40.899c9.008 0 16.337 7.329 16.337 16.338s-7.329 16.338-16.337 16.338-16.337-7.329-16.337-16.338 7.329-16.338 16.337-16.338zm39.007 17.6c-9.181 9.925-18.978 15.844-29.221 17.679 6.851-3.555 11.551-10.703 11.551-18.94 0-5.887-2.397-11.225-6.266-15.089 8.335 2.686 16.346 8.146 23.936 16.351zm-56.68-13.204c-2.312 3.41-3.664 7.521-3.664 11.942 0 6.445 2.885 12.221 7.417 16.136-10.781-4.335-18.875-11.628-22.13-14.874 2.867-2.858 9.483-8.852 18.377-13.204zM54.122 35.235c7.37 0 13.345-5.976 13.345-13.345 0-7.371-5.975-13.346-13.345-13.346s-13.345 5.975-13.345 13.346c0 7.369 5.975 13.345 13.345 13.345zm4.502-22.178c2.229 0 4.034 1.807 4.034 4.036 0 2.228-1.805 4.035-4.034 4.035-2.228 0-4.036-1.807-4.036-4.035 0-2.229 1.808-4.036 4.036-4.036zM102.416 47.215l-7.799-.338 2.614 4.606c-37.221 15.225-72.265 4.548-84.218-.051l2.584-4.555-7.799.338-7.799.335 4.221 5.974 4.219 5.97 2.582-4.551c7.43 2.904 24.309 8.418 45.355 8.418 13.095 0 27.804-2.149 42.84-8.38l2.56 4.513 4.219-5.97 4.221-5.974-7.799-.335z" /></svg>