<svg xmlns="http://www.w3.org/2000/svg" width="124.005" height="74.992" viewBox="0 0 124.0049 74.9922" enable-background="new 0 0 124.0049 74.9922"><circle cx="80.014" cy="28.683" r="1.624" /><circle cx="94.252" cy="28.683" r="1.624" /><path d="M123.988 72.414c-.021-.287-.061-.596-.121-.933-.653-3.687-2.326-6.592-5.692-8.511-4.126-2.352-8.57-3.957-12.9-5.833-1.891-.817-3.832-1.615-5.538-2.741-3.001-1.981-2.998-4.871-.846-7.693 1.785-2.342 1.797-2.139 3.306-5.495.794-1.769.72-3.193 2.228-4.219.68-.954 1.259-2.188 1.592-2.988.519-1.926.592-4.679-.812-6.264-1.452-1.642-.6-2.177-.767-4.003-.49-5.334.807-10.791-2.751-15.848-4.077-5.79-8.655-8.727-14.433-7.677l-.577-.064c-3.772-.472-6.278 2.252-9.222 3.78-1.483.77-3.447 1.76-3.781 3.345-.352 1.67-1.096 2.705-2.182 3.808-.831.842-1.143 2.028-1.412 3.189-.836 3.592-.661 7.211-.348 10.838.074.85.498 1.754-.322 2.484-2.287 2.039-1.902 4.522-1.185 7.065l.944 2.241c.831 1.157 1.875 1.755 2.702 3.326 1.42 2.702 1.895 4.495 3.586 6.319 2.463 2.659 2.202 5.522-.747 7.67-1.767 1.286-3.792 2.077-5.794 2.903-2.299.951-4.61 1.875-6.888 2.871-5.815-2.07-13.446-4.533-14.566-8.538-.461-1.647.625-2.287 3.167-3.059.502-.153 3.358.368 3.873.195 0 0-2.418-1.231-1.086-2.244 1.5-1.139 5.144-1.443 5.271-3.416-4.768.36-5.737-1.535-3.768-5.756 2.356-5.047 4.558-10.12 4.336-15.815-.447-11.532-12.202-20.394-23.369-19.514-10.893.857-19.708 8.949-20.488 19.913-.492 6.922 3.271 11.913 4.82 18.31 1.182 4.871-4.867 3.216-4.867 3.216 1.848 3.138 2.63 3.321 5.618 4.504-.332.845-1.106.927-1.106.927.301.463 2.667-.094 3.878.384 5.906.397 1.382 4.505-1.542 5.962-3.368 1.683-6.899 2.994-10.354 4.482-5.839 2.516-11.261 5.521-11.839 12.498-.011.133-.006.258.008.378h-.016v2.578h124.005v-2.578h-.017zm-100.234-54.065s7.418-2.363 8.21 1.476c0 0 2.824-2.555 8.877-.95 0 0 13.621-5.496 12.588.704 0 0 1.563 2.412 1.654 5.972l-4.323.714v-.147c0-1.292-.926-2.345-2.065-2.345h-7.567c-1.139 0-2.066 1.053-2.066 2.345v.441h-2.886v-.441c0-1.292-.926-2.345-2.065-2.345h-7.568c-1.139 0-2.065 1.053-2.065 2.345v.175l-5.081-.836c-.127-2.732.706-5.703 4.357-7.106zm26.008 7.768v2.609c0 .741-.478 1.345-1.066 1.345h-7.567c-.588 0-1.067-.604-1.067-1.345v-2.609c0-.741.478-1.345 1.067-1.345h7.567c.587 0 1.066.604 1.066 1.345zm-14.584 0v2.609c0 .741-.478 1.345-1.066 1.345h-7.568c-.587 0-1.066-.604-1.066-1.345v-2.609c0-.741.478-1.345 1.066-1.345h7.568c.588 0 1.066.604 1.066 1.345zm2.209 24.172c-5.935 0-10.532-7.432-16.537-19.095 0 0-1.027-2.132-1.361-4.71l4.99.819v1.423c0 1.292.927 2.345 2.065 2.345h7.568c1.139 0 2.065-1.053 2.065-2.345v-1.169h2.886v1.169c0 1.292.927 2.345 2.066 2.345h7.567c1.139 0 2.065-1.053 2.065-2.345v-1.449l4.307-.712c-.079 1.42-.404 2.982-1.147 4.629-4.665 10.339-8.814 19.095-16.535 19.095zm49.867 2.188c-6.515 0-8.357-4.028-12.519-9.898-1.291-1.82-2.254-5.307-2.761-7.744 0 0-2.336-14.329 4.758-17.058 0 0 7.295-.035 7.814-.899 0 0 1.902.606 6.92.236 0 0 11.566 1.259 10.612 6.988 0 0 2.27 4.288.629 10.576-.736 2.817-1.32 5.72-2.873 7.68-3.957 4.996-6.45 10.119-12.58 10.119z" /></svg>