<svg xmlns="http://www.w3.org/2000/svg" width="116.66" height="74.908" viewBox="0 0 116.6602 74.9077" enable-background="new 0 0 116.6602 74.9077"><path d="M19.369 6.333l-1.467-1.318c-1.07 1.192-1.94 2.547-2.612 4.098l-1.026 2.951 1.861.647.999-2.881c.561-1.287 1.317-2.464 2.245-3.498zM32.743.516c-2.636-.676-5.439-.611-8.049.181l.574 1.887c2.265-.689 4.696-.746 6.985-.158l.489-1.91zM11.125 27.096l-1.861-.648 2.504-7.192 1.861.648zM3.624 48.672l-1.861-.646-.69 1.991c-.712 1.636-1.073 3.364-1.073 5.129l.014.606 1.969-.092-.011-.508c0-1.498.306-2.961.936-4.418l.716-2.062zM6.763 33.64l1.861.648-2.504 7.192-1.861-.648zM4.442 62.07l-1.527 1.248c1.303 1.591 2.923 2.816 4.818 3.642l1.819.793.788-1.807-1.82-.793c-1.604-.7-2.978-1.737-4.078-3.084zM35.488 65.013c-.946 2.171-2.529 3.938-4.581 5.109l.979 1.711c2.423-1.383 4.293-3.47 5.373-5.957l.018-.034-1.732-.94-.056.11zM17.32 68.989l-.787 1.807 3.819 1.665c1.149.5 2.356.83 3.589.981l.239-1.957c-1.043-.127-2.066-.407-3.041-.832l-3.819-1.664zM115.788 51.034l-.013-.041-1.883.584.037.109c.504 1.282.759 2.623.759 3.984 0 .966-.13 1.931-.386 2.869l1.902.519c.302-1.107.455-2.247.455-3.388 0-1.609-.301-3.192-.872-4.636zM111.655 44.299l-2.235-7.278 1.884-.579 2.235 7.278zM80.619 2.22l.72 1.835-7.088 2.781-.72-1.835zM106.836 21.877l2.235 7.278-1.884.579-2.235-7.278zM107.77 65.819l-3.876 1.523.722 1.835 3.875-1.523c1.166-.458 2.253-1.078 3.232-1.844l-1.215-1.553c-.829.649-1.75 1.174-2.738 1.561zM94.958 70.853c-1.62.637-3.361.874-5.064.705l-.196 1.962c.422.042.848.064 1.275.064 1.611 0 3.195-.301 4.705-.895l1.85-.726-.721-1.835-1.85.726zM96.061 1.723c-2.412-1.267-5.139-1.863-7.869-1.695l.117 1.967c2.376-.139 4.739.373 6.835 1.473l.917-1.745zM79.846 62.665l-1.775.858.921 1.894c.728 1.855 1.839 3.472 3.304 4.806l1.326-1.457c-1.238-1.129-2.18-2.498-2.825-4.138l-.95-1.963zM103.028 9.498c-.309-.782-.682-1.541-1.109-2.252l-1.69 1.015c.373.619.697 1.278.94 1.888l1.546 5.032 1.885-.579-1.57-5.104zM55.62 23.895l.003 6.761 2.94-.007-.003-6.751-.001-2.947-.003-5.754-2.939.006.002 5.746zM61.513 15.197v5.894c8.288.615 14.129 2.989 17.034 6.839l.625-8.161c0-7.725-6.263-13.986-13.985-13.986h-6.619v6.463c1.625.004 2.945 1.326 2.945 2.951zM52.667 21.085v-5.888c0-1.625 1.32-2.947 2.944-2.951v-6.463h-6.619c-1.013 0-2 .114-2.952.319l-6.104-2.661-.788 1.807 4.091 1.783c-4.851 2.194-8.232 7.066-8.232 12.738l.624 8.148c2.906-3.857 8.747-6.23 17.036-6.833zM61.513 24.056v6.6c0 1.627-1.324 2.95-2.951 2.95h-2.944c-1.627 0-2.95-1.323-2.95-2.95v-6.608c-6.856.546-16.541 2.691-16.541 10.325l2.193 28.646c0 6.566 5.322 11.888 11.888 11.888h13.765c6.565 0 11.888-5.322 11.888-11.888l2.194-28.646c0-7.599-9.655-9.759-16.541-10.317z" /></svg>