<svg xmlns="http://www.w3.org/2000/svg" width="63.669" height="74.984" viewBox="0 0 63.6694 74.9844" enable-background="new 0 0 63.6694 74.9844"><path d="M46.578 37.694c-.568 0-1.113.109-1.623.306-.246-1.045-.729-1.977-1.382-2.707l1.557-20.34.004-.114c0-8.182-6.657-14.839-14.839-14.839h-15.454c-8.182 0-14.84 6.657-14.84 14.839l3.161 41.337c.028 6.443 4.835 11.766 11.049 12.638.622 2.429 2.351 4.227 4.363 4.837 1.494.844 3.222 1.334 5.071 1.334h17.169c3.477 0 6.543-1.708 8.371-4.31 1.522-1.036 2.546-2.943 2.546-5.133v-21.892c0-3.289-2.307-5.956-5.153-5.956zm-21.971-28.632c.206 0 .352.048.438.089v3.573c-.716-.435-1.53-.685-2.395-.685-.843 0-1.636.239-2.338.653v-3.542c.085-.041.231-.089.436-.089h3.86zm15.379 24.545c-1.212 0-2.325.489-3.205 1.298-.349-2.899-2.494-5.133-5.098-5.133-1.55 0-2.937.794-3.881 2.048v-7.528c.14-.315.226-.655.226-1.017v-3.4c5.854.684 12.784 2.784 12.784 8.902h.264l-.374 4.894c-.235-.038-.473-.064-.717-.064zm2.163-18.822l-.59 7.701c-2.528-3.004-7.152-4.93-13.53-5.616v-7.935c0-1.603-1.503-2.858-3.422-2.858h-.547v-3.092h6.234c6.519 0 11.825 5.287 11.854 11.8zm-27.309-11.8h6.234v3.092h-.328c-1.918 0-3.421 1.256-3.421 2.858v7.899c-6.498.655-11.195 2.595-13.752 5.642l-.589-7.691c.03-6.513 5.337-11.8 11.855-11.8zm-8.695 53.13l-2.09-27.338h.267c0-6.222 7.126-8.291 13.004-8.938v3.436c0 .304.069.592.171.865v15.502c-1.422-1.519-3.428-2.257-5.373-1.759-3.023.774-4.751 4.229-3.857 7.717l5.123 20.006c-4.168-1.148-7.243-4.962-7.243-9.491zM63.669 14.857l-3.509-6.078-3.51-6.079-3.51 6.079-3.509 6.078h7.019zM49.632 21.43l3.509 6.078 3.51 6.078 3.51-6.078 3.509-6.078h-7.019z" /></svg>