<svg xmlns="http://www.w3.org/2000/svg" width="139.799" height="59.983" viewBox="0 0 139.7988 59.9834" enable-background="new 0 0 139.7988 59.9834"><path d="M13.209 48.414c13.877.971 33.99 1.357 40.247-2.733.288-2.089 1.096-9.198-.206-14.868-16.164 1.773-29.862 5.878-36.166 11.295-2.104 1.28-3.588 3.596-3.874 6.307zM94.276 57.52l-13.76.173-6.873-.203c-4.824-.524-7.958-.867-8.79-5.365-.731-3.961 2.67-9.262 6.4-10.013.677-.218 6.272-1.981 9.597-1.981 5.1 0 12.165-1.363 13.232-1.575l9.037-4.749c-1.838-.646-4.85-1.56-8.636-2.184-.564-.093-1.173-.221-1.803-.367-6.667-.902-13.956-1.408-21.612-1.408-5.04 0-10.015.231-14.809.662 1.538 7.204.135 15.856.067 16.264l-.095.574-.458.359c-4.332 3.402-15.073 4.354-25.729 4.354-6.057 0-12.086-.308-16.896-.646v.239c0 4.601 3.454 8.329 7.714 8.329h99.054c4.259 0 8.713-3.728 8.713-8.329v-1.829c4.052.56 7.99-.39 8.724-3.003l.535-4.287c-5.753 1.547-11.217 3.829-16.25 6.81-10.689 6.329-26.686 8.103-27.361 8.176zM138.641 20.46c-1.254-1.899-3.568-1.786-5.882-2.435 0 0-13.531-4.789-22.667-6.176l-21.135-2.423c-1.094-.029-2.059-.002-2.919.082l-21.395.606c-.829-.499-.87-.674-3.558-.359l-19.34 5.613c-.764-.016-1.418.164-1.973.488l-.191.086-11.324 5.041c-3.84 2.039-4.851 3.081-2.887 6.076l-.017-.023c.198.383.455.732.75 1.053l.213.284-.183-.254c1.855 1.983 5.327 2.712 7.481 1.595l4.867-1.69 5.448-1.741 18.798-3.214c.284.006.561-.037.834-.105l18.02 1.159c1.074 1.046 2.477 1.987 4.006 2.701.399.174.826.352 1.272.53.351.128.704.247 1.059.347l.323.182c1.978.718 4.252 1.387 6.565 1.768 6.685 1.101 10.957 3.028 11.136 3.109l1.855.847-13.178 6.881c-.327.067-8.068 1.644-13.771 1.644-3.154 0-8.979 1.883-9.037 1.902l-.126.032c-2.455.458-5.44 4.591-4.867 7.696.51 2.755 1.774 3.167 6.962 3.734l6.752.197 13.624-.167c.067-.012 16.151-1.798 26.46-7.902 5.419-3.21 11.319-5.636 17.537-7.231l1.54-12.349c.191-2.888.258-5.601-1.053-7.584zM19.605 0l3.126 15.49-2.941.593-3.126-15.49zM-.001 27.181l15.491-3.124.593 2.942-15.491 3.124zM3.873 10.102l13.162 8.743-1.659 2.498-13.162-8.743zM35.823 2.199l2.499 1.66-8.744 13.164-2.499-1.66zM8.308 42.846l8.743-13.162 2.499 1.66-8.743 13.162z" /></svg>