<svg xmlns="http://www.w3.org/2000/svg" width="64.796" height="75" viewBox="0 0 64.7964 75" enable-background="new 0 0 64.7964 75"><path d="M35.008 10.319v-2.869h4.456c1.219 0 2.208-.988 2.208-2.208v-3.035c0-1.219-.989-2.207-2.208-2.207h-14.131c-1.22 0-2.208.988-2.208 2.207v3.035c0 1.22.988 2.208 2.208 2.208h4.455v2.869c-16.647 1.335-29.787 15.298-29.787 32.283 0 17.864 14.534 32.398 32.398 32.398 17.865 0 32.399-14.533 32.399-32.398 0-16.985-13.141-30.948-29.789-32.283zm12.951 45.944c3.057-3.631 4.9-8.318 4.9-13.435 0-11.528-9.345-20.872-20.872-20.872v13.825c-3.586.214-6.432 3.18-6.432 6.821 0 3.779 3.063 6.843 6.842 6.843.796 0 1.558-.144 2.269-.394l13.878 10.304c-4.189 4.04-9.881 6.531-16.147 6.531-12.839 0-23.285-10.445-23.285-23.284s10.445-23.285 23.285-23.285 23.286 10.446 23.286 23.285c0 6.074-2.341 11.611-6.165 15.762m-2.062-1.078l-11.73-8.708c1.28-.715 2.303-1.829 2.908-3.173l8.822 11.881zM60.013 21.688c.579.579 1.516.579 2.093 0l1.441-1.44c.578-.578.578-1.516 0-2.094l-6.703-6.704c-.58-.577-1.517-.577-2.095 0l-1.44 1.44c-.579.577-.579 1.516 0 2.094l6.703 6.703z" /></svg>