<svg xmlns="http://www.w3.org/2000/svg" width="64.634" height="75" viewBox="0 0 64.6338 75" enable-background="new 0 0 64.6338 75"><path d="M34.933 10.482v-3.019h4.465c1.222 0 2.21-.991 2.21-2.212v-3.041c0-1.222-.988-2.211-2.21-2.211h-14.16c-1.221 0-2.21.989-2.21 2.211v3.041c0 1.221.989 2.212 2.21 2.212h4.465v3.019c-16.601 1.338-29.702 15.264-29.702 32.201 0 17.819 14.498 32.316 32.319 32.316 17.818 0 32.315-14.497 32.315-32.316 0-16.938-13.102-30.865-29.701-32.201zm-2.614 55.674c-12.944 0-23.476-10.529-23.476-23.473 0-12.861 10.4-23.335 23.233-23.468l-1.594 10.775-.951 6.433c-2.396 1.068-4.068 3.466-4.068 6.26 0 3.786 3.068 6.854 6.856 6.854 3.786 0 6.853-3.068 6.853-6.854 0-2.794-1.672-5.192-4.068-6.261l-.952-6.432-1.591-10.775c12.831.132 23.229 10.606 23.229 23.468 0 12.943-10.529 23.473-23.471 23.473zM59.987 21.729c.58.579 1.519.579 2.098 0l1.442-1.442c.579-.579.579-1.519 0-2.097l-6.717-6.717c-.578-.58-1.517-.58-2.098 0l-1.442 1.441c-.579.579-.579 1.519 0 2.098l6.717 6.717z" /></svg>