<svg xmlns="http://www.w3.org/2000/svg" width="64.779" height="74.981" viewBox="0 0 64.7793 74.9805" enable-background="new 0 0 64.7793 74.9805"><path d="M34.998 10.316v-2.868h4.455c1.219 0 2.208-.987 2.208-2.207v-3.035c0-1.218-.989-2.206-2.208-2.206h-14.128c-1.22 0-2.208.988-2.208 2.206v3.035c0 1.22.988 2.207 2.208 2.207h4.454v2.868c-16.643 1.335-29.78 15.295-29.78 32.275 0 17.858 14.53 32.389 32.389 32.389 17.86 0 32.39-14.53 32.39-32.389 0-16.981-13.137-30.94-29.781-32.275zm14.152 48.404l-6.725-9.057-3.583-4.825c.246-.706.386-1.459.386-2.247 0-3.779-3.062-6.841-6.84-6.841-3.777 0-6.84 3.062-6.84 6.841 0 3.777 3.063 6.84 6.84 6.84 1.007 0 1.96-.223 2.82-.613l4.628 3.436 9.063 6.729c-4.22 4.25-10.063 6.887-16.511 6.887-12.836 0-23.279-10.444-23.279-23.278 0-12.836 10.443-23.279 23.279-23.279s23.28 10.443 23.28 23.279c0 6.257-2.487 11.941-6.518 16.129zM59.998 21.682c.579.578 1.516.578 2.093 0l1.44-1.44c.578-.578.578-1.515 0-2.092l-6.701-6.703c-.58-.576-1.517-.576-2.094 0l-1.439 1.44c-.578.578-.578 1.516 0 2.094l6.701 6.701z" /></svg>