<svg xmlns="http://www.w3.org/2000/svg" width="129.38" height="61.848" viewBox="0 0 129.3804 61.8477" enable-background="new 0 0 129.3804 61.8477"><path d="M129.075 59.002c-.876-3.951-2.346-7.807-4.833-11.035-.846-1.099-2.45-3.578-4.179-2.914-1.915.735-3.912 2.59-5.635 3.729 3.733-5.536 8.421-10.465 12.748-15.531l-.183-.575h-13.754l-.035-.487c3.339-2.028 8.238-5.164 8.558-9.486.379-5.127-5.253-6.957-9.152-8.227-5.02-1.634-1.16-6.512-3.328-10.33-1.069-1.882-3.49-2.05-5.41-1.971-3.189.131-6.446-.179-9.631-.356-2.603-.144-5.206-.306-7.775-.766-2.367-.424-5.226-1.414-7.642-.916-3.475.718-1.909 9.274-1.882 11.658.029 2.688-.207 3.025-2.669 4.018-2.369.955-4.94 2.038-6.689 3.977-3.116 3.453-1.178 7.978.947 11.377h-7.193c1.389-2.725 2.218-6.035.522-8.823-1.384-2.274-6.729-6.222-9.481-5.898-.806-3.72 1.29-8.471-.499-12.015-1.995-3.949-9.557-.83-12.784-.545-4.729.42-9.516.662-14.262.618-3.689-.034-6.326 1.914-6.401 5.738l-.016.798-.01.569-.056.002.032 1.384c-.008.778-.009 1.56.012 2.343l-.181.064-1.053.333c-3.603 1.132-8.136 2.388-9.563 6.342-1.627 4.507 1.993 7.902 5.262 10.325h-11.992l1.697 2.231c2.339 3.071 4.744 6.076 7.289 8.979-5.809-.336-9.236 11.652-9.822 15.778l-.024.172c-.016.336-.004.67.037 1.002l.099 1.283h129.221c.07-.974-.076-1.892-.288-2.846zm-117.801-31.619c-4.353-5.067 2.944-7.811 6.72-8.995l.513-.163.089 3.775 2.78-.066-.212-8.944c.007-.634.019-1.268.032-1.891l.016-.804c.039-1.993 1.024-2.845 2.971-2.994 3.467-.262 7.012-.135 10.495-.322 3.494-.189 6.868-.621 10.312-1.218 2.157-.373 4.636-1.326 4.628 1.519-.006 2.96.033 5.921-.031 8.881-.061 2.727 2.623 3.151 4.62 3.994 5.371 2.266 7.4 5.76 3.921 10.981-15.356 7.948-38.952 1.471-40.884.919-2.108-1.189-4.394-2.839-5.97-4.672zm-8.386 31.685c.591-3.772 2.171-7.614 4.591-10.581 2.78-3.409 4.013-.913 7.324 1.2l5.884 3.766-3.995-5.731c-3.078-4.418-6.891-8.291-10.196-12.539h11.472l.003-.045c1.883.487 5.21 1.264 9.34 1.867.507 7.43 13.597 8.624 14.361.827.811-.035 1.627-.085 2.443-.153 3.974 5.504 9.011 3.795 11.003-2.234 1.234-.43 2.442-.926 3.614-1.496h1.393l2.838 4.442c-1.44 2.175-6.745 7.63-5.327 10.376.903 1.748 2.354 2.904 3.059 4.845.646 1.778 1.015 3.642 1.534 5.457h-59.342zm65.292-10.121c-2.143 2.216-2.992 4.927-3.707 7.738-.896-3.485-1.941-6.335-4.296-9.1 1.252-2.303 2.98-4.453 4.429-6.64 1.04 1.621 5.361 6.159 3.574 8.001zm11.566-7.907c-4.098 1.69-6.578-3.601-7.491-6.683l11.887 2.831c-1.074 1.566-2.444 3.048-4.396 3.852zm15.344 2.215c-4.987.417-8.148-1.753-8.473-5.913 5.15-.465 10.188-.921 15.217-1.376.162 3.933-3.754 7.04-6.745 7.289-4.987.417 2.99-.249 0 0zm4.143-16.486c-3.873.81-7.886 1.065-11.8.387-2.869-.496-9.635-2.087-9.998-5.637 10.595 4.918 21.193 4.071 31.886.973-3.015 2.391-6.475 3.521-10.089 4.277zM45.025 27.492c2.142-.751 7.13-2.486 7.398-5.029-14.16 3.721-13.934 4.972-32.205 1.82 6.56 5.027 17.192 5.88 24.807 3.209z" /></svg>