<svg xmlns="http://www.w3.org/2000/svg" width="75" height="100" viewBox="0 0 75 100"><path d="M64.187 32.968v-6.752C64.187 11.68 52.24 0 37.5 0 22.764 0 10.813 11.68 10.813 26.216v6.752C4.715 33.748 0 38.876 0 45.102V87.75C0 94.51 5.56 100 12.422 100h50.156C69.438 100 75 94.512 75 87.75V45.1c0-6.225-4.715-11.354-10.813-12.134zM37.5 12.228c7.764 0 14.085 6.327 14.085 13.988v6.638H23.42v-6.638c0-7.66 6.316-13.987 14.08-13.987zm4.355 55.003l1.275 17.343H31.87l1.274-17.342c-3.398-1.608-5.768-5.004-5.768-8.973 0-5.513 4.533-9.98 10.124-9.98s10.124 4.467 10.124 9.98c0 3.97-2.365 7.366-5.77 8.974z" /></svg>