<svg xmlns="http://www.w3.org/2000/svg" width="30.166" height="21" viewBox="0.4465 0.3105 30.166 21" class="unseen"><path d="M30.118 10.056c-1.907-2.12-3.902-3.78-5.972-4.968l3.76-3.05-1.4-1.727-4.565 3.704c-1.922-.78-3.904-1.178-5.933-1.178-8.556 0-14.81 6.927-15.073 7.222l-.488.548.486.548c.16.18 2.525 2.785 6.263 4.817l-4.452 3.612 1.4 1.728 5.285-4.285c1.96.792 4.174 1.35 6.58 1.35 5.057 0 9.803-2.427 14.11-7.22l.495-.55-.494-.55zm-15.08-5.32c1.56 0 2.968.632 3.98 1.647l-.756.614c-.825-.81-1.964-1.31-3.224-1.31-2.51 0-4.546 1.99-4.546 4.447 0 .936.297 1.8.8 2.515l-.81.656c-.635-.884-1.01-1.962-1.01-3.12 0-3.005 2.497-5.45 5.566-5.45zm.395 4.553c-.148-.215-.235-.474-.235-.754 0-.744.615-1.348 1.375-1.348.38 0 .718.15.968.39l-2.107 1.71zm-12.68 1.316c.978-.952 3.232-2.952 6.263-4.404-.787 1.136-1.248 2.508-1.248 3.983 0 1.562.524 3.008 1.405 4.184l-.544.44c-2.832-1.432-4.944-3.293-5.876-4.204zm12.285 5.027c-1.063 0-2.053-.298-2.9-.807l.89-.72c.607.297 1.284.48 2.01.48 2.51 0 4.548-1.992 4.548-4.45 0-.418-.078-.815-.188-1.196l.84-.682c.234.6.367 1.247.367 1.927 0 3.005-2.496 5.448-5.567 5.448zm3.333.87c2.337-1.187 3.94-3.57 3.94-6.318 0-1.088-.26-2.114-.705-3.036l1.127-.914c1.927 1.015 3.8 2.468 5.6 4.37-3.128 3.312-6.47 5.285-9.96 5.897z" /></svg>