<svg x="0px" y="0px" width="493px" height="478px" viewBox="0 0 493 478" enable-background="new 0 0 493 478" xml:space="preserve">
<path fill-rule="evenodd" clip-rule="evenodd" d="M494,474c-3.851,4.223-8.954,4.239-13.85,3.415        c-23.401-3.939-46.718-8.392-70.142-12.191c-19.816-3.215-39.7-6.076-59.621-8.559c-18.445-2.298-36.945-4.347-55.481-5.669        c-23.203-1.654-46.419-3.684-69.754-1.518c-21.828,2.026-43.789,2.818-65.546,5.391c-29.649,3.506-59.209,7.871-88.711,12.48        c-17.696,2.766-35.184,6.842-52.827,9.986c-3.651,0.65-7.679,0.278-11.345-0.504c-5.225-1.114-6.377-4.72-2.71-8.745        c4.131-4.533,8.561-8.922,13.421-12.642c25.1-19.209,53.137-33.613,80.742-48.694c11.827-6.462,23.737-12.797,35.872-18.646        c2.711-1.308,7.188-1.579,9.722-0.221c27.293,14.629,56.192,22.683,87.226,23.65c35.008,1.092,69.443-1,102.112-15.175        c5.79-2.513,11.459-5.35,17.001-8.373c3.858-2.104,7.519-2.466,11.361-0.391c37.939,20.483,76.046,40.71,111.732,65.021        c7.586,5.168,13.898,12.206,20.797,18.383C494,472,494,473,494,474z" />
<path fill-rule="evenodd" clip-rule="evenodd" d="M260.345,358.649c-0.001-6.666-0.014-13.332,0.003-19.997        c0.016-6.617,1.255-7.987,7.761-9.286c23.399-4.673,43.469-15.394,59.579-33.153c50.176-55.312,32.986-143.118-34.448-174.782        c-7.865-3.693-16.622-5.683-25.145-7.703c-4.709-1.117-6.949-2.365-6.897-7.893c0.299-32.16,0.228-64.324,0.057-96.486        c-0.024-4.72,1.14-6.419,6.164-6.129c31.782,1.836,60.334,12.763,86.393,30.535c33.701,22.984,59.902,52.217,74.134,91.077        c10.589,28.911,13.497,58.758,10.865,89.336c-2.897,33.667-13.899,64.333-34.281,91.235        c-29.509,38.95-66.991,66.35-115.563,76.735c-7.289,1.559-14.732,2.462-22.142,3.365c-5.57,0.68-6.432-0.259-6.467-5.856        C260.313,372.648,260.347,365.648,260.345,358.649z" />
<path fill-rule="evenodd" clip-rule="evenodd" d="M232.656,57.152c-0.001,16.328-0.082,32.657,0.063,48.984        c0.032,3.64-0.951,5.021-4.842,5.758c-47.443,8.985-82.432,43.607-90.827,91.267c-6.362,36.12,3.831,67.753,29.332,94.381        c17.192,17.951,38.03,28.714,62.415,33.029c1.473,0.261,3.657,2.602,3.681,4.006c0.265,15.657,0.135,31.321,0.197,46.982        c0.012,3.033-1.256,4.366-4.231,3.967c-28.779-3.858-56.262-11.626-81.374-26.713c-30.432-18.282-52.346-44.396-69.388-75.039        c-11.667-20.977-20.006-43.178-23.133-67.021c-3.922-29.911-0.223-59.053,10.847-87.15        c16.423-41.688,41.429-76.581,80.322-100.261C168.615,15.401,193.595,7.196,220.034,3.4        c12.588-1.808,12.623-1.565,12.623,11.265C232.657,28.827,232.657,42.989,232.656,57.152z" />
<path fill-rule="evenodd" clip-rule="evenodd" d="M152.168,221.706c-2.297-45.733,36.464-94.738,95.133-94.377        c56.823,0.35,94.004,49.618,93.8,93.39c-0.221,47.19-37.788,95.796-94.355,95.739        C188.395,316.398,149.934,267.277,152.168,221.706z" />
                </svg>