<svg x="0px" y="0px" width="500px" height="500px" viewBox="0 0 500 500" enable-background="new 0 0 500 500" xml:space="preserve">
<path fill-rule="evenodd" clip-rule="evenodd" d="M501,240c0,7.333,0,14.667,0,22c-0.386,2.268-0.863,4.524-1.142,6.806       c-1.146,9.394-1.648,18.907-3.437,28.174c-10.166,52.694-34.418,97.91-73.406,134.868       c-40.271,38.175-88.064,60.649-143.303,67.016c-5.908,0.681-11.809,1.423-17.713,2.137c-7.333,0-14.667,0-22,0       c-2.265-0.386-4.519-0.863-6.797-1.141c-9.394-1.146-18.907-1.648-28.174-3.437c-52.694-10.163-97.911-34.414-134.871-73.4       c-38.176-40.27-60.653-88.062-67.021-143.301C2.457,273.812,1.714,267.907,1,262c0-7.333,0-14.667,0-22       c0.386-2.268,0.863-4.524,1.141-6.806c1.146-9.394,1.649-18.907,3.437-28.175c10.166-52.693,34.418-97.909,73.406-134.867       c40.271-38.175,88.064-60.649,143.303-67.016C228.195,2.456,234.096,1.714,240,1c7.333,0,14.667,0,22,0       c2.265,0.386,4.519,0.863,6.797,1.141c9.394,1.146,18.907,1.648,28.174,3.437c52.694,10.163,97.911,34.414,134.871,73.4       c38.176,40.27,60.652,88.062,67.021,143.301C499.544,228.188,500.286,234.093,501,240z M371.94,229.555       c-0.271,0.385-0.544,0.77-0.815,1.154c-37.159,0-74.318-0.046-111.478,0.076c-3.394,0.011-3.671-2.043-4.253-4.294       c-13.035-50.342-62.12-81.766-113.151-72.441c-54.255,9.913-89.753,62.24-78.808,116.167       c10.426,51.363,56.273,84.278,108.928,78.202c39.66-4.577,73.073-33.634,82.781-72.271c0.953-3.794,2.386-4.961,6.304-4.942       c34.83,0.167,69.661,0.101,104.491,0.102c1.782,0.001,3.564,0,6.202,0c-1.664,1.789-2.72,2.982-3.838,4.114       c-6.791,6.877-13.76,13.588-20.354,20.649c-6.885,7.372-8.229,17.963-3.685,25.324c7.538,12.213,22.589,13.601,33.753,2.653       c18.442-18.085,36.421-36.646,54.948-54.641c10.754-10.444,11.188-26.173-0.156-37.006       c-17.712-16.914-34.701-34.584-52.072-51.857c-2.463-2.449-5.098-4.93-8.098-6.591c-6.509-3.603-13.604-3.756-20.095-0.343       c-6.576,3.456-10.025,9.146-10.094,17.084c-0.06,6.893,2.313,12.319,7.024,16.96       C356.928,214.992,364.448,222.259,371.94,229.555z" />
<path fill-rule="evenodd" clip-rule="evenodd" d="M160.256,189.316c33.019,0.023,61.456,28.638,61.423,61.808       c-0.032,32.896-28.814,61.597-61.733,61.557c-33.337-0.04-61.702-28.629-61.628-62.114       C98.391,217.572,126.987,189.294,160.256,189.316z" />
            </svg>