<svg x="0px" y="0px" width="375.053px" height="318.044px" viewBox="0 0 375.053 318.044" enable-background="new 0 0 375.053 318.044" xml:space="preserve">
<path fill-rule="evenodd" clip-rule="evenodd" d="M0.75,138.77c11.304-24.244,30.132-40.159,55.401-47.853              c28.839-8.781,54.973-1.94,78.289,16.507c5.052,3.998,9.533,8.719,14.518,13.33c9.454-10.97,20.289-20.123,33.577-25.859              c6.126-2.646,12.625-4.431,19.383-6.754c1.377,7.294,2.614,13.845,3.931,20.82c-2.206,0.611-4.565,1.186-6.876,1.917              c-16.381,5.183-28.831,15.576-38.589,29.422c-0.854,1.213-1.203,3.025-1.206,4.561c-0.063,43.243-0.055,86.486-0.04,129.729              c0,1.074,0.207,2.147,0.359,3.629c38.741-29.935,77.053-29.224,115.746,0.46c0-32.238,0-64.211,0-96.676              c5.756,1.34,10.853,2.903,16.065,3.619c4.048,0.556,5.063,2.128,5.044,6.137c-0.173,37.118-0.155,74.237-0.017,111.356              c0.014,3.548-0.983,5.15-4.48,5.777c-3.911,0.702-7.796,1.745-11.555,3.036c-2.625,0.901-3.966,0.19-5.502-1.982              c-8.447-11.956-18.949-21.712-32.564-27.377c-25.671-10.682-48.935-5.89-69.315,12.521c-5.494,4.963-10.067,11.079-14.438,17.117              c-5.682,7.852-13.726,8.152-19.171,0.102c-10.388-15.359-23.69-27.25-41.696-32.501c-23.238-6.778-43.965-1.104-61.698,15.075              c-4.942,4.509-9.099,9.931-13.265,15.211c-1.499,1.898-2.638,2.409-4.887,1.782c-5.636-1.572-11.338-2.904-17.014-4.332              C0.75,251.285,0.75,195.027,0.75,138.77z M138.093,278.696c0.079-1.22,0.169-1.955,0.169-2.691              c0.007-43.866,0.023-87.733-0.062-131.6c-0.003-1.601-0.574-3.592-1.614-4.733c-5.202-5.704-10.136-11.821-16.107-16.62              c-16.616-13.356-35.567-18.246-56.504-12.843c-17.367,4.482-30.246,15.433-40.519,29.714c-0.861,1.196-1.23,3-1.233,4.523              c-0.064,43.491-0.054,86.983-0.037,130.476c0,1.002,0.217,2.004,0.345,3.111C61.376,248.251,99.577,249.122,138.093,278.696z" />
<path fill-rule="evenodd" clip-rule="evenodd" d="M300.011,1.548c41.597-0.095,75.388,33.449,75.54,74.989              c0.151,41.231-33.912,75.407-75.25,75.499c-41.513,0.091-75.084-33.475-75.334-75.223              C224.717,34.914,259.187,1.144,300.011,1.548z M287.718,21.728c-0.111,0.828-0.231,1.2-0.199,1.558              c2.069,22.839,4.336,45.662,6.141,68.521c0.732,9.29-0.588,8.071,9.448,7.931c1.02-0.014,2.759-1.721,2.897-2.806              c0.791-6.177,1.178-12.404,1.738-18.61c1.154-12.783,2.354-25.562,3.488-38.347c0.534-6.015,0.962-12.039,1.453-18.247              C304.083,21.728,296.023,21.728,287.718,21.728z M299.68,135.875c4.855-4.248,10.237-8.957,16.046-14.039              c-5.689-5.161-10.908-9.895-15.249-13.833c-4.921,4.429-10.157,9.142-15.748,14.173              C290.193,127.183,295.397,131.952,299.68,135.875z" />
            </svg>