<svg xmlns="http://www.w3.org/2000/svg" width="32" height="28.123" viewBox="0 0 32 28.123"><path d="M29.92 6.647h-6.7c-.553 0-1.218-.39-1.488-.873l-.727-1.304c-.27-.483-.935-.873-1.487-.873h-.707V.965C18.813.433 18.381 0 17.85 0h-3.696c-.532 0-.963.433-.963.965v2.632h-.704c-.552 0-1.218.39-1.487.873l-.73 1.304c-.27.483-.936.873-1.49.873h-6.7C.933 6.647 0 7.58 0 8.73V26.04c0 1.15.932 2.08 2.08 2.08h27.84c1.148 0 2.08-.93 2.08-2.08V8.728c0-1.15-.932-2.08-2.08-2.08zM16 1.224c.623 0 1.128.505 1.128 1.128 0 .622-.505 1.127-1.128 1.127-.622 0-1.127-.506-1.127-1.128 0-.623.505-1.128 1.127-1.128zm-3.054 3.324h.243v.07c0 .532.43.964.962.964h3.696c.532 0 .964-.432.964-.964v-.07h.34c.43 0 .782.35.782.783s-.35.783-.783.783h-6.204c-.432 0-.783-.35-.783-.782s.35-.782.783-.782zM30 25.123c0 .553-.447 1-1 1H3.017c-.553 0-1-.447-1-1V9.647c0-.552.447-1 1-1H29c.553 0 1 .448 1 1v15.476z" /><path d="M28.075 23.11h-3.33c-.432 0-.782-.35-.782-.784 0-.43.35-.783.783-.783h3.33c.432 0 .782.352.782.783 0 .433-.35.783-.783.783zM21.67 23.11h-3.185c-.432 0-.783-.35-.783-.784 0-.43.35-.783.783-.783h3.186c.433 0 .784.352.784.783 0 .433-.35.783-.783.783zM15.608 23.102h-1.636c-.433 0-.783-.35-.783-.784-.002-.43.35-.783.782-.783h1.636c.433 0 .784.352.784.783 0 .434-.35.784-.784.784zM28.13 19.867H13.97c-.433 0-.783-.35-.783-.783-.002-.434.35-.783.782-.783H28.13c.432 0 .782.35.782.784 0 .432-.35.783-.783.783zM28.13 16.666h-4.45c-.432 0-.782-.35-.782-.783 0-.432.35-.783.783-.783h4.45c.432 0 .782.35.782.783 0 .433-.35.783-.783.783zM20.176 16.666h-6.204c-.433 0-.784-.35-.784-.783 0-.432.35-.783.784-.783h6.204c.432 0 .783.35.783.783 0 .433-.352.783-.784.783zM28.13 13.448H13.97c-.433 0-.783-.35-.783-.783-.002-.434.35-.783.782-.783H28.13c.432 0 .782.35.782.783 0 .432-.35.783-.783.783zM11.155 19.744v2.472c0 1.092-.94 1.977-2.105 1.977H5.246c-1.163 0-2.105-.885-2.105-1.977v-2.472c0-1.07-.456-2.084 1.171-2.132.75.652 1.74 1.058 2.837 1.058 1.1 0 2.09-.406 2.837-1.058 1.63.048 1.17 1.062 1.17 2.132z" /><circle cx="7.147" cy="14.115" r="3.324" /></svg>