<svg x="0px" y="0px" width="360px" height="360px" viewBox="0 0 360 360" enable-background="new 0 0 360 360" xml:space="preserve">
<path fill-rule="evenodd" clip-rule="evenodd" d="M-7.25,319.796c14.942-31.451,40.883-49.071,73.379-58.571                 c1.959-0.572,4.141-2.133,5.167-3.858c5.538-9.318,11.37-18.54,15.947-28.334c14.588-31.218,26.182-63.627,36.973-96.321                 c0.506-1.533,0.108-3.669-0.553-5.236c-6.804-16.117-12.642-32.526-15.54-49.851c-2.409-14.4-3.521-28.837,1.633-42.872                 c1.692-4.607,4.389-8.961,7.239-13c3.704-5.25,9.379-6.013,13.819-1.406c4.266,4.426,8.282,9.464,11.009,14.931                 c8.814,17.667,13.431,36.487,12.66,56.343c-0.498,12.833-3.297,25.167-9.346,36.672c-0.773,1.47-0.845,3.932-0.163,5.451                 c17.085,38.063,43.248,68.688,76.94,93.009c1.896,1.369,4.768,1.795,7.222,1.918c14.198,0.712,28.497,0.402,42.585,1.994                 c13.562,1.53,27.005,4.546,40.318,7.681c8.708,2.051,15.649,7.621,21.231,14.601c1.522,1.902,2.828,4.247,3.396,6.592                 c1.291,5.327,0.256,9.945-4.625,13.517c-9.636,7.051-20.528,8.842-31.969,7.932c-28.438-2.265-54.157-13.134-78.863-26.404                 c-7.139-3.834-13.564-4.549-21.216-3.198c-34.963,6.174-69.984,12.03-105.015,17.813c-2.96,0.487-3.965,1.934-4.74,4.344                 c-5.428,16.891-14.745,31.313-27.742,43.359c-12.555,11.639-26.901,20.453-43.349,25.139C5.593,345.899-4.78,340.74-6.458,326.345                 c-0.082-0.704-0.519-1.366-0.792-2.048C-7.25,322.797-7.25,321.296-7.25,319.796z M195.724,230.299                 c-23.061-21.868-45.175-43.244-62.402-69.798c-7.554,28.916-13.262,57.699-29.687,83.493                 C134.475,239.408,164.571,234.932,195.724,230.299z M62.087,274.51c-0.906-0.291-1.165-0.473-1.359-0.42                 c-0.96,0.258-1.913,0.551-2.85,0.882c-14.767,5.218-27.02,14.201-38.013,25.153c-2.792,2.781-4.925,5.671-5.714,9.656                 c-0.795,4.017,0.24,6.473,4.026,7.98c4.306,1.715,8.402,0.352,12.373-1.01c14.754-5.057,23.23-16.143,28.277-30.273                 C60.219,282.583,61.024,278.479,62.087,274.51z M248.535,240.927c-0.299,0.511-0.598,1.022-0.896,1.534                 c0.871,0.428,1.848,0.719,2.598,1.302c9.237,7.185,19.301,12.884,30.386,16.65c12.429,4.224,25.149,6.279,38.257,4.056                 c1.518-0.257,3.712-1.352,4.035-2.497c0.346-1.227-0.747-3.513-1.92-4.395c-3.955-2.972-7.935-6.22-12.432-8.107                 c-12.99-5.452-26.832-7.515-40.795-8.469C261.385,240.564,254.948,240.927,248.535,240.927z M139.074,109.834                 c0.871-1.612,1.349-2.213,1.541-2.895c3.609-12.814,5.803-25.913,4.31-39.152c-0.824-7.297-3.554-14.415-5.829-21.483                 c-0.482-1.497-2.725-2.428-4.156-3.619c-1.135,1.527-2.352,3.002-3.36,4.609c-0.357,0.569-0.196,1.459-0.288,2.201                 c-1.838,14.692,0.306,29.091,3.359,43.393C135.804,98.293,137.43,103.597,139.074,109.834z" />
<path fill-rule="evenodd" clip-rule="evenodd" d="M367.803,145.771c-1.501,5.201-5.253,8.547-9.317,11.789                 c-16.019,12.774-31.934,25.677-47.896,38.521c-2.728,2.195-5.555,4.983-9.332,3.205c-3.894-1.833-4.313-5.969-4.414-9.698                 c-0.21-7.847-0.063-15.704-0.063-23.876c-2.035-0.125-3.747-0.323-5.46-0.324c-25.116-0.02-50.233,0.062-75.348-0.116                 c-2.944-0.021-6.421-0.729-8.656-2.427c-1.954-1.484-3.346-4.755-3.521-7.336c-0.484-7.09-0.252-14.234-0.206-21.355                 c0.054-8.092,3.814-11.942,11.924-12.026c10.245-0.104,20.492-0.026,30.739-0.026c15.744,0,31.489-0.075,47.232,0.063                 c3.089,0.027,4.056-0.862,4.057-3.995c0.003-7.849-0.111-15.757,0.792-23.529c0.828-7.113,5.943-8.803,11.483-4.216                 c17.514,14.5,35.007,29.028,52.291,43.798c2.505,2.141,3.827,5.666,5.696,8.55C367.803,143.771,367.803,144.771,367.803,145.771z" />
            </svg>