<svg xmlns="http://www.w3.org/2000/svg" viewBox="0 0 72.3 75"><path d="M59.4 23.9l-3.7-6.8c-.3-.5-.3-1.1 0-1.5l3.7-7c.3-.5.8-.9 1.5-.9h10.8c.5 0 .7-.5.5-.9-.7-1-1.5-1.9-2.5-2.8-6-5.3-15.1-5.3-21.1.1-3.8 3.4-5.5 8.1-5.2 12.7.2 2.7-.8 5.3-2.8 7.1L2.9 59.3c-3.7 3.5-3.8 9.4-.2 13.1 3.6 3.6 9.6 3.5 13.1-.2l35.4-37.8c1.8-1.9 4.4-3 7-2.8 4.4.3 8.9-1.2 12.3-4.6.4-.4.8-.8 1.1-1.3.3-.4 0-.9-.4-.9H61c-.7 0-1.3-.4-1.6-.9zM5.9 69.1c-2.1-2.1-2.1-5.4 0-7.5 2.1-2.1 5.4-2.1 7.5 0 2.1 2.1 2.1 5.4 0 7.5-2.1 2.1-5.5 2.1-7.5 0z" /></svg>