<svg version="1.1" xmlns="http://www.w3.org/2000/svg" xmlns:xlink="http://www.w3.org/1999/xlink" x="0px" y="0px" width="393.805px" height="393.805px" viewBox="0 0 393.805 393.805" enable-background="new 0 0 393.805 393.805" xml:space="preserve">
<path fill-rule="evenodd" clip-rule="evenodd" d="M144.771,10.501c5.779,0.777,11.6,1.325,17.331,2.368                   c44.441,8.089,76.925,32.535,96.098,73.218c33.671,71.445-4.141,155.422-79.758,178.802                   c-72.606,22.449-149.695-23.209-164.783-97.67c-1.086-5.358-1.516-10.849-2.305-16.269c-0.157-1.079-0.562-2.121-0.852-3.18                   c0-4.5,0-9.001,0-13.502c0.289-1.197,0.75-2.383,0.839-3.596c1.986-26.917,11.496-50.909,28.56-71.738                   c20.55-25.084,46.845-40.63,78.938-46.036c5.862-0.986,11.786-1.608,17.681-2.397C139.27,10.501,142.02,10.501,144.771,10.501z                       M140.587,226.692c47.62-0.535,85.935-37.619,85.869-86.121c-0.065-48.103-38.068-85.677-85.805-85.693                   C92.89,54.863,55.143,92.569,54.697,140.5C54.258,187.714,93.261,226.641,140.587,226.692z" />
<path fill-rule="evenodd" clip-rule="evenodd" d="M232.271,279.849c19.269-13.091,34.415-28.313,46.851-46.595                   c1.074,0.933,1.939,1.595,2.703,2.359c32.955,32.974,65.867,65.992,98.895,98.894c3.905,3.89,4.849,8.17,3.827,13.288                   c-3.02,15.123-22.46,34.103-37.619,36.988c-5.06,0.963-8.969-0.381-12.497-3.959c-8.952-9.077-18.01-18.051-27.025-27.064                   c-23.598-23.598-47.188-47.2-70.813-70.769C235.54,281.942,234.171,281.215,232.271,279.849z" />
                </svg>