<svg xmlns="http://www.w3.org/2000/svg" width="32" height="28.301" viewBox="0 0 31.9995 28.3008"><path d="M24.214 19.021c0-2.232.952-4.347-2.437-4.45-1.557 1.36-3.623 2.21-5.926 2.21-2.29 0-4.346-.85-5.914-2.21-3.39.103-2.437 2.218-2.437 4.45v5.152c0 2.28 1.96 4.13 4.395 4.13h7.924c2.434 0 4.394-1.85 4.394-4.13v-5.15z" /><path d="M6.432 19.021c0-.373-.03-.763-.06-1.14-.096-1.178-.194-2.396.64-3.328.595-.664 1.54-1.007 2.892-1.05l.416-.012h.525c-.84-.677-1.545-1.51-2.055-2.47-.834.403-1.764.654-2.772.654-1.627 0-3.087-.605-4.2-1.57-2.407.072-1.73 1.574-1.73 3.16v3.66c0 1.616 1.39 2.93 3.12 2.93h3.224v-.832zM30.18 10.102c-1.105.967-2.573 1.572-4.207 1.572-1.098 0-2.106-.292-2.997-.77-.515 1.007-1.237 1.882-2.11 2.586h.705v.005l.24.007c1.35.043 2.296.386 2.89 1.05.836.932.737 2.15.642 3.328-.03.377-.06.766-.06 1.14v.833h3.51c1.728 0 3.12-1.313 3.12-2.93v-3.658c0-1.587.675-3.09-1.73-3.163zM7.856 7.275c0-2.05.78-3.917 2.055-5.335C9.01.77 7.61 0 6.02 0c-2.714 0-4.92 2.207-4.92 4.926 0 2.72 2.206 4.923 4.92 4.923.763 0 1.477-.19 2.12-.497-.177-.663-.282-1.358-.282-2.078zM25.973 0c-1.665 0-3.133.836-4.023 2.106 1.186 1.397 1.906 3.2 1.906 5.17 0 .67-.092 1.32-.248 1.94.705.392 1.503.633 2.365.633 2.72-.002 4.927-2.204 4.927-4.924S28.694 0 25.973 0z" /><path d="M15.85.343c-3.82 0-6.928 3.106-6.928 6.932 0 3.832 3.11 6.936 6.93 6.936 3.83 0 6.938-3.103 6.938-6.935 0-3.826-3.107-6.932-6.94-6.932z" /></svg>