<svg xmlns="http://www.w3.org/2000/svg" width="34" height="33.958" viewBox="0 0 34 33.9575"><path d="M31.766 25.48l-.04-.023c1.487-2.572 2.274-5.51 2.274-8.5s-.787-5.93-2.275-8.5l.04-.023c.588-.34.794-1.097.415-1.662-1.325-1.97-3.024-3.67-4.996-4.995-.565-.38-1.32-.174-1.66.415l-.024.04c-5.143-2.977-11.86-2.976-17 0l-.023-.04c-.34-.59-1.097-.794-1.66-.414C4.843 3.103 3.146 4.8 1.82 6.773c-.38.565-.174 1.32.416 1.66l.04.025C.786 11.028 0 13.968 0 16.958s.787 5.928 2.275 8.5l-.04.022c-.59.34-.794 1.098-.413 1.662 1.324 1.97 3.022 3.67 4.994 4.995.565.378 1.32.174 1.66-.416l.023-.04c2.57 1.49 5.51 2.278 8.5 2.278s5.93-.787 8.5-2.276l.023.04c.34.59 1.097.793 1.66.413 1.973-1.324 3.672-3.022 4.998-4.993.38-.565.173-1.32-.414-1.662zM29.993 9.46C31.307 11.725 32 14.319 32 16.956s-.693 5.232-2.008 7.5l-4.718-2.722c.837-1.445 1.28-3.097 1.28-4.777 0-1.68-.443-3.332-1.28-4.777l4.718-2.723v.002zM10.456 20.733c-.66-1.143-1.01-2.448-1.01-3.777s.35-2.634 1.01-3.776c.664-1.146 1.62-2.103 2.768-2.765 1.14-.66 2.447-1.01 3.776-1.01 1.328 0 2.635.35 3.777 1.01 1.147.663 2.103 1.62 2.766 2.766.66 1.143 1.01 2.45 1.01 3.777 0 1.33-.35 2.635-1.01 3.778-.663 1.146-1.62 2.102-2.767 2.765-2.283 1.322-5.268 1.322-7.553 0-1.146-.663-2.103-1.62-2.767-2.766zM9.5 3.964c2.27-1.313 4.86-2.006 7.5-2.006s5.23.693 7.5 2.007l-2.723 4.72c-2.89-1.676-6.665-1.675-9.554 0L9.5 3.964zM4.008 24.456C2.694 22.19 2 19.596 2 16.958s.694-5.232 2.007-7.5l4.718 2.722c-.836 1.446-1.278 3.098-1.278 4.777 0 1.68.442 3.33 1.278 4.778l-4.718 2.722zM24.5 29.951c-4.536 2.626-10.463 2.627-15 0l2.723-4.718c1.445.836 3.097 1.28 4.777 1.28s3.332-.444 4.777-1.28L24.5 29.95z" /></svg>