<svg class="seen" xmlns="http://www.w3.org/2000/svg" width="30.166" height="21" viewBox="1.0002 0 30.166 21"><path d="M16.56 18.02c5.057 0 9.805-2.428 14.11-7.22l.496-.55-.495-.55c-4.306-4.792-9.054-7.22-14.11-7.22-8.555 0-14.81 6.928-15.072 7.222l-.488.55.486.548c.262.292 6.517 7.22 15.077 7.22h-.002zm-.97-13.64c3.07 0 5.568 2.446 5.568 5.45s-2.497 5.447-5.567 5.447c-3.068 0-5.566-2.443-5.566-5.448 0-3.004 2.5-5.45 5.57-5.45h-.004zm13.294 5.87c-3.127 3.31-6.47 5.283-9.96 5.896 2.336-1.186 3.94-3.57 3.94-6.317-.002-1.964-.817-3.744-2.136-5.03 2.84.895 5.57 2.715 8.156 5.45zM9.57 5.847c-.787 1.137-1.248 2.51-1.248 3.982 0 2.15.98 4.075 2.527 5.38-3.674-1.444-6.433-3.875-7.543-4.96.978-.952 3.23-2.953 6.263-4.404z" /><path d="M15.592 14.23c2.51 0 4.547-1.993 4.547-4.45s-2.037-4.45-4.548-4.45c-2.512 0-4.546 1.992-4.546 4.45 0 2.457 2.034 4.45 4.546 4.45zm1.533-7.396c.76 0 1.374.603 1.374 1.348 0 .74-.614 1.343-1.375 1.343-.76 0-1.375-.602-1.375-1.343 0-.744.616-1.348 1.376-1.348z" /></svg>