<svg version="1.1" xmlns="http://www.w3.org/2000/svg" xmlns:xlink="http://www.w3.org/1999/xlink" x="0px" y="0px" width="28px" height="32px" viewBox="0 0 28 32" enable-background="new 0 0 28 32" xml:space="preserve">
<path d="M9.6997,31.5596L3.5703,3.7998C4.0322,3.4023,4.3301,2.8213,4.3301,2.165C4.3301,0.9697,3.3604,0,2.166,0   C0.9697,0,0,0.9697,0,2.165c0,0.9912,0.6699,1.8174,1.5801,2.0742L7.71,32L9.6997,31.5596z M11.1274,8.0029   c0.1602,1.373,0.3164,2.7451,0.4746,4.1182c1.5332,0.124,3.064,0.5098,4.5933,0.8936V8.9863   c-1.6895-0.4248-3.3784-0.8477-5.0698-0.9844L11.1274,8.0029z" />
<path d="M27.0859,4.7695c-1.2813,0.5498-2.6426,0.8203-4.1563,0.8203c-2.1855,0-4.4355-0.5654-6.6113-1.1123   c-2.2378-0.5596-4.5503-1.1396-6.855-1.1396c-1.6548,0-3.1431,0.293-4.5522,0.8994L4.5254,4.4014l3.0879,13.1318l0.5479-0.2344   c0.9346-0.4043,1.9292-0.6006,3.0347-0.6006c1.6055,0,3.2695,0.418,4.8784,0.8223c1.666,0.418,3.3906,0.8506,5.1191,0.8506   c1.2441,0,2.3672-0.2207,3.4297-0.6777l0.2305-0.0977L28,4.3799L27.0859,4.7695z M25.7695,9.4268   c-1.502,0.5371-3.0039,0.668-4.5078,0.5449l-0.4746,3.9346c1.3438,0.1104,2.6895-0.0068,4.0332-0.4756L24,16.8701   c-0.8672,0.3389-1.7891,0.5029-2.8066,0.5029c-0.2715,0-0.5449-0.0264-0.8203-0.0479l0.4141-3.4199   c-1.5293-0.124-3.0605-0.5098-4.5898-0.8926v3.5098c-1.3652-0.3418-2.7671-0.6699-4.1753-0.7734   c-0.1406-1.21-0.2793-2.4199-0.418-3.6299c-1.3711-0.1104-2.7437,0.0098-4.1167,0.5068L6.5371,8.5781   c1.5303-0.5645,3.0591-0.7002,4.5903-0.5771c-0.1367-1.1982-0.2773-2.3965-0.416-3.5938c1.7871,0.1563,3.5977,0.5957,5.3628,1.0371   l0.1211,0.0303v3.5098c1.6895,0.4238,3.3789,0.8486,5.0664,0.9844c0.1406-1.1504,0.2813-2.3018,0.418-3.4531   c0.416,0.0342,0.834,0.0723,1.25,0.0723c1.3027,0,2.5078-0.1846,3.6504-0.5605l-0.8105,3.3965V9.4268L25.7695,9.4268z" />
</svg>