<svg xmlns="http://www.w3.org/2000/svg" width="32" height="32" viewBox="0 0 32 32"><path d="M31.352 11.793l-1.612-3.98c-.165-.405-.64-.655-1.064-.555l-2.028.485c-.422.1-.975-.107-1.273-.426-.3-.32-.653-.653-1.076-1.034-.33-.29-.508-.87-.405-1.3l.516-2.13c.107-.43-.136-.913-.537-1.08L19.84.077c-.402-.168-.907.002-1.135.38l-1.12 1.876c-.227.38-.757.63-1.185.594-.534-.042-1.034-.046-1.492-.02-.43.024-.947-.232-1.156-.62l-.986-1.83c-.21-.385-.7-.562-1.102-.392l-3.916 1.66c-.398.168-.645.655-.55 1.085l.464 2.066c.1.43-.12.973-.446 1.262-.37.324-.698.686-1.032 1.107-.27.342-.817.55-1.24.446l-2.088-.516c-.42-.104-.897.142-1.066.55l-1.683 4.12c-.165.408-.01.94.35 1.183L2.15 14.18c.357.243.594.795.57 1.235-.03.528-.008 1.006.014 1.512.017.44-.286.973-.664 1.19l-1.62.926c-.38.216-.553.722-.388 1.13l1.61 3.978c.165.41.643.658 1.067.557l2.023-.48c.426-.102.958.118 1.242.45.315.372.668.707 1.08 1.043.337.278.553.838.47 1.27l-.403 2.038c-.084.433.17.92.57 1.087l4.037 1.698c.4.168.92.005 1.16-.362l1.14-1.727c.242-.367.788-.64 1.22-.63.47.015.966.013 1.48.007.43-.004.97.294 1.2.665l1.1 1.8c.224.373.734.538 1.136.368l4.1-1.738c.4-.17.646-.656.55-1.086l-.467-2.065c-.095-.43.122-.976.448-1.263.37-.325.697-.687 1.032-1.11.27-.34.82-.547 1.24-.443l2.09.516c.42.102.896-.144 1.06-.553l1.685-4.118c.165-.408.003-.924-.367-1.15l-1.84-1.134c-.37-.23-.613-.767-.58-1.207.05-.54.054-1.05.03-1.515-.022-.442.216-.996.58-1.24l1.24-.85c.36-.246.518-.776.354-1.184zM17.99 21.627c-3.144 1.333-6.54-.093-7.835-3.29-1.294-3.198.122-6.664 3.267-7.996 3.145-1.333 6.54.093 7.836 3.29 1.294 3.2-.122 6.665-3.268 7.996z" /></svg>