<svg xmlns="http://www.w3.org/2000/svg" width="32" height="30.596" viewBox="0 0 32 30.5957"><path d="M17.813 27.607V21.24c0-2.185 1.857-3.965 4.14-3.965h6.795c-.02-.26-.15-.516-.377-.652l-1.65-.996c-.333-.2-.553-.674-.523-1.06.044-.475.048-.924.028-1.332-.02-.387.194-.874.52-1.09l1.113-.746c.325-.215.467-.682.32-1.04l-1.45-3.496c-.147-.357-.575-.577-.956-.49l-1.822.427c-.38.09-.876-.093-1.143-.373-.27-.282-.59-.573-.97-.907-.294-.256-.454-.764-.363-1.14l.464-1.874c.095-.377-.123-.802-.483-.95L17.83.07c-.36-.15-.814 0-1.02.333l-1.006 1.65c-.204.333-.68.553-1.066.52-.478-.036-.927-.04-1.34-.017-.385.02-.85-.204-1.038-.544L11.473.4c-.19-.337-.63-.493-.99-.344l-3.52 1.458c-.357.15-.58.576-.494.954l.416 1.815c.088.376-.108.855-.4 1.108-.334.287-.627.604-.927.975-.246.3-.736.482-1.118.39l-1.877-.453c-.377-.092-.804.125-.955.484L.097 10.404c-.15.358-.01.825.313 1.04l1.522 1.01c.32.215.534.7.51 1.087-.024.465-.005.885.014 1.33.016.386-.257.855-.595 1.043l-1.457.815c-.34.19-.496.633-.347.99l1.448 3.498c.148.356.577.575.956.487l1.82-.423c.384-.09.86.105 1.116.397.285.327.602.62.97.916.305.243.497.736.424 1.116l-.362 1.79c-.075.38.15.806.51.955l3.63 1.49c.36.147.827.005 1.044-.318l1.023-1.518c.22-.324.71-.563 1.1-.555.42.013.867.01 1.328.006.388 0 .872.258 1.08.586l.985 1.58c.15.246.447.39.737.383-.02-.167-.052-.33-.052-.503zm-1.644-8.61c-2.828 1.17-5.88-.08-7.043-2.89-1.164-2.81.108-5.854 2.935-7.024s5.88.082 7.044 2.89c1.163 2.81-.11 5.853-2.937 7.023z" /><path d="M32 21.24c0-1.646-1.42-2.987-3.162-2.987h-6.886c-1.744 0-3.162 1.34-3.162 2.988v6.367c0 1.648 1.418 2.99 3.162 2.99h6.886c1.743 0 3.162-1.342 3.162-2.99V21.24zm-1.733 6.367c0 .693-.64 1.256-1.43 1.256h-6.885c-.79 0-1.43-.563-1.43-1.256V21.24c.002-.69.64-1.256 1.43-1.256h6.886c.788 0 1.43.565 1.43 1.257v6.367z" /><path d="M23.808 28.3l-2.943-2.945 1.225-1.223 1.718 1.718 4.89-4.89 1.227 1.224" /></svg>