<svg xmlns="http://www.w3.org/2000/svg" width="24.291" height="32" viewBox="0 0 24.291 32"><path d="M12.146 2C17.74 2 22.29 6.656 22.29 12.38c0 .984-.14 1.982-.42 2.965l-.02.073-.013.057c-.007.032-.773 3.307-4.966 9.037-1.32 1.81-2.623 3.505-3.866 5.035-.237.292-.542.453-.857.453-.318 0-.624-.162-.86-.453-1.236-1.52-2.537-3.214-3.868-5.036-3.12-4.26-4.333-7.14-4.754-8.352l-.24-.824C2.144 14.364 2 13.37 2 12.38 2 6.655 6.552 2 12.146 2m0-2C5.436 0 0 5.543 0 12.38c0 1.22.18 2.398.506 3.513-.008 0 .713 3.532 5.3 9.8 1.575 2.156 2.902 3.853 3.927 5.115.648.794 1.53 1.192 2.413 1.192.882 0 1.763-.397 2.41-1.19 1.025-1.263 2.354-2.96 3.93-5.12 4.586-6.266 5.307-9.797 5.307-9.797.317-1.116.498-2.292.498-3.514C24.29 5.54 18.855 0 12.147 0z" /><circle cx="12.146" cy="12.499" r="6.264" /></svg>