<svg xmlns="http://www.w3.org/2000/svg" width="31.98" height="32" viewBox="0 0 31.9805 32"><path d="M31.028 14.902H20.583c-.504-1.93-2.246-3.366-4.332-3.366-2.088 0-3.834 1.436-4.338 3.367H.952c-.528 0-.952.31-.952.69v.884c0 .38.424.69.952.69l10.96-.002c.506 1.93 2.25 3.365 4.34 3.365 2.085 0 3.826-1.434 4.33-3.365l10.446-.002c.53 0 .953-.308.953-.688v-.882c0-.38-.423-.69-.952-.69zm-14.777 4.63c-1.93 0-3.5-1.57-3.5-3.5s1.57-3.496 3.5-3.496c1.928 0 3.495 1.57 3.495 3.497s-1.567 3.498-3.494 3.498z" /><path d="M16.25 13.528c-1.387 0-2.504 1.12-2.504 2.505 0 1.383 1.117 2.505 2.505 2.505 1.382 0 2.5-1.122 2.5-2.505 0-1.384-1.118-2.505-2.5-2.505zM31.028 26.37h-.2c-.505-1.93-2.247-3.364-4.33-3.364-2.09 0-3.834 1.435-4.34 3.365L.95 26.374c-.528 0-.952.31-.952.688v.885c0 .38.424.69.952.69l21.205-.002c.505 1.93 2.25 3.367 4.34 3.367 2.085 0 3.827-1.437 4.332-3.367h.198c.53 0 .952-.31.952-.69v-.882c0-.378-.423-.69-.952-.69zM26.498 31c-1.932 0-3.503-1.568-3.503-3.497s1.57-3.498 3.502-3.498c1.926 0 3.493 1.57 3.493 3.498S28.423 31 26.497 31z" /><path d="M26.497 24.998c-1.39 0-2.506 1.12-2.506 2.505 0 1.383 1.118 2.505 2.507 2.505 1.38 0 2.498-1.122 2.498-2.505 0-1.384-1.117-2.505-2.498-2.505zM31.028 3.365H9.972C9.467 1.436 7.726 0 5.64 0 3.55 0 1.805 1.436 1.3 3.367H.953c-.528 0-.952.31-.952.69v.882c0 .38.424.69.952.69h.35c.505 1.93 2.25 3.365 4.338 3.365 2.086 0 3.827-1.436 4.33-3.366l21.058-.003c.53 0 .952-.308.952-.69v-.88c0-.382-.423-.692-.952-.692zM5.64 7.995c-1.93 0-3.502-1.57-3.502-3.498S3.708 1 5.64 1c1.926 0 3.494 1.568 3.494 3.497S7.566 7.995 5.64 7.995z" /><path d="M5.64 1.992c-1.388 0-2.505 1.12-2.505 2.505 0 1.383 1.117 2.505 2.505 2.505 1.38 0 2.5-1.122 2.5-2.505 0-1.384-1.12-2.505-2.5-2.505z" /></svg>