<svg xmlns="http://www.w3.org/2000/svg" width="32" height="32" viewBox="0 0 32 32"><path d="M21.392 2l2.056 3.563 2.058 3.563h-8.229l2.058-3.563M21.392 30l-2.057-3.563-2.058-3.563h8.229l-2.058 3.563M8.865 2l2.057 3.563 2.057 3.563H4.75l2.06-3.563M8.78 23.04l-2.055-3.564-2.058-3.563h8.23l-2.058 3.563" /><path d="M13.896 24.046c0 .457-.448.828-1 .828h-8.23c-.552 0-1-.37-1-.828v-.344c0-.457.448-.828 1-.828h8.23c.552 0 1 .37 1 .828v.344zM32 1.172C32 1.63 31.553 2 31 2H1c-.553 0-1-.37-1-.828V.828C0 .37.447 0 1 0h30c.553 0 1 .37 1 .828v.344zM26.506 31.172c0 .457-.447.828-1 .828h-8.23c-.55 0-1-.37-1-.828v-.344c0-.457.45-.828 1-.828h8.23c.553 0 1 .37 1 .828v.344zM7.28 10.483h3v1.357h-3zM7.28 13.215h3v1.357h-3zM19.892 10.653h3v1.527h-3zM19.892 13.708h3v1.527h-3zM19.892 16.763h3v1.527h-3zM19.892 19.817h3v1.527h-3z" /></svg>