<svg xmlns="http://www.w3.org/2000/svg" width="32" height="30.322" viewBox="-0.835 -0.8174 32 30.3223"><path d="M8.04 12.512L1.33 27.94-.834 27 6.49 10.2M31.165 1.757L12.69 4.92l1.27-2.87L30.727-.816M14.83 11.714c6.39.766 11.477 5.133 13.656 11.918.665-1.023.58-.894 1.246-1.913-2.312-7.207-7.903-11.69-14.85-12.02-.127-.388-.325-.754-.613-1.064-.388-.414-.864-.672-1.363-.772-.325-.685-.91-1.527-1.407-1.984L9.084 3.644c-.548-.505-.757-.34-.47.372l1.823 4.48L6.27 6.537c-.664-.31-.818-.086-.346.503l2.08 2.597c.425.533 1.21 1.164 1.847 1.512.094.536.334 1.048.72 1.462.216.233.465.405.726.54.177 7.647 4.37 13.824 11.19 16.353l1.78-1.34c-6.37-2.362-10.446-7.906-11.103-14.857.404-.13.788-.352 1.107-.694.248-.267.433-.574.56-.9zm-1.35.017c-.288.276-.664.427-1.06.427-.395 0-.77-.15-1.058-.426-.628-.6-.626-1.61 0-2.21.287-.275.663-.427 1.058-.427.396 0 .77.15 1.058.426.637.61.638 1.602.002 2.21z" /></svg>