<svg xmlns="http://www.w3.org/2000/svg" width="32" height="32" viewBox="-0.5 -0.5 32 32"><path d="M15.5-.5c-8.837 0-16 7.164-16 16s7.163 16 16 16 16-7.164 16-16-7.163-16-16-16zm1.082 23.77c-.36.356-.86.534-1.5.534-.656 0-1.164-.174-1.523-.522s-.54-.838-.54-1.47c0-.657.175-1.153.527-1.49s.863-.503 1.535-.503c.648 0 1.15.17 1.506.515s.533.836.533 1.476c0 .62-.18 1.105-.538 1.46zm3.867-10.68c-.39.624-1.134 1.327-2.227 2.108-.75.555-1.225.977-1.424 1.266s-.3.668-.3 1.137v.704h-3.106v-.867c0-.75.16-1.403.48-1.958s.907-1.145 1.76-1.77c.82-.586 1.36-1.063 1.622-1.43s.392-.777.392-1.23c0-.508-.187-.895-.562-1.16s-.898-.4-1.57-.4c-1.172 0-2.508.384-4.008 1.15L10.23 7.573c1.743-.976 3.59-1.465 5.544-1.465 1.61 0 2.888.387 3.837 1.16s1.425 1.805 1.425 3.094c0 .86-.195 1.602-.586 2.227z" /></svg>