<svg xmlns="http://www.w3.org/2000/svg" width="25" height="32" viewBox="-0.5 -0.5005 25 32"><path d="M18.746 7.234H24.5L16.766-.5v5.734c0 1.104.886 2 1.98 2z" /><path d="M18.175 8.2c-1.313 0-2.376-1.074-2.376-2.4V-.5H1.48C.387-.5-.5.395-.5 1.5v28c0 1.103.887 2 1.98 2h21.04c1.093 0 1.98-.897 1.98-2V8.2h-6.325zM7.525 24.266c-.48.406-1.163.61-2.05.61h-.648v2.54H3.313v-7.14h2.28c.867 0 1.525.187 1.976.56.45.373.675.928.675 1.667 0 .77-.24 1.357-.72 1.763zm6.988 2.212c-.67.625-1.636.938-2.9.938h-2.02v-7.14h2.24c1.166 0 2.07.31 2.716.924s.966 1.473.966 2.577c0 1.176-.335 2.075-1.003 2.7zm-3.407-8.896L6.32 13.715h2.61V4.998h4.352v8.716h2.61l-4.786 3.867zm9.98 3.936h-2.602v1.84h2.422v1.236h-2.422v2.823h-1.49v-7.14h4.093v1.24z" /><path d="M11.912 21.516h-.806v4.65h.65c1.458-.002 2.187-.784 2.187-2.35 0-1.533-.676-2.3-2.03-2.3zM5.516 21.516h-.69v2.12h.5c.465 0 .813-.093 1.044-.277.23-.185.347-.452.347-.804 0-.355-.097-.617-.29-.786-.195-.17-.498-.254-.91-.254z" /></svg>