<svg xmlns="http://www.w3.org/2000/svg" width="32" height="23.906" viewBox="-0.5 -0.5 32 23.9063"><path d="M28.5 1.906H17.25V.5c0-.552-.446-1-1-1h-1.5c-.552 0-1 .448-1 1v1.406H2.5c-1.657 0-3 1.344-3 3v15.5c0 1.657 1.343 3 3 3h26c1.657 0 3-1.343 3-3v-15.5c0-1.656-1.343-3-3-3zM6.63 6.094c1.66 0 3.008 1.346 3.008 3.008S8.29 12.11 6.63 12.11 3.622 10.762 3.622 9.1 4.97 6.094 6.63 6.094zm3.626 8.1v2.236c0 .988-.853 1.79-1.905 1.79H4.91c-1.053 0-1.906-.802-1.906-1.79v-2.236c0-.968-.413-1.885 1.06-1.928.675.59 1.572.957 2.566.957s1.89-.368 2.565-.957c1.474.043 1.06.96 1.06 1.928zm2.247-9.974c0-.335.273-.607.607-.607h.702c.128.403.493.7.94.7h1.5c.445 0 .81-.297.94-.7h.697c.334 0 .606.272.606.607 0 .335-.272.607-.607.607h-4.78c-.334 0-.607-.272-.607-.607zM28.41 17.47H13.723c-.45 0-.813-.364-.813-.814s.363-.812.813-.812H28.41c.45 0 .813.363.813.812s-.364.813-.813.813zm0-4H13.723c-.45 0-.813-.365-.813-.814s.363-.812.813-.812H28.41c.45 0 .813.363.813.812s-.364.813-.813.813zm0-4H13.723c-.45 0-.813-.365-.813-.814s.363-.812.813-.812H28.41c.45 0 .813.364.813.812s-.364.813-.813.813z" /></svg>