<svg xmlns="http://www.w3.org/2000/svg" width="32" height="32" viewBox="-0.8579 -0.8579 32 32"><path d="M5.514 5.67c.592-.59.592-1.552 0-2.144-.286-.286-.667-.444-1.07-.444-.406 0-.786.158-1.073.444-.59.59-.59 1.553 0 2.144.572.573 1.573.572 2.144 0z" /><path d="M20.577 9.53l-3.123-3.12-7.267-7.268L.13.132-.86 10.188l7.268 7.268 3.12 3.12 10.567 10.566 11.045-11.046L20.577 9.53zM2.647 2.803c.96-.96 2.632-.96 3.59 0 .99.99.99 2.6 0 3.59-.478.48-1.116.744-1.794.744-.68 0-1.316-.264-1.796-.743-.99-.99-.99-2.602 0-3.59zM18.85 26.107L4.405 11.664l7.29-7.29L26.138 18.82l-7.288 7.287z" /></svg>