<svg xmlns="http://www.w3.org/2000/svg" width="32" height="32" viewBox="-0.5 -0.5 32 32"><path d="M13.637 21.165l-.932-3.06H8.02l-.93 3.06H4.152L8.688 8.263h3.332l4.552 12.902h-2.935zm-1.582-5.344c-.862-2.77-1.347-4.338-1.454-4.7-.11-.364-.186-.65-.233-.862-.193.75-.747 2.604-1.66 5.563h3.348zM20.747 15.786h-3.4V13.86h3.4v-3.426h1.925v3.427h3.4v1.926h-3.4v3.384h-1.925v-3.384z" /><path d="M15.5 2.5c7.168 0 13 5.832 13 13s-5.832 13-13 13-13-5.832-13-13 5.832-13 13-13m0-3c-8.837 0-16 7.164-16 16s7.163 16 16 16 16-7.164 16-16-7.163-16-16-16z" /></svg>