<svg xmlns="http://www.w3.org/2000/svg" width="32" height="32" viewBox="-0.5 -0.4998 32 32"><path d="M28.5-.5v3.495h-3.563V-.5H6.063v3.495H2.5V-.5c-1.657 0-3 1.343-3 3v26c0 1.656 1.343 3 3 3v-3.562h3.563V31.5h18.873v-3.562H28.5V31.5c1.657 0 3-1.344 3-3v-26c0-1.657-1.343-3-3-3zM6.064 24.373H2.5V20.81h3.563v3.563zm0-7.126H2.5v-3.562h3.563v3.562zm0-7.126H2.5V6.56h3.563v3.56zm13.494 6.306l-7.305 4.888c-.765.51-1.384.18-1.384-.74v-10.15c0-.92.618-1.25 1.383-.74l7.305 4.888c.764.512.764 1.342 0 1.854zm8.942 7.947h-3.563V20.81H28.5v3.563zm0-7.126h-3.563v-3.562H28.5v3.562zm0-7.126h-3.563V6.56H28.5v3.56z" /></svg>