<svg xmlns="http://www.w3.org/2000/svg" width="32" height="27.246" viewBox="-0.5 -0.5 32 27.2461"><path d="M28.5-.5h-26c-1.657 0-3 1.344-3 3v17.25c0 1.657 1.343 3 3 3h9.333v1.82c-3.66.15-6.25 1.508-6.25 1.93 0 .553 4.44 0 9.916 0 5.477 0 9.916.553 9.916 0 0-.422-2.59-1.78-6.25-1.93v-1.82H28.5c1.657 0 3-1.343 3-3V2.5c0-1.656-1.343-3-3-3zm.752 21.082H1.748V1.918h27.504v18.664z" /><path d="M4.635 3.877v14.746h21.73V3.877H4.635zM6.14 5.343h17.34v1H6.14v-1zm6.71 11.514H6.14V14.09h6.71v2.767zm0-3.767H6.14V7.553h6.71v5.537zm12.096 3.253H13.85v-1h11.096v1zm0-2H13.85v-1h11.096v1zm0-2H13.85v-1h11.096v1zm0-2H13.85v-1h11.096v1zm0-2H13.85v-1h11.096v1zm0-2h-1v-1h1v1z" /></svg>