<svg xmlns="http://www.w3.org/2000/svg" width="32" height="32" viewBox="-0.5 -0.4995 32 32"><path d="M15.5 21.5c-3.31 0-6-2.69-6-6 0-3.307 2.69-5.998 6-5.998s6 2.69 6 6c0 3.307-2.69 5.998-6 5.998z" /><path d="M31.5 14.5h-3.55C27.463 8.395 22.603 3.535 16.5 3.05V-.5h-2v3.552C8.395 3.537 3.535 8.396 3.05 14.5H-.5v1.998h3.55c.483 6.104 5.345 10.967 11.45 11.452v3.55h2v-3.55c6.105-.483 10.967-5.346 11.45-11.451h3.55v-2zm-16 11.42C9.757 25.917 5.083 21.244 5.083 15.5c0-5.745 4.674-10.416 10.417-10.416s10.417 4.67 10.417 10.416c0 5.743-4.674 10.417-10.417 10.417z" /></svg>