<svg xmlns="http://www.w3.org/2000/svg" width="32" height="22.752" viewBox="-0.438 -0.4561 32 22.752"><path d="M28.276 13.858l1.582 1.08c.873.6 1.255.64 1.523.294.272-.35.21-.745.003-1.523C29.805 7.755 21.553 2.043 12.87.103 4.184-1.84-1.673 1.438-.215 7.42c1.46 5.985 9.687 12.413 18.372 14.355 4.88 1.092 7.962.388 10.258-1.373.873-.67.645-2.01-.188-2.73-2.008-1.736-3.412-3.256-3.177-3.85.29-.74 2.234-.643 3.226.036zm-9.106-8.1c-.184-.758.298-1.23 1.08-1.056.304.068.598.24.867.45.177-.025.37-.022.585.027.994.22 1.984 1.178 2.22 2.14.234.96-.38 1.558-1.37 1.337-.258-.058-.52-.17-.766-.316-.15.36-.54.537-1.073.417-.8-.177-1.602-.95-1.793-1.727-.117-.486.033-.858.358-1.023-.035-.084-.086-.165-.108-.25zM6.13 5.656c-.227.158-.543.218-.92.155-.2.147-.49.202-.84.123-.8-.18-1.6-.952-1.792-1.728-.106-.434.01-.77.265-.957.012-.712.573-1.116 1.41-.93.446.1.89.352 1.264.683.674.274 1.296.91 1.457 1.57.164.678-.208 1.123-.844 1.086zm5.865 8.914c.254 1.048-.412 1.702-1.494 1.46-.714-.16-1.424-.674-1.898-1.302-1.255-.394-2.453-1.596-2.75-2.815-.32-1.297.51-2.107 1.85-1.807.406.09.81.282 1.19.53.247-.11.565-.138.93-.056 1.053.236 2.112 1.257 2.362 2.28.14.575-.01 1.02-.35 1.264.067.147.126.296.16.446zM14.32 4.314c-.05.442-.43.686-.983.562-.334-.075-.665-.273-.943-.53-.15.043-.326.048-.528.004-.71-.16-1.424-.848-1.593-1.54-.17-.69.27-1.12.983-.96.057.013.115.035.17.053.134-.456.587-.693 1.218-.552.88.198 1.765 1.05 1.973 1.906.118.48-.01.854-.296 1.058zm6.62 17.128c-.582-.13-1.16-.46-1.658-.89-.177.022-.374.02-.594-.03-1.057-.238-2.116-1.26-2.365-2.287-.253-1.027.402-1.665 1.46-1.43.018.005.034.012.05.018-.012-.77.582-1.213 1.476-1.012.93.21 1.83 1.043 2.185 1.94.608.534 1.086 1.226 1.255 1.924.31 1.27-.5 2.062-1.81 1.768z" /></svg>