<svg xmlns="http://www.w3.org/2000/svg" width="32" height="30.509" viewBox="0 0 32 30.5093"><path d="M5.638 21.831c-1.255.22-2.513.805-3.78 1.776-.01-.095-.028-.18-.028-.266 0-3.713-.002-7.426.003-11.14 0-.13.032-.283.105-.385.877-1.22 1.977-2.154 3.46-2.537 1.788-.462 3.406-.044 4.824 1.096.51.41.93.932 1.376 1.42.09.096.137.267.137.403v2.352c.29-.037.583-.062.883-.062.31 0 .61.026.907.065v-2.317c0-.13.032-.285.104-.39.833-1.18 1.895-2.07 3.294-2.512.197-.062.4-.11.587-.163l-.334-1.777c-.577.198-1.133.352-1.656.577-1.134.49-2.06 1.27-2.866 2.208-.426-.394-.808-.797-1.24-1.14C9.424 7.466 7.192 6.882 4.73 7.63 2.573 8.288.966 9.646 0 11.715v14.41c.484.123.972.237 1.452.37.192.054.29.01.418-.152.356-.45.71-.913 1.133-1.3.89-.812 1.875-1.305 2.936-1.462-.174-.555-.273-1.143-.302-1.748zM24.808 15.716c-.446-.06-.88-.194-1.372-.31v8.255c-1.283-.983-2.56-1.59-3.836-1.82-.032.614-.134 1.207-.313 1.77.436.076.877.194 1.33.383 1.163.484 2.06 1.317 2.782 2.338.13.186.244.247.467.17.322-.11.654-.2.987-.26.298-.052.383-.19.382-.492-.01-3.17-.012-6.34.002-9.508 0-.342-.085-.476-.43-.524zM25.55 0c3.552-.007 6.437 2.856 6.45 6.403.013 3.52-2.896 6.437-6.425 6.445-3.544.008-6.41-2.857-6.43-6.422C19.12 2.85 22.064-.034 25.55 0zM24.5 1.724c-.01.07-.018.103-.016.133.176 1.95.37 3.898.525 5.85.06.793-.052.69.805.677.087 0 .236-.146.247-.24.068-.526.1-1.06.15-1.588.097-1.092.2-2.182.297-3.274.044-.512.08-1.027.123-1.557H24.5zm1.023 9.746c.414-.364.874-.766 1.37-1.2L25.59 9.09l-1.344 1.21 1.277 1.17zM16.083 27.645c-.866.508-2.102.81-3.175.84h-.58c-1.07-.03-2.308-.332-3.174-.84-1.635.837-6.53 3.422-3.3 2.756 3.082-.633 5.826-.752 6.475-.78h.578c.65.028 3.394.147 6.476.78 3.23.667-1.665-1.918-3.3-2.755z" /><ellipse cx="12.573" cy="22.371" rx="2.896" ry="2.87" /><path d="M8.993 22.37c0-1.808 1.372-3.303 3.14-3.52v-3.423c-3.168.24-5.662 2.86-5.662 6.062 0 2.233 1.216 4.185 3.027 5.243.783.457 1.68.742 2.635.814V25.89c-1.767-.216-3.14-1.71-3.14-3.52zM13.073 18.858c1.737.242 3.08 1.725 3.08 3.513s-1.342 3.27-3.08 3.512v1.665c.964-.07 1.866-.36 2.654-.822 1.805-1.06 3.016-3.007 3.016-5.236 0-3.205-2.5-5.826-5.67-6.064v3.432z" /></svg>