<svg xmlns="http://www.w3.org/2000/svg" width="25" height="32" viewBox="-0.5 -0.5 25 32"><path d="M18.175 8.2c-1.313 0-2.376-1.074-2.376-2.4V-.5H1.48C.387-.5-.5.397-.5 1.5v28c0 1.103.887 2 1.98 2h21.04c1.093 0 1.98-.896 1.98-2V8.2h-6.325zM7.525 26.267c-.48.406-1.163.61-2.05.61h-.648v2.54H3.313v-7.14h2.28c.867 0 1.525.187 1.976.56.45.372.675.928.675 1.667 0 .768-.24 1.356-.72 1.763zm6.988 2.212c-.67.624-1.636.937-2.9.937h-2.02v-7.14h2.24c1.166 0 2.07.31 2.716.924s.966 1.474.966 2.577c0 1.176-.335 2.075-1.003 2.7zm-1.455-11.41c0-.02-4.535-5.003-4.535-5.003-.45.154-.93.24-1.43.24-2.468 0-4.47-2-4.47-4.47 0-.058.008-.114.01-.172L6.32 9.407l1.684-3.56L4.51 4.19c.73-.517 1.62-.825 2.582-.825 2.47 0 4.47 2 4.47 4.47 0 .543-.103 1.063-.282 1.546l5.043 4.42c1.804 0 3.265 1.46 3.265 3.264s-1.46 3.265-3.265 3.265c-1.803 0-3.265-1.46-3.265-3.265zm8.03 6.45h-2.604v1.84h2.422v1.235h-2.422v2.822h-1.49v-7.14h4.093v1.242z" /><circle cx="16.323" cy="17.066" r="1.647" /><path d="M18.746 7.234H24.5L16.766-.5v5.734c0 1.106.886 2 1.98 2zM11.912 23.517h-.806v4.648h.65c1.458 0 2.187-.782 2.187-2.35 0-1.532-.676-2.298-2.03-2.298zM5.516 23.517h-.69v2.12h.5c.465 0 .813-.093 1.044-.278.23-.184.347-.452.347-.803 0-.356-.097-.618-.29-.786-.195-.168-.498-.253-.91-.253z" /></svg>