<svg xmlns="http://www.w3.org/2000/svg" width="25" height="32" viewBox="-0.5 -0.5 25 32"><path d="M18.175 8.2c-1.313 0-2.376-1.073-2.376-2.4V-.5H1.48C.387-.5-.5.397-.5 1.5v28c0 1.103.887 2 1.98 2h21.04c1.093 0 1.98-.896 1.98-2V8.2h-6.325zm-5.7-1.088c2.736.204 4.893 2.468 4.893 5.234 0 1.926-1.045 3.605-2.603 4.52-.68.4-1.46.65-2.29.71V16.14c1.5-.21 2.657-1.49 2.657-3.034 0-1.543-1.157-2.823-2.658-3.032V7.112zm2.067 5.994c0 1.37-1.12 2.48-2.5 2.48s-2.5-1.11-2.5-2.48 1.12-2.476 2.5-2.476 2.5 1.108 2.5 2.476zm-2.88-5.993v2.955c-1.525.186-2.71 1.478-2.71 3.04 0 1.56 1.185 2.85 2.71 3.038v1.43c-.825-.06-1.6-.308-2.275-.704-1.564-.913-2.613-2.597-2.613-4.526 0-2.763 2.154-5.026 4.888-5.233zM9.092 17.66c.747.44 1.813.7 2.74.726h.5c.926-.027 1.993-.287 2.74-.727 1.412.723 5.637 2.954 2.848 2.38-2.66-.55-5.027-.65-5.588-.675h-.5c-.56.025-2.93.126-5.59.675-2.788.574 1.438-1.657 2.85-2.38zm-1.568 8.606c-.48.406-1.162.61-2.047.61h-.65v2.54H3.313v-7.14h2.28c.867 0 1.525.187 1.976.56.45.372.675.928.675 1.667 0 .768-.24 1.356-.72 1.763zm6.99 2.212c-.67.624-1.637.937-2.9.937h-2.02v-7.14h2.24c1.165 0 2.07.31 2.715.924s.966 1.474.966 2.577c0 1.176-.335 2.075-1.003 2.7zm6.573-4.96h-2.603v1.84h2.422v1.235h-2.422v2.822h-1.49v-7.14h4.093v1.242z" /><path d="M18.746 7.234H24.5L16.766-.5v5.734c0 1.106.886 2 1.98 2zM11.912 23.517h-.806v4.648h.65c1.458 0 2.187-.782 2.187-2.35 0-1.532-.676-2.298-2.03-2.298zM5.516 23.517h-.69v2.12h.5c.465 0 .813-.093 1.044-.278.23-.184.347-.452.347-.803 0-.356-.097-.618-.29-.786-.195-.168-.498-.253-.91-.253z" /></svg>