<svg xmlns="http://www.w3.org/2000/svg" width="25" height="32" viewBox="-0.5 -0.5 25 32"><path d="M18.175 8.2c-1.313 0-2.376-1.074-2.376-2.4V-.5H1.48C.387-.5-.5.397-.5 1.5v28c0 1.103.887 2 1.98 2h21.04c1.093 0 1.98-.896 1.98-2V8.2h-6.325zM7.525 26.267c-.48.406-1.163.61-2.05.61h-.648v2.54H3.313v-7.14h2.28c.867 0 1.525.187 1.976.56.45.372.675.928.675 1.667 0 .768-.24 1.356-.72 1.763zm6.988 2.212c-.67.624-1.636.937-2.9.937h-2.02v-7.14h2.24c1.166 0 2.07.31 2.716.924s.966 1.474.966 2.577c0 1.176-.335 2.075-1.003 2.7zM12 21.16c-.98-.98-2.265-1.47-3.55-1.47-1.284 0-2.57.49-3.55 1.47v-6.834c-1.446-.24-2.552-1.486-2.552-3.002 0-1.684 1.366-3.05 3.05-3.05.854 0 1.624.35 2.177.915.29-.05.583-.085.876-.085 1.286 0 2.57.49 3.55 1.47.98-.98 2.265-1.47 3.55-1.47 1.284 0 2.57.49 3.55 1.47V21.16c-.98-.98-2.266-1.47-3.55-1.47-1.285 0-2.57.49-3.55 1.47zm9.087 2.357h-2.603v1.84h2.422v1.236h-2.422v2.822h-1.49v-7.14h4.093v1.242z" /><path d="M13 11.017v8.236c.788-.368 1.653-.563 2.55-.563.895 0 1.76.195 2.55.563v-8.236c-.718-.59-1.61-.91-2.55-.91-.942-.002-1.833.32-2.55.91zM8.205 10.126c.158.368.246.772.246 1.198 0 1.514-1.103 2.76-2.55 3v4.93c.79-.37 1.655-.564 2.55-.564.897 0 1.762.195 2.55.563v-8.236c-.717-.59-1.608-.912-2.55-.912-.082 0-.162.016-.245.02zM18.746 7.234H24.5L16.766-.5v5.734c0 1.106.886 2 1.98 2zM11.912 23.517h-.806v4.648h.65c1.458 0 2.187-.782 2.187-2.35 0-1.532-.676-2.298-2.03-2.298zM5.516 23.517h-.69v2.12h.5c.465 0 .813-.093 1.044-.278.23-.184.347-.452.347-.803 0-.356-.097-.618-.29-.786-.195-.168-.498-.253-.91-.253zM4.887 13.24c0-.297.217-.51.51-.51.314 0 .514.213.514.51 0 .29-.2.514-.512.514-.302 0-.51-.223-.51-.513zm.136-.996l-.162-3.35h1.112l-.16 3.35h-.79z" /></svg>