<svg xmlns="http://www.w3.org/2000/svg" width="25" height="32" viewBox="-0.5 -0.5 25 32"><path d="M18.175 8.2c-1.313 0-2.376-1.074-2.376-2.398V-.5H1.48C.387-.5-.5.397-.5 1.5v28c0 1.103.887 2 1.98 2h21.04c1.093 0 1.98-.896 1.98-2V8.2h-6.325zM15.08 9.304c1.352 0 2.447 1.094 2.447 2.446s-1.095 2.446-2.446 2.446c-1.35 0-2.446-1.095-2.446-2.447s1.095-2.447 2.447-2.447zm-6.16 0c1.35 0 2.446 1.094 2.446 2.446s-1.095 2.446-2.447 2.446S6.472 13.1 6.472 11.75 7.567 9.302 8.92 9.302zM7.523 26.266c-.48.406-1.162.61-2.047.61h-.65v2.54H3.313v-7.14h2.28c.867 0 1.525.187 1.976.56.45.372.675.928.675 1.667 0 .768-.24 1.356-.72 1.763zm-1.05-8.355c0-1.35 1.093-2.446 2.445-2.446s2.446 1.096 2.446 2.447-1.095 2.447-2.447 2.447-2.447-1.094-2.447-2.446zm8.04 10.567c-.67.625-1.637.938-2.9.938h-2.02v-7.14h2.24c1.165 0 2.07.31 2.715.924s.966 1.474.966 2.577c0 1.176-.335 2.075-1.003 2.7zm.567-8.12c-1.35 0-2.446-1.094-2.446-2.446s1.095-2.446 2.447-2.446 2.447 1.095 2.447 2.447-1.095 2.447-2.446 2.447zm6.007 3.16h-2.603v1.84h2.422v1.236h-2.422v2.822h-1.49v-7.14h4.093v1.242z" /><path d="M15.08 16.1c-.998 0-1.81.81-1.81 1.81s.812 1.814 1.81 1.814 1.814-.814 1.814-1.813c0-1-.814-1.81-1.813-1.81zm0 2.836c-.565 0-1.025-.46-1.025-1.025s.46-1.024 1.026-1.024 1.027.46 1.027 1.025-.46 1.026-1.026 1.026zM18.746 7.234H24.5L16.766-.5v5.734c0 1.106.886 2 1.98 2zM11.912 23.517h-.806v4.648h.65c1.458 0 2.187-.782 2.187-2.35 0-1.532-.676-2.298-2.03-2.298zM5.516 23.517h-.69v2.12h.5c.465 0 .813-.093 1.044-.278.23-.184.347-.452.347-.803 0-.356-.097-.618-.29-.786-.195-.168-.498-.253-.91-.253z" /></svg>