<svg xmlns="http://www.w3.org/2000/svg" width="32" height="32" viewBox="-0.646 -0.646 32 32"><path d="M15.355-.646c-8.838 0-16 7.163-16 16s7.162 16 16 16c8.835 0 16-7.163 16-16s-7.165-16-16-16zm0 29.98c-7.71 0-13.982-6.27-13.982-13.98 0-7.71 6.27-13.982 13.982-13.982 7.708 0 13.98 6.273 13.98 13.982 0 7.71-6.272 13.98-13.98 13.98z" /><path d="M8.528 19.486c-.63-1.09-.97-2.275-1.047-3.52l-4.568-.128c.084 2.108.678 4.084 1.673 5.8 1.106 1.915 2.698 3.51 4.613 4.618l2.287-3.812c-1.226-.71-2.25-1.735-2.957-2.958zM7.482 14.957c.078-1.238.426-2.444 1.045-3.515.623-1.082 1.502-1.99 2.53-2.677l-2.28-4.068c-1.722 1.09-3.17 2.568-4.192 4.334-.995 1.718-1.59 3.694-1.673 5.8l4.57.127zM23.524 15.965c-.076 1.247-.42 2.436-1.05 3.525-.704 1.218-1.725 2.243-2.95 2.952l2.28 3.814c1.915-1.107 3.51-2.703 4.617-4.618.994-1.716 1.588-3.692 1.673-5.8l-4.57.127zM15.502 2.727c-2.115 0-4.11.526-5.86 1.45l2.29 4.08c1.11-.55 2.303-.847 3.568-.847.91 0 1.78.16 2.608.444l2.34-4.116c-1.517-.65-3.19-1.01-4.947-1.01zM26.42 9.03c-.852-1.472-2-2.752-3.353-3.77l-2.334 4.104c.69.594 1.29 1.29 1.75 2.084.613 1.06.96 2.27 1.04 3.51l4.57-.13c-.085-2.104-.68-4.08-1.672-5.797zM22.225 4.697c-.142-.09-.27-.197-.42-.282-.143-.084-.296-.16-.443-.24l-2.317 4.07-3.02 5.314c-.168-.045-.34-.078-.524-.078l-.012.002c-.228 0-.445.048-.65.12-.786.274-1.355 1.017-1.355 1.897 0 1.114.905 2.02 2.018 2.02 1.114 0 2.02-.906 2.02-2.02 0-.14-.016-.278-.043-.41-.046-.217-.133-.416-.24-.6-.093-.16-.202-.308-.334-.435L19.92 8.75l2.305-4.053zM16.51 15.5c0 .374-.212.688-.515.862-.148.086-.31.148-.494.148-.552 0-1.003-.448-1.007-1.002V15.5c0-.553.448-1.003 1-1.007h.008c.374 0 .688.212.863.514.085.148.148.31.148.494z" /></svg>