<svg xmlns="http://www.w3.org/2000/svg" width="32" height="32" viewBox="-0.5 -0.5 32 32"><path d="M31.5 6.58c0 3.912-3.17 7.084-7.082 7.084s-7.082-3.172-7.082-7.084c0-3.908 3.17-7.08 7.082-7.08 3.91 0 7.082 3.172 7.082 7.08zM27.39 24.417c0 1.642-1.33 2.972-2.972 2.972-1.64 0-2.97-1.33-2.97-2.973 0-1.64 1.33-2.97 2.97-2.97 1.64 0 2.97 1.33 2.97 2.97zM13.664 6.58c0 3.912-3.172 7.084-7.082 7.084C2.67 13.664-.5 10.492-.5 6.58-.5 2.672 2.67-.5 6.582-.5c3.91 0 7.082 3.172 7.082 7.08z" /><path d="M24.418 19.172c2.893 0 5.246 2.354 5.246 5.245 0 2.894-2.353 5.247-5.246 5.247-2.892 0-5.246-2.353-5.246-5.247 0-2.89 2.354-5.245 5.246-5.245m0-1.836c-3.912 0-7.082 3.172-7.082 7.08 0 3.912 3.17 7.084 7.082 7.084 3.91 0 7.082-3.172 7.082-7.083 0-3.91-3.17-7.08-7.082-7.08zM13.664 24.417c0 3.91-3.172 7.083-7.082 7.083C2.67 31.5-.5 28.328-.5 24.417c0-3.91 3.17-7.08 7.082-7.08 3.91 0 7.082 3.17 7.082 7.08z" /></svg>