<svg version="1.1" xmlns="http://www.w3.org/2000/svg" xmlns:xlink="http://www.w3.org/1999/xlink" x="0px" y="0px" width="90.951px" height="90.951px" viewBox="0 0 90.951 90.951" enable-background="new 0 0 90.951 90.951" xml:space="preserve">
<path fill-rule="evenodd" clip-rule="evenodd" d="M44.717,9.095c1.011,0,2.021,0,3.032,0c0.811,0.313,1.599,0.711,2.435,0.927     c10.007,2.582,14.968,8.189,15.884,18.521c0.857,9.665-2.495,18.032-8.464,25.509c-3.525,4.416-2.144,8.295,2.894,10.698     c6.322,3.018,12.481,6.448,18.423,10.162c2.942,1.839,4.727,4.977,5.022,9c-12.487,0-24.579-0.028-36.671,0.009     c-12.979,0.038-25.957,0.137-38.935,0.209c0-0.758,0-1.516,0-2.273c2.983-6.07,8.107-9.849,13.906-12.848     c2.91-1.504,5.877-2.92,8.901-4.177c6.389-2.657,7.344-6.127,3.153-11.528c-5.977-7.703-8.775-16.37-7.719-26.17     c0.903-8.381,6.138-14.53,14.239-16.72C42.139,10.056,43.418,9.539,44.717,9.095z" />
</svg>