<svg xmlns="http://www.w3.org/2000/svg" width="21.317" height="32" viewBox="0 0 21.3174 32"><path d="M17.163 28.094V1.896C17.163.852 16.313 0 15.267 0H6.053C5.007 0 4.155.852 4.155 1.897v26.197c0 1.045.852 1.896 1.898 1.896h9.214c1.046 0 1.896-.85 1.896-1.896zm-6.505-1.266c-1.97 0-3.567-1.598-3.567-3.567 0-1.97 1.6-3.567 3.568-3.567 1.97 0 3.57 1.597 3.57 3.568 0 1.97-1.6 3.568-3.57 3.568zm0-8.265c-1.97 0-3.567-1.598-3.567-3.568s1.6-3.567 3.568-3.567c1.97 0 3.57 1.597 3.57 3.567s-1.6 3.568-3.57 3.568zm0-8.266c-1.97 0-3.567-1.597-3.567-3.566 0-1.97 1.6-3.568 3.568-3.568 1.97 0 3.57 1.598 3.57 3.57 0 1.968-1.6 3.565-3.57 3.565zM17.705 3.162V9.8l3.612-6.638M17.705 26.33l3.612-6.637h-3.612M3.613 3.387H0l3.613 6.638M8.83 30.532h3.657V32H8.83zM17.705 18.064l3.612-6.636h-3.612M3.613 11.652H0l3.613 6.64M3.613 19.918H0l3.613 6.64" /><circle cx="10.659" cy="23.271" r="2.936" /><circle cx="10.659" cy="14.995" r="2.936" /></svg>