<svg version="1.1" x="0px" y="0px" width="398px" height="511px" viewBox="0 0 398 511" enable-background="new 0 0 398 511" xml:space="preserve">
<path fill-rule="evenodd" clip-rule="evenodd" d="M295.419,289.067c26.012,62.942,17.967,120.307-26.567,173.493                   c-7.101-7.319-13.416-13.891-19.803-20.392c-5.137-5.229-10.27-10.472-15.588-15.513c-2.389-2.263-2.737-3.891-0.498-6.646                   c45.563-56.053,19.967-139.43-49.296-159.421c-31.933-9.217-61.632-3.219-88.293,16.891c-1.853,1.397-3.702,2.801-5.365,4.06                   c-12.754-12.793-25.372-25.448-38.275-38.392c9.456-9.135,20.469-16.765,32.417-23.094c13.767-7.293,28.301-12.366,43.637-15.237                   c2.091-0.392,4.381-1.773,5.803-3.383c23.272-26.341,46.421-52.79,69.581-79.23c0.858-0.98,1.526-2.128,2.523-3.536                   c-1.099-0.929-1.964-1.902-3.034-2.527c-11.646-6.809-23.38-13.467-34.953-20.396c-3.097-1.854-5.206-1.627-7.866,0.787                   c-15.169,13.77-30.51,27.35-45.729,41.065c-16.214,14.611-38.272,11.591-48.416-6.705c-6.199-11.183-3.625-26.886,6.186-35.73                   c22.138-19.957,44.333-39.853,66.632-59.63c11.923-10.575,25.203-11.169,39.096-3.004c32.86,19.313,65.882,38.349,98.843,57.488                   c11.519,6.689,22.897,13.639,34.611,19.968c19.561,10.569,21.381,38.552,8.29,53.251c-18.054,20.272-35.82,40.801-53.686,61.239                   c-1.235,1.414-2.271,3.002-4.162,5.526c10.892-0.481,20.461-0.821,30.02-1.346c20.446-1.122,40.883-2.426,61.332-3.471                   c7.111-0.364,14.349-0.964,21.357-0.088c13.638,1.705,24.271,13.952,23.926,27.72c-0.341,13.631-1.709,27.241-2.773,40.849                   c-1.479,18.917-3.113,37.821-4.644,56.733c-1.732,21.403-2.917,42.867-5.305,64.196c-1.643,14.669-14.516,27.038-32.736,25.436                   c-14.419-1.268-26.786-13.879-26.305-28.868c0.47-14.622,2.05-29.21,3.214-43.808c1.482-18.585,3.062-37.162,4.547-55.747                   c0.57-7.134,0.937-14.283,1.521-21.416c0.197-2.411,0.292-4.548-2.987-4.339c-12.122,0.773-24.24,1.602-36.358,2.44                   C296.059,288.311,295.828,288.701,295.419,289.067z" />
<path fill-rule="evenodd" clip-rule="evenodd" d="M34.817,262.307c12.246,12.247,24.53,24.427,36.583,36.831                   c0.801,0.825,0.406,3.703-0.395,5.057c-9.887,16.723-15.289,34.716-14.825,54.157c1.13,47.426,34.948,87.163,80.225,96.141                   c25.466,5.05,49.283,0.703,71.459-12.598c2.954-1.771,4.677-1.849,7.196,0.715c11.54,11.737,23.302,23.257,35.771,35.636                   c-34.875,26.638-73.572,37.658-115.722,31.082C71.746,499.44,28.979,462.963,8.902,401.916                   C-8.22,349.849,7.248,294.271,34.817,262.307z" />
<path fill-rule="evenodd" clip-rule="evenodd" d="M384.268,52.462c0.03,28.144-21.812,50.178-49.831,50.272                   c-27.879,0.094-50.142-22.122-50.188-50.082c-0.046-27.818,22.251-50.296,49.994-50.399                   C361.983,2.15,384.237,24.485,384.268,52.462z" />
                        </svg>