<svg version="1.1" xmlns="http://www.w3.org/2000/svg" xmlns:xlink="http://www.w3.org/1999/xlink" x="0px" y="0px" width="390.055px" height="390.055px" viewBox="0 0 390.055 390.055" enable-background="new 0 0 390.055 390.055" xml:space="preserve">
<path fill="#444" fill-rule="evenodd" clip-rule="evenodd" d="M264.787,8.251c4.104,1.354,8.496,2.167,12.258,4.167   c11.075,5.888,16.759,15.36,16.773,27.978c0.044,36.003,0.016,72.005,0.017,108.008c0,1.117,0,2.234,0,4.249   c-1.52-1.479-2.446-2.572-3.555-3.429c-6.202-4.8-12.331-9.713-18.752-14.206c-2.007-1.404-2.816-2.594-2.811-5.002   c0.079-29.252,0.055-58.504,0.05-87.756c-0.002-6.732-1.903-8.662-8.701-8.666c-33.003-0.018-66.005,0.036-99.007-0.077   c-3.408-0.012-4.457,0.97-4.571,4.42c-0.573,17.353-0.86,34.745-2.345,52.029c-1.364,15.867-12.282,30.334-30.792,31.219   c-13.179,0.629-26.434-0.39-39.656-0.576c-7.646-0.108-6.621-0.981-6.625,6.418c-0.032,49.503-0.018,99.007-0.016,148.51   c0,8.283,1.452,9.706,9.87,9.708c6.125,0.002,12.253-0.091,18.375,0.076c1.319,0.035,2.986,0.65,3.86,1.589   c7.14,7.656,14.13,15.453,21.153,23.192c-0.352,0.035-1.228,0.196-2.104,0.197c-15.126,0.015-30.252,0.051-45.378-0.001   c-16.444-0.056-30.771-14.107-30.8-30.556c-0.096-53.254-0.055-106.508,0.042-159.762c0.003-1.508,0.88-3.352,1.946-4.472   c22.993-24.187,46.505-47.899,68.938-72.592c10.133-11.155,20.101-22.439,30.764-33.097c0.396-0.395,0.54-1.041,0.801-1.57   C191.277,8.251,228.032,8.251,264.787,8.251z" />
<path fill="#444" fill-rule="evenodd" clip-rule="evenodd" d="M302.563,382.822c-7.685-9.862-15.054-19.305-22.408-28.758   c-13.658-17.556-27.351-35.085-40.91-52.715c-1.676-2.18-3.055-2.582-5.605-1.591c-47.835,18.585-98.653-8.075-112.243-56.601   c-13.239-47.272,16.358-95.484,64.844-105.894c43.5-9.339,83.596,16.369,97.277,53.809c9.549,26.129,6.198,51.343-7.97,75.053   c-2.285,3.823-2.004,5.962,0.638,9.261c20.386,25.458,40.569,51.077,60.809,76.651c0.763,0.963,1.459,1.977,2.354,3.194   C327.104,364.418,315.036,373.468,302.563,382.822z M202.441,271.765c28.518,0.023,52.014-23.304,51.881-51.51   c-0.133-27.736-22.998-50.585-50.628-50.587c-29.21-0.002-52.344,22.51-52.289,50.884   C151.459,248.337,174.784,271.742,202.441,271.765z" />
</svg>