<svg x="0px" y="0px" width="361.551px" height="375.053px" viewBox="0 0 361.551 375.053" enable-background="new 0 0 361.551 375.053" xml:space="preserve">
    <path fill-rule="evenodd" clip-rule="evenodd" d="M0.75,105.015c22.873,0.046,45.745,0.094,68.617,0.139      c3.375,0.006,6.813-0.418,10.113,0.081c9.182,1.388,15.752-2.408,22.528-8.416c35.069-31.093,70.569-61.702,105.923-92.475      c0.923-0.803,1.896-1.548,3.259-2.656c0,124.514,0,248.529,0,373.007c-1.003-0.774-1.879-1.349-2.638-2.05      c-38.251-35.401-76.488-70.818-114.765-106.191c-0.915-0.846-2.27-1.726-3.42-1.727c-29.872-0.05-59.744,0.016-89.617,0.061      C0.75,211.529,0.75,158.272,0.75,105.015z" />
    <path class="high" fill-rule="evenodd" clip-rule="evenodd" d="M282.876,58.763c49.807,30.133,77.694,72.988,78.345,131.054      c0.613,54.801-24.395,96.753-69.336,127.977c-7.731-9.274-15.127-18.146-22.254-26.696c7.312-5.859,14.923-10.999,21.392-17.31      c26.781-26.122,38.716-58.069,34.712-95.298c-3.816-35.488-21.385-63.069-50.799-83.123c-2.262-1.541-2.791-2.82-1.913-5.456      C276.362,79.878,279.427,69.752,282.876,58.763z" />
    <path class="low" fill-rule="evenodd" clip-rule="evenodd" d="M250.835,261.963c-4.188-5.018-8.249-9.885-12.142-14.55      c5.216-4.605,10.697-8.602,15.158-13.522c26.851-29.61,21.727-74.737-10.963-97.743c-2.308-1.625-3.061-3.008-2.03-5.779      c1.86-5.002,3.303-10.16,5.146-15.96c24.806,14.419,39.81,35.223,43.992,63.195C295.417,213.852,277.063,245.97,250.835,261.963z      " />
    <path class="mute" fill-rule="evenodd" clip-rule="evenodd" d="M344.298,216.78c-4.222,4.021-8.502,7.983-12.649,12.081      c-3.811,3.767-7.476,7.677-11.318,11.641c-9.499-9.543-18.636-18.723-27.974-28.104c-9.515,9.606-18.687,18.867-27.676,27.942      c-8.426-8.449-16.25-16.295-24.286-24.353c8.962-8.918,18.162-18.073,27.587-27.453c-9.392-9.348-18.646-18.559-27.752-27.621      c8.195-8.186,15.955-15.936,23.928-23.898c8.94,9.017,18.126,18.279,27.356,27.588c9.646-9.713,18.778-18.908,27.735-27.926      c8.219,8.286,16.012,16.142,23.888,24.082c-8.783,8.74-17.96,17.871-27.282,27.148c1.002,1.229,1.546,2.023,2.214,2.694      c7.85,7.878,15.708,15.749,23.6,23.584c0.749,0.744,1.747,1.236,2.63,1.846C344.298,216.28,344.298,216.53,344.298,216.78z" />
</svg>