<svg x="0px" y="0px" width="375.053px" height="375.053px" viewBox="0 0 375.053 375.053" enable-background="new 0 0 375.053 375.053" xml:space="preserve">
<path fill-rule="evenodd" clip-rule="evenodd" d="M0.75,75.011C17,75.05,33.251,75.187,49.5,75.053   c3.542-0.03,4.78,0.891,4.688,4.577c-0.24,9.495,0.026,19.001-0.136,28.5c-0.055,3.213,0.901,4.398,4.248,4.35   c11.624-0.168,23.251-0.063,34.878-0.062c74.633,0,149.265,0,223.899-0.001c6.112,0,6.115-0.005,6.118-6.107   c0.005-9.25,0.033-18.502-0.016-27.752c-0.011-2.184,0.4-3.482,3.07-3.466c15.751,0.097,31.503,0.054,47.255,0.072   c0.486,0,0.975,0.138,1.75,0.255c0,55.341,0,110.656,0,166.455c-1.175,0.063-2.487,0.195-3.799,0.196   c-14.627,0.016-29.255-0.1-43.879,0.09c-3.456,0.046-4.474-0.949-4.448-4.384c0.141-19.376,0.074-38.755,0.061-58.131   c-0.003-5.022-0.03-5.035-4.894-5.035c-86.385-0.003-172.769-0.003-259.153-0.001c-4.991,0-5.007,0.011-5.029,4.902   c-0.021,5,0.042,10.001-0.015,15.001c-0.18,15.703-0.399,31.405-0.604,47.108c-15.587,0.153-31.174,0.301-46.762,0.465   c-1.995,0.021-3.988,0.132-5.982,0.201C0.75,186.526,0.75,130.768,0.75,75.011z" />
<path fill-rule="evenodd" clip-rule="evenodd" d="M297.791,33.755c-0.068,16.243-0.138,32.486-0.205,48.73   c-0.008,1.74-0.001,3.481-0.001,5.603c-72.863,0-145.495,0-218.824,0c0-18.183,0-36.258,0-54.333   C151.771,33.755,224.781,33.755,297.791,33.755z" />
<path fill-rule="evenodd" clip-rule="evenodd" d="M188.436,201.235c34.863,0,69.728,0.058,104.589-0.084   c3.705-0.015,4.516,1.147,4.508,4.65c-0.11,44.109-0.117,88.22,0.008,132.329c0.011,3.697-1.149,4.496-4.653,4.491   c-69.601-0.099-139.203-0.112-208.803,0.026c-3.957,0.008-4.75-1.194-4.742-4.839c0.108-43.984,0.119-87.97-0.015-131.955   c-0.012-3.89,1.199-4.718,4.895-4.703C118.959,201.293,153.697,201.235,188.436,201.235z" />
</svg>