<svg xmlns="http://www.w3.org/2000/svg" width="89.688" height="78" viewBox="0 0 89.688 78"><path d="M30.083 74.432c0 1.97-1.598 3.568-3.567 3.568H3.566C1.598 78 0 76.4 0 74.432V39.358c0-1.97 1.598-3.568 3.566-3.568h22.95c1.97 0 3.566 1.597 3.566 3.568v35.074zm2.823-32.994S46.43 27.17 45.54 3.54c0 0-.298-4.31 4.31-3.417 0 0 9.065-2.527 9.958 15.902 0 0 .595 6.243-1.487 13.972l26.31.296s4.83.074 5.053 5.5c0 0 .446 4.532-5.797 6.688 0 0 3.27.597 2.973 5.947 0 0 .15 4.46-4.607 5.352 0 0 1.932 1.186 1.337 5.35 0 0-.225 3.454-5.055 5.794 0 0 1.934 1.933 1.487 4.607 0 0-.52 4.425-4.756 5.2h-37.9s-4.014.15-4.46-2.82V41.438z" /></svg>