<svg xmlns="http://www.w3.org/2000/svg" width="200" height="200" viewBox="0 0 200 200"><path fill="#E06C55" d="M30.28 169.954c.935.897 1.956 1.742 3.06 2.534 9.12 6.55 18.887 4.326 24.555-5.41 1.602-2.75 2.648-5.718 3.646-8.727 1.552-4.67 3.95-5.582 8.24-3.11 3.028 1.743 5.616 4.087 7.958 6.684 8.305 9.21 15.39 19.278 20.666 30.518 1.436 3.06 2.752 3.452 5.686 2.003 12.436-6.154 23.65-13.973 33.367-23.89 1.42-1.45 2.627-3.18 3.62-4.962 2.302-4.126 1.44-6.498-3-7.952-4.228-1.383-8.358-2.874-11.878-5.692-6.108-4.89-7.692-11.983-4.394-19.113 2.145-4.63 5.47-8.117 9.914-10.48 8.176-4.35 16.367-2.158 21.406 5.636 2.074 3.21 3.482 6.732 4.516 10.397 1.16 4.123 3.813 4.734 7.27 3.03 1.682-.83 3.344-1.878 4.7-3.16 10.565-10.002 18.65-21.8 24.98-34.864 1.097-2.265 1.02-3.564-1.605-4.722-10.346-4.562-19.482-11.06-28.104-18.303-3.63-3.05-7.16-6.256-9.602-10.41-2.726-4.64-1.907-6.773 3.114-8.57 2.223-.794 4.496-1.51 6.623-2.523 8.07-3.837 12.182-10.547 10.893-17.542-.754-4.104-3.03-8.04-6.076-11.104" /><path fill="#663B3B" d="M101.428 200c-.752 0-1.53-.113-2.322-.39-2.764-.97-4.174-3.404-4.992-5.15-4.803-10.234-11.31-19.836-19.893-29.354-2.315-2.567-4.54-4.447-6.802-5.75-.418-.24-.744-.4-.99-.504-.11.234-.24.56-.387.997-1.04 3.136-2.21 6.46-4.048 9.62-3.504 6.016-8.412 9.85-14.2 11.087-5.726 1.22-11.675-.234-17.216-4.21-1.29-.927-2.494-1.925-3.578-2.966l6.566-6.85c.758.73 1.613 1.436 2.54 2.1 3.31 2.38 6.665 3.294 9.708 2.642 3.104-.664 5.865-2.94 7.986-6.584 1.383-2.375 2.322-5.062 3.244-7.834.46-1.392 1.87-5.632 5.893-7.17 4.035-1.538 7.93.704 9.21 1.44 3.138 1.807 6.118 4.3 9.112 7.62 9.086 10.076 16.03 20.288 21.213 31.203 12.316-6.152 22.658-13.588 31.602-22.718 1.02-1.04 1.984-2.37 2.865-3.952.193-.344.326-.622.42-.842-.19-.084-.44-.18-.754-.282-4.494-1.473-9.23-3.187-13.365-6.5-7.75-6.203-9.945-15.713-5.732-24.816 2.568-5.55 6.604-9.813 11.992-12.678 10.36-5.513 21.2-2.665 27.61 7.25 2.15 3.33 3.817 7.153 5.097 11.686.03.11.06.208.09.293.145-.058.32-.133.523-.232 1.436-.708 2.658-1.52 3.537-2.354 9.36-8.858 17.03-19.456 23.426-32.373-9.046-4.157-17.964-10.042-27.942-18.427-3.63-3.05-7.746-6.717-10.64-11.64-1.36-2.313-3.017-5.8-1.726-9.365 1.29-3.564 4.8-5.178 7.328-6.082.494-.176.988-.35 1.486-.52 1.678-.586 3.264-1.138 4.697-1.82 6.072-2.89 9.164-7.52 8.266-12.395-.548-2.97-2.288-6.11-4.776-8.614l6.72-6.7c3.862 3.888 6.483 8.714 7.38 13.596 1.7 9.222-3.482 17.915-13.52 22.69-1.9.903-3.81 1.567-5.652 2.21-.47.165-.943.33-1.412.498-.553.197-.955.37-1.244.508.13.293.328.68.623 1.182 2.128 3.622 5.397 6.522 8.562 9.18 9.75 8.19 18.318 13.782 26.97 17.597.894.396 3.62 1.597 4.688 4.51 1.068 2.912-.24 5.612-.732 6.628-7.012 14.474-15.514 26.328-25.99 36.242-1.58 1.496-3.553 2.832-5.86 3.97-3.218 1.586-6.157 1.81-8.73.662-1.734-.773-4.043-2.558-5.2-6.663-1.015-3.605-2.302-6.585-3.93-9.106-3.702-5.724-9.24-7.19-15.202-4.02-3.572 1.897-6.133 4.605-7.836 8.283-2.39 5.16-1.305 9.923 3.05 13.41 2.903 2.322 6.57 3.64 10.392 4.89 1.338.437 5.416 1.77 6.955 5.715 1.55 3.973-.588 7.805-1.29 9.063-1.292 2.32-2.765 4.33-4.376 5.973-9.68 9.88-21.34 18.232-34.647 24.82-1.232.604-2.908 1.297-4.765 1.297z" /><path fill="#F78B6D" d="M169.836 30.216c-3.25-3.27-7.377-5.55-11.5-5.954-8.594-.842-14.65 3.787-18.654 14.26-3.53 9.232-5.783 9.83-13.4 3.477-1.33-1.11-2.578-2.34-3.742-3.626-8.44-9.307-15.55-19.555-20.898-30.926-1.357-2.887-2.473-3.33-5.213-1.944-11.067 5.595-21.295 12.366-30.4 20.81-2.564 2.373-4.976 4.877-6.778 7.886-2.64 4.4-1.883 6.495 2.84 8.28 2.652 1.002 5.4 1.85 7.89 3.174 4.577 2.43 8.278 5.73 9.638 11.09 1.97 7.763-3.424 17.544-11.98 21.498-7.88 3.638-15.432 1.545-20.307-5.635-2.244-3.306-3.605-6.994-4.846-10.766-1.436-4.364-3.447-5.15-7.52-2.973-1.65.883-3.227 2.02-4.604 3.295-10.703 9.912-18.51 21.92-25.004 34.87-1.01 2.006-.974 3.146 1.515 4.288 10.537 4.84 20.078 11.302 28.86 18.87 3.353 2.888 6.616 5.893 8.958 9.724 2.936 4.797 2.184 7.124-3.092 8.87-3.315 1.1-6.587 2.27-9.485 4.224-4.666 3.143-8.016 7.152-7.92 13.214.05 5.68 2.348 10.145 6.086 13.732" /><path fill="#896464" d="M27 173.382c-4.947-4.75-7.486-10.507-7.545-17.117-.11-6.95 3.166-12.585 10.016-17.197 3.407-2.295 7.124-3.624 10.642-4.79.578-.19.994-.36 1.29-.498-.147-.33-.382-.783-.75-1.386-2.034-3.325-5.07-6.074-8.01-8.604-9.044-7.794-18.12-13.732-27.743-18.153-.876-.402-3.54-1.626-4.538-4.472-.98-2.798.287-5.317.762-6.266 7.742-15.44 16.012-26.95 26.02-36.222 1.69-1.563 3.622-2.945 5.593-3.998 2.152-1.15 5.402-2.523 8.758-1.178 3.346 1.343 4.738 4.555 5.496 6.854 1.02 3.098 2.27 6.647 4.263 9.58 3.547 5.227 8.664 6.645 14.402 3.995 6.404-2.96 10.783-10.445 9.37-16.017-.853-3.363-3.093-5.85-7.265-8.065-1.57-.836-3.37-1.484-5.277-2.17-.69-.25-1.38-.5-2.066-.758-2.414-.91-5.766-2.53-6.984-6.04-1.22-3.52.418-6.895 1.756-9.125 2.212-3.693 5.093-6.585 7.62-8.927 9.01-8.352 19.307-15.406 31.48-21.56 1.63-.825 4.105-1.816 6.753-.902 2.652.914 4.006 3.184 4.887 5.06 4.91 10.44 11.678 20.45 20.12 29.758 1.097 1.21 2.196 2.276 3.267 3.167 2.092 1.746 3.28 2.52 3.924 2.86.394-.612 1.048-1.858 2.015-4.385 4.79-12.53 12.7-18.348 23.543-17.288 5.082.5 10.195 3.102 14.398 7.33l-6.72 6.7c-2.614-2.632-5.75-4.3-8.6-4.58-4.52-.45-9.683.546-13.767 11.233-1.782 4.656-3.897 9.302-8.396 10.478-4.5 1.175-8.63-1.85-12.467-5.052-1.406-1.17-2.826-2.544-4.22-4.08-8.88-9.793-16.058-20.347-21.337-31.38-10.99 5.644-20.303 12.066-28.443 19.61-2.035 1.89-4.33 4.177-5.932 6.85-.24.4-.414.724-.537.977.246.118.568.258.984.416.64.24 1.285.472 1.93.705 2.135.77 4.344 1.564 6.512 2.717 6.555 3.48 10.484 8.1 12.01 14.116 2.535 9.983-4.01 22.086-14.59 26.976-9.99 4.613-20.033 1.823-26.215-7.276-2.685-3.952-4.21-8.24-5.43-11.95-.07-.218-.136-.402-.198-.564-.168.078-.36.176-.582.294-1.268.676-2.518 1.572-3.62 2.59C24.75 73.83 17.335 84.046 10.34 97.7c9.89 4.716 19.225 10.907 28.49 18.892 3.354 2.89 7.16 6.348 9.908 10.843 1.475 2.408 3.277 6.04 1.922 9.746-1.344 3.678-4.963 5.25-7.568 6.112-3.01.998-5.914 2.028-8.328 3.654-4.14 2.79-5.883 5.54-5.826 9.2.037 4.044 1.55 7.43 4.627 10.382L27 173.382z" /><path fill="#FFF" d="M108.393 91.79l1.84-28.616H91.63l2.737 42.588" /><path fill="#E1E7E8" d="M94.367 105.762l.414 6.45h12.3l1.313-20.42" /><ellipse fill="#E1E7E8" cx="100.932" cy="127.702" rx="9.301" ry="9.313" /></svg>