<svg xmlns="http://www.w3.org/2000/svg" width="200" height="200" viewBox="0 0 200 200"><path fill="#2F987C" d="M30.282 169.955c.935.896 1.956 1.74 3.06 2.533 9.12 6.55 18.887 4.326 24.555-5.41 1.6-2.75 2.647-5.718 3.646-8.727 1.55-4.67 3.948-5.582 8.24-3.11 3.027 1.743 5.615 4.087 7.957 6.684 8.305 9.21 15.39 19.278 20.665 30.518 1.436 3.06 2.753 3.452 5.686 2.003 12.437-6.154 23.652-13.973 33.37-23.89 1.42-1.45 2.627-3.18 3.62-4.962 2.3-4.125 1.44-6.498-3.002-7.952-4.228-1.383-8.358-2.874-11.877-5.692-6.106-4.89-7.69-11.983-4.39-19.113 2.142-4.63 5.466-8.117 9.912-10.48 8.176-4.35 16.367-2.158 21.405 5.636 2.074 3.21 3.482 6.732 4.516 10.397 1.16 4.123 3.814 4.734 7.27 3.03 1.683-.83 3.344-1.878 4.7-3.16 10.567-10.002 18.65-21.8 24.98-34.864 1.098-2.265 1.02-3.564-1.603-4.722-10.346-4.562-19.483-11.06-28.104-18.303-3.632-3.05-7.16-6.256-9.603-10.41-2.727-4.64-1.907-6.773 3.113-8.57 2.224-.794 4.496-1.51 6.624-2.523 8.07-3.837 12.18-10.547 10.893-17.542-.755-4.104-3.03-8.04-6.077-11.104" /><path fill="#3B5A67" d="M101.43 200c-.752 0-1.53-.113-2.323-.39-2.763-.97-4.173-3.403-4.992-5.15-4.803-10.234-11.31-19.836-19.893-29.354-2.315-2.567-4.54-4.447-6.802-5.75-.418-.24-.744-.4-.99-.504-.11.234-.24.56-.387.997-1.042 3.136-2.212 6.46-4.05 9.62-3.503 6.016-8.412 9.85-14.2 11.088-5.727 1.22-11.676-.234-17.215-4.21-1.29-.928-2.494-1.926-3.578-2.967l6.565-6.85c.76.73 1.614 1.436 2.54 2.1 3.31 2.38 6.666 3.294 9.708 2.642 3.104-.664 5.866-2.94 7.987-6.584 1.382-2.375 2.322-5.062 3.244-7.834.46-1.392 1.868-5.632 5.893-7.17 4.035-1.538 7.93.704 9.21 1.44 3.138 1.807 6.118 4.3 9.11 7.62 9.088 10.076 16.03 20.288 21.215 31.203 12.315-6.152 22.657-13.588 31.602-22.718 1.02-1.04 1.983-2.37 2.865-3.952.19-.343.325-.622.42-.842-.193-.084-.44-.18-.756-.282-4.493-1.473-9.228-3.187-13.364-6.5-7.75-6.203-9.946-15.712-5.732-24.816 2.567-5.55 6.604-9.813 11.992-12.678 10.36-5.513 21.2-2.665 27.608 7.25 2.152 3.33 3.82 7.153 5.098 11.686.03.11.06.208.09.293.146-.058.32-.133.523-.232 1.435-.708 2.658-1.52 3.536-2.354 9.36-8.858 17.032-19.456 23.428-32.373-9.047-4.157-17.966-10.042-27.945-18.427-3.632-3.05-7.747-6.717-10.642-11.64-1.36-2.313-3.016-5.8-1.724-9.365 1.29-3.564 4.8-5.178 7.328-6.082.493-.176.99-.35 1.485-.52 1.68-.586 3.265-1.138 4.698-1.82 6.072-2.89 9.163-7.52 8.266-12.395-.546-2.97-2.286-6.11-4.774-8.614l6.72-6.7c3.862 3.888 6.483 8.714 7.38 13.596 1.7 9.222-3.482 17.915-13.52 22.69-1.9.903-3.81 1.567-5.652 2.21-.472.165-.943.33-1.412.498-.553.196-.955.37-1.245.508.132.293.33.68.623 1.182 2.13 3.622 5.398 6.522 8.563 9.18 9.75 8.19 18.318 13.782 26.968 17.597.897.396 3.622 1.597 4.69 4.51 1.07 2.912-.238 5.612-.73 6.628-7.013 14.474-15.514 26.328-25.99 36.242-1.58 1.497-3.554 2.832-5.862 3.97-3.218 1.586-6.157 1.81-8.73.662-1.732-.773-4.04-2.558-5.197-6.663-1.016-3.605-2.302-6.585-3.932-9.106-3.7-5.724-9.24-7.19-15.2-4.02-3.57 1.897-6.134 4.605-7.837 8.283-2.387 5.16-1.304 9.923 3.052 13.41 2.902 2.322 6.57 3.64 10.39 4.89 1.34.437 5.417 1.77 6.957 5.715 1.55 3.973-.59 7.805-1.29 9.063-1.294 2.32-2.767 4.33-4.377 5.973-9.68 9.882-21.34 18.232-34.65 24.82-1.23.604-2.907 1.297-4.764 1.297z" /><path fill="#41C189" d="M169.837 30.216c-3.25-3.27-7.376-5.55-11.5-5.955-8.594-.84-14.65 3.79-18.654 14.262-3.53 9.232-5.782 9.83-13.4 3.477-1.33-1.11-2.576-2.34-3.74-3.626-8.442-9.307-15.553-19.555-20.9-30.926-1.357-2.887-2.473-3.33-5.212-1.944-11.065 5.594-21.293 12.366-30.4 20.81-2.562 2.373-4.974 4.876-6.777 7.886-2.64 4.4-1.883 6.495 2.84 8.28 2.653 1.002 5.4 1.85 7.89 3.174 4.577 2.43 8.28 5.73 9.64 11.09 1.97 7.763-3.426 17.544-11.98 21.498-7.88 3.638-15.433 1.545-20.31-5.635C45.09 69.3 43.73 65.613 42.49 61.84c-1.438-4.364-3.448-5.15-7.52-2.973-1.652.883-3.23 2.02-4.605 3.295-10.703 9.912-18.51 21.92-25.005 34.87-1.008 2.006-.972 3.146 1.516 4.288 10.538 4.84 20.078 11.302 28.86 18.87 3.354 2.888 6.616 5.893 8.96 9.724 2.934 4.797 2.18 7.124-3.095 8.87-3.314 1.1-6.585 2.27-9.483 4.224-4.667 3.143-8.016 7.152-7.92 13.214.05 5.68 2.346 10.145 6.085 13.733" /><path fill="#64808A" d="M27.002 173.382c-4.947-4.75-7.487-10.507-7.546-17.117-.11-6.95 3.167-12.585 10.016-17.197 3.406-2.295 7.124-3.624 10.642-4.79.576-.19.994-.36 1.29-.498-.147-.33-.383-.783-.75-1.386-2.035-3.325-5.07-6.074-8.01-8.604-9.045-7.794-18.12-13.732-27.744-18.153-.875-.402-3.54-1.626-4.536-4.472-.98-2.798.285-5.317.762-6.266 7.74-15.44 16.01-26.95 26.02-36.222 1.688-1.563 3.62-2.945 5.592-3.998 2.152-1.15 5.403-2.523 8.758-1.178 3.347 1.343 4.74 4.555 5.496 6.854 1.018 3.098 2.27 6.647 4.263 9.58 3.548 5.227 8.664 6.645 14.4 3.995 6.406-2.96 10.785-10.445 9.372-16.017-.854-3.363-3.094-5.85-7.265-8.065-1.57-.836-3.372-1.484-5.277-2.17-.69-.25-1.382-.5-2.066-.758-2.415-.91-5.767-2.53-6.985-6.04-1.222-3.52.417-6.895 1.755-9.125 2.214-3.693 5.095-6.585 7.62-8.927C71.824 14.474 82.12 7.42 94.294 1.265c1.63-.824 4.103-1.815 6.753-.9 2.65.913 4.005 3.183 4.887 5.058 4.91 10.44 11.678 20.45 20.118 29.76 1.1 1.208 2.2 2.274 3.27 3.166 2.092 1.744 3.278 2.517 3.923 2.857.394-.61 1.048-1.857 2.015-4.384 4.79-12.53 12.7-18.35 23.543-17.288 5.083.498 10.196 3.102 14.4 7.33l-6.722 6.7c-2.614-2.632-5.75-4.3-8.6-4.58-4.518-.45-9.68.546-13.766 11.233-1.782 4.656-3.897 9.302-8.396 10.478-4.5 1.175-8.63-1.85-12.467-5.052-1.406-1.17-2.826-2.544-4.22-4.08-8.88-9.793-16.058-20.347-21.337-31.38C86.703 15.83 77.39 22.252 69.25 29.797c-2.035 1.888-4.33 4.176-5.933 6.848-.24.4-.413.724-.536.978.246.118.568.258.985.416.64.24 1.284.472 1.93.705 2.135.77 4.343 1.564 6.51 2.717 6.557 3.48 10.485 8.1 12.012 14.116 2.534 9.983-4.01 22.086-14.59 26.976-9.99 4.613-20.034 1.823-26.215-7.276-2.685-3.952-4.21-8.24-5.428-11.95-.07-.218-.14-.403-.2-.564-.167.078-.36.176-.582.294-1.267.676-2.518 1.572-3.618 2.59C24.75 73.83 17.336 84.046 10.34 97.7c9.888 4.716 19.224 10.907 28.49 18.892 3.353 2.89 7.16 6.348 9.908 10.843 1.474 2.41 3.276 6.04 1.922 9.746-1.344 3.678-4.964 5.25-7.57 6.112-3.01.998-5.912 2.028-8.326 3.654-4.143 2.79-5.884 5.54-5.826 9.2.037 4.044 1.55 7.43 4.626 10.382l-6.562 6.854z" /><path fill="#FFF" d="M93.423 106.706L73.375 86.632l-9.93 9.94 20.016 20.11" /><path fill="#E1E7E8" d="M83.46 116.68l9.962 9.955 9.993-9.922-.062-.064 33.7-33.746-9.93-9.944-33.7 33.746" /></svg>