<svg xmlns="http://www.w3.org/2000/svg" width="200" height="200" viewBox="0 0 200 200"><path fill="#E2C15A" d="M30.283 169.954c.934.897 1.955 1.742 3.06 2.534 9.118 6.55 18.886 4.326 24.554-5.41 1.6-2.75 2.646-5.718 3.646-8.727 1.55-4.67 3.947-5.582 8.24-3.11 3.027 1.743 5.615 4.087 7.957 6.684 8.305 9.21 15.39 19.278 20.664 30.518 1.436 3.06 2.754 3.452 5.686 2.003 12.436-6.154 23.652-13.973 33.367-23.89 1.422-1.45 2.63-3.18 3.62-4.962 2.304-4.126 1.442-6.498-3-7.952-4.228-1.383-8.358-2.874-11.876-5.692-6.106-4.89-7.692-11.983-4.392-19.113 2.143-4.63 5.467-8.117 9.914-10.48 8.176-4.35 16.367-2.158 21.404 5.636 2.074 3.21 3.482 6.732 4.516 10.397 1.162 4.123 3.814 4.734 7.27 3.03 1.683-.83 3.343-1.878 4.698-3.16 10.568-10.002 18.652-21.8 24.982-34.864 1.098-2.265 1.02-3.564-1.604-4.722-10.346-4.562-19.484-11.06-28.104-18.303-3.633-3.05-7.16-6.256-9.604-10.41-2.727-4.64-1.906-6.773 3.113-8.57 2.225-.794 4.496-1.51 6.625-2.523 8.068-3.837 12.18-10.547 10.893-17.542-.755-4.104-3.03-8.04-6.077-11.104" /><path fill="#665E3C" d="M101.428 200c-.75 0-1.53-.113-2.322-.39-2.762-.97-4.172-3.404-4.992-5.15-4.803-10.234-11.31-19.836-19.893-29.354-2.313-2.567-4.54-4.447-6.8-5.75-.418-.24-.744-.4-.99-.504-.11.234-.242.56-.387.997-1.043 3.136-2.21 6.46-4.05 9.62-3.503 6.016-8.413 9.85-14.2 11.087-5.727 1.22-11.676-.234-17.215-4.21-1.29-.927-2.494-1.925-3.578-2.966l6.564-6.85c.76.73 1.615 1.436 2.54 2.1 3.312 2.38 6.665 3.294 9.708 2.642 3.105-.664 5.867-2.94 7.988-6.584 1.38-2.375 2.322-5.062 3.244-7.834.46-1.392 1.867-5.632 5.893-7.17 4.037-1.538 7.93.704 9.21 1.44 3.138 1.807 6.118 4.3 9.11 7.62 9.088 10.076 16.03 20.288 21.215 31.203 12.314-6.152 22.656-13.588 31.602-22.718 1.02-1.04 1.982-2.37 2.865-3.952.19-.344.325-.622.42-.842-.194-.084-.442-.18-.757-.282-4.492-1.473-9.227-3.187-13.363-6.5-7.75-6.203-9.947-15.713-5.732-24.816 2.566-5.55 6.604-9.813 11.992-12.678 10.36-5.513 21.2-2.665 27.607 7.25 2.152 3.33 3.82 7.153 5.098 11.686.03.11.06.208.092.293.145-.058.318-.133.52-.232 1.437-.708 2.66-1.52 3.538-2.354 9.36-8.858 17.033-19.456 23.428-32.373-9.047-4.157-17.965-10.042-27.945-18.427-3.63-3.05-7.746-6.717-10.64-11.64-1.36-2.313-3.017-5.8-1.724-9.365 1.29-3.564 4.8-5.178 7.328-6.082.492-.176.988-.35 1.484-.52 1.68-.586 3.266-1.138 4.7-1.82 6.07-2.89 9.16-7.52 8.265-12.395-.546-2.97-2.286-6.11-4.774-8.614l6.72-6.7c3.862 3.888 6.483 8.714 7.38 13.596 1.697 9.222-3.482 17.915-13.52 22.69-1.9.903-3.808 1.567-5.65 2.21-.474.165-.944.33-1.415.498-.55.197-.952.37-1.243.508.133.293.33.68.623 1.182 2.13 3.622 5.398 6.522 8.564 9.18 9.748 8.19 18.318 13.782 26.967 17.597.897.396 3.622 1.597 4.692 4.51 1.068 2.912-.24 5.612-.732 6.628-7.012 14.474-15.514 26.328-25.99 36.242-1.58 1.496-3.553 2.832-5.86 3.97-3.22 1.586-6.16 1.81-8.73.662-1.733-.773-4.042-2.558-5.198-6.663-1.018-3.605-2.303-6.585-3.934-9.106-3.7-5.724-9.238-7.19-15.2-4.02-3.57 1.897-6.134 4.605-7.837 8.283-2.386 5.16-1.304 9.923 3.052 13.41 2.902 2.322 6.572 3.64 10.39 4.89 1.34.437 5.417 1.77 6.956 5.715 1.553 3.973-.586 7.805-1.287 9.063-1.294 2.32-2.767 4.33-4.376 5.973-9.682 9.88-21.34 18.232-34.65 24.82-1.23.604-2.91 1.297-4.766 1.297z" /><path fill="#F2DC70" d="M169.836 30.216c-3.25-3.27-7.375-5.55-11.498-5.954-8.596-.842-14.652 3.787-18.656 14.26-3.53 9.232-5.783 9.83-13.398 3.477-1.332-1.11-2.578-2.34-3.742-3.626-8.44-9.307-15.553-19.555-20.898-30.926-1.36-2.887-2.475-3.33-5.213-1.944C85.368 11.1 75.14 17.87 66.03 26.316c-2.56 2.373-4.972 4.877-6.776 7.886-2.64 4.4-1.883 6.495 2.84 8.28 2.654 1.002 5.402 1.85 7.89 3.174 4.577 2.43 8.28 5.73 9.64 11.09 1.97 7.763-3.426 17.544-11.98 21.498-7.88 3.638-15.432 1.545-20.31-5.635-2.243-3.307-3.604-6.995-4.843-10.767-1.437-4.365-3.446-5.15-7.52-2.974-1.65.882-3.228 2.02-4.603 3.294-10.705 9.91-18.513 21.918-25.008 34.868-1.01 2.006-.972 3.146 1.515 4.288 10.54 4.84 20.078 11.302 28.86 18.87 3.355 2.888 6.618 5.893 8.96 9.724 2.934 4.797 2.182 7.124-3.094 8.87-3.315 1.1-6.585 2.27-9.483 4.224-4.668 3.143-8.016 7.152-7.92 13.214.05 5.68 2.346 10.145 6.086 13.732" /><path fill="#878664" d="M27.002 173.382c-4.947-4.75-7.486-10.507-7.547-17.117-.11-6.95 3.168-12.585 10.016-17.197 3.407-2.295 7.126-3.624 10.644-4.79.576-.19.994-.36 1.29-.498-.147-.33-.384-.783-.75-1.386-2.036-3.325-5.07-6.074-8.01-8.604-9.046-7.794-18.122-13.732-27.745-18.153-.876-.402-3.54-1.626-4.536-4.472-.98-2.798.285-5.317.762-6.266 7.74-15.44 16.01-26.95 26.02-36.222 1.69-1.563 3.62-2.945 5.59-3.998 2.153-1.15 5.403-2.523 8.76-1.178 3.347 1.343 4.74 4.555 5.495 6.854 1.02 3.098 2.27 6.647 4.265 9.58 3.547 5.227 8.664 6.645 14.4 3.995 6.406-2.96 10.785-10.445 9.37-16.017-.853-3.363-3.09-5.85-7.263-8.065-1.572-.836-3.373-1.484-5.277-2.17-.69-.25-1.383-.5-2.066-.758-2.415-.91-5.767-2.53-6.985-6.04-1.223-3.52.416-6.895 1.754-9.125 2.214-3.693 5.095-6.585 7.62-8.927 9.01-8.352 19.31-15.406 31.48-21.56 1.63-.825 4.105-1.816 6.755-.902s4.004 3.184 4.887 5.06c4.908 10.44 11.678 20.45 20.117 29.758 1.1 1.21 2.198 2.276 3.267 3.167 2.094 1.746 3.28 2.52 3.924 2.86.396-.612 1.05-1.858 2.017-4.385 4.79-12.53 12.703-18.348 23.543-17.288 5.082.5 10.195 3.102 14.398 7.33l-6.72 6.7c-2.616-2.632-5.75-4.3-8.603-4.58-4.518-.45-9.68.546-13.766 11.233-1.782 4.656-3.897 9.302-8.396 10.478-4.504 1.175-8.63-1.85-12.467-5.052-1.404-1.17-2.824-2.544-4.217-4.08-8.883-9.793-16.06-20.347-21.338-31.38C86.7 15.83 77.387 22.253 69.25 29.797c-2.036 1.89-4.333 4.177-5.935 6.85-.24.4-.412.724-.535.977.246.118.568.258.984.416.64.24 1.283.472 1.928.705 2.137.77 4.344 1.564 6.512 2.717 6.557 3.48 10.484 8.1 12.012 14.116 2.533 9.983-4.01 22.086-14.59 26.976-9.992 4.613-20.033 1.823-26.215-7.276-2.685-3.952-4.208-8.24-5.427-11.95-.072-.218-.14-.402-.2-.564-.167.078-.36.176-.583.294-1.266.676-2.518 1.572-3.617 2.59C24.748 73.83 17.336 84.046 10.338 97.7c9.89 4.716 19.225 10.907 28.492 18.892 3.352 2.89 7.16 6.348 9.908 10.843 1.473 2.408 3.275 6.04 1.922 9.746-1.344 3.678-4.963 5.25-7.57 6.112-3.01.998-5.912 2.028-8.326 3.654-4.143 2.79-5.885 5.54-5.826 9.2.037 4.044 1.55 7.43 4.625 10.382l-6.56 6.854z" /><path fill="#FFF" d="M122.525 77.576c-1.576-2.12-3.697-3.976-6.357-5.392-5.188-2.762-10.582-3.936-16.06-3.665-2.976.144-5.978.717-8.983 1.693-8.85 2.877-14.883 11.19-15.13 19.972-.042 1.497.327 1.992 1.833 1.954 3.48-.088 6.973-.174 10.443.027 2.058.118 2.735-.663 2.855-2.54.17-2.592 1.088-4.923 2.88-6.845 1.606-1.722 3.796-2.677 6.03-2.933 4.014-.46 8.156 1.343 9.258 5.012.592 1.977.762 3.903.31 5.68l12.922-12.966z" /><path fill="#E1E7E8" d="M109.604 90.543c-.398 1.583-1.29 3.048-2.803 4.326-1.526 1.288-3.134 2.488-4.745 3.675-.72.533-1.342 1.06-1.982 1.638l-.018.03c-3.678 3.324-5.98 7.45-6.396 12.705-.372 4.717-.39 4.717 4.35 4.717.784 0 1.33 0 2.11-.002 1.73-.002 3.693-.074 5.416.022 1.52.083 2-.546 1.883-1.994-.272-3.418 1.278-6.02 3.75-8.22 2.028-1.806 4.337-3.205 6.56-4.73 9.057-6.208 10.535-17.422 4.797-25.135l-12.923 12.968zM100.48 123.096c-.11-.003-.22-.004-.327-.003-4.332.025-7.818 3.2-7.908 7.277-.096 4.314 3.227 7.59 7.795 7.685 4.52.093 8.072-3.13 8.123-7.37.046-4.102-3.35-7.456-7.684-7.59z" /></svg>