<svg version="1.1" xmlns="http://www.w3.org/2000/svg" xmlns:xlink="http://www.w3.org/1999/xlink" x="0px" y="0px" width="80px" height="46px" viewBox="0 0 80 46" style="enable-background:new 0 0 80 46;" xml:space="preserve">
	<path class="dark" d="M79.999,26.396c-1.933,0-3.499-1.566-3.499-3.5c0-1.933,1.566-3.5,3.499-3.5H80V4.956    C80,2.219,77.328,0,74.613,0H5.138C2.424,0,0,2.219,0,4.956v14.44c1.934,0,3.5,1.567,3.5,3.5c0,1.933-1.566,3.5-3.5,3.5v14.646    C0,43.78,2.424,46,5.138,46h69.476C77.328,46,80,43.78,80,41.043L79.999,26.396L79.999,26.396z" />
	<path class="medium" d="M19.553,32.984c0,2.209-1.791,4-4,4h-4c-2.209,0-4-1.791-4-4v-24c0-2.209,1.791-4,4-4h4      c2.209,0,4,1.791,4,4V32.984z" />
	<path class="medium" d="M36.553,32.984c0,2.209-1.791,4-4,4h-4c-2.209,0-4-1.791-4-4v-24c0-2.209,1.791-4,4-4h4      c2.209,0,4,1.791,4,4V32.984z" />
	<path class="medium" d="M55.553,32.984c0,2.209-1.791,4-4,4h-4c-2.209,0-4-1.791-4-4v-24c0-2.209,1.791-4,4-4h4      c2.209,0,4,1.791,4,4V32.984z" />
	<path class="medium" d="M72.553,32.984c0,2.209-1.791,4-4,4h-4c-2.209,0-4-1.791-4-4v-24c0-2.209,1.791-4,4-4h4      c2.209,0,4,1.791,4,4V32.984z" />
	<rect x="5.553" y="41.984" class="lightest" width="31" height="4" />
	<rect x="42.553" y="41.984" class="lightest" width="30" height="4" />
	<rect x="18.553" y="12.984" class="dark" width="42" height="16" />
	<path class="lightestest" d="M24.172,22.429v5.089H22.09V14.779h3.6c1.643,0,2.859,0.308,3.65,0.923    c0.789,0.616,1.186,1.545,1.186,2.788c0,1.586-0.826,2.716-2.475,3.39l3.598,5.638h-2.369l-3.051-5.089H24.172z M24.172,20.704    h1.447c0.971,0,1.672-0.18,2.109-0.541c0.436-0.36,0.652-0.894,0.652-1.603c0-0.72-0.234-1.237-0.705-1.551    c-0.471-0.314-1.18-0.471-2.127-0.471h-1.377V20.704z" />
	<path class="lightestest" d="M41.398,27.518l-1.271-3.538h-4.871l-1.246,3.538h-2.195l4.766-12.792h2.266l4.766,12.792H41.398z     M39.578,22.185l-1.195-3.468c-0.086-0.232-0.207-0.598-0.361-1.098s-0.26-0.866-0.318-1.098    c-0.156,0.715-0.385,1.496-0.688,2.344l-1.15,3.319H39.578z" />
	<path class="lightestest" d="M50.801,27.518l-3.695-10.639h-0.07c0.1,1.58,0.148,3.062,0.148,4.444v6.195h-1.891V14.779h2.938    l3.537,10.133h0.053l3.641-10.133h2.945v12.739h-2.004v-6.3c0-0.633,0.016-1.458,0.049-2.475    c0.031-1.017,0.059-1.632,0.082-1.847h-0.07l-3.824,10.622H50.801z" />
</svg>