<svg version="1.1" xmlns="http://www.w3.org/2000/svg" xmlns:xlink="http://www.w3.org/1999/xlink" x="0px" y="0px" width="65px" height="65px" viewBox="0 0 65 65" enable-background="new 0 0 65 65" xml:space="preserve">
	<rect x="10" y="56" class="light" width="5" height="9" />
	<rect x="20" y="56" class="light" width="5" height="9" />
	<rect x="30" y="56" class="light" width="5" height="9" />
	<rect x="40" y="56" class="light" width="5" height="9" />
	<rect x="50" y="56" class="light" width="5" height="9" />
	<rect y="10" class="light" width="9" height="5" />
	<rect y="20" class="light" width="9" height="5" />
	<rect y="30" class="light" width="9" height="5" />
	<rect y="40" class="light" width="9" height="5" />
	<rect y="50" class="light" width="9" height="5" />
	<rect x="10" class="light" width="5" height="9" />
	<rect x="20" class="light" width="5" height="9" />
	<rect x="30" class="light" width="5" height="9" />
	<rect x="40" class="light" width="5" height="9" />
	<rect x="50" class="light" width="5" height="9" />
	<rect x="56" y="10" class="light" width="9" height="5" />
	<rect x="56" y="20" class="light" width="9" height="5" />
	<rect x="56" y="30" class="light" width="9" height="5" />
	<rect x="56" y="40" class="light" width="9" height="5" />
	<rect x="56" y="50" class="light" width="9" height="5" />
	<path class="dark" d="M60,54c0,3.3125-2.6875,6-6,6H11c-3.313,0-6-2.6875-6-6V11c0-3.313,2.688-6,6-6h43c3.3125,0,6,2.687,6,6V54z" />
	<path class="light" d="M48.5,54h-32c-3.0322,0-5.5-2.4668-5.5-5.5v-32c0-3.0332,2.4678-5.5,5.5-5.5h32c3.0313,0,5.5,2.4668,5.5,5.5   v32C54,51.5332,51.5313,54,48.5,54z M16.5,14c-1.3779,0-2.5,1.1221-2.5,2.5v32c0,1.3789,1.1221,2.5,2.5,2.5h32   c1.3789,0,2.5-1.1211,2.5-2.5v-32c0-1.3779-1.1211-2.5-2.5-2.5H16.5z" />
	<path class="lightestest" d="M49.0938,26.0801v8.3145c0,0.9482-0.2031,1.7783-0.6094,2.4912c-0.4072,0.7119-0.998,1.2607-1.7676,1.6436   c-0.7715,0.3848-1.6914,0.5762-2.7637,0.5762c-1.5938,0-2.834-0.4219-3.7188-1.2666c-0.8848-0.8438-1.3262-2.0039-1.3262-3.4795   v-8.2793h2.1094v8.1309c0,1.0605,0.2461,1.8418,0.7373,2.3457c0.4902,0.5039,1.2461,0.7559,2.2686,0.7559   c1.9785,0,2.9707-1.0391,2.9707-3.1191v-8.1133H49.0938z" />
	<path class="lightestest" d="M36.4551,29.9648c0,1.3423-0.4395,2.3701-1.3184,3.085c-0.8789,0.7158-2.1289,1.0732-3.752,1.0732h-1.3359   v4.8066h-2.1021V26.0801h3.7012c1.604,0,2.8091,0.3281,3.6079,0.9839C36.0566,27.7212,36.4551,28.688,36.4551,29.9648z    M30.0479,32.355h1.1152c1.0781,0,1.8701-0.188,2.374-0.563s0.7559-0.9609,0.7559-1.7578c0-0.7383-0.2246-1.2891-0.6758-1.6523   c-0.4512-0.3618-1.1553-0.5449-2.1104-0.5449h-1.459V32.355z" />
	<path class="lightestest" d="M22.0059,27.6973c-1.207,0-2.1558,0.4277-2.8477,1.2827c-0.6924,0.854-1.0371,2.0352-1.0371,3.541   c0,1.5786,0.332,2.77,0.998,3.5786c0.6641,0.8086,1.627,1.2129,2.8867,1.2129c0.5449,0,1.0723-0.0557,1.582-0.1621   c0.5103-0.1074,1.041-0.248,1.5923-0.418v1.8027c-1.0083,0.3809-2.1504,0.5703-3.4282,0.5703c-1.8809,0-3.3262-0.5684-4.334-1.709   c-1.0078-1.1416-1.5122-2.7705-1.5122-4.8926c0-1.3359,0.2441-2.5049,0.7344-3.5068c0.4878-1.002,1.1968-1.77,2.123-2.3032   c0.9258-0.5327,2.0117-0.8008,3.2598-0.8008c1.313,0,2.5249,0.2749,3.6392,0.8257l-0.7563,1.75   c-0.4336-0.2046-0.8906-0.3857-1.375-0.541C23.0488,27.7749,22.5391,27.6973,22.0059,27.6973z" />
</svg>