<svg version="1.1" xmlns="http://www.w3.org/2000/svg" xmlns:xlink="http://www.w3.org/1999/xlink" x="0px" y="0px" width="65.001px" height="65.048px" viewBox="0 0 65.001 65.048" style="enable-background:new 0 0 65.001 65.048;" xml:space="preserve">
	<path class="medium" style="fill-rule:evenodd;clip-rule:evenodd;" d="M5.682,14.209c2.986,5.164,5.89,10.165,8.782,15.169     c2.103,3.637,4.195,7.281,6.295,10.921c3.353,5.811,11.374,8.265,17.893,5.48c0.355-0.151,0.708-0.304,1.331-0.571     c-0.269,0.541-0.397,0.849-0.564,1.134c-3.453,5.844-6.918,11.682-10.355,17.536c-0.333,0.566-0.643,0.803-1.349,0.688     c-13.546-2.225-23.98-11.901-26.917-25.22c-1.869-8.481-0.424-16.485,4.059-23.932C5.073,15.053,5.332,14.716,5.682,14.209z" />
	<path class="dark" style="fill-rule:evenodd;clip-rule:evenodd;" d="M61.573,18.126c-0.554,0-0.971,0-1.386,0     c-8.948,0-17.895-0.013-26.841,0.005c-7.218,0.014-12.984,4.737-14.433,11.786c-0.143,0.696-0.207,1.406-0.353,2.417     c-0.363-0.536-0.594-0.829-0.776-1.15c-3.428-6.02-6.839-12.049-10.291-18.054c-0.371-0.645-0.322-1.029,0.146-1.587     c14.653-17.542,42.794-14.62,53.465,5.564C61.251,17.385,61.367,17.677,61.573,18.126z" />
	<path class="light" style="fill-rule:evenodd;clip-rule:evenodd;" d="M40.739,20.199c0.305,0,0.61,0,0.914,0     c6.612,0.011,13.223,0.042,19.833,0.009c0.887-0.004,1.231,0.315,1.523,1.097c7.021,18.867-5.279,39.982-25.168,43.111     c-2.188,0.345-4.419,0.408-6.977,0.632c0.361-0.67,0.541-1.027,0.742-1.375c4.437-7.675,8.734-15.438,13.357-22.999     c4.479-7.326,2.11-15.983-3.994-20.026c-0.117-0.077-0.269-0.097-0.403-0.144C40.625,20.401,40.682,20.3,40.739,20.199z" />
	<path class="lightest" style="fill-rule:evenodd;clip-rule:evenodd;" d="M45.422,32.456c-0.004,6.987-5.476,12.584-12.32,12.603     c-6.879,0.019-12.646-5.728-12.651-12.602c-0.005-6.83,5.481-12.274,12.36-12.256C39.918,20.215,45.425,25.569,45.422,32.456z" />
</svg>