<svg version="1.1" xmlns="http://www.w3.org/2000/svg" xmlns:xlink="http://www.w3.org/1999/xlink" x="0px" y="0px" width="23px" height="23px" viewBox="0 0 23 23" style="enable-background:new 0 0 23 23;" xml:space="preserve">
	<path class="dark" d="M19.631,3.367C17.385,1.122,14.443,0,11.5,0C8.556,0.001,5.614,1.123,3.37,3.367  c-4.492,4.492-4.493,11.771,0,16.263c4.49,4.493,11.771,4.493,16.261,0C24.121,15.139,24.125,7.86,19.631,3.367z M18.652,18.65  c-3.949,3.95-10.353,3.95-14.306,0c-3.951-3.949-3.949-10.354,0-14.305c1.977-1.973,4.565-2.96,7.153-2.96  c2.588-0.001,5.178,0.987,7.153,2.96C22.604,8.296,22.602,14.703,18.652,18.65z" />
	<polygon class="dark" points="7.7,8.825 11.853,3.703 16.008,8.825 13.467,8.825 13.467,18.01 10.239,18.01  10.239,8.825   " />
</svg>