<!-- Generator: Adobe Illustrator 16.0.0, SVG Export Plug-In . SVG Version: 6.00 Build 0)  --><!DOCTYPE svg PUBLIC "-//W3C//DTD SVG 1.1//EN" "http://www.w3.org/Graphics/SVG/1.1/DTD/svg11.dtd"[]><svg version="1.1" id="Layer_1" xmlns="http://www.w3.org/2000/svg" xmlns:xlink="http://www.w3.org/1999/xlink" x="0px" y="0px" width="32.001px" height="25.221px" viewBox="0 -0.611 32.001 25.221" enable-background="new 0 -0.611 32.001 25.221" xml:space="preserve">
<path class="dark" d="M16,0.885c1.1,0,2.2,0.62,3.035,1.858l10.684,15.863c1.67,2.48,0.59,4.506-2.398,4.506H4.68  c-2.988,0-4.067-2.027-2.398-4.506L12.965,2.744C13.8,1.506,14.9,0.885,16,0.885 M16-0.611c-1.639,0-3.198,0.918-4.276,2.519  L1.041,17.771c-0.53,0.787-0.861,1.578-0.986,2.348c-0.138,0.855-0.014,1.674,0.358,2.375c0.373,0.699,0.984,1.262,1.769,1.623  c0.708,0.328,1.549,0.494,2.498,0.494h22.64c0.949,0,1.789-0.166,2.498-0.494c0.785-0.361,1.396-0.924,1.77-1.623  s0.496-1.52,0.359-2.375c-0.125-0.77-0.456-1.561-0.986-2.348L20.275,1.908C19.198,0.307,17.639-0.611,16-0.611L16-0.611z" />
<path class="medium" d="M28.602,19.493L17.76,3.403c-0.968-1.437-2.551-1.438-3.519-0.002L3.399,19.495  c-0.968,1.438-0.342,2.605,1.39,2.605l0,0H27.21C28.943,22.101,29.568,20.931,28.602,19.493z M15.997,20.63  c-0.836,0-1.513-0.68-1.513-1.514c0-0.836,0.677-1.514,1.513-1.514c0.835,0,1.513,0.678,1.513,1.514  C17.51,19.95,16.832,20.63,15.997,20.63z M18.143,8.728l-1.498,6.527c-0.387,1.688-1.021,1.688-1.408,0L13.74,8.728  c-0.387-1.688,0.603-3.07,2.201-3.07C17.539,5.659,18.529,7.04,18.143,8.728z" />
</svg>