<svg version="1.1" xmlns="http://www.w3.org/2000/svg" xmlns:xlink="http://www.w3.org/1999/xlink" x="0px" y="0px" width="52.828px" height="64.884px" viewBox="0 0 52.828 64.884" style="enable-background:new 0 0 52.828 64.884;" xml:space="preserve">
<path class="dark" d="M44.121,34.47c0.09,9.82,8.613,13.088,8.707,13.13c-0.072,0.229-1.359,4.656-4.49,9.229   c-2.701,3.951-5.51,7.89-9.932,7.971c-4.344,0.081-5.74-2.575-10.709-2.575c-4.964,0-6.515,2.494-10.628,2.656   c-4.267,0.162-7.517-4.273-10.243-8.213c-5.572-8.055-9.83-22.763-4.112-32.69c2.84-4.93,7.916-8.052,13.424-8.132   c4.189-0.08,8.146,2.819,10.711,2.819c2.556,0,7.367-3.486,12.417-2.974c2.119,0.087,8.053,0.854,11.867,6.436   C50.826,22.316,44.049,26.262,44.121,34.47 M35.955,10.36C38.221,7.617,39.746,3.8,39.33,0c-3.266,0.132-7.215,2.178-9.559,4.917   c-2.098,2.428-3.935,6.313-3.439,10.038C29.971,15.236,33.691,13.104,35.955,10.36" />
</svg>