<svg version="1.1" xmlns="http://www.w3.org/2000/svg" xmlns:xlink="http://www.w3.org/1999/xlink" x="0px" y="0px" width="56px" height="64.463px" viewBox="0 0 56 64.463" style="enable-background:new 0 0 56 64.463;" xml:space="preserve">
	<path class="dark" d="M35.15,61.369c-3.195-2.033-11.033-1.451-12.777-1.162c-1.8,4.355-5.632,4.646-8.653,3.484     C9.423,61.95,5.823,61.95,1.497,59.918c-1.307-0.582-1.744-1.454-1.365-2.614c0.698-2.032,1.595-3.484,1.016-5.227     c-0.636-2.032-0.379-4.356,2.351-5.228c3.516-0.58,3.632-2.903,5.287-3.484c2.352-13.938,7.376-18.003,10.57-22.591     c-0.146-4.558-0.814-8.246-0.523-12.775C20.834-4.284,36.313-1.09,38.055,8.608c0.58,3.311,0,5.807,0.58,8.973     c1.162,5.169,6.098,8.072,7.84,11.846c2.033,4.356,4.939,11.035,2.613,15.102c1.742,0.58,2.031,2.321,2.326,4.064     c0.287,2.322,3.482,2.903,4.352,4.646c0.582,1.162,0,2.322-0.869,3.194c-2.613,2.031-5.809,2.903-8.422,5.227     C43.281,64.853,36.313,66.015,35.15,61.369z" />
	<path class="lightestest" d="M10.412,44.551c-1.946,0-3.195,3.484-4.529,3.484c-3.602,0.582-3.922,2.033-3.139,3.775     c1.278,2.904-0.695,3.774-0.725,5.517c-0.029,2.323,9.467,3.484,11.73,4.355c7.29,2.903,7.2-3.774,4.211-7.549     C15.522,51.665,13.577,44.609,10.412,44.551z" />
	<path class="lightestest" d="M37.713,60.701c2.613,2.323,4.939,1.451,7.26-0.581c2.613-2.323,8.131-3.774,8.131-6.098     s-2.615-2.323-3.484-3.484c-0.869-1.452-0.869-4.065-2.324-4.356c-2.611,2.207-7.229,4.037-7.258-0.58     c-2.033-0.581-2.613,0.58-2.324,3.194C38.584,53.151,35.68,58.959,37.713,60.701z" />
	<path class="lightestest" d="M39.791,43.629c3.6-9.814-6.621-16.958-6.969-23.897c-4.646,5.313-9.583,7.345-12.196,0.61     c-1.685,7.985-7.492,13.444-7.694,22.127c0.29,3.483,11.76,5.226,6.3,11.033c1.134,1.161,1.452,2.323,2.353,3.483     c4.85,1.742,12.398,0,14.142-4.646c0.51-1.313-0.293-3.775,0-6.097C36.016,44.21,38.629,43.629,39.791,43.629z" />
	<path class="lightestest" d="M20.109,18.52c1.54,0.929,3.253,1.335,4.878,1.365c2.615,0.029,4.646-2.672,6.388-3.049     c2.031-0.116-0.582,1.016-1.158,1.394c-2.326,1.829-6.099,3.165-8.859,1.888c2.469,4.644,7.695,0.784,10.308-0.697     c0.871-0.406,1.16-0.494,1.16-1.074c0-1.974,0-2.265-1.451-2.729c-2.904-0.639-5.517-2.875-8.13-1.424     C21.967,14.773,18.192,17.968,20.109,18.52z" />
	<path class="lightestest" d="M31.08,14.818c0.582,0.175,0.871,0.349,1.162,0.349v-0.029c2.033-8.943-4.937-8.827-5.052-2.003     l1.336,0.522C29.076,7.675,32.764,11.305,31.08,14.818z" />
	<path class="lightestest" d="M21.819,11.914c0.26,0.263,0.549,0.437,0.842,0.815C22.979,11.479,21.295,11.594,21.819,11.914z" />
	<path class="lightestest" d="M30.211,11.799c0.58,0.464,0.287,0.755,0.58,0.667C31.572,11.914,29.629,10.521,30.211,11.799z" />
	<path class="lightestest" d="M21.645,14.586c-2.063-3.455,1.828-5.43,1.887-1.278c0.289-0.116,0.58-0.291,0.871-0.435     c-0.262-7.754-6.477-4.124-3.688,2.642C20.947,15.196,21.208,14.935,21.645,14.586z" />
</svg>