<svg version="1.1" xmlns="http://www.w3.org/2000/svg" xmlns:xlink="http://www.w3.org/1999/xlink" x="0px" y="0px" width="65.04px" height="65.04px" viewBox="0 0 65.04 65.04" style="enable-background:new 0 0 65.04 65.04;" xml:space="preserve">
	<path class="light" d="M50.66,26.079c4.876,0.003,9.929,2.486,14.234,3.536c0.086,0.98,0.146,1.966,0.146,2.974    c0,17.692-13.413,31.972-30.952,32.452c-3.306-1.668-7.7-8.567-11.607-12.336c1.672-2.311,6.703-7.358,9.815-11.457    c0.284,0.016,0.565,0.049,0.862,0.049c7.84,0,14.196-6.372,14.196-14.224c0-0.192-0.018-0.37-0.029-0.551    C48.42,26.209,49.536,26.078,50.66,26.079z" />
	<path class="lightest" d="M33.158,16.559c5.798,0,10.485,4.705,10.485,10.514c0,5.8-4.688,10.507-10.485,10.507    c-5.786,0-10.497-4.708-10.497-10.507C22.661,21.264,27.372,16.559,33.158,16.559z" />
	<path class="medium" d="M12.519,6.922c0.438,5.381,1.659,14.184,6.649,17.871c-0.122,0.742-0.202,1.504-0.202,2.28    c0,6.061,3.793,11.231,9.135,13.277c-2.546,4.53-7.002,7.623-10.033,11.637c2.978,4.768,7.712,8.921,11.432,13.033    c-10.77-0.998-20.013-7.256-25.146-16.203c-2.153-4.146-3.6-8.735-4.207-13.391C0.06,34.492,0,33.542,0,32.588    C0,22.153,4.916,12.889,12.519,6.922z" />
	<path class="dark" d="M32.519,0c15.606,0,28.625,11.018,31.792,25.711c-5.41-0.822-10.825-3.358-17.539-2.646    c-1.727-5.906-7.166-10.22-13.613-10.22c-5.609,0-10.439,3.269-12.745,8.001c-3.402-2.442-4.751-12.525-4.423-16.289    C20.845,1.684,26.478,0,32.519,0z" />
</svg>