<!-- Generator: Adobe Illustrator 16.0.0, SVG Export Plug-In . SVG Version: 6.00 Build 0)  --><!DOCTYPE svg PUBLIC "-//W3C//DTD SVG 1.1//EN" "http://www.w3.org/Graphics/SVG/1.1/DTD/svg11.dtd"[]><svg version="1.1" id="Layer_1" xmlns="http://www.w3.org/2000/svg" xmlns:xlink="http://www.w3.org/1999/xlink" x="0px" y="0px" width="22.875px" height="32px" viewBox="0 0 22.875 32" enable-background="new 0 0 22.875 32" xml:space="preserve">
<path class="dark" d="M22.875,5.64c-0.004-1.291-0.724-2.059-2.029-2.15c-1.023-0.071-2.08,0.015-3.106-0.016  c-0.375-0.011-0.47,0.109-0.491,0.489c-0.088,1.614-1.08,2.649-2.695,2.661c-2.057,0.014-4.11,0.011-6.165,0.001  c-1.664-0.008-2.679-0.923-2.796-2.57C5.563,3.66,5.449,3.57,5.092,3.575c-1.133,0.015-2.267,0.011-3.4,0.004  c-0.524-0.004-0.902,0.248-1.2,0.645C0.112,4.728-0.002,5.302,0,5.93c0.012,3.925,0.006,7.851,0.006,11.776  c0,3.952-0.002,7.903,0.001,11.854c0.001,1.717,0.724,2.436,2.458,2.438C4.772,32,8.261,32,11.432,32c3.172,0,6.659,0,8.968-0.002  c1.734-0.001,2.457-0.719,2.458-2.438L22.875,5.64z M19.494,29.497c-1.359-0.013-3.199-0.015-5.132-0.015c0-0.002,0-0.002,0-0.002  c-0.674,0-1.396,0-2.139,0.002c-0.267,0-0.529,0-0.792,0c-0.262,0-0.525,0-0.79,0c-0.745,0-1.466-0.002-2.139-0.002  c-0.001,0-0.001,0-0.001,0.002c-1.932,0-3.771,0.002-5.132,0.015C2.747,29.502,2.52,29.396,2.523,28.7  C2.554,22.43,2.549,16.16,2.527,9.889C2.526,9.305,2.66,9.147,3.26,9.15c5.453,0.026,10.906,0.024,16.361,0.001  c0.582-0.002,0.756,0.131,0.75,0.735c-0.002,0.035-0.002,0.071-0.002,0.106l-0.033-0.104C20.313,16.16,20.309,22.43,20.339,28.7  C20.343,29.396,20.117,29.502,19.494,29.497z" />
<path class="light" d="M13.691,11.699c1.262,0,0.782,0.009,2.043-0.004c0.539-0.006,0.867,0.181,0.857,0.763  c-0.008,0.56-0.328,0.798-0.857,0.798c-2.496,0.002-3.252-0.002-5.748,0.004c-0.61,0.001-0.826-0.298-0.818-0.887  c0.007-0.591,0.333-0.684,0.818-0.678C11.222,11.708,12.457,11.699,13.691,11.699z" />
<path class="light" d="M13.695,17.734c-1.236,0-2.476-0.016-3.712,0.008c-0.555,0.011-0.828-0.155-0.818-0.762  c0.01-0.577,0.293-0.706,0.797-0.704c2.5,0.012,4.845,0.013,7.346,0c0.521-0.003,0.775,0.163,0.777,0.722  c0,0.545-0.221,0.75-0.758,0.742C16.064,17.723,14.958,17.734,13.695,17.734z" />
<path class="light" d="M12.367,21.831c-0.817,0-1.634-0.017-2.449,0.006c-0.54,0.015-0.757-0.203-0.751-0.747  c0.006-0.497,0.185-0.72,0.697-0.716c1.711,0.013,3.423,0.013,5.134-0.001c0.504-0.004,0.707,0.202,0.711,0.705  c0.004,0.523-0.178,0.777-0.736,0.761C14.104,21.813,13.234,21.832,12.367,21.831z" />
<path class="light" d="M11.955,26.411c-0.71,0-1.421-0.011-2.131,0.003c-0.543,0.011-0.654-0.295-0.652-0.758  c0.001-0.446,0.147-0.699,0.633-0.697c1.42,0.007,2.841,0.007,4.262,0c0.462-0.002,0.672,0.193,0.663,0.666  c-0.009,0.492-0.146,0.811-0.722,0.792C13.324,26.395,12.639,26.411,11.955,26.411z" />
<path class="medium" d="M6.657,23.775H4.962c-0.349,0-0.632,0.283-0.632,0.634v1.694c0,0.35,0.283,0.633,0.632,0.633h1.695  c0.35,0,0.633-0.283,0.633-0.633v-1.694C7.29,24.061,7.007,23.775,6.657,23.775z M6.342,25.789H5.278v-1.063h1.063L6.342,25.789  L6.342,25.789z" />
<path class="light" d="M4.33,12.233c0.017-0.433,0.496-0.635,0.82-0.309c0.615,0.617,0.999,0.391,1.423-0.197  c0.243-0.337,0.572-0.613,0.864-0.915c0.177-0.183,0.387-0.311,0.622-0.134c0.255,0.191,0.261,0.473,0.069,0.694  c-0.6,0.694-1.222,1.368-1.841,2.044c-0.156,0.17-0.367,0.243-0.565,0.091c-0.436-0.334-0.858-0.685-1.275-1.041  C4.376,12.407,4.355,12.287,4.33,12.233z" />
<path class="light" d="M4.33,16.782c0.017-0.433,0.496-0.635,0.82-0.309c0.615,0.617,0.999,0.391,1.423-0.197  c0.243-0.337,0.572-0.613,0.864-0.915c0.177-0.183,0.387-0.312,0.622-0.134c0.255,0.191,0.261,0.472,0.069,0.694  c-0.6,0.694-1.222,1.368-1.841,2.044c-0.156,0.17-0.367,0.243-0.565,0.092c-0.436-0.334-0.858-0.686-1.275-1.041  C4.376,16.957,4.355,16.836,4.33,16.782z" />
<path class="light" d="M4.33,21.004c0.017-0.434,0.496-0.635,0.82-0.309c0.615,0.617,0.999,0.391,1.423-0.197  c0.243-0.337,0.572-0.613,0.864-0.915c0.177-0.183,0.387-0.312,0.622-0.134c0.255,0.191,0.261,0.473,0.069,0.693  c-0.6,0.694-1.222,1.368-1.841,2.045c-0.156,0.17-0.367,0.242-0.565,0.09c-0.436-0.334-0.858-0.685-1.275-1.041  C4.376,21.178,4.355,21.059,4.33,21.004z" />
<path class="medium" d="M11.718,0c0.882,0.271,1.424,0.806,1.497,1.781c0.037,0.518,0.381,0.773,0.92,0.764  c0.363-0.007,0.73-0.038,1.092,0.097c0.682,0.255,1.113,0.91,1.023,1.594c-0.099,0.739-0.605,1.297-1.353,1.307  c-2.315,0.031-4.632,0.033-6.946-0.002C7.187,5.528,6.662,4.893,6.636,4.129C6.609,3.327,7.103,2.701,7.901,2.572  c0.309-0.049,0.63-0.025,0.945-0.036c0.46-0.016,0.77-0.247,0.796-0.706C9.697,0.869,10.228,0.313,11.085,0  C11.296,0,11.507,0,11.718,0z M11.441,2.535c0.444-0.04,0.729-0.276,0.738-0.744c0.01-0.473-0.29-0.753-0.733-0.761  c-0.448-0.008-0.76,0.283-0.763,0.74C10.682,2.219,10.96,2.489,11.441,2.535z" />
</svg>