<svg version="1.1" xmlns="http://www.w3.org/2000/svg" xmlns:xlink="http://www.w3.org/1999/xlink" x="0px" y="0px" width="390.055px" height="390.055px" viewBox="0 0 390.055 390.055" enable-background="new 0 0 390.055 390.055" xml:space="preserve">
<path fill-rule="evenodd" clip-rule="evenodd" d="M8.251,135.019c9.824,0,19.648,0,29.785,0c0,67.009,0,133.722,0,200.928           c77.604,0,154.894,0,232.439,0c0,9.929,0,19.367,0,29.291c-1.368,0.101-2.797,0.297-4.225,0.297           c-84.757,0.015-169.514,0.015-254.27,0.003c-1.243,0-2.486-0.154-3.729-0.236C8.251,288.54,8.251,211.779,8.251,135.019z" />
<path fill-rule="evenodd" clip-rule="evenodd" d="M71.023,26.249c104.061,0,207.878,0,311.919,0c0,92.293,0,184.344,0,276.646           c-103.979,0-207.796,0-311.919,0C71.023,210.795,71.023,118.758,71.023,26.249z M353.271,55.845c-84.488,0-168.528,0-252.537,0           c0,72.75,0,145.167,0,217.612c84.365,0,168.406,0,252.537,0C353.271,200.788,353.271,128.445,353.271,55.845z" />
<path class="not_in_fullscreen" fill-rule="evenodd" clip-rule="evenodd" d="M180.365,106.035c38.088,0,74.895,0,111.99,0c0,37.046,0,73.925,0,111.394           c-12.286-12.495-24.219-24.633-36.361-36.983c-20.538,20.543-40.37,40.381-60.002,60.018           c-12.75-12.704-25.127-25.036-37.6-37.463c19.742-19.736,39.566-39.556,59.536-59.52           C205.305,130.897,193.22,118.851,180.365,106.035z" />
<path class="in_fullscreen" fill-rule="evenodd" clip-rule="evenodd" d="M254.285,105.015c0.25,0,0.5,0,0.75,0c0.738,0.96,1.385,2.011,2.23,2.863     c6.773,6.826,13.582,13.616,20.386,20.412c4.76,4.753,9.528,9.497,14.564,14.516c-20.071,20.063-39.903,39.887-60.535,60.512     c12.397,12.383,24.498,24.471,36.653,36.611c-1.565,0-3.178,0-4.79,0.001c-35.341,0.034-70.681,0.069-106.022,0.104     c0-37.255,0-74.51,0-111.765c1.029,0.886,2.118,1.712,3.076,2.668c10.339,10.309,20.655,20.64,30.985,30.958     c0.949,0.948,1.948,1.846,3.862,3.654c0.892-1.409,1.448-2.768,2.404-3.728c16.108-16.187,32.274-32.316,48.407-48.478     C248.98,110.614,251.611,107.793,254.285,105.015z" />
                </svg>