<svg x="0px" y="0px" width="410px" height="497px" viewBox="0 0 410 497" enable-background="new 0 0 410 497" xml:space="preserve">
<path fill-rule="evenodd" clip-rule="evenodd" d="M411,437c0,5.667,0,11.333,0,17c-0.338,0.548-0.865,1.057-0.986,1.647                   c-4.338,21.264-18.072,33.536-38.071,39.775c-3.265,1.019-6.626,1.726-9.942,2.577c-8,0-16,0-24,0                   c-3.915-0.506-7.817-1.14-11.746-1.496c-17.701-1.605-35.408-3.154-53.117-4.681c-13.242-1.142-26.492-2.193-39.734-3.331                   c-17.875-1.536-35.751-3.052-53.616-4.698c-12.715-1.171-25.682-1.311-38.07-4.03C70.88,464.212,26.12,420.641,6.212,351.256                   C3.759,342.709,2.703,333.762,1,325c0-50.667,0-101.333,0-152c0.807-4.522,1.566-9.054,2.427-13.566                   c8.393-43.989,30.207-79.897,65.398-107.513c25.016-19.63,53.417-31.435,85.123-34.77c13.053-1.373,26.183-2.002,39.256-3.206                   c19.529-1.8,39.032-3.881,58.56-5.708c19.529-1.828,39.079-3.438,58.609-5.265C314.605,2.577,318.792,1.671,323,1c8,0,16,0,24,0                   c1.416,0.396,2.81,0.939,4.252,1.163c32.414,5.032,52.508,34.283,46.023,66.4c-3.271,16.205-10.361,30.754-17.887,45.188                   c-10.132,19.436-20.653,38.674-30.451,58.274c-8.81,17.626-13.277,36.278-12.268,56.278c0.747,14.784,0.707,29.662,0.003,44.45                   c-0.844,17.707,3.389,34.044,11.991,49.136c10.445,18.323,21.868,36.087,32.639,54.228c7.797,13.13,15.641,26.265,22.629,39.826                   C407.283,422.449,408.704,429.95,411,437z M38.818,249.396c0,19.995-0.064,39.992,0.042,59.987                   c0.028,5.314,0.34,10.652,0.925,15.935c5.944,53.647,44.907,100.147,97.14,114.548c12.675,3.495,26.188,4.149,39.376,5.532                   c17.874,1.874,35.806,3.192,53.713,4.747c21.391,1.856,42.776,3.783,64.175,5.542c19.406,1.595,38.806,3.619,58.249,4.317                   c18.809,0.677,25.357-9.199,17.908-26.524c-4.116-9.576-9.553-18.637-14.928-27.61c-13.338-22.265-27.537-44.031-40.335-66.597                   c-10.977-19.353-16.885-40.296-16.049-63.03c0.71-19.304,0.36-38.657,0.076-57.982c-0.213-14.533,2.499-28.462,7.259-42.067                   c7.838-22.405,19.647-42.896,30.642-63.803c7.647-14.541,15.429-29.168,21.231-44.484c7.197-18.998-0.803-29.741-21.151-28.887                   c-21.096,0.887-42.134,3.276-63.18,5.195c-30.826,2.812-61.642,5.739-92.452,8.719c-12.399,1.199-24.985,1.649-37.123,4.183                   C84.585,69.588,38.846,126.415,38.82,187.408C38.811,208.071,38.818,228.733,38.818,249.396z" />
<path fill-rule="evenodd" clip-rule="evenodd" fill="#FFFFFF" d="M38.818,249.396c0-20.663-0.008-41.325,0.001-61.988                   c0.026-60.993,45.765-117.82,105.518-130.292c12.137-2.533,24.723-2.983,37.123-4.183c30.811-2.979,61.626-5.907,92.452-8.719                   c21.046-1.919,42.084-4.309,63.18-5.195c20.349-0.854,28.349,9.889,21.151,28.887c-5.803,15.316-13.584,29.943-21.231,44.484                   c-10.994,20.907-22.804,41.397-30.642,63.803c-4.76,13.605-7.472,27.534-7.259,42.067c0.284,19.325,0.634,38.679-0.076,57.982                   c-0.836,22.734,5.072,43.678,16.049,63.03c12.798,22.565,26.997,44.332,40.335,66.597c5.375,8.974,10.812,18.034,14.928,27.61                   c7.449,17.325,0.9,27.201-17.908,26.524c-19.443-0.698-38.843-2.723-58.249-4.317c-21.398-1.759-42.784-3.686-64.175-5.542                   c-17.907-1.555-35.839-2.873-53.713-4.747c-13.188-1.383-26.701-2.037-39.376-5.532c-52.232-14.4-91.196-60.9-97.14-114.548                   c-0.585-5.282-0.897-10.62-0.925-15.935C38.754,289.389,38.818,269.392,38.818,249.396z M68.113,250                   c44.099,35.414,87.504,70.271,131.424,105.541c0-71.002,0-141.133,0-212.077C155.578,179.099,112.187,214.272,68.113,250z                       M275.554,355.569c0-70.848,0-141.368,0-212.1c-14.817,0-29.369,0-44.107,0c0,70.809,0,141.329,0,212.1                   C246.143,355.569,260.577,355.569,275.554,355.569z" />
<path fill-rule="evenodd" clip-rule="evenodd" d="M68.113,250c44.074-35.728,87.465-70.901,131.424-106.536                   c0,70.944,0,141.075,0,212.077C155.617,320.271,112.212,285.414,68.113,250z" />
<path fill-rule="evenodd" clip-rule="evenodd" d="M275.554,355.569c-14.977,0-29.411,0-44.107,0c0-70.771,0-141.291,0-212.1                   c14.738,0,29.29,0,44.107,0C275.554,214.201,275.554,284.722,275.554,355.569z" />
                </svg>