<svg x="0px" y="0px" width="412px" height="498px" viewBox="0 0 412 498" enable-background="new 0 0 412 498" xml:space="preserve">
<path fill-rule="evenodd" clip-rule="evenodd" d="M413,45c0,5.667,0,11.333,0,17c-1.6,5.365-2.384,11.163-4.95,16.018          c-8.449,15.982-17.334,31.746-26.447,47.363c-10.798,18.506-22.399,36.551-32.902,55.217          c-7.426,13.199-10.62,27.588-10.109,43.059c0.715,21.633,0.191,43.308,0.247,64.964c0.006,1.976,0.24,3.975,0.595,5.921          c3.35,18.375,11.448,34.919,19.981,51.268c10.222,19.584,20.875,38.949,30.81,58.676c6.244,12.398,10.066,25.581,9.922,39.763          c-0.255,25.019-15.448,45.022-39.746,51.749c-3.787,1.049-7.599,2.005-11.399,3.004c-7.667,0-15.333,0-23,0          c-0.756-0.319-1.492-0.853-2.271-0.926c-15.56-1.45-31.124-2.845-46.688-4.257c-15.729-1.427-31.458-2.833-47.184-4.297          c-16.549-1.54-33.096-3.1-49.638-4.72c-12.718-1.247-25.554-1.855-38.115-4.032C76.092,469.327,18.918,413.839,5.213,348.388          C3.657,340.957,2.397,333.464,1,326c0-50.667,0-101.333,0-152c0.778-4.544,1.493-9.101,2.345-13.631          c9.08-48.285,34.08-86.32,74.146-114.493c30.841-21.686,65.776-29.757,102.908-30.803c13.431-0.379,26.828-2.004,40.231-3.169          c17.374-1.509,34.732-3.197,52.108-4.678c17.544-1.494,35.107-2.768,52.65-4.273C329.949,2.562,334.465,1.665,339,1          c8.333,0,16.667,0,25,0c1.227,0.395,2.427,0.929,3.684,1.163c20.016,3.732,34.698,14.213,42.352,33.519          C411.233,38.704,412.021,41.89,413,45z M352.221,38.545c-23.165,1.954-45.559,3.826-67.948,5.737          c-25.539,2.179-51.072,4.434-76.614,6.577c-17.577,1.476-35.303,1.873-52.725,4.389C88.459,64.849,38.819,122.774,38.818,189.87          c0,39.66-0.108,79.319,0.089,118.979c0.041,8.117,0.693,16.314,1.97,24.33c8.528,53.546,51.717,99.53,105.006,109.651          c22.782,4.326,46.258,5.022,69.429,7.265c23.36,2.259,46.727,4.454,70.102,6.555c17.898,1.609,35.789,3.724,53.728,4.347          c20.107,0.7,27.574-9.597,21.245-28.692c-3.12-9.413-7.542-18.463-12.052-27.333c-11.004-21.645-22.835-42.878-33.5-64.685          c-7.846-16.041-13.646-33.009-13.865-51.157c-0.315-25.991-0.106-51.989-0.044-77.984c0.008-2.981,0.354-5.986,0.815-8.938          c3.228-20.601,12.12-39.037,22.691-56.619c12.606-20.968,26.229-41.323,38.861-62.275c4.594-7.617,8.348-15.941,11.152-24.385          c3.385-10.189-1.168-16.943-11.592-19.081C359.134,39.083,355.293,38.906,352.221,38.545z" />
<path fill-rule="evenodd" clip-rule="evenodd" fill="#FFFFFF" d="M352.221,38.545c3.072,0.361,6.913,0.538,10.634,1.302          c10.424,2.138,14.977,8.892,11.592,19.081c-2.805,8.443-6.559,16.768-11.152,24.385c-12.633,20.952-26.255,41.308-38.861,62.275          c-10.571,17.582-19.464,36.019-22.691,56.619c-0.462,2.951-0.808,5.956-0.815,8.938c-0.063,25.995-0.271,51.993,0.044,77.984          c0.22,18.148,6.02,35.116,13.865,51.157c10.665,21.807,22.496,43.04,33.5,64.685c4.51,8.87,8.932,17.92,12.052,27.333          c6.329,19.096-1.138,29.393-21.245,28.692c-17.938-0.623-35.829-2.737-53.728-4.347c-23.375-2.101-46.741-4.296-70.102-6.555          c-23.171-2.242-46.647-2.938-69.429-7.265c-53.289-10.121-96.478-56.105-105.006-109.651c-1.277-8.016-1.93-16.213-1.97-24.33          c-0.198-39.659-0.09-79.318-0.089-118.979c0-67.096,49.641-125.021,116.115-134.622c17.422-2.516,35.148-2.913,52.725-4.389          c25.542-2.144,51.075-4.398,76.614-6.577C306.662,42.371,329.056,40.499,352.221,38.545z M133.113,250.002          c44.118,35.428,87.522,70.283,131.405,105.522c0-71.001,0-141.131,0-212.045C220.561,179.112,177.168,214.288,133.113,250.002z              M115.394,355.723c0-71.079,0-141.716,0-212.271c-14.859,0-29.292,0-43.787,0c0,70.905,0,141.542,0,212.271          C86.345,355.723,100.658,355.723,115.394,355.723z" />
<path fill-rule="evenodd" clip-rule="evenodd" d="M133.113,250.002c44.056-35.714,87.448-70.89,131.405-106.522          c0,70.914,0,141.044,0,212.045C220.635,320.285,177.23,285.43,133.113,250.002z" />
<path fill-rule="evenodd" clip-rule="evenodd" d="M115.394,355.723c-14.735,0-29.049,0-43.787,0c0-70.729,0-141.366,0-212.271          c14.495,0,28.928,0,43.787,0C115.394,214.007,115.394,284.644,115.394,355.723z" />
                </svg>