<svg xmlns="http://www.w3.org/2000/svg" width="61.685" height="75" viewBox="0 0 61.6855 75"><path d="M0 0v75h61.685V0H0zm44.486 71.992H6.22l13.918-8.805-.003-4.4H2.585v-9.69H13.96v-9.85l6.19-7.52-.015-1.215-6.73 7.933L6.1 32.25l11.24-13.287h2.918V2.576h38.117v60.65l-13.89 8.766z" /><path d="M49.183 39.61v-5.354H39.52l-.012-7.32-9.408-5.813H18.353l-9.21 10.88 4.01 3.4 7.223-8.514 6.18-.005s-10.437 13.023-10.437 13.12v11.253H4.746l-.003 5.373 17.647.007-.002-11.02 7.39 6.293.02 12.23h6.218V48.964l-8.123-6.983 6.256-7.806v5.45c4.936 0 15.033-.015 15.033-.015z" /><circle cx="39.675" cy="16.713" r="6.406" /></svg>