<svg data-name="Layer 1" xmlns="http://www.w3.org/2000/svg" viewBox="0 0 20 20"><path d="M2.81.24a8.75 8.75 0 0 1 1-.18 5.73 5.73 0 0 1 2.95.53 4.22 4.22 0 0 1 2.39 3 8.19 8.19 0 0 1 .07 1.85v1.1a.34.34 0 0 0 .11.23c.36.34.74.66 1.11 1l-2.77 2.71L7 9.74c-.14-.17-.29-.34-.44-.5a.32.32 0 0 0-.21-.08c-.81 0-1.63.07-2.43 0A4.06 4.06 0 0 1 .14 5.81a5.73 5.73 0 0 1 0-2.7A.82.82 0 0 1 .23 3c.28.28.54.56.82.83.65.65 1.29 1.31 2 1.94a.87.87 0 0 0 1.36-.06c.37-.37.73-.75 1.11-1.11C6.07 4 6 3.52 5.46 3L2.91.36l-.1-.12zm6.54 12.15l3-3 1.27 1.1 2 1.71 2.2 1.92c.36.32.74.63 1.09 1a3 3 0 0 1 1.06 2.13 2.69 2.69 0 0 1-4.27 2.25 6.26 6.26 0 0 1-1.15-1.15l-2-2.3c-.73-.85-1.47-1.69-2.21-2.54l-.82-.93-.16-.19zm9.27 4.77a1.5 1.5 0 1 0-1.51 1.5 1.52 1.52 0 0 0 1.51-1.5z" /><path d="M19.13 0l-.35.23-3.23 2.08a.38.38 0 0 0-.12.18c-.08.34-.15.69-.21 1a.7.7 0 0 1-.2.38l-7.38 7.42c-.14.14-.27.29-.44.48a2.49 2.49 0 0 0-.2-.27c-.29-.29-.57-.58-.87-.86a.38.38 0 0 0-.6.08c-.12.26-.22.53-.33.79a1 1 0 0 1-.15.25l-1.39 1.37-3.07 3.06a1.79 1.79 0 0 0-.59 1.6 2.49 2.49 0 0 0 1.65 2 1.81 1.81 0 0 0 2-.4c.53-.5 1-1 1.54-1.53l2.71-2.61a1.88 1.88 0 0 1 .8-.56 3.71 3.71 0 0 0 .46-.19.4.4 0 0 0 .14-.69l-.41-.41-.65-.61 3-3 4.91-4.89a.59.59 0 0 1 .28-.15l1-.21a.38.38 0 0 0 .28-.19l1.3-2c.32-.5.64-1 1-1.5L19.13 0zM1.25 17.51a.34.34 0 0 1 0-.46l4.32-4.31a.33.33 0 1 1 .43.46l-4.28 4.31a.33.33 0 0 1-.47 0zm5.92-3.17l-4.32 4.31a.33.33 0 1 1-.46-.46l4.31-4.31a.33.33 0 0 1 .47 0 .34.34 0 0 1 0 .46z" /></svg>