<svg xmlns="http://www.w3.org/2000/svg" viewBox="0 0 100 100"><path fill-rule="evenodd" clip-rule="evenodd" d="M51.318 8.823H14.52C6.5 8.823 0 15.408 0 23.53v61.765C0 93.416 6.5 100 14.52 100h60.985c8.02 0 14.52-6.584 14.52-14.706V48.651l-14.52 14.706v16.055c0 3.248-2.6 5.882-5.808 5.882H20.328c-3.207 0-5.808-2.633-5.808-5.882v-50c0-3.249 2.6-5.883 5.808-5.883h16.47l14.52-14.706z" /><path d="M75.27 12.504c3.726-3.774 9.694-3.848 13.33-.165 3.637 3.682 3.564 9.727-.163 13.5L54.955 59.75c-3.726 3.775-9.694 3.849-13.33.166-3.637-3.683-3.564-9.727.163-13.501l33.481-33.91z" /><path d="M97.084 0h-36.55c-2.587 0-3.883 3.168-2.053 5.02l36.55 37.018c1.829 1.853 4.957.54 4.957-2.08V2.941c0-1.624-1.3-2.941-2.904-2.941z" /></svg>