<svg width="15" height="15" viewBox="0 0 15 15" fill="none" xmlns="http://www.w3.org/2000/svg"><path d="M7.90662 10.0456L11.7412 13.8639C12.4442 14.564 13.5946 14.564 14.2976 13.8639C15.0006 13.1639 15.0006 12.0184 14.2976 11.3184L10.463 7.49999L14.2976 3.68161C15.0006 2.98158 15.0006 1.83606 14.2976 1.13603C13.5946 0.43599 12.4442 0.43599 11.7412 1.13603L7.90662 4.9544L4.07202 1.13603C3.36901 0.43599 2.21864 0.43599 1.51563 1.13603C0.812618 1.83606 0.812617 2.98158 1.51563 3.68161L5.35022 7.49999L1.51563 11.3184C0.812618 12.0184 0.812618 13.1639 1.51563 13.8639C2.21864 14.564 3.36901 14.564 4.07202 13.8639L7.90662 10.0456Z" fill="#414042" /></svg>