<svg xmlns="http://www.w3.org/2000/svg" width="250" height="250" viewBox="0 0 250 250" fill="none"><path d="M89.6101 203.125C86.4811 203.117 83.4799 201.883 81.2507 199.687L34.3757 152.812C32.3151 150.581 31.2011 147.637 31.2685 144.601C31.3359 141.565 32.5795 138.673 34.7371 136.536C36.8948 134.398 39.7979 133.182 42.8348 133.143C45.8716 133.105 48.8049 134.246 51.0164 136.328L89.3757 174.844L198.751 65.9374C200.957 63.7411 203.946 62.5113 207.06 62.5186C210.173 62.526 213.156 63.7698 215.352 65.9765C217.549 68.1832 218.778 71.1719 218.771 74.2853C218.764 77.3987 217.52 80.3817 215.313 82.578L98.1257 199.766C96.9992 200.861 95.6664 201.722 94.2046 202.299C92.7429 202.875 91.1812 203.156 89.6101 203.125Z" fill="#90C95A" /></svg>